<svg xmlns="http://www.w3.org/2000/svg" width="47.353" height="36.07" viewBox="0 0 47.353 36.07">
  <g id="pig" transform="translate(0)">
    <path id="Контур_1388" data-name="Контур 1388" d="M44.579,11.1a2.774,2.774,0,0,1-1.233,2.307,2.851,2.851,0,0,1-2.158.371,15.391,15.391,0,0,0-14.736-11s-8.966.009-9.283.03A5.612,5.612,0,0,0,12.3,0H5.046L7.6,7a15.478,15.478,0,0,0-3.053,4.1H0V21.667l3.981,1.944a15.194,15.194,0,0,0,4.436,6.13V36.07h7.937l.94-2.82a8.173,8.173,0,0,0,.835.046h8.324a8.173,8.173,0,0,0,.835-.046l.94,2.82h7.936V29.742A15.189,15.189,0,0,0,41.8,18.035c0-.47-.029-.934-.071-1.394.026,0,.053.008.079.008A5.551,5.551,0,0,0,47.353,11.1V8.324H44.579ZM13.966,13.873H11.191V11.1h2.775Zm8.324,16.562V22.2H14.168l10.9-16.562v8.239h8.122Zm0,0" transform="translate(0 0)" fill="#fff"/>
    <path id="Контур_1389" data-name="Контур 1389" d="M211.793,161.09l-2.977,4.524h5.751v1.749l2.977-4.524h-5.751Zm0,0" transform="translate(-189.504 -146.191)" fill="#fff"/>
  </g>
</svg>
