<svg xmlns="http://www.w3.org/2000/svg" width="73.023" height="26.43" viewBox="0 0 73.023 26.43">
  <g id="g12" transform="translate(0)">
    <path id="path14" d="M51.618-26.958v5.986H47.4V-35.28h7.49a2.547,2.547,0,0,1,2.458,2.64v2.986a1.424,1.424,0,0,1-1.121,1.369c1.164.207,1.207.954,1.207,1.742v5.516H53.163V-26c0-.871-.431-1-1.121-1Zm0-5.861V-29.4a2.46,2.46,0,0,0,.64,0c.431-.041.906-.746.862-1.742s-.259-1.673-.69-1.673h-.812" transform="translate(-27.227 47.291)" fill="#5a5758" fill-rule="evenodd"/>
    <path id="path16" d="M99.7-35.28v5.917h-1.56V-35.28H93.917v14.308h4.219v-5.986H99.7v5.986h4.219V-35.28H99.7" transform="translate(-53.915 47.291)" fill="#5a5758" fill-rule="evenodd"/>
    <path id="path18" d="M122.733-35.28h8.194v14.308h-4.219v-5.986h-1.56v5.986h-4.219V-32.805C120.928-33.552,121.147-35.28,122.733-35.28Zm2.415,3.636v2.281h1.56v-3.359s-1.56-.456-1.56,1.078" transform="translate(-69.411 47.291)" fill="#5a5758" fill-rule="evenodd"/>
    <path id="path20" d="M81.362-23.391H78.595v-3.567h2.767v-2.405H78.595v-3.511h2.767V-35.28H74.375v14.308h4.219v-.014h2.767v-2.405" transform="translate(-42.704 47.291)" fill="#5a5758" fill-rule="evenodd"/>
    <path id="path22" d="M147.939-24.179v-11.1h4.22v10.893s-.087,1.161.776,1.161.776-1.161.776-1.161V-35.28h4.219v11.1c0,3.11-1.459,3.318-5,3.318S147.939-21.152,147.939-24.179Zm6.669-9.354a1.171,1.171,0,0,0,1.2,1.154,1.167,1.167,0,0,0,1.2-1.154,1.165,1.165,0,0,0-1.2-1.141A1.168,1.168,0,0,0,154.609-33.534Zm.217,0a.963.963,0,0,1,.986-.972.961.961,0,0,1,.979.972.964.964,0,0,1-.979.985A.966.966,0,0,1,154.826-33.534Zm.52.675h.216v-.577h.23l.38.577h.233l-.4-.592c.207-.021.367-.123.367-.365,0-.258-.156-.384-.488-.384h-.539Zm.216-1.172h.288c.146,0,.306.028.306.206,0,.212-.175.221-.367.221h-.227v-.427" transform="translate(-84.907 47.291)" fill="#5a5758" fill-rule="evenodd"/>
    <path id="path24" d="M8.916-36.757c5.059,4.336,11.8.713,11.731-4.353A18.277,18.277,0,0,1,8.916-36.757" transform="translate(-5.15 50.731)" fill="#ec008c" fill-rule="evenodd"/>
    <path id="path26" d="M5.362-60.936c-6.476,1.921-6.736,9.342-2.193,11.906A16.625,16.625,0,0,1,5.362-60.936" transform="translate(-0.082 62.43)" fill="#99d420" fill-rule="evenodd"/>
    <path id="path28" d="M24.7-56.163a6.779,6.779,0,0,0-9.784-7.6,17.748,17.748,0,0,1,9.784,7.6" transform="translate(-8.59 64.58)" fill="#bdbcbc" fill-rule="evenodd"/>
  </g>
</svg>
