<svg id="surface1" xmlns="http://www.w3.org/2000/svg" width="29.596" height="34.756" viewBox="0 0 29.596 34.756">
  <path id="Контур_572" data-name="Контур 572" d="M127.063,158.457a6.622,6.622,0,1,0,6.622,6.622A6.63,6.63,0,0,0,127.063,158.457Zm3.932,5.375-4.744,4.744a1.019,1.019,0,0,1-1.442,0L123,166.763a1.02,1.02,0,0,1,1.442-1.442l1.092,1.092,4.023-4.023a1.02,1.02,0,0,1,1.442,1.442Zm0,0" transform="translate(-112.265 -147.701)" fill="#fff"/>
  <path id="Контур_573" data-name="Контур 573" d="M29.561,9.429V9.4c-.015-.334-.025-.687-.031-1.08a3.684,3.684,0,0,0-3.468-3.609,14.293,14.293,0,0,1-9.728-4.1L16.31.591a2.224,2.224,0,0,0-3.023,0l-.023.021a14.3,14.3,0,0,1-9.728,4.1A3.683,3.683,0,0,0,.068,8.322c-.006.39-.016.744-.031,1.08l0,.063c-.078,4.075-.174,9.146,1.522,13.749a17.5,17.5,0,0,0,4.2,6.54,21.964,21.964,0,0,0,8.217,4.86,2.545,2.545,0,0,0,.337.092,2.487,2.487,0,0,0,.978,0,2.553,2.553,0,0,0,.338-.092,21.979,21.979,0,0,0,8.208-4.863,17.527,17.527,0,0,0,4.2-6.542C29.735,18.592,29.639,13.512,29.561,9.429ZM14.8,26.039a8.662,8.662,0,1,1,8.661-8.662A8.671,8.671,0,0,1,14.8,26.039Zm0,0" transform="translate(0 0.001)" fill="#fff"/>
</svg>
