<svg xmlns="http://www.w3.org/2000/svg" viewBox="0 0 2266.83 887.39"><defs><style>.cls-1{fill:#ee3326;}</style></defs><title>sМонтажная область 7</title><g id="Слой_6" data-name="Слой 6"><path class="cls-1" d="M2266.83,887.39H-.17c.05-.82.15-1.65.15-2.48Q0,446.69,0,8.45V0H2266.68V4q0,432.74,0,865.46C2266.69,875.41,2266.78,881.4,2266.83,887.39ZM535.13,508.66c-.77-2.61-1.11-4.07-1.62-5.48q-6.35-17.6-12.76-35.17-39.48-108.06-79-216.08c-6.93-18.89-13.43-38.05-22-56.22-14.63-31.07-50.57-41.78-79.33-24.79-12,7.11-19.48,18.24-24.4,30.79-9.41,24-18.18,48.25-27,72.46q-41.73,114.15-83.32,228.34c-2.67,7.32-1.7,9.23,5.59,12q25.13,9.72,50.24,19.5c7.74,3,9.6,2.21,12.36-5.37,7.29-20,14.67-40,21.8-60,1.13-3.18,2.57-4.29,6-4.28q67.49.18,135,0c4,0,5.79,1.18,7.13,5,7.12,20.41,14.54,40.71,21.93,61,1.9,5.21,4.46,6.34,9.67,4.34,18.33-7,36.67-14,54.9-21.32C532.34,512.6,533.74,510.07,535.13,508.66ZM369.65,643.32H200.72c-7.82,0-9.29,1.4-9.31,9.33q-.06,28,0,56c0,8.49,1.23,9.65,10,9.65l336.85,0c7.64,0,9.51-1.8,9.52-9.32q0-27.75,0-55.48c0-8.65-1.48-10.13-10.16-10.13Zm846.27-250.18c-7.65-.66-14.86-1.74-22.07-1.82-24.71-.29-42.22,12.61-48.63,36.3a109.32,109.32,0,0,0,.5,60.15c6.67,22.8,22.55,34.54,46.24,33.85,7.85-.22,15.64-2.19,24.11-3.46v42.06h33.72V516.75c2.21.78,3.58,1.31,5,1.76,29.37,9.41,54.72-.36,64.85-31.11,6.63-20.11,6.45-40.73.74-61C1314.89,407,1302.11,395,1281.81,392c-10.58-1.56-21.17-1.59-32.11,2.52V385c0-12.83-.1-25.66.11-38.49.07-3.95-1.27-5.27-5.17-5.15-7.66.24-15.34.35-23,0-4.75-.21-6,1.59-5.8,6.06.32,7.15.08,14.33.07,21.49Zm454.75-20.78c.35-8.12.86-15.89.83-23.66,0-1.15-2.39-3-3.91-3.32a225.28,225.28,0,0,0-95.11,1.72c-2.87.68-3.76,1.92-3.76,4.72q.09,78.74,0,157.46c0,3,1.07,4.42,3.87,5.35,22.14,7.34,44.76,10.61,67.89,6.73,22.44-3.75,38.22-15.84,43.87-38.76a70.11,70.11,0,0,0-.31-35.09c-3.63-13.76-12.08-23.56-25-29.33-11.2-5-23.08-6.23-35.19-5.31-6.4.49-12.76,1.49-19.83,2.35,0-13.68-.11-27,.19-40.3,0-1.14,2.74-3.15,4.24-3.18q21.94-.53,43.9-.42C1658.28,371.34,1664.22,372,1670.67,372.36ZM878.73,519.71c-1-3.22-1.54-5.45-2.26-7.64q-9.3-28.46-18.63-56.88Q840.47,402.09,823,349c-.68-2-2.6-4.59-4.46-5.12-10.87-3.13-21.9-3.84-33-.71a7.91,7.91,0,0,0-6,5.65q-24.75,71.94-49.79,143.76c-3,8.75-6.05,17.52-9.37,27.15,12.21,0,23.64.11,35.07-.16,1.11,0,2.67-2.22,3.16-3.69,2.93-8.83,5.74-17.7,8.31-26.65.84-2.94,2.23-3.8,5.21-3.78,17.66.13,35.32.19,53-.05,3.92-.05,5.6,1.25,6.58,4.88,2.35,8.66,4.92,17.27,7.65,25.82.45,1.4,2.1,3.4,3.24,3.43C854.32,519.81,866.11,519.71,878.73,519.71ZM1895.47,441h-36.61v-6.78c0-11.84.1-23.67-.1-35.5,0-1.47-1.57-4.15-2.47-4.18-10.1-.3-20.22-.19-30.42-.19V519.78c10.32,0,20.13,0,30,0,3.38,0,3.08-2.27,3.08-4.44q0-14,0-28V468.83c10.71,0,20.84.21,30.95-.1,4.4-.13,5.78,1.15,5.69,5.6-.28,13.49,0,27-.23,40.49-.06,4,1.27,5.18,5.17,5,7.65-.27,15.34-.37,23,0,4.58.23,5.54-1.4,5.52-5.68-.15-38.16-.08-76.32-.08-114.49,0-1,.27-2.14-.13-3s-1.53-2.36-2.36-2.38c-10.11-.16-20.23-.1-30.92-.1Zm-130.57,1.32c-10.85,0-20.94-1.17-30.67.22-29.41,4.18-39.69,26.94-35.09,50.89,3.18,16.61,17.88,28.11,36,29.06,14.13.73,27.49-1.75,39.15-10,3.48,2.9,6.55,5.7,9.89,8.11,1.14.81,3.46,1.41,4.42.8,6.84-4.32,13.46-9,20.09-13.48-11.4-20.55-10.77-23.08-10.78-48.38,0-10.49.14-21-.12-31.47-.53-21.83-9.88-33.38-31.52-35.76-12.92-1.42-26.19,0-39.28.72-5.66.3-11.25,1.95-17.21,3,1.8,8.84,3.4,16.71,5,24.75,3.11-.31,5.41-.69,7.72-.75,10.44-.25,20.9-.79,31.32-.46,6.33.2,9.24,3.33,10.22,9.61C1764.81,433.56,1764.68,438.07,1764.9,442.27Zm-361.68.64c-3.08-.49-5.19-.92-7.31-1.15-13.45-1.46-26.63-.63-39,5.48-14.49,7.15-21.81,21.82-20.33,40.62,1.23,15.7,9.35,26.41,24.08,31.8,13.07,4.77,26.24,3.7,39.15-.76,4.63-1.6,9-4.13,13.13-6.1,3.39,2.8,6.47,5.61,9.85,8,1.11.78,3.45,1.13,4.46.48,6.66-4.31,13.11-9,20.09-13.79-9.29-12.26-11.57-26-11.41-40.43.16-13.83.26-27.66-.11-41.48-.53-19.22-10.85-30.81-29.79-33.35-18.34-2.47-36.54-.79-54.57,3.07-2.44.52-3.4,1.51-2.79,4.1,1.09,4.69,2,9.42,2.89,14.16,1.43,7.65,1.36,7.13,9.24,6.61,10.57-.7,21.21-.71,31.81-.52,4.64.08,8.5,2.66,9.31,7.59S1402.8,437.33,1403.22,442.91Zm-435.46,76.9c10.14,0,19.45-.17,28.75.08,3.74.09,4.8-1.08,4.79-4.81q-.18-55.73,0-111.45c0-4-1.62-5.38-5.08-6.33a166,166,0,0,0-90.19.06c-3.95,1.1-5.19,2.72-5.16,6.82q.2,37-.2,74a30.27,30.27,0,0,1-10,22.63,5.15,5.15,0,0,0-1.14,4.52,148.37,148.37,0,0,0,6.67,14.5c.5,1,2.4,2.1,3.3,1.85,14.43-4,26.85-10.79,31.15-26.38a94.88,94.88,0,0,0,3.18-22.12c.48-15.65.17-31.32.2-47,0-1.44.2-2.88.35-5h33.39v98.6ZM2057.58,415.53c.28-3.65.56-6.95.79-10.26,1.07-16,2.76-12.56-11.75-13.06-12.69-.44-21.65,5.1-27.06,16.6-3.82,8.13-7.84,16.17-11.79,24.24-3.79,7.74-8.35,9.73-17.57,7.28V394.65H1957V519.34h33.3v-8.46c0-12.49.09-25-.09-37.47,0-3.73,1.27-5,5-4.89,6.44.14,10.64,3.28,13.18,8.94,5.43,12.14,11,24.23,16.09,36.52,1.77,4.26,3.76,6.22,8.66,5.94,8.14-.47,16.32-.1,24.48-.13,1.71,0,3.43-.23,5.84-.4-3.43-7.37-6.08-14.2-9.64-20.52-8.94-15.87-12-35.54-28.62-45.06,3.72-4.09,8-7.86,11-12.41s5.09-10.07,7.64-15.11C2046.69,420.61,2050.05,415.48,2057.58,415.53Zm-997.46,17.73V393.55h-32.93a8.29,8.29,0,0,0-.44,1.72q0,57.45-.13,114.89c0,3.15,1.84,3.84,4.1,4.68a124.57,124.57,0,0,0,48.47,7.73c25.29-.87,47.42-12.81,49.31-44.07,1.23-20.37-6.2-37.87-26.93-44.32-8.06-2.51-17-2.56-25.55-2.92C1071,431.06,1065.94,432.47,1060.12,433.26Zm485.09,255,1.51-.32c3,7,6,14,9.09,20.93.63,1.4,1.81,3.56,2.84,3.62,6,.35,12,.17,18.07.17a7.42,7.42,0,0,0-.14-1.85c-3.45-6.64-6.85-13.31-10.41-19.89-6.29-11.63-6.28-11.58-.13-23.2,3.28-6.21,6.36-12.52,9.89-19.49-5.12,0-9.13.32-13.07-.09-4.35-.44-6.58,1.13-8.13,5.22-2.37,6.23-5.41,12.21-8.17,18.3l-1.38-.32V648.64H1527.9V671.7c-4-6.4-6.84-13.05-10-19.59-.71-1.48-2.15-3.58-3.38-3.68-5.38-.4-10.81-.17-17.19-.17,4.94,9.57,9.3,18.3,13.95,26.88,1.61,3,1.66,5.43-.08,8.34-2.56,4.28-4.78,8.76-7.08,13.19-2.64,5.07-5.21,10.17-8.26,16.16,5.83,0,10.49-.26,15.1.08,3.82.27,5.65-1.26,7-4.69,2.7-6.88,5.82-13.6,8.76-20.39a44.74,44.74,0,0,1,1.18,12.42c0,12.84,0,12.73,13,12.61,3.26,0,4.39-1,4.29-4.26C1545.06,701.84,1545.21,695.06,1545.21,688.28Zm-127.62,24.53v-64.6c-5,0-9.7-.26-14.31.14a6.84,6.84,0,0,0-4.37,3.07c-3,4.91-5.63,10.06-8.87,16-3.07-5.75-5.6-10.74-8.42-15.58-.82-1.41-2.36-3.26-3.7-3.37-4.9-.4-9.85-.16-14.76-.16v64.11h16.12V682c5,3.27,3.57,10.93,11.28,10.49,7.17-.4,5.6-7.87,10.21-10.63,0,9.22.07,18,0,26.84,0,2.91.82,4.32,4,4.2C1408.81,712.69,1413,712.81,1417.59,712.81Zm347.49-33.91c9-16.06.89-30.17-17.22-30.61-7.66-.19-15.33,0-23-.1-2.62,0-4,.63-3.95,3.62q.13,28.49,0,57c0,2.86.79,4.18,4,4.09,8-.22,16,0,24-.13,8.57-.11,15.86-3,19.76-11.1S1771.5,685.8,1765.08,678.9Zm-628.3-30.32c0,20.7,0,40.84.14,61,0,1.08,2,3.05,3.18,3.07,9.32.18,18.67.41,28-.19,10.41-.67,17.14-7.5,18.42-17.8a18.26,18.26,0,0,0-5.66-15.72c8.21-14.48,2.65-28.09-13-30.1C1157.86,647.54,1147.61,648.58,1136.78,648.58Zm901.05,64.22c3.63,0,6.82-.37,9.88.09,5.1.76,7.35-1.53,9.05-6.06,2.65-7.07,6-13.88,9.06-20.8l1.08.22v26.23h16.58V648.21c-3.74,0-7.1.38-10.35-.09-4.73-.67-6.81,1.51-8.4,5.59-2.69,6.89-5.86,13.6-8.82,20.38l-1.24-.23V648.69h-16.84ZM1204,648.43c0,20.89,0,41.17.13,61.45,0,1,1.85,2.66,3,2.8,12.56,1.61,13,1.25,18.14-10.34,2.32-5.3,4.72-10.56,7.08-15.84l1.38.32v25.55h16.2V648.21c-3.19,0-6,.34-8.77-.07-5.54-.82-8.39,1.33-10.25,6.63-2.44,6.91-5.84,13.49-8.82,20.21l-1.27-.3V648.43Zm480.3,38,.94.19c.08,1.76.22,3.52.23,5.28,0,5.84-.11,11.67.15,17.49,0,1.18,1.5,3.2,2.43,3.26,4.56.34,9.16.16,13.92.16V648.87c-14.38-2.62-15.48-2.06-20.94,10.4-1.14,2.6-2.24,5.2-3.41,7.78s-2.48,5.34-3.72,8l-1.22-.36V648.66h-16.69V655q0,24,0,48c0,11.58-1.11,9.22,9.82,9.91,5.51.34,8-1.78,9.79-6.67C1678.06,699.49,1681.32,693,1684.25,686.4Zm-660.89,1.29c1.75-.16,2.73-.3,3.71-.33,7.33-.26,7.33-.25,7.33,7.15v18h17.09V648.59h-17.08v22.22c-1.68.23-2.63.44-3.6.49-7.52.34-7.52.33-7.52-7V648.64H1006V712.4h17.32ZM716,712.42a19.86,19.86,0,0,0,2.67.36c8.49,0,17,.27,25.47-.26a19.78,19.78,0,0,0,18.53-20.41c-.22-11-8-19.19-19-20-3.43-.26-6.87-.33-10.34-.49V663.8c4.3,0,8.26.06,12.22,0,13.33-.25,11,2.64,11.39-11.66.08-3.15-1.2-4-4.12-3.94-7.33.13-14.66,0-22,0H716Zm147.7-41.37V648.64H847v63.71h16.91c0-7.25-.12-14.05.1-20.84,0-1.41,1.15-3.71,2.22-4,6.61-1.84,8.75-.09,8.76,6.59,0,2.16,0,4.33,0,6.49,0,12.43,0,12.26,12.35,12.34,4.1,0,5-1.41,5-5.19-.15-18.15,0-36.3-.07-54.45,0-1.59-.23-3.17-.38-5.07h-6c-10.88,0-10.88,0-10.88,10.64v12.2Zm756-6.88v48.21h16.6a8.62,8.62,0,0,0,.49-1.81c0-19.64,0-39.28.13-58.92,0-3.14-1.61-3.47-4.07-3.45-7.82.06-15.64,0-23.47,0h-15.68c0,3.59,0,6.39,0,9.19-.16,10.31-.31,20.61-.55,30.92-.12,5.34-2,9.42-8.19,9.71v14.06c12.78,2.68,22-3.2,24-15.38a102,102,0,0,0,1-13.89c.16-6.1,0-12.21,0-18.65Zm-707,48.66c4.36,0,8.2-.24,12,.07s5.35-.95,5.17-5c-.3-6.35-.08-12.73-.08-19.09,4.81,6.66,8.4,13.55,12.1,20.37.68,1.26,1.75,3.2,2.71,3.25,6.34.29,12.7.15,20.17.15-6-9.49-10.88-18.2-16.74-26.21-3.89-5.33-3.78-9.11.29-14.29,5.68-7.23,10.38-15.25,16.13-23.88-5.8,0-10.42.27-15-.08-4.34-.33-7,.92-8.91,5.13-2.85,6.18-6.53,12-9.85,18-.93-6.56-.78-12.72-1-18.87-.05-1.37-1.41-3.78-2.32-3.86-4.74-.39-9.54-.18-14.62-.18Zm207.19-32.54c-1.36-6.13-2.09-12.48-4.25-18.32-3-8.13-9-13.57-18-14.6-8.71-1-15.68,2.3-20.66,9.5-8.46,12.23-8.21,35.75.42,48a21.53,21.53,0,0,0,35,.23C1117.7,697.76,1119,689.31,1119.86,680.29Zm716.94-.49c-2-6.68-3.36-14.28-6.46-21.1-3.57-7.87-10.58-11.68-19.47-11.45-8.67.22-15.06,4.33-18.79,11.94-6.54,13.31-6.45,27.14-1,40.68,3.55,8.88,10.4,14,20.51,14s16.85-5.2,20.32-14.15C1834.16,693.73,1835,687.21,1836.8,679.8Zm-401.32-.29c1.23,6.57,1.79,12.24,3.4,17.59,3.11,10.33,10.67,16.28,20.09,16.67,10.55.43,18.3-4.48,22.29-15,4.85-12.81,4.72-25.78-.94-38.37-3.91-8.71-10.81-13.34-20.54-13.14-9.33.2-16,5-19.38,13.31C1437.9,666.76,1437,673.59,1435.48,679.51ZM829.55,712.82a8,8,0,0,0,.22-2c-4.72-19.89-9.4-39.79-14.34-59.62-.31-1.25-2.66-2.74-4.14-2.83-5.31-.34-10.66,0-16-.19-3-.12-4,1.17-4.63,3.85-3.51,15.06-7.18,30.07-10.76,45.11-1.18,5-2.26,9.91-3.5,15.36,5.81,0,11.22,1,15.87-.46,2-.61,2.33-6.34,3.44-9.74a16,16,0,0,1,.68-1.47c.78-.08,1.59-.22,2.41-.25,10.2-.33,10.12-.3,13.14,9.28a4.78,4.78,0,0,0,3.26,2.84C820,713,824.78,712.82,829.55,712.82Zm1185.88-64.2h-41.36v63.77h42.51V697.17h-25.21v-9.72h10.28c12.17,0,12.1,0,11-12.05-.23-2.57-1.22-3.51-3.7-3.45-3.83.1-7.66,0-11.48,0-7,0-7.19-.26-5.87-8.18h12.23c13.91,0,14.24-.4,12.06-14.54C2015.89,649.12,2015.72,649,2015.43,648.62Zm-694.92-.4c-5,0-9,.26-12.9-.07s-6.18.9-7.7,4.56c-1.43,3.44-3.5,6.61-5.7,10.64-2.6-4.58-4.6-8.37-6.88-12-.79-1.25-2.21-2.89-3.43-3-5.55-.31-11.12-.14-17.55-.14,1.38,2.61,2.24,4.35,3.2,6,4.18,7.38,8.29,14.8,12.65,22.08,1.57,2.62,1.52,4.67-.06,7.28-4.66,7.68-9.07,15.51-13.55,23.3-.93,1.63-1.72,3.34-3,5.85,5.56,0,10.05.32,14.46-.16a8.24,8.24,0,0,0,5.25-3.28c2.62-3.86,4.64-8.13,7.27-12.88,2.69,4.89,4.83,9,7.22,13,.78,1.29,2.17,3.06,3.37,3.13,5.73.33,11.5.15,17.86.15-.79-1.75-1.16-2.81-1.72-3.76-4.65-8.07-9.11-16.26-14.1-24.12-2.31-3.63-2.48-6.59,0-9.94a36.3,36.3,0,0,0,2.29-3.86C1311.66,663.77,1315.82,656.46,1320.51,648.22ZM1896.89,691c-5.52,0-10.48-.13-15.42.11-.9,0-1.77,1.52-2.58,2.41-1.41,1.53-2.76,3.11-4.13,4.68-1.47-1.8-3.92-3.45-4.22-5.42a94.29,94.29,0,0,1-.76-15.41,40.18,40.18,0,0,1,1.22-10.33,6,6,0,0,1,4.07-3.4c1-.18,2.43,2,3.63,3.14.84.83,1.57,2.45,2.41,2.49,4.9.24,9.81.11,14.63.11.62-11.46-4.1-18.93-12.84-21.28-11.81-3.17-22.89.56-27,10.18a55.69,55.69,0,0,0,0,44.66c4.88,11.55,25.26,15,34.53,6.48C1895.48,704.78,1896,698.37,1896.89,691Zm26.95-27.18v48.5h17.06V663.85a107.49,107.49,0,0,0,11.31-.14c1.26-.14,3.42-2,3.31-2.88-.51-4.16,2.32-8.86-1.73-12.46-.29-.26-1-.12-1.47-.12-13.48,0-27,0-40.44.1-1,0-2.87,1.4-2.93,2.24-.31,4.24-.14,8.51-.14,13.24Zm-400-206.71a21.67,21.67,0,0,0-21.64-21.58c-11.28,0-21,9.7-21.17,21.07a21.41,21.41,0,1,0,42.81.51Zm554,172.25a7,7,0,0,0-1.71-.39c-4.24.38-9-1.72-11.77,4.18-1.23,2.64-7.22,1.86-8.47-1-2.34-5.43-6.77-2.46-10.28-3a3.89,3.89,0,0,0-2.51,1.55c1,3,1.93,6.24,3.66,8.88a8,8,0,0,0,5.32,3.32c5.86.37,11.91.83,17.59-.26C2075.58,641.44,2078.36,636,2077.81,629.37Z"/><path class="cls-1" d="M418.27,398H320.78L369,253.46h1C386,301.46,402,349.46,418.27,398Z"/><path class="cls-1" d="M1215.92,456.94c0,10.15-.1,20.29.06,30.43,0,2.85-.89,4.27-3.64,4.85-14.23,3-24.67,1.81-30.09-7.67-3-5.16-4.61-11.37-5.54-17.32-1.77-11.43-1.25-22.91,2.83-33.93,5-13.42,22.33-19.2,34.44-11.35,1.23.8,1.85,3.32,1.88,5.06.18,10,.09,19.95.09,29.93Z"/><path class="cls-1" d="M1249.71,456.94c0-10,.14-20-.09-29.95-.08-3.49,1.24-5.66,4.43-6,6.21-.68,12.59-1.74,18.71-1,7,.83,11.37,6.24,13.49,12.7,5,15.28,5.53,30.82-.41,45.91-6.38,16.2-18.76,17.14-33.91,13-1-.29-1.5-2.76-2.21-4.22a1.38,1.38,0,0,1,0-.5Z"/><path class="cls-1" d="M1604.23,467.47c0-7-.14-14,.11-21,.05-1.36,1.55-3.8,2.45-3.83,8.75-.3,17.61-1,26.25,0,9.29,1.12,15.23,7.36,16.67,16.76a49.88,49.88,0,0,1,.15,15.28c-2,12-9,18.74-21,19.83-6.53.6-13.22-.38-19.84-.77-3.59-.21-5.08-2-4.9-5.86C1604.46,481.12,1604.22,474.29,1604.23,467.47Z"/><path class="cls-1" d="M777.85,455c7.38-25.14,14.62-49.79,22.19-75.56L820.91,455Z"/><path class="cls-1" d="M1753.5,462.4c11.22.88,11.14.88,11.31,11.82.08,5,.38,10,.9,14.93.31,2.89-.57,4.65-3.42,4.88-6.43.51-12.92,1.37-19.32,1s-10.22-5-11.45-11.95c-1.36-7.65.83-14.13,6.78-16.68C1743.06,464.37,1748.41,463.69,1753.5,462.4Z"/><path class="cls-1" d="M1403,493.12c-6.85,2.91-14.68,3-22.45,1.88-6.87-1-10.25-5.73-11-14-.73-7.52,2.2-13.88,8.91-15.42,7-1.61,14.42-1.54,21.67-1.75.93,0,2.74,2.64,2.79,4.1C1403.13,476.05,1403,484.2,1403,493.12Z"/><path class="cls-1" d="M1072.77,496.5c-12.39,0-12.55-.18-12.55-12.26,0-7-.16-14,.13-21,.06-1.52,1.61-4.19,2.63-4.26,6.55-.48,13.22-1,19.68-.26,5.42.66,9.35,4.69,10.17,10.32a46.1,46.1,0,0,1,.31,14.3C1091.52,492.82,1085.22,496.53,1072.77,496.5Z"/><path class="cls-1" d="M1738.3,686c5.72,1.4,11.09-1.86,13.92,3.6.78,1.51-.19,5.73-1.15,6-3.61,1.07-7.82,1.93-11.24.94C1738.57,696.15,1738.87,690.42,1738.3,686Z"/><path class="cls-1" d="M1739,672.76v-9.89c4.07.94,7.77,1.6,11.29,2.8.52.18.57,4.13.15,4.28C1747,671.1,1743.4,671.76,1739,672.76Z"/><path class="cls-1" d="M1160,697.94c-1.84-.72-4.92-1.08-5.26-2.24-.74-2.56-.88-7.54.14-7.93a18.81,18.81,0,0,1,10.39-.65c1.47.32,3.25,3.83,3.13,5.79-.23,3.55-3.32,4.58-6.67,4.41-.49,0-1,0-1.49,0Z"/><path class="cls-1" d="M1155.52,662.58c3.69,1.19,7.42,2.28,11,3.74.25.1-.31,4.07-.94,4.21-3.29.74-6.83,1.36-10,.77-.93-.17-1.11-4.48-1.64-6.88Z"/><path class="cls-1" d="M733.19,698.43V686.64c3.94,1.12,7.41,1.81,10.54,3.24.71.32.84,4.43.22,4.74C740.83,696.17,737.36,697,733.19,698.43Z"/><path class="cls-1" d="M1101.7,680.81c-.6,3.92-.81,8.32-2.08,12.39a7.78,7.78,0,0,1-4.94,4.62c-1.19.25-4.29-2.73-4.39-4.39a223,223,0,0,1-.1-25.2c.1-1.71,3-3.26,4.69-4.89,1.71,1.74,4.29,3.2,5,5.28C1101.05,672.35,1101.11,676.45,1101.7,680.81Z"/><path class="cls-1" d="M1818.27,681.07c-.71,4.13-1.06,8.47-2.34,12.52a7.18,7.18,0,0,1-4.68,4.23c-1.23.21-3.78-2.23-4.3-3.93a43.2,43.2,0,0,1-.06-26.47c.53-1.65,3-3.9,4.37-3.74a6.88,6.88,0,0,1,4.85,3.92C1817.34,671.85,1817.58,676.39,1818.27,681.07Z"/><path class="cls-1" d="M1467.11,680.28c-.58,4.39-.7,8.62-1.85,12.55-.6,2-3,3.54-4.63,5.29-1.69-1.6-4.29-2.91-4.91-4.85a44.07,44.07,0,0,1-.1-25.56c.49-1.74,3.1-4,4.75-4s4.17,2.26,4.68,4C1466.27,671.81,1466.5,676.18,1467.11,680.28Z"/><path class="cls-1" d="M806.75,686.9H799c1.16-5.13,2.24-9.87,3.31-14.61l1.06,0C804.44,677,805.53,681.66,806.75,686.9Z"/><rect class="cls-1" x="683.32" y="604.42" width="1437.14" height="147.9" rx="12" ry="12"/></g></svg>