<svg id="Слой_1" data-name="Слой 1" xmlns="http://www.w3.org/2000/svg" xmlns:xlink="http://www.w3.org/1999/xlink" viewBox="0 0 80.09 49.9"><defs><style>.cls-1{fill:#fff;stroke-miterlimit:10;}.cls-1,.cls-6{stroke:#b3b4b4;}.cls-2{fill:url(#Безымянный_градиент_19);}.cls-3{fill:#b3b4b4;}.cls-4{fill:url(#Безымянный_градиент_19-2);}.cls-5{fill:url(#Безымянный_градиент_19-3);}.cls-6{fill:none;stroke-linecap:round;stroke-linejoin:bevel;stroke-width:0.75px;}</style><linearGradient id="Безымянный_градиент_19" x1="15.43" y1="43.99" x2="15.43" y2="5.93" gradientUnits="userSpaceOnUse"><stop offset="0" stop-color="#fff"/><stop offset="1" stop-color="#c0e7f9"/></linearGradient><linearGradient id="Безымянный_градиент_19-2" x1="39.97" y1="43.99" x2="39.97" y2="5.93" xlink:href="#Безымянный_градиент_19"/><linearGradient id="Безымянный_градиент_19-3" x1="64.53" y1="43.99" x2="64.53" y2="5.93" xlink:href="#Безымянный_градиент_19"/></defs><title>sОкно с одним открытием</title><rect class="cls-1" x="0.55" y="0.46" width="79" height="49"/><rect class="cls-2" x="6.04" y="5.93" width="18.77" height="38.06"/><path class="cls-3" d="M24.31,6.43V43.49H6.54V6.43H24.31m1-1H5.54V44.49H25.31V5.43Z"/><rect class="cls-4" x="29.99" y="5.93" width="19.95" height="38.06"/><path class="cls-3" d="M49.44,6.43V43.49H30.49V6.43h19m1-1H29.49V44.49h21V5.43Z"/><rect class="cls-5" x="54.99" y="5.93" width="19.07" height="38.06"/><path class="cls-3" d="M73.56,6.43V43.49H55.49V6.43H73.56m1-1H54.49V44.49H74.56V5.43Z"/><line class="cls-6" x1="13.22" y1="22.23" x2="17.64" y2="27.69"/><line class="cls-6" x1="17.64" y1="22.23" x2="13.22" y2="27.69"/><line class="cls-6" x1="62.74" y1="22.23" x2="67.15" y2="27.69"/><line class="cls-6" x1="67.15" y1="22.23" x2="62.74" y2="27.69"/><polyline class="cls-6" points="49.97 5.75 30.2 24.43 49.97 43.81 40.08 5.43 30.2 43.5"/></svg>