<svg id="Group_40" data-name="Group 40" xmlns="http://www.w3.org/2000/svg" width="52.173" height="53.12" viewBox="0 0 52.173 53.12">
  <g id="Group_39" data-name="Group 39" transform="translate(0 0)">
    <path id="Path_81" data-name="Path 81" d="M45.952,140.918l-8.347-5.565a2.634,2.634,0,0,0-3.527.572l-2.43,3.125a.845.845,0,0,1-1.081.229l-.465-.256c-1.522-.829-3.416-1.862-7.24-5.686S18,127.618,17.175,126.1l-.256-.463a.846.846,0,0,1,.228-1.082l3.125-2.43a2.633,2.633,0,0,0,.572-3.527l-5.564-8.347a2.622,2.622,0,0,0-3.537-.8l-3.485,2.1a5.116,5.116,0,0,0-2.335,3.03c-1.27,4.63-.326,12.607,11.383,24.318,9.3,9.3,16.251,11.809,21.036,11.808a12.392,12.392,0,0,0,3.28-.427,5.121,5.121,0,0,0,3.03-2.335l2.093-3.49A2.619,2.619,0,0,0,45.952,140.918Zm-.722,2.623-2.094,3.489a3.36,3.36,0,0,1-1.982,1.539c-4.175,1.15-11.49.177-22.6-10.926s-12.073-18.42-10.927-22.6a3.361,3.361,0,0,1,1.539-1.982l3.492-2.094a.855.855,0,0,1,1.15.259l5.564,8.346a.859.859,0,0,1-.187,1.15l-3.125,2.43a2.6,2.6,0,0,0-.687,3.337l.247.451c.884,1.621,1.985,3.639,5.99,7.645s6.022,5.1,7.643,5.988l.452.249a2.6,2.6,0,0,0,3.338-.688l2.43-3.123a.858.858,0,0,1,1.15-.187l8.347,5.565A.854.854,0,0,1,45.23,143.541Z" transform="translate(-5.495 -97.583)" fill="#fff"/>
    <path id="Path_82" data-name="Path 82" d="M227.282,109.112h-2.653a.884.884,0,0,0,0,1.768h2.653a.884.884,0,0,0,0-1.768Z" transform="translate(-200.751 -97.617)" fill="#fff"/>
    <path id="Path_83" data-name="Path 83" d="M227.282,142.686h-2.653a.884.884,0,0,0,0,1.768h2.653a.884.884,0,0,0,0-1.768Z" transform="translate(-200.751 -127.653)" fill="#fff"/>
    <path id="Path_84" data-name="Path 84" d="M210.074,8.029V1.814a1.823,1.823,0,0,0-.913-1.587A1.725,1.725,0,0,0,207.4.259L196.555,7.074H185.314a3.537,3.537,0,0,0-3.537,3.537v7.074a3.537,3.537,0,0,0,3.537,3.537h7.959V30.95h-2.884L188.4,24.5a.884.884,0,1,0-1.69.52l1.984,6.451a1.76,1.76,0,0,0,1.691,1.248h2.884a1.769,1.769,0,0,0,1.769-1.769V21.222h1.514l10.857,6.825a1.718,1.718,0,0,0,1.748.022,1.822,1.822,0,0,0,.913-1.587V20.268a6.182,6.182,0,0,0,0-12.239Zm-12.38,11.82V11.5a.884.884,0,1,0-1.768,0v7.959H185.314a1.769,1.769,0,0,1-1.769-1.769V10.611a1.769,1.769,0,0,1,1.769-1.769h11.5a.621.621,0,0,0,.068-.014.828.828,0,0,0,.177-.034.809.809,0,0,0,.165-.063c.021-.011.044-.011.065-.024l11.021-6.893.009,6.986c0,.016-.009.029-.009.045s.008.029.009.045l.014,10.454a.829.829,0,0,0-.023.11.812.812,0,0,0,.023.113l.009,6.974Zm12.38-1.368V9.815a4.421,4.421,0,0,1,0,8.666Z" transform="translate(-163.205 0)" fill="#fff"/>
  </g>
</svg>
