<svg id="Group_37" data-name="Group 37" xmlns="http://www.w3.org/2000/svg" width="79.808" height="79.809" viewBox="0 0 79.808 79.809">
  <g id="Group_36" data-name="Group 36">
    <path id="Path_74" data-name="Path 74" d="M79.8,73.107a1.317,1.317,0,0,0-.092-.456c-.008-.019-.022-.034-.03-.053a1.309,1.309,0,0,0-.147-.257L70.5,60.729V22.612a4,4,0,0,0-3.99-3.99H57.133c.042-.539.07-1.08.06-1.625A17.505,17.505,0,0,0,40.635.015,17.287,17.287,0,0,0,22.612,17.291c0,.446.035.888.07,1.33H13.3a4,4,0,0,0-3.99,3.99V60.729L.28,72.341a1.308,1.308,0,0,0-.147.257c-.009.019-.022.034-.03.053a1.316,1.316,0,0,0-.092.456c0,.017-.01.032-.01.05v2.66a4,4,0,0,0,3.99,3.99H75.818a4,4,0,0,0,3.99-3.99v-2.66C79.808,73.14,79.8,73.125,79.8,73.107ZM29.774,6.732A14.524,14.524,0,0,1,40.526,2.673,14.809,14.809,0,0,1,54.533,17.041,14.654,14.654,0,0,1,49.687,28.18a13.783,13.783,0,0,0-4.4,9.064H34.521a14.385,14.385,0,0,0-4.544-9.2,14.687,14.687,0,0,1-4.7-10.756A14.509,14.509,0,0,1,29.774,6.732Zm6.14,41.153a1.33,1.33,0,1,1,0-2.66h7.981a1.33,1.33,0,1,1,0,2.66Zm5.321,2.66v1.33a1.33,1.33,0,0,1-2.66,0v-1.33Zm-6.651-7.981a1.33,1.33,0,1,1,0-2.66H45.225a1.33,1.33,0,1,1,0,2.66ZM11.971,22.612a1.332,1.332,0,0,1,1.33-1.33h9.8A17.344,17.344,0,0,0,28.171,30a11.7,11.7,0,0,1,3.737,8.292,3.957,3.957,0,0,0,.549,6.3,3.942,3.942,0,0,0-.534,1.956,4,4,0,0,0,3.99,3.99v1.33a3.99,3.99,0,1,0,7.981,0v-1.33a4,4,0,0,0,3.99-3.99,3.942,3.942,0,0,0-.534-1.956,3.957,3.957,0,0,0,.548-6.305,11.232,11.232,0,0,1,3.567-8.136,17.289,17.289,0,0,0,5.241-8.875h9.8a1.332,1.332,0,0,1,1.33,1.33V59.856H11.971Zm-.679,39.9H68.516l7.242,9.311H4.049Zm65.856,13.3a1.332,1.332,0,0,1-1.33,1.33H3.99a1.332,1.332,0,0,1-1.33-1.33v-1.33H77.148Z" transform="translate(0 0)" fill="#4b1e5f"/>
    <path id="Path_75" data-name="Path 75" d="M154.829,426.667H112.264a1.33,1.33,0,0,0,0,2.66h42.564a1.33,1.33,0,0,0,0-2.66Z" transform="translate(-93.642 -360.16)" fill="#4b1e5f"/>
    <path id="Path_76" data-name="Path 76" d="M70.927,426.667H69.6a1.33,1.33,0,0,0,0,2.66h1.33a1.33,1.33,0,0,0,0-2.66Z" transform="translate(-57.626 -360.16)" fill="#4b1e5f"/>
    <path id="Path_77" data-name="Path 77" d="M420.794,426.667h-1.33a1.33,1.33,0,0,0,0,2.66h1.33a1.33,1.33,0,1,0,0-2.66Z" transform="translate(-352.957 -360.16)" fill="#4b1e5f"/>
    <path id="Path_78" data-name="Path 78" d="M248.8,36.793a9.321,9.321,0,0,1,9.311,9.311,1.33,1.33,0,1,0,2.66,0A11.985,11.985,0,0,0,248.8,34.133a1.33,1.33,0,1,0,0,2.66Z" transform="translate(-208.892 -28.812)" fill="#4b1e5f"/>
  </g>
</svg>
