<svg id="Group_38" data-name="Group 38" xmlns="http://www.w3.org/2000/svg" width="52.636" height="52.636" viewBox="0 0 52.636 52.636">
  <path id="Path_80" data-name="Path 80" d="M50.1,45.789l-4.458-2.471a.953.953,0,0,1-.484-.85V41.426l.034-.045a10.978,10.978,0,0,0,2.155-4.106.864.864,0,0,0,.021-.194l0-7.016a5.12,5.12,0,0,0-1.3-3.62,6.86,6.86,0,0,0-5.276-1.882,7.709,7.709,0,0,0-4.4,1.136,4.905,4.905,0,0,0-1.2-.964l-4.458-2.471a.954.954,0,0,1-.485-.85V20.372l.037-.048a10.967,10.967,0,0,0,2.152-4.1.87.87,0,0,0,.022-.194v-.236h1.755a1.757,1.757,0,0,0,1.755-1.755V9.65A9.661,9.661,0,0,0,26.317,0H25.44a9.661,9.661,0,0,0-9.65,9.65v7.018A2.635,2.635,0,0,0,18.422,19.3h2.305c.291.435.563.788.746,1.025l.037,1.09a.956.956,0,0,1-.5.855L16.558,24.74a5.045,5.045,0,0,0-1.237,1,7.124,7.124,0,0,0-4.044-1.181,6.682,6.682,0,0,0-6.511,4.489A10.153,10.153,0,0,0,4,32.522a24.746,24.746,0,0,1-3,9.364,2,2,0,0,0,.649,2.723,4.062,4.062,0,0,0,2.372.51H6.134L2.522,46.8A4.949,4.949,0,0,0,0,51.131v.627a.877.877,0,0,0,.877.877H22.683a.877.877,0,0,0,.877-.877v-.528a4.92,4.92,0,0,0-2.675-4.412.879.879,0,0,0-.119-.05l-4.917-1.658,2.288,0a6.532,6.532,0,0,0,2.938-.409,1.975,1.975,0,0,0,1.105-1.277,2.017,2.017,0,0,0-.277-1.7,20.479,20.479,0,0,1-3.3-9.744c-.006-.126-.019-.261-.033-.4H34.213v5.5a.863.863,0,0,0,.022.194,10.967,10.967,0,0,0,2.152,4.1l.037,1.09a.956.956,0,0,1-.5.855L31.48,45.789a4.944,4.944,0,0,0-2.531,4.329v.763A1.757,1.757,0,0,0,30.7,52.636H50.881a1.757,1.757,0,0,0,1.755-1.755v-.763A4.943,4.943,0,0,0,50.1,45.789ZM34.213,14.036H32.458V10.527h1.755ZM17.545,10.527H19.3v3.509H17.545Zm.877,7.018a.878.878,0,0,1-.877-.877v-.877H19.3v.236a.869.869,0,0,0,.022.194,7.647,7.647,0,0,0,.437,1.324H18.422ZM20.6,5.392A5.085,5.085,0,0,0,19.3,8.773H17.6A7.9,7.9,0,0,1,25.44,1.754h.877a7.9,7.9,0,0,1,7.844,7.018h-1.7a5.085,5.085,0,0,0-1.305-3.38,6.859,6.859,0,0,0-5.276-1.883A6.859,6.859,0,0,0,20.6,5.392Zm-.145,37.325a.272.272,0,0,1,.035.227.226.226,0,0,1-.123.15,5.067,5.067,0,0,1-2.147.265H14.731a1.339,1.339,0,0,0-1.142.636,1.354,1.354,0,0,0-.071,1.318,2.679,2.679,0,0,0,1.1,1.226.887.887,0,0,0,.121.051l5.4,1.82a3.161,3.161,0,0,1,1.647,2.472H1.764a3.162,3.162,0,0,1,1.555-2.519l4.657-2.167a5.812,5.812,0,0,0,.731-.531,1.292,1.292,0,0,0-.8-2.3H3.965a.968.968,0,0,0-.112.007,2.335,2.335,0,0,1-1.3-.26.25.25,0,0,1-.055-.33A26.3,26.3,0,0,0,5.747,32.636a8.444,8.444,0,0,1,.625-2.876c.781-1.773,1.917-3.417,4.905-3.442,5.211.044,5.562,5.514,5.573,5.718A22.22,22.22,0,0,0,20.458,42.717Zm13.751-12.89h-16a8.288,8.288,0,0,0-1.574-2.9,3.243,3.243,0,0,1,.787-.655l4.437-2.46a2.7,2.7,0,0,0,1.41-2.4V20.247a1.432,1.432,0,0,0-.272-.824L22.9,19.3H25.44a.877.877,0,1,0,0-1.754H21.712a6.793,6.793,0,0,1-.658-1.62V9.65l0-.011V8.874a3.38,3.38,0,0,1,.858-2.311,5.252,5.252,0,0,1,3.969-1.3,5.252,5.252,0,0,1,3.969,1.3A3.4,3.4,0,0,1,30.7,8.94v6.986A9.54,9.54,0,0,1,28.9,19.25l-.149.2a1.412,1.412,0,0,0-.255.8v1.167a2.7,2.7,0,0,0,1.4,2.39l4.443,2.462a3.121,3.121,0,0,1,.8.67A5.176,5.176,0,0,0,34.209,29.827ZM30.7,50.881v-.763a3.186,3.186,0,0,1,1.627-2.794l4.437-2.46a2.7,2.7,0,0,0,1.41-2.4V41.3a1.432,1.432,0,0,0-.272-.824l-.132-.173a9.535,9.535,0,0,1-1.807-3.325l0-6.264,0-.011,0-.011v-.765a3.38,3.38,0,0,1,.858-2.311,5.252,5.252,0,0,1,3.969-1.3,5.253,5.253,0,0,1,3.969,1.3,3.405,3.405,0,0,1,.856,2.377v6.986a9.547,9.547,0,0,1-1.809,3.327l-.146.19a1.409,1.409,0,0,0-.256.8v1.167a2.7,2.7,0,0,0,1.4,2.39l4.447,2.466a3.186,3.186,0,0,1,1.628,2.794v.763H30.7Z" transform="translate(0)" fill="#fff"/>
</svg>
