<svg id="Group_24" data-name="Group 24" xmlns="http://www.w3.org/2000/svg" width="53.758" height="52.356" viewBox="0 0 53.758 52.356">
  <g id="Group_23" data-name="Group 23">
    <path id="Path_50" data-name="Path 50" d="M231.634,85.461h0a8.232,8.232,0,0,0-6.768,1.569,7.783,7.783,0,0,0-3,6.114,2.606,2.606,0,0,0,1.342,2.271,2.75,2.75,0,0,0,2.69,0,2.606,2.606,0,0,0,1.342-2.271,2.6,2.6,0,0,1,1.016-2.051,2.748,2.748,0,0,1,2.28-.5,2.6,2.6,0,0,1,1.595,4.055,2.705,2.705,0,0,1-1.813,1.092,3.535,3.535,0,0,0-3.078,3.449v2.687a2.689,2.689,0,0,0,5.376,0v-1.322a7.8,7.8,0,0,0-.983-15.087Zm3.433,11.185h0A6.294,6.294,0,0,1,231.5,99.06a.876.876,0,0,0-.672.844v1.966a.9.9,0,0,1-1.792,0V99.183a1.764,1.764,0,0,1,1.54-1.72,4.506,4.506,0,0,0,3.044-1.843,4.28,4.28,0,0,0,.689-3.425,4.39,4.39,0,0,0-3.4-3.316,4.9,4.9,0,0,0-.986-.1,4.486,4.486,0,0,0-2.812.977,4.31,4.31,0,0,0-1.656,3.389A.868.868,0,0,1,225,93.9a.916.916,0,0,1-.9,0,.868.868,0,0,1-.447-.758,6.027,6.027,0,0,1,2.318-4.742,6.4,6.4,0,0,1,8.231.267A5.993,5.993,0,0,1,235.067,96.646Z" transform="translate(-198.572 -76.565)" fill="#4b1e5f"/>
    <path id="Path_51" data-name="Path 51" d="M275.754,290.14a2.619,2.619,0,1,0,2.688,2.618A2.654,2.654,0,0,0,275.754,290.14Zm0,3.49a.873.873,0,1,1,.9-.873A.884.884,0,0,1,275.754,293.63Z" transform="translate(-244.396 -260.471)" fill="#4b1e5f"/>
    <path id="Path_52" data-name="Path 52" d="M52.554,14.769a22.644,22.644,0,0,0-40.926-3.285,21.318,21.318,0,0,0,1.05,22.359L8.962,37.461h0L5.79,40.55h0L1.31,44.914a4.285,4.285,0,0,0,0,6.171,4.567,4.567,0,0,0,6.336,0l4.479-4.363h0l3.17-3.088h0l3.716-3.619a22.881,22.881,0,0,0,26.04-.94A21.475,21.475,0,0,0,52.554,14.769ZM6.381,49.853a2.814,2.814,0,0,1-3.8,0,2.576,2.576,0,0,1,0-3.705L6.424,42.4l3.8,3.705Zm5.113-4.98-3.8-3.705,1.9-1.855,3.8,3.7Zm3.172-3.089-3.8-3.7,2.881-2.806a22.3,22.3,0,0,0,3.8,3.7Zm16.691.108c-11.381,0-20.607-8.986-20.607-20.07s9.226-20.07,20.607-20.07,20.607,8.986,20.607,20.07S42.733,41.88,31.358,41.892Z" transform="translate(0 -0.007)" fill="#4b1e5f"/>
    <path id="Path_53" data-name="Path 53" d="M138.281,34.14A18.331,18.331,0,1,0,157.1,52.465,18.575,18.575,0,0,0,138.281,34.14Zm0,34.9A16.585,16.585,0,1,1,155.3,52.465,16.806,16.806,0,0,1,138.281,69.044Z" transform="translate(-106.923 -30.65)" fill="#4b1e5f"/>
  </g>
</svg>
