<svg id="Group_28" data-name="Group 28" xmlns="http://www.w3.org/2000/svg" width="48.226" height="46.973" viewBox="0 0 48.226 46.973">
  <g id="Group_27" data-name="Group 27" transform="translate(0)">
    <path id="Path_62" data-name="Path 62" d="M44.218,4.133H31.595a10.56,10.56,0,0,0-14.706-.3c-.1.1-.192.2-.29.3H4.029A3.911,3.911,0,0,0,.01,7.914V37.928A3.911,3.911,0,0,0,4.029,41.71h12.86v1.566H13.674a3.177,3.177,0,0,0-3.215,3.131v.783a.772.772,0,0,0,.235.554.815.815,0,0,0,.568.229H36.984a.814.814,0,0,0,.568-.229.773.773,0,0,0,.235-.554v-.783a3.177,3.177,0,0,0-3.215-3.131H31.357V41.71h12.86a3.911,3.911,0,0,0,4.019-3.781V7.914A3.911,3.911,0,0,0,44.218,4.133Zm-26.212.828A8.976,8.976,0,0,1,24.5,2.575a8.829,8.829,0,0,1,8.464,8.456,8.519,8.519,0,0,1-2.929,6.556,8.035,8.035,0,0,0-2.661,5.334h-6.5a8.391,8.391,0,0,0-2.746-5.412,8.465,8.465,0,0,1-.12-12.548Zm3.707,24.223a.783.783,0,1,1,0-1.566h4.823a.783.783,0,1,1,0,1.566Zm3.215,1.566v.783a.8.8,0,0,1-1.607,0V30.75Zm-4.019-4.7a.783.783,0,1,1,0-1.566h6.43a.783.783,0,1,1,0,1.566ZM34.572,44.841a1.589,1.589,0,0,1,1.608,1.566H12.067a1.589,1.589,0,0,1,1.608-1.566ZM18.5,43.275V41.709H29.75v1.566Zm28.132-5.347a2.323,2.323,0,0,1-2.411,2.215H4.029a2.323,2.323,0,0,1-2.411-2.215v-.916H46.629Zm0-2.482H1.618V7.914A2.323,2.323,0,0,1,4.029,5.7h11.3a9.894,9.894,0,0,0-1.651,5.48,10.094,10.094,0,0,0,3.36,7.48,6.814,6.814,0,0,1,2.258,4.881,2.3,2.3,0,0,0-.786,1.936,2.322,2.322,0,0,0,1.117,1.775A2.274,2.274,0,0,0,19.3,28.4a2.383,2.383,0,0,0,2.411,2.349v.783a2.412,2.412,0,0,0,4.823,0V30.75A2.383,2.383,0,0,0,28.946,28.4a2.274,2.274,0,0,0-.323-1.151,2.322,2.322,0,0,0,1.117-1.775,2.3,2.3,0,0,0-.786-1.936,6.532,6.532,0,0,1,2.156-4.788,10.069,10.069,0,0,0,3.461-7.745,9.825,9.825,0,0,0-1.7-5.306H44.217a2.323,2.323,0,0,1,2.411,2.215V35.447Z" transform="translate(-0.01 -1)" fill="#4b1e5f"/>
    <path id="Path_63" data-name="Path 63" d="M248.28,36.719a5.561,5.561,0,0,1,5.626,5.48.8.8,0,0,0,1.607,0,7.15,7.15,0,0,0-7.234-7.046.783.783,0,1,0,0,1.566Z" transform="translate(-224.167 -32.02)" fill="#4b1e5f"/>
  </g>
</svg>
