<svg xmlns="http://www.w3.org/2000/svg" width="69.164" height="72.163" viewBox="0 0 69.164 72.163">
  <g id="Group_22" data-name="Group 22" transform="translate(0)">
    <g id="Group_21" data-name="Group 21">
      <path id="Path_47" data-name="Path 47" d="M59.293,5.645a1.237,1.237,0,0,0-1.479.907,1.2,1.2,0,0,0,.931,1.44C75.061,11.6,85.8,26.806,83.429,42.937s-17.055,27.791-33.756,26.8-29.825-14.3-30.168-30.591S31.716,9.033,48.361,7.376l-4.029,3.786a1.181,1.181,0,0,0-.029,1.7,1.259,1.259,0,0,0,1.744.033l6.368-5.985a1.18,1.18,0,0,0,.342-.476,1.153,1.153,0,0,0,.045-.216,1.115,1.115,0,0,0,.042-.2c0-.015-.008-.027-.009-.042,0-.034.017-.064.013-.1a1.143,1.143,0,0,0-.087-.259c-.012-.032-.018-.064-.032-.095a1.153,1.153,0,0,0-.234-.338l-.028-.029a1.187,1.187,0,0,0-.169-.172L44.833.2a1.255,1.255,0,0,0-1.71.343,1.184,1.184,0,0,0,.352,1.666l4.379,2.806c-17.529,1.885-30.8,16.3-30.825,33.477,0,17.625,13.959,32.265,32,33.578S83.112,60.921,85.8,43.492,76.936,9.561,59.293,5.645Z" transform="translate(-17.029 0)" fill="#4b1e5f"/>
      <path id="Path_48" data-name="Path 48" d="M97.765,105.582h0a1.142,1.142,0,0,0-.12.04,1.17,1.17,0,0,0-.119.1,24.534,24.534,0,0,0-8.817,8.587,1.165,1.165,0,0,0-.1.116,1.128,1.128,0,0,0-.04.116,23.336,23.336,0,0,0,0,23.824,1.108,1.108,0,0,0,.04.116,1.184,1.184,0,0,0,.152.192,24.537,24.537,0,0,0,8.77,8.511,1.159,1.159,0,0,0,.119.1,1.23,1.23,0,0,0,.166.067,25.093,25.093,0,0,0,24.368,0,1.221,1.221,0,0,0,.166-.067,1.175,1.175,0,0,0,.119-.1,24.536,24.536,0,0,0,8.77-8.511,1.2,1.2,0,0,0,.152-.192,1.135,1.135,0,0,0,.04-.116,23.336,23.336,0,0,0,0-23.824,1.074,1.074,0,0,0-.04-.116,1.116,1.116,0,0,0-.1-.115,24.532,24.532,0,0,0-8.818-8.588.362.362,0,0,0-.238-.141A25.081,25.081,0,0,0,97.765,105.582Zm13.465.425v-1.142a22.506,22.506,0,0,1,8.781,2.288l-.588.992a1.186,1.186,0,0,0,.453,1.643,1.253,1.253,0,0,0,1.687-.44l.591-1a22.106,22.106,0,0,1,6.43,6.262l-1.023.575a1.186,1.186,0,0,0-.452,1.643,1.253,1.253,0,0,0,1.687.441l1.018-.573a21.035,21.035,0,0,1,2.349,8.552H130.99a1.2,1.2,0,1,0,0,2.406h1.172a21.035,21.035,0,0,1-2.349,8.552l-1.018-.573a1.264,1.264,0,0,0-1.236,0,1.188,1.188,0,0,0,0,2.084l1.023.575a22.107,22.107,0,0,1-6.43,6.262l-.591-1a1.252,1.252,0,0,0-2.14,0,1.176,1.176,0,0,0,0,1.2l.588.992a22.506,22.506,0,0,1-8.781,2.288V146.9a1.235,1.235,0,0,0-2.47,0v1.142a22.506,22.506,0,0,1-8.781-2.288l.588-.992a1.186,1.186,0,0,0-.453-1.643,1.253,1.253,0,0,0-1.687.44l-.591,1a22.106,22.106,0,0,1-6.43-6.262l1.023-.575a1.188,1.188,0,0,0,0-2.084,1.264,1.264,0,0,0-1.236,0l-1.018.573a21.035,21.035,0,0,1-2.349-8.552H89a1.2,1.2,0,1,0,0-2.406H87.828a21.035,21.035,0,0,1,2.349-8.552l1.018.573a1.264,1.264,0,0,0,1.236,0,1.188,1.188,0,0,0,0-2.084l-1.023-.575a22.106,22.106,0,0,1,6.43-6.262l.591,1a1.252,1.252,0,0,0,2.14,0,1.176,1.176,0,0,0,0-1.2l-.588-.992a22.506,22.506,0,0,1,8.781-2.288v1.142a1.235,1.235,0,0,0,2.47,0Z" transform="translate(-75.415 -87.965)" fill="#4b1e5f"/>
      <path id="Path_49" data-name="Path 49" d="M225.533,171.87v8.591a4.814,4.814,0,0,0-3.688,5.052,4.867,4.867,0,0,0,4.5,4.383,4.92,4.92,0,0,0,5.187-3.592h5.115a1.2,1.2,0,1,0,0-2.406h-5.115A4.869,4.869,0,0,0,228,180.46V171.87a1.235,1.235,0,0,0-2.47,0Zm3.7,13.231a2.471,2.471,0,1,1-2.47-2.406A2.442,2.442,0,0,1,229.238,185.1Z" transform="translate(-192.188 -146.61)" fill="#4b1e5f"/>
    </g>
  </g>
</svg>
