<svg xmlns="http://www.w3.org/2000/svg" width="18.447" height="19.059" viewBox="0 0 18.447 19.059">
  <g id="img_198352" transform="translate(0)">
    <path id="Path_1" data-name="Path 1" d="M454.7,41.2c-.3,0-.6.016-.9.045.111.171.222.35.327.537s.2.36.3.546c.093,0,.185-.006.278-.006a8.1,8.1,0,0,1,7.725,10.544c.15.169.292.338.424.506.144.183.274.364.391.537A9.222,9.222,0,0,0,454.7,41.2Z" transform="translate(-445.478 -40.589)"/>
    <path id="Path_2" data-name="Path 2" d="M36.412,271.385A8.111,8.111,0,0,1,26.92,263.4a8.06,8.06,0,0,1,.747-3.395c-.045-.173-.087-.34-.128-.5-.027-.111-.056-.22-.082-.325-.068-.274-.13-.535-.179-.782a9.22,9.22,0,0,0,10.579,13.778c-.231-.1-.474-.228-.731-.371C36.9,271.682,36.663,271.54,36.412,271.385Z" transform="translate(-25.8 -253.566)"/>
    <path id="Path_3" data-name="Path 3" d="M164.321,23.757c-.111-.171-.235-.342-.369-.511a7.028,7.028,0,0,0-2.46-2.116h-.018c-.577,0-1.666,1.038-2.3,2.744a12.792,12.792,0,0,1-6.01-8.007s3.6-.723,3.07-2.016a21.222,21.222,0,0,0-1.015-2.186q-.146-.265-.3-.513a5.857,5.857,0,0,0-.348-.5,1.811,1.811,0,0,0-1.26-.856.862.862,0,0,0-.436.122c-2.374,1.46-3.027,2.269-2.983,3.492a4.7,4.7,0,0,0,.093.743c.043.222.1.457.161.714.091.364.2.766.313,1.217,1.171,3.4,1.929,5.718,5.557,8.777a35.559,35.559,0,0,0,3.589,2.333,6.968,6.968,0,0,0,.692.319,3.28,3.28,0,0,0,.821.212c.08.008.158.014.235.014,1.042,0,1.83-.782,3.368-2.119a1.412,1.412,0,0,0-.082-1.3A4.7,4.7,0,0,0,164.321,23.757Z" transform="translate(-147.478 -9.8)"/>
  </g>
</svg>
