<svg xmlns="http://www.w3.org/2000/svg" width="26" height="27" viewBox="0 0 26 27">
  <g id="icon-twitter" transform="translate(-1101.077 -3074)">
    <ellipse id="Эллипс_2" data-name="Эллипс 2" cx="13" cy="13.5" rx="13" ry="13.5" transform="translate(1101.077 3074)" fill="#fff"/>
    <path id="_043-twitter" data-name="043-twitter" d="M4.66,10.224A10.718,10.718,0,0,1,3,10.092,7.769,7.769,0,0,1,.74,9.268L0,8.864.8,8.6c.876-.288,1.409-.467,2.068-.746A2.752,2.752,0,0,1,1.455,6.215l-.186-.566.153.023a2.78,2.78,0,0,1-.348-.429A2.635,2.635,0,0,1,.627,3.676l.035-.494.3.115A2.765,2.765,0,0,1,.69,2.546,2.857,2.857,0,0,1,.994.622L1.252.149,1.6.563A6.34,6.34,0,0,0,5.7,2.876,2.457,2.457,0,0,1,5.853,1.57,2.444,2.444,0,0,1,6.846.431,2.984,2.984,0,0,1,8.578.006a2.766,2.766,0,0,1,1.7.7A5.708,5.708,0,0,0,10.9.5c.136-.051.291-.11.485-.176L12.1.077l-.465,1.329.1-.006.762-.034-.45.616c-.026.035-.032.045-.042.059-.036.055-.081.123-.7.948a1.164,1.164,0,0,0-.218.758,7.172,7.172,0,0,1-.391,2.885,5.1,5.1,0,0,1-1.37,2.03,6.052,6.052,0,0,1-2.869,1.387,8.831,8.831,0,0,1-1.792.176Zm0,0" transform="translate(1107.467 3083.06)" fill="#99b7c0"/>
  </g>
</svg>
