<svg xmlns="http://www.w3.org/2000/svg" width="27" height="27" viewBox="0 0 27 27">
  <g id="icon-google_" data-name="icon-google+" transform="translate(-1136.077 -3075)">
    <circle id="Эллипс_3" data-name="Эллипс 3" cx="13.5" cy="13.5" r="13.5" transform="translate(1136.077 3075)" fill="#fff"/>
    <g id="_047-google-plus" data-name="047-google-plus" transform="translate(1140.715 3083.062)">
      <path id="Контур_63" data-name="Контур 63" d="M5.483,1.982a3.492,3.492,0,0,1,2.775,1.4L9.665,1.962a5.447,5.447,0,1,0,1.06,4.975,5.283,5.283,0,0,0,.208-1.486v-.5H5.978V6.936H8.6A3.448,3.448,0,0,1,5.483,8.919a3.5,3.5,0,0,1-3.5-3.468,3.5,3.5,0,0,1,3.5-3.468Zm0,0" transform="translate(0 0)" fill="#99b7c0"/>
      <path id="Контур_64" data-name="Контур 64" d="M364.468,90h-1.982v1.486H361v1.982h1.486v1.486h1.982V93.468h1.519V91.486h-1.519Zm0,0" transform="translate(-349.076 -87.027)" fill="#99b7c0"/>
    </g>
  </g>
</svg>
