<svg xmlns="http://www.w3.org/2000/svg" width="58.545" height="39.034" viewBox="0 0 58.545 39.034">
  <g id="icon-pay-pal" transform="translate(0 0)">
    <path id="Контур_66" data-name="Контур 66" d="M18.184,191.569H17.8c-.323,0-.484-.155-.484-.454a7.688,7.688,0,0,1,.484-2.163.766.766,0,0,1,.382-.5,1.747,1.747,0,0,1,.711-.114c1.3,0,1.954.418,1.954,1.249a1.628,1.628,0,0,1-.777,1.511,3.488,3.488,0,0,1-1.888.466Zm8.686,4.092c-.795,0-1.195-.245-1.195-.735q0-1.577,3.124-1.577l.078.078c-.084,1.494-.753,2.234-2.007,2.234Zm19.672-4.038h-.382a.428.428,0,0,1-.484-.484,7.688,7.688,0,0,1,.484-2.163.748.748,0,0,1,.37-.484,2,2,0,0,1,.723-.1c1.3,0,1.954.418,1.954,1.249a1.628,1.628,0,0,1-.777,1.511,3.542,3.542,0,0,1-1.888.472Zm8.686,4.068c-.795,0-1.195-.257-1.195-.765q0-1.577,3.124-1.577l.078.078q-.125,2.267-2.007,2.264Zm-35.749-9.325h-3.25a.719.719,0,0,0-.37.1.534.534,0,0,0-.215.191c-.036.06-.1.161-.179.317-.054.119-.43,1.726-1.141,4.827s-1.069,4.725-1.069,4.881a.47.47,0,0,0,.478.454h1.577q.636,0,.824-.878l.382-1.75.824-.878a12.371,12.371,0,0,0,2.222-.191,9.661,9.661,0,0,0,2.043-.621,3.6,3.6,0,0,0,1.613-1.332,3.766,3.766,0,0,0,.6-2.145,3.042,3.042,0,0,0-.37-1.547,2.148,2.148,0,0,0-1.039-.926,5.7,5.7,0,0,0-1.362-.394,10.112,10.112,0,0,0-1.565-.108Zm8.788,2.437a11.427,11.427,0,0,0-1.882.155,1.474,1.474,0,0,0-.215.024l-.227.036-.191.036s-.066.018-.191.048-.179.06-.167.078-.042.054-.167.1-.167.1-.125.125.006.1-.114.179-.149.161-.1.227a4.015,4.015,0,0,0-.227.992c0,.167.078.251.227.251a2.5,2.5,0,0,0,.544-.125c.281-.084.442-.137.5-.155a5.623,5.623,0,0,1,1.476-.2q1.882,0,1.882.914a.34.34,0,0,1-.251.358,3.117,3.117,0,0,1-.454.078c-.167.018-.352.03-.544.036a3.258,3.258,0,0,0-.442.036,15.286,15.286,0,0,0-1.637.251,7.745,7.745,0,0,0-1.434.5,2.53,2.53,0,0,0-1.159.992,3,3,0,0,0-.394,1.589,1.849,1.849,0,0,0,.663,1.511,2.461,2.461,0,0,0,1.625.544,3.884,3.884,0,0,0,1.159-.167,4.581,4.581,0,0,0,.836-.329c.191-.108.52-.311.98-.6a.912.912,0,0,0-.078.382.464.464,0,0,0,.137.341.426.426,0,0,0,.317.137h1.422a.754.754,0,0,1,.179-.09,1.572,1.572,0,0,0,.191-.09l.125-.09a.382.382,0,0,0,.125-.137,1.015,1.015,0,0,0,.066-.2l1.141-4.929a2.664,2.664,0,0,0,.1-.765c-.006-1.356-1.237-2.043-3.692-2.037Zm13.418.125H39.8a1.237,1.237,0,0,0-.992.585c-.084.119-.335.55-.747,1.3s-.806,1.434-1.183,2.073a3.929,3.929,0,0,1-.663.98l-.125-.1a14.492,14.492,0,0,0-.687-4.218.584.584,0,0,0-.09-.215,1.014,1.014,0,0,0-.155-.167.937.937,0,0,0-.167-.125.6.6,0,0,0-.215-.078q-.143-.027-.215-.036c-.054-.006-.131-.018-.239-.024a1.937,1.937,0,0,0-.227-.012h-.472c-.645,0-.968.179-.968.532l.024.125c.084.9.3,2.175.633,3.835s.55,2.874.633,3.632a4.765,4.765,0,0,1,.048.609,3.372,3.372,0,0,1-.777,1.565,3.428,3.428,0,0,0-.777,1.488c0,.221.341.329,1.016.329,1.034,0,1.679-.209,1.93-.633l6.225-10.544a2.139,2.139,0,0,0,.251-.663c.024-.161-.048-.239-.179-.233Zm6.153-2.515H44.56c-.3,0-.55.2-.735.585q-.152.332-1.183,4.863T41.615,196.7c0,.341.364.508,1.093.508h.645s.078-.006.239-.024.233-.036.215-.048.054-.042.215-.078.215-.072.167-.113-.006-.09.137-.155.167-.131.078-.215l.532-2.312a.792.792,0,0,1,.765-.609,12.984,12.984,0,0,0,2.222-.179,9.014,9.014,0,0,0,2.043-.621,3.6,3.6,0,0,0,2.21-3.465,3.042,3.042,0,0,0-.37-1.547,2.136,2.136,0,0,0-1.045-.926,5.7,5.7,0,0,0-1.362-.394,10.141,10.141,0,0,0-1.559-.108Zm8.788,2.39a16.436,16.436,0,0,0-1.882.155,2.458,2.458,0,0,0-1.219.406,1.609,1.609,0,0,0-.281.484,3.231,3.231,0,0,0-.2.992c0,.167.066.251.2.251.018,0,.364-.1,1.045-.3a5.623,5.623,0,0,1,1.476-.2q1.882,0,1.882.914a.317.317,0,0,1-.251.358q-.1.027-1.452.179a15.285,15.285,0,0,0-1.637.251,7.747,7.747,0,0,0-1.434.5,2.53,2.53,0,0,0-1.159.992,3,3,0,0,0-.394,1.589,1.826,1.826,0,0,0,.663,1.488,2.461,2.461,0,0,0,1.625.544,4.115,4.115,0,0,0,1.141-.155,4.488,4.488,0,0,0,.866-.329q.332-.179.968-.609c-.054.251-.078.388-.078.406a.476.476,0,0,0,.048.215.3.3,0,0,0,.167.137c.078.036.143.066.2.09a.87.87,0,0,0,.269.048c.119.006.2.012.239.012h.442c.711,0,1.117-.209,1.219-.633l1.141-4.929a3.757,3.757,0,0,0,.078-.789c-.006-1.368-1.231-2.055-3.686-2.055Zm8.184-2.312h-1.4c-.424,0-.7.341-.836,1.016q-.251,1.12-.926,4.242t-1.081,4.827v.125a.411.411,0,0,0,.406.454h1.476a.748.748,0,0,0,.472-.167.711.711,0,0,0,.269-.418l2.109-9.5h-.024l.024-.125a.45.45,0,0,0-.137-.317.472.472,0,0,0-.352-.131Zm3.734-9.935v32.523a3.306,3.306,0,0,1-3.256,3.256H13.25A3.295,3.295,0,0,1,10,209.078V176.556a3.306,3.306,0,0,1,3.256-3.256H65.3a3.295,3.295,0,0,1,3.25,3.256Z" transform="translate(-10 -173.3)" fill="#fff"/>
  </g>
</svg>
