<svg id="icon-discover" xmlns="http://www.w3.org/2000/svg" width="59.407" height="39.057" viewBox="0 0 59.407 39.057">
  <g id="Сгруппировать_40" data-name="Сгруппировать 40" transform="translate(0 0)">
    <path id="Контур_68" data-name="Контур 68" d="M11.935-122.793a2.745,2.745,0,0,0-1.6,1.313l-.286.546-.039,17.262c-.013,11.361.013,17.444.1,17.756a2.745,2.745,0,0,0,1.3,1.7l.584.325H67.468l.584-.325a2.981,2.981,0,0,0,.974-.962l.39-.637v-35.121l-.286-.546a2.7,2.7,0,0,0-1.663-1.326C66.78-123,12.6-122.987,11.935-122.793Zm16.341,15.234a3.342,3.342,0,0,1,.715.429c.039.065-.13.325-.376.611l-.429.494-.351-.273c-.74-.585-2-.234-2,.572,0,.377.234.546,1.572,1.092,1.377.572,1.936,1.222,1.936,2.275,0,2.483-3.066,3.536-5.015,1.742l-.584-.533.493-.507.481-.494.325.325c1.117,1.053,2.611.819,2.611-.416,0-.572-.312-.858-1.312-1.2-1.234-.4-1.649-.715-1.962-1.4a1.526,1.526,0,0,1-.117-1.261C24.652-107.805,26.484-108.468,28.276-107.558Zm7.47-.182c.338.156.351.221.351,1.053v.884l-.741-.39a2.1,2.1,0,0,0-1.416-.351,2.659,2.659,0,0,0-2.533,2.626,2.557,2.557,0,0,0,.948,2.093,2.641,2.641,0,0,0,3.326.117l.416-.325v1.924l-.727.234a4.344,4.344,0,0,1-5.092-2.184,3.044,3.044,0,0,1-.351-1.781,3.263,3.263,0,0,1,.364-1.846,4.387,4.387,0,0,1,2.221-2.054,3.815,3.815,0,0,1,1.766-.221A5.716,5.716,0,0,1,35.746-107.74Zm7.054.2a4.536,4.536,0,0,1,1.974,1.95,2.907,2.907,0,0,1,.351,1.755,3.045,3.045,0,0,1-.351,1.781,4.142,4.142,0,0,1-4.754,2.2,4.179,4.179,0,0,1-2.91-2.4,4.6,4.6,0,0,1-.013-3.146A4.282,4.282,0,0,1,42.8-107.545Zm-24.214.1a3.89,3.89,0,0,1-.156,7.162A4.394,4.394,0,0,1,16-99.941H14.273V-107.9l1.793.052C17.7-107.805,17.91-107.779,18.585-107.441Zm4.651,3.536v3.965H21.547v-7.929h1.689Zm24.539-1.313a21.609,21.609,0,0,0,1.156,2.47c.013-.065.493-1.235,1.039-2.586l1-2.47.9-.039c.689-.026.871,0,.818.13-.039.091-.78,1.859-1.649,3.939s-1.611,3.848-1.649,3.926-.286.169-.558.169-.52-.078-.558-.169-.78-1.859-1.649-3.926-1.611-3.848-1.65-3.939c-.052-.13.13-.156.818-.13l.883.039Zm10.016-1.936v.715H54.933v1.69h2.728v1.43H54.92l.039,1L55-101.3l1.4.039,1.39.039v1.287H53.374v-7.929H57.79v.715Zm4.573-.585a2.342,2.342,0,0,1,.533,4.25l-.546.325,1.156,1.534c.649.858,1.169,1.586,1.169,1.625a3.377,3.377,0,0,1-.948.065h-.949l-1.026-1.495a17.5,17.5,0,0,0-1.13-1.573,5.289,5.289,0,0,0-.1,1.495v1.573H58.83v-7.929h1.533A12.586,12.586,0,0,1,62.363-107.74Z" transform="translate(-10.009 122.945)" fill="#fff"/>
    <path id="Контур_69" data-name="Контур 69" d="M106.05,151.147v2.637l.844-.065a2.572,2.572,0,0,0,0-5.144l-.844-.065Z" transform="translate(-100.228 -132.042)" fill="#fff"/>
    <path id="Контур_70" data-name="Контур 70" d="M843.21,148.179v1.169h.624a1.046,1.046,0,0,0,.909-.3,1.133,1.133,0,0,0,.221-1.377,1.3,1.3,0,0,0-1.312-.663h-.442Z" transform="translate(-792.701 -130.634)" fill="#fff"/>
  </g>
</svg>
