<svg xmlns="http://www.w3.org/2000/svg" width="27.573" height="23.428" viewBox="0 0 27.573 23.428">
  <g id="free" transform="translate(0 -38.486)">
    <g id="Сгруппировать_2" data-name="Сгруппировать 2" transform="translate(0 38.486)">
      <g id="Сгруппировать_1" data-name="Сгруппировать 1" transform="translate(0 0)">
        <path id="Контур_9" data-name="Контур 9" d="M25.643,51.866l-.714-2.856a.432.432,0,0,0,.342-.422v-.46a1.815,1.815,0,0,0-1.813-1.813H20.2v-.95a.893.893,0,0,0-.892-.892H13.265L16.94,43a.432.432,0,0,0-.321-.8L13.61,43.4a10.148,10.148,0,0,0,2.169-1.689,2.011,2.011,0,1,0-3.2-2.439,17.464,17.464,0,0,0-1.559,3.73,17.467,17.467,0,0,0-1.559-3.73,2.011,2.011,0,0,0-3.2,2.439A10.144,10.144,0,0,0,8.436,43.4L5.427,42.2a.432.432,0,0,0-.321.8l3.675,1.47H2.734a.893.893,0,0,0-.892.892v7.829a.432.432,0,1,0,.863,0V45.365a.029.029,0,0,1,.029-.029H19.313a.029.029,0,0,1,.029.029v7.829a.432.432,0,1,0,.863,0V52.7h5.1a1.413,1.413,0,0,1,1.341.979H25.3a.432.432,0,0,0-.432.432v.921a1.354,1.354,0,0,0,1.353,1.353h.489v1.9H25.581a2.733,2.733,0,0,0-5.168,0H20.2V55.035a.432.432,0,0,0-.863,0v3.252H10.384a2.733,2.733,0,0,0-5.168,0H2.734a.029.029,0,0,1-.029-.029v-.95H4.576a.432.432,0,0,0,0-.863H.432a.432.432,0,0,0,0,.863h1.41v.95a.893.893,0,0,0,.892.892H5.066c0,.01,0,.019,0,.029a2.734,2.734,0,0,0,5.468,0c0-.01,0-.019,0-.029h9.73c0,.01,0,.019,0,.029a2.734,2.734,0,0,0,5.468,0c0-.01,0-.019,0-.029h1.411a.432.432,0,0,0,.432-.432V54.114A2.277,2.277,0,0,0,25.643,51.866ZM9.311,42.933a10.011,10.011,0,0,1-2.358-1.741A1.147,1.147,0,0,1,8.778,39.8a18.891,18.891,0,0,1,1.5,3.719C9.99,43.348,9.655,43.147,9.311,42.933Zm2.454.586a18.9,18.9,0,0,1,1.5-3.719,1.147,1.147,0,0,1,1.824,1.391,10.013,10.013,0,0,1-2.358,1.741C12.392,43.147,12.057,43.348,11.766,43.519ZM20.2,47.178h3.252a.951.951,0,0,1,.95.95v.029H20.2Zm0,4.663V49.02h3.836l.705,2.821ZM7.8,61.051A1.871,1.871,0,1,1,9.671,59.18,1.873,1.873,0,0,1,7.8,61.051Zm15.2,0a1.871,1.871,0,1,1,1.871-1.871A1.873,1.873,0,0,1,23,61.051Zm3.713-5.526H26.22a.49.49,0,0,1-.489-.489v-.489h.979v.979Z" transform="translate(0 -38.486)" fill="#fff"/>
      </g>
    </g>
    <g id="Сгруппировать_4" data-name="Сгруппировать 4" transform="translate(6.908 58.288)">
      <g id="Сгруппировать_3" data-name="Сгруппировать 3" transform="translate(0 0)">
        <path id="Контур_10" data-name="Контур 10" d="M129.159,406.172a.892.892,0,1,0,.892.892A.893.893,0,0,0,129.159,406.172Z" transform="translate(-128.267 -406.172)" fill="#fff"/>
      </g>
    </g>
    <g id="Сгруппировать_6" data-name="Сгруппировать 6" transform="translate(22.104 58.288)">
      <g id="Сгруппировать_5" data-name="Сгруппировать 5" transform="translate(0 0)">
        <path id="Контур_11" data-name="Контур 11" d="M411.347,406.172a.892.892,0,1,0,.892.892A.893.893,0,0,0,411.347,406.172Z" transform="translate(-410.455 -406.172)" fill="#fff"/>
      </g>
    </g>
    <g id="Сгруппировать_8" data-name="Сгруппировать 8" transform="translate(11.052 56.446)">
      <g id="Сгруппировать_7" data-name="Сгруппировать 7">
        <path id="Контур_12" data-name="Контур 12" d="M212.106,371.967h-6.447a.432.432,0,1,0,0,.863h6.447a.432.432,0,0,0,0-.863Z" transform="translate(-205.227 -371.967)" fill="#fff"/>
      </g>
    </g>
    <g id="Сгруппировать_10" data-name="Сгруппировать 10" transform="translate(0.921 54.604)">
      <g id="Сгруппировать_9" data-name="Сгруппировать 9">
        <path id="Контур_13" data-name="Контур 13" d="M23.06,337.763H17.534a.432.432,0,0,0,0,.863H23.06a.432.432,0,0,0,0-.863Z" transform="translate(-17.102 -337.763)" fill="#fff"/>
      </g>
    </g>
    <g id="Сгруппировать_12" data-name="Сгруппировать 12" transform="translate(4.605 48.156)">
      <g id="Сгруппировать_11" data-name="Сгруппировать 11">
        <path id="Контур_14" data-name="Контур 14" d="M87.785,218.046H85.943a.432.432,0,0,0-.432.432v3.684a.432.432,0,1,0,.863,0v-1.41h.95a.432.432,0,0,0,0-.863h-.95v-.979h1.41a.432.432,0,1,0,0-.863Z" transform="translate(-85.511 -218.046)" fill="#fff"/>
      </g>
    </g>
    <g id="Сгруппировать_14" data-name="Сгруппировать 14" transform="translate(7.829 48.156)">
      <g id="Сгруппировать_13" data-name="Сгруппировать 13">
        <path id="Контур_15" data-name="Контур 15" d="M147.817,220.954a1.582,1.582,0,0,0-.865-2.908H145.8a.432.432,0,0,0-.432.432v3.684a.432.432,0,1,0,.863,0v-.95h.719l.793,1.189a.432.432,0,0,0,.718-.479Zm-.865-.605h-.72v-1.439h.72a.72.72,0,1,1,0,1.439Z" transform="translate(-145.369 -218.046)" fill="#fff"/>
      </g>
    </g>
    <g id="Сгруппировать_16" data-name="Сгруппировать 16" transform="translate(11.513 48.156)">
      <g id="Сгруппировать_15" data-name="Сгруппировать 15">
        <path id="Контур_16" data-name="Контур 16" d="M216.052,221.73h-1.41v-.98h.95a.432.432,0,0,0,0-.863h-.95v-.98h1.41a.432.432,0,1,0,0-.863H214.21a.432.432,0,0,0-.432.432v3.684a.432.432,0,0,0,.432.432h1.842a.432.432,0,1,0,0-.863Z" transform="translate(-213.778 -218.046)" fill="#fff"/>
      </g>
    </g>
    <g id="Сгруппировать_18" data-name="Сгруппировать 18" transform="translate(14.736 48.156)">
      <g id="Сгруппировать_17" data-name="Сгруппировать 17">
        <path id="Контур_17" data-name="Контур 17" d="M275.91,221.73H274.5v-.979h.489a.432.432,0,0,0,0-.863H274.5v-.979h1.41a.432.432,0,0,0,0-.863h-1.842a.432.432,0,0,0-.432.432v3.684a.432.432,0,0,0,.432.432h1.842a.432.432,0,1,0,0-.863Z" transform="translate(-273.636 -218.046)" fill="#fff"/>
      </g>
    </g>
  </g>
</svg>
