<svg xmlns="http://www.w3.org/2000/svg" width="58.458" height="38.976" viewBox="0 0 58.458 38.976">
  <g id="icon-master-card" transform="translate(0 0)">
    <path id="Контур_67" data-name="Контур 67" d="M27.024,193.725H26.69c-.793,0-1.193.268-1.193.811,0,.37.167.561.507.561a.841.841,0,0,0,.71-.382,1.714,1.714,0,0,0,.31-.99Zm10.021-.913h1.575v-.078a.334.334,0,0,0,.012-.167c-.006-.042-.018-.1-.024-.179a.535.535,0,0,0-.054-.2.591.591,0,0,0-.113-.167.484.484,0,0,0-.191-.125.947.947,0,0,0-.292-.054c-.477.012-.781.334-.913.972Zm13.7.913h-.3c-.811,0-1.217.268-1.217.811,0,.37.167.561.507.561a.841.841,0,0,0,.71-.382,1.758,1.758,0,0,0,.3-.99Zm8.095-.656c0-.692-.251-1.038-.758-1.038a.9.9,0,0,0-.787.507,2.49,2.49,0,0,0-.3,1.294c0,.71.239,1.068.71,1.068a.935.935,0,0,0,.823-.507,2.461,2.461,0,0,0,.316-1.324Zm-36.662-3.579h2.207l-1.115,6.645h-1.42l.811-5.1-1.807,5.1h-.99l-.1-5.076-.865,5.076H17.558l1.115-6.645h2.058l.054,4.134ZM28.6,192.2c0,.1-.036.459-.1,1.068-.268,1.706-.418,2.666-.429,2.869H26.875l.024-.561a1.745,1.745,0,0,1-1.473.662,1.239,1.239,0,0,1-.954-.406,1.529,1.529,0,0,1-.37-1.068,1.883,1.883,0,0,1,.662-1.539,2.824,2.824,0,0,1,1.849-.543,5.3,5.3,0,0,1,.585.024.98.98,0,0,1,.012-.137c.006-.042.018-.084.024-.113a.5.5,0,0,0,.012-.078c0-.34-.3-.507-.913-.507a4.776,4.776,0,0,0-1.5.251q0-.1.179-1.217a6.285,6.285,0,0,1,1.7-.28c1.265.006,1.891.525,1.885,1.575Zm3.955-1.473-.2,1.247a8.283,8.283,0,0,0-1.038-.078c-.459,0-.686.143-.686.43a.375.375,0,0,0,.113.3,2.191,2.191,0,0,0,.543.28,1.6,1.6,0,0,1,1.014,1.521q0,1.825-2.207,1.8a6.131,6.131,0,0,1-1.473-.155c0-.036.06-.447.179-1.247a4.879,4.879,0,0,0,1.294.2c.543,0,.811-.161.811-.483a.391.391,0,0,0-.113-.292,2.314,2.314,0,0,0-.543-.316,1.612,1.612,0,0,1-1.092-1.5c0-1.217.71-1.831,2.13-1.831a8.626,8.626,0,0,1,1.271.113Zm2.237,0h.71l-.179,1.318h-.74c-.036.286-.089.632-.167,1.026s-.137.722-.179.978-.066.406-.066.459c0,.268.161.406.483.406a1.578,1.578,0,0,0,.406-.054l-.2,1.193a3.192,3.192,0,0,1-1.014.179c-.728,0-1.11-.4-1.145-1.193a10.509,10.509,0,0,1,.2-1.42c.048-.34.262-1.575.632-3.7h1.4Zm5.148,1.855a5.637,5.637,0,0,1-.179,1.318H36.944a.884.884,0,0,0,.251.835,1.47,1.47,0,0,0,.966.28,3.323,3.323,0,0,0,1.473-.352l-.227,1.372a5.533,5.533,0,0,1-1.444.2,2.132,2.132,0,0,1-2.41-2.41,3.644,3.644,0,0,1,.7-2.3,2.142,2.142,0,0,1,1.766-.9,1.889,1.889,0,0,1,1.408.531,1.925,1.925,0,0,1,.513,1.42Zm3.531-1.879a6.016,6.016,0,0,0-.561,1.575q-.555-.054-.787.608a26.048,26.048,0,0,0-.632,3.245H40.064l.078-.352c.37-2.2.62-3.883.74-5.052h1.294l-.078.835a3.056,3.056,0,0,1,.644-.746.857.857,0,0,1,.728-.113Zm4.742-1.038-.227,1.444a2.85,2.85,0,0,0-1.271-.352,1.542,1.542,0,0,0-1.294.7,2.956,2.956,0,0,0-.507,1.79,1.88,1.88,0,0,0,.34,1.193,1.177,1.177,0,0,0,.978.43,2.76,2.76,0,0,0,1.217-.334l-.251,1.5a4.583,4.583,0,0,1-1.271.2,2.266,2.266,0,0,1-1.813-.775,3.088,3.088,0,0,1-.674-2.094,4.5,4.5,0,0,1,.9-2.905,2.837,2.837,0,0,1,2.32-1.127,4.437,4.437,0,0,1,1.551.334Zm4.11,2.535a6.852,6.852,0,0,1-.1,1.068c-.221,1.336-.364,2.291-.429,2.869H50.623l.024-.561a1.769,1.769,0,0,1-1.5.662,1.185,1.185,0,0,1-.937-.406,1.548,1.548,0,0,1-.352-1.068,1.906,1.906,0,0,1,.644-1.539,2.768,2.768,0,0,1,1.837-.543,4.968,4.968,0,0,1,.585.024,1.146,1.146,0,0,0,.054-.334c0-.34-.3-.507-.913-.507a4.776,4.776,0,0,0-1.5.251c0-.066.066-.471.2-1.217a6.284,6.284,0,0,1,1.7-.28c1.229.006,1.849.531,1.849,1.581Zm3.579-1.5a4.865,4.865,0,0,0-.531,1.575.73.73,0,0,0-.8.585,28.78,28.78,0,0,0-.644,3.275h-1.42l.078-.352q.483-2.64.74-5.052h1.318a5.354,5.354,0,0,1-.1.835,3.185,3.185,0,0,1,.674-.746.778.778,0,0,1,.686-.119Zm3.573-1.217h1.42l-1.086,6.645H58.467l.078-.483a1.825,1.825,0,0,1-1.318.585,1.514,1.514,0,0,1-1.259-.608A2.572,2.572,0,0,1,55.5,194a3.936,3.936,0,0,1,.7-2.332,1.992,1.992,0,0,1,1.634-.99,1.631,1.631,0,0,1,1.342.74Zm2.822,3.3a13.8,13.8,0,0,0-22.119-11.006,14.528,14.528,0,0,1,4.337,7.206H43.244a13.689,13.689,0,0,0-4.009-6.418,13.689,13.689,0,0,0-4.009,6.418H33.956a14.545,14.545,0,0,1,4.337-7.206,13.771,13.771,0,0,0-22.119,11.006,13.746,13.746,0,0,0,13.8,13.8,13.557,13.557,0,0,0,8.321-2.792,14.632,14.632,0,0,1-4.188-6.7h1.271a13.545,13.545,0,0,0,3.853,5.911,13.493,13.493,0,0,0,3.853-5.911h1.271a14.632,14.632,0,0,1-4.188,6.7A13.788,13.788,0,0,0,62.3,192.788Zm6.162-16.237v32.474a3.3,3.3,0,0,1-3.251,3.251H13.245A3.29,3.29,0,0,1,10,209.025V176.551a3.3,3.3,0,0,1,3.251-3.251H65.213a3.29,3.29,0,0,1,3.245,3.251Z" transform="translate(-10 -173.3)" fill="#fff"/>
  </g>
</svg>
