<svg id="icon-ae" xmlns="http://www.w3.org/2000/svg" width="61.047" height="38.976" viewBox="0 0 61.047 38.976">
  <g id="Сгруппировать_41" data-name="Сгруппировать 41" transform="translate(0 0)">
    <path id="Контур_71" data-name="Контур 71" d="M36.213,199.925H31.584v-5.714h4.628V195.4H32.967v1.031h3.171V197.6H32.967v1.142h3.245Zm-10.322,0-2.012-4.481v4.481H21.057l-.536-1.277H17.637l-.536,1.277H15.594l2.485-5.714h2.056l2.361,5.414v-5.414h2.261l1.813,3.879,1.663-3.879h2.311v5.714h-1.42l-.006-4.475-2.012,4.475Zm-5.868-2.467-.947-2.277-.941,2.277Zm22.425,8.477c0,1.59-1.2,1.915-2.411,1.915H38.306v1.915h-2.7l-1.707-1.89-1.775,1.89H26.632V204.05h5.575l1.707,1.872,1.763-1.872h4.429C41.215,204.05,42.448,204.35,42.448,205.934Zm-9.437.964L31.5,205.234H28.021v1.037h3.04v1.166h-3.04v1.135h3.407Zm3.912-2.234-2.13,2.253,2.13,2.332Zm4.037,1.271c0-.5-.343-.7-.847-.7H38.306v1.455h1.788C40.629,206.689,40.959,206.425,40.959,205.934Zm-2.4-6.009H37.172v-5.714h3.189a3.29,3.29,0,0,1,1.682.276,1.331,1.331,0,0,1,.7,1.264,1.609,1.609,0,0,1-.978,1.522,1.629,1.629,0,0,1,.685.479,1.6,1.6,0,0,1,.23,1.05v1.123h-1.4l-.006-.724a1.7,1.7,0,0,0-.218-1.111c-.2-.2-.511-.245-1.009-.245H38.555v2.081Zm-.006-3.253h1.688a1.344,1.344,0,0,0,.685-.117.583.583,0,0,0,.287-.546.515.515,0,0,0-.293-.5,1.437,1.437,0,0,0-.654-.1H38.561l-.006,1.271Zm6.4-2.461H43.545v5.714h1.414Zm1.42,5.082a2.852,2.852,0,0,1-.741-2.179,3.006,3.006,0,0,1,.748-2.234,2.852,2.852,0,0,1,2.105-.663H49.83v1.228H48.515a1.338,1.338,0,0,0-1.065.338,1.862,1.862,0,0,0-.4,1.3,1.918,1.918,0,0,0,.38,1.338,1.347,1.347,0,0,0,.966.295h.623l1.956-4.493H53.05l2.348,5.408v-5.408h2.112l2.436,3.984v-3.984h1.42v5.714H59.4l-2.629-4.29v4.29H53.954l-.542-1.277H50.534l-.523,1.277H48.385A2.986,2.986,0,0,1,46.379,199.293Zm4.653-1.835h1.912l-.959-2.277Zm-2.909-1.007a1.889,1.889,0,0,0,0,1.283,1.2,1.2,0,0,0,.274.025l.6-1.381h-.473C48.2,196.377,48.16,196.414,48.123,196.451Zm22.924-12.4v35.882a1.56,1.56,0,0,1-1.57,1.547H11.57A1.556,1.556,0,0,1,10,219.929V184.046a1.56,1.56,0,0,1,1.57-1.547h57.9A1.553,1.553,0,0,1,71.047,184.046ZM25.891,200.87h1.221a.963.963,0,0,0,.878-.565l.181-.405v.025a.953.953,0,0,0,.959.945h1.42a.962.962,0,0,0,.517-.172.945.945,0,0,0,.517.172h4.628a.919.919,0,0,0,.48-.147.919.919,0,0,0,.48.147h1.389a.953.953,0,0,0,.959-.945v-1.135h.529c.118,0,.206.006.268.006.006.1.006.209.006.288v.123l.006.724a.956.956,0,0,0,.959.939h1.4a.936.936,0,0,0,.43-.117.961.961,0,0,0,.436.117h1.414a.949.949,0,0,0,.922-.761,4.067,4.067,0,0,0,2.51.761h1.626a.955.955,0,0,0,.885-.589l.287-.681h1.595l.293.694a.965.965,0,0,0,.885.583h2.822a.953.953,0,0,0,.959-.945v-.9l.853,1.387a.965.965,0,0,0,.822.454h1.962a.953.953,0,0,0,.959-.945v-5.714a.953.953,0,0,0-.959-.945h-1.42a.953.953,0,0,0-.959.945v.589l-.66-1.074a.962.962,0,0,0-.816-.454H55.424a.953.953,0,0,0-.959.945v.8l-.511-1.172a.968.968,0,0,0-.878-.571H51a.944.944,0,0,0-.573.19.971.971,0,0,0-.573-.19H48.5a3.829,3.829,0,0,0-2.6.8.941.941,0,0,0-.928-.8H43.551a.958.958,0,0,0-.853.534c-.062-.043-.106-.092-.174-.135a4.158,4.158,0,0,0-2.162-.4H37.172a.918.918,0,0,0-.48.147.918.918,0,0,0-.48-.147H31.584a.945.945,0,0,0-.517.172.945.945,0,0,0-.517-.172H28.239a.957.957,0,0,0-.878.577l-.822,1.915-.909-1.94a.964.964,0,0,0-.872-.546H22.5a.953.953,0,0,0-.959.945v.822l-.517-1.2a.961.961,0,0,0-.878-.571H18.086a.955.955,0,0,0-.878.571l-2.479,5.714a.944.944,0,0,0,.081.89.961.961,0,0,0,.8.424h1.5a.955.955,0,0,0,.885-.583l.293-.694h1.607l.287.687a.955.955,0,0,0,.885.583h2.822a.953.953,0,0,0,.959-.945V199.9l.181.405A.947.947,0,0,0,25.891,200.87Zm40.515,7.089a2.492,2.492,0,0,0-.691-1.872l-.031-.031a.925.925,0,0,0,.436-.792V204.05a.953.953,0,0,0-.959-.945H62.382a3.107,3.107,0,0,0-1.993.632.943.943,0,0,0-.9-.632H56.713a3.252,3.252,0,0,0-1.825.491.949.949,0,0,0-.828-.491H49.431a.956.956,0,0,0-.847.522c-.069-.043-.112-.1-.187-.141a4.4,4.4,0,0,0-2.118-.381h-3.2a.949.949,0,0,0-.847.522,3.871,3.871,0,0,0-2.137-.522H35.665a.973.973,0,0,0-.7.3l-1.047,1.117-1.009-1.1a.942.942,0,0,0-.71-.313H26.62a.953.953,0,0,0-.959.945v5.714a.953.953,0,0,0,.959.945h5.494a.973.973,0,0,0,.7-.3l1.059-1.129,1,1.117a.961.961,0,0,0,.716.319h2.7a.953.953,0,0,0,.959-.945v-.976h.772a4.1,4.1,0,0,0,2.105-.479v1.455a.953.953,0,0,0,.959.945h1.4a.953.953,0,0,0,.959-.945v-1.154h.523c.125,0,.218.006.28.006.006.1.006.227.006.307v.829a.953.953,0,0,0,.959.945H48.6a.979.979,0,0,0,.424-.1.882.882,0,0,0,.424.1h4.628a.974.974,0,0,0,.417-.1.931.931,0,0,0,.417.1h2.7a3.591,3.591,0,0,0,2.087-.577.957.957,0,0,0,.878.577h2.7C65.241,210.709,66.406,209.678,66.406,207.96Zm-8.615-1.669-.748-.018a1.509,1.509,0,0,1-.542-.068.473.473,0,0,1-.087-.835.949.949,0,0,1,.554-.1H59.51V204.05H56.732c-1.451,0-1.981.872-1.981,1.7,0,1.8,1.626,1.725,2.922,1.768a.7.7,0,0,1,.492.129.48.48,0,0,1,.168.381.524.524,0,0,1-.162.374.813.813,0,0,1-.567.141H54.913v1.228h2.7c1.4,0,2.18-.577,2.18-1.8a1.548,1.548,0,0,0-.417-1.209A2.233,2.233,0,0,0,57.791,206.29Zm-10.091.816a1.517,1.517,0,0,1,.679.479,1.623,1.623,0,0,1,.23,1.043v1.136H47.22v-.718c0-.344.031-.853-.224-1.117a1.371,1.371,0,0,0-1.015-.252H44.5v2.087H43.108V204.05h3.2a3.477,3.477,0,0,1,1.669.27,1.337,1.337,0,0,1,.71,1.271A1.607,1.607,0,0,1,47.7,207.106Zm-.548-1.258a.541.541,0,0,0-.287-.516,1.386,1.386,0,0,0-.66-.1H44.5v1.283H46.18a1.4,1.4,0,0,0,.685-.117A.616.616,0,0,0,47.151,205.848Zm2.3,3.916h4.628v-1.185l-3.245-.006v-1.135H54v-1.166H50.833v-1.037h3.245v-1.178H49.45Zm14-3.474-.748-.018a1.509,1.509,0,0,1-.542-.068.444.444,0,0,1-.3-.424.434.434,0,0,1,.212-.411.961.961,0,0,1,.554-.1h2.542V204.05H62.394c-1.451,0-1.981.872-1.981,1.7,0,1.8,1.626,1.725,2.922,1.768a.7.7,0,0,1,.492.129.5.5,0,0,1,.168.381.524.524,0,0,1-.162.374.813.813,0,0,1-.567.141H60.582v1.228h2.7c1.4,0,2.174-.577,2.174-1.8a1.548,1.548,0,0,0-.417-1.209A2.222,2.222,0,0,0,63.453,206.29Z" transform="translate(-10 -182.499)" fill="#fff"/>
  </g>
</svg>
