<svg xmlns="http://www.w3.org/2000/svg" width="27" height="27" viewBox="0 0 27 27">
  <g id="icon-faceebook" transform="translate(-1063.077 -3074)">
    <circle id="Эллипс_1" data-name="Эллипс 1" cx="13.5" cy="13.5" r="13.5" transform="translate(1063.077 3074)" fill="#fff"/>
    <g id="FB_icon-icons.com_65484" transform="translate(1073.499 3082.284)">
      <path id="Контур_62" data-name="Контур 62" d="M142.7,15.991c-.055,0-.089.007-.124.007-.747,0-1.491,0-2.237,0-.1,0-.133-.028-.133-.133q0-2.606,0-5.215V10.5H139V8.645h.118c.327,0,.655,0,.982,0,.083,0,.1-.024.1-.1,0-.487,0-.976,0-1.463a2.148,2.148,0,0,1,.214-.98,1.864,1.864,0,0,1,1.03-.891,3.245,3.245,0,0,1,1.142-.2c.633-.009,1.266,0,1.9-.007.059,0,.107,0,.107.081q0,.9,0,1.8a.178.178,0,0,1-.011.041h-.12c-.393,0-.786,0-1.179,0a.571.571,0,0,0-.526.29.42.42,0,0,0-.057.205c-.007.371,0,.742,0,1.113,0,.087.026.111.111.111.546,0,1.091,0,1.637,0h.159c-.076.624-.151,1.236-.227,1.853H142.7Z" transform="translate(-139 -5)" fill="#99b7c0"/>
    </g>
  </g>
</svg>
