<svg xmlns="http://www.w3.org/2000/svg" width="12.142" height="16.101" viewBox="0 0 12.142 16.101">
  <g id="shopping-bag" transform="translate(-3.937 0.25)">
    <path id="Path_7" data-name="Path 7" d="M15.593,20.017H4.424a.237.237,0,0,1-.236-.248L4.72,8.6a.236.236,0,0,1,.236-.225H15.061A.236.236,0,0,1,15.3,8.6l.532,11.169a.237.237,0,0,1-.236.248ZM4.672,19.544H15.345l-.509-10.7H5.181Z" transform="translate(0 -4.416)" fill="#fff" stroke="#fff" stroke-width="0.5"/>
    <path id="Path_8" data-name="Path 8" d="M15.942,5.378a.236.236,0,0,1-.236-.236V2.792a2.319,2.319,0,0,0-4.638,0v2.35a.236.236,0,1,1-.473,0V2.792a2.792,2.792,0,0,1,5.583,0v2.35A.236.236,0,0,1,15.942,5.378Z" transform="translate(-3.378)" fill="#fff" stroke="#fff" stroke-width="0.5"/>
  </g>
</svg>
