<svg xmlns="http://www.w3.org/2000/svg" width="10.297" height="10.841" viewBox="0 0 10.297 10.841">
  <g id="search" transform="translate(-10.5 -10.5)">
    <path id="Path_4" data-name="Path 4" d="M20.133,20.142,17.91,17.776a4.3,4.3,0,0,0,.883-2.629A4.029,4.029,0,0,0,14.9,11,4.028,4.028,0,0,0,11,15.147a4.028,4.028,0,0,0,3.9,4.147,3.736,3.736,0,0,0,2.468-.938l2.223,2.364a.369.369,0,0,0,.545,0A.426.426,0,0,0,20.133,20.142ZM14.9,18.469a3.23,3.23,0,0,1-3.123-3.322A3.232,3.232,0,0,1,14.9,11.823a3.233,3.233,0,0,1,3.123,3.324A3.231,3.231,0,0,1,14.9,18.469Z" fill="#707070" stroke="#707070" stroke-width="1"/>
  </g>
</svg>
