<svg xmlns="http://www.w3.org/2000/svg" width="24.321" height="23.51" viewBox="0 0 24.321 23.51">
  <g id="reject" transform="translate(-16 -24)">
    <rect id="Прямоугольник_7" data-name="Прямоугольник 7" height="1" transform="translate(23.157 34.754)" fill="#fff"/>
    <rect id="Прямоугольник_8" data-name="Прямоугольник 8" width="1" height="1" transform="translate(24.157 34.754)" fill="#fff"/>
    <rect id="Прямоугольник_9" data-name="Прямоугольник 9" width="2" height="1" transform="translate(23.157 36.754)" fill="#fff"/>
    <rect id="Прямоугольник_10" data-name="Прямоугольник 10" height="1" transform="translate(23.157 41.754)" fill="#fff"/>
    <rect id="Прямоугольник_11" data-name="Прямоугольник 11" width="1" height="1" transform="translate(24.157 41.754)" fill="#fff"/>
    <rect id="Прямоугольник_12" data-name="Прямоугольник 12" width="1" height="1" transform="translate(25.157 41.754)" fill="#fff"/>
    <path id="Контур_23" data-name="Контур 23" d="M37.115,28.827a10.873,10.873,0,0,0-7.739-3.205H20.053V24.405a.405.405,0,0,0-.692-.287l-3.243,3.243a.405.405,0,0,0,0,.573l3.243,3.243a.405.405,0,0,0,.692-.287V29.674h9.323a6.855,6.855,0,0,1,3.91,1.216H21.269a.405.405,0,0,0-.405.405v12.16H16.405a.405.405,0,0,0-.324.649l1.034,1.378-1.034,1.378a.405.405,0,0,0,.324.649H29.376a10.944,10.944,0,0,0,7.739-18.683ZM31,31.7h5.269v1.621H31Zm-.811,4.7-.119-.119a.405.405,0,0,0-.573,0l-.524.524-.524-.524a.405.405,0,0,0-.573,0l-.119.119V31.7h2.432ZM27.194,37.75a.405.405,0,0,0,.442-.088l.524-.524.524.524a.405.405,0,0,0,.573,0l.524-.524.524.524A.405.405,0,0,0,31,37.376V34.133h5.269v2.432h0a6.9,6.9,0,0,1-6.891,6.891h-7.7V34.133h5.269v3.243a.405.405,0,0,0,.25.374ZM21.674,31.7h5.269v1.621H21.674Zm7.7,15H17.216l.73-.973a.405.405,0,0,0,0-.486l-.73-.973h12.16a7.71,7.71,0,0,0,7.7-7.7V31.3a.405.405,0,0,0-.405-.405h-2.09a7.664,7.664,0,0,0-5.206-2.027H19.648a.405.405,0,0,0-.405.405v.643l-2.264-2.264,2.264-2.264v.643a.405.405,0,0,0,.405.405h9.728a10.133,10.133,0,0,1,0,20.267Z" transform="translate(0 0)" fill="#fff"/>
  </g>
</svg>
