<svg id="icon-mail" xmlns="http://www.w3.org/2000/svg" width="15.172" height="11.921" viewBox="0 0 15.172 11.921">
  <g id="Сгруппировать_30" data-name="Сгруппировать 30" transform="translate(0 0)">
    <path id="Контур_31" data-name="Контур 31" d="M30.3,328.16a1.3,1.3,0,0,0,.888-.335l-4.3-4.3-.3.214q-.483.355-.783.554a4.824,4.824,0,0,1-.8.406,2.436,2.436,0,0,1-.931.207h-.017a2.436,2.436,0,0,1-.931-.207,4.809,4.809,0,0,1-.8-.406q-.3-.2-.783-.554l-.3-.215-4.3,4.3a1.3,1.3,0,0,0,.888.335Z" transform="translate(-16.479 -316.239)" fill="#fff"/>
    <path id="Контур_32" data-name="Контур 32" d="M.855,199.292A4.49,4.49,0,0,1,0,198.555v6.54l3.789-3.789Q2.652,200.513.855,199.292Z" transform="translate(0 -194.711)" fill="#fff"/>
    <path id="Контур_33" data-name="Контур 33" d="M416.25,199.292q-1.73,1.171-2.94,2.016L417.1,205.1v-6.54A4.679,4.679,0,0,1,416.25,199.292Z" transform="translate(-401.924 -194.711)" fill="#fff"/>
    <path id="Контур_34" data-name="Контур 34" d="M13.823,59.013H1.361a1.209,1.209,0,0,0-1,.44,1.708,1.708,0,0,0-.351,1.1A1.978,1.978,0,0,0,.472,61.71a4.2,4.2,0,0,0,.991.978q.288.2,1.736,1.207c.521.361.974.676,1.364.947l.855.6.126.09.233.168q.275.2.457.322t.44.275a2.567,2.567,0,0,0,.487.229,1.347,1.347,0,0,0,.423.076H7.6a1.347,1.347,0,0,0,.423-.076,2.562,2.562,0,0,0,.487-.229q.258-.152.44-.275t.457-.322l.233-.168.127-.09.857-.6,3.106-2.156a4.026,4.026,0,0,0,1.033-1.041,2.24,2.24,0,0,0,.415-1.278,1.366,1.366,0,0,0-1.355-1.355Z" transform="translate(-0.006 -59.013)" fill="#fff"/>
  </g>
</svg>
