<svg xmlns="http://www.w3.org/2000/svg" width="58.099" height="38.725" viewBox="0 0 58.099 38.725">
  <g id="icon-viza" transform="translate(0 0)">
    <path id="Контур_65" data-name="Контур 65" d="M68.1,208.9a3.248,3.248,0,0,1-3.225,3.225H13.225A3.244,3.244,0,0,1,10,208.9V176.625a3.248,3.248,0,0,1,3.225-3.225H64.868a3.248,3.248,0,0,1,3.225,3.225V208.9ZM21.928,186.057a1.684,1.684,0,0,0-1.891-1.364H13.278l-.053.326c4.642,1.186,8.448,3.705,10.161,8.472Zm1.891,9.681-.427-2.247a10.1,10.1,0,0,0-5.448-5.5l3.4,12.859h4.411l6.581-16.161H27.9Zm11.774,5.146,2.626-16.191H34.034l-2.626,16.191Zm11.424-16.469c-4.138,0-7.037,2.194-7.061,5.347-.024,2.318,2.069,3.6,3.658,4.387,1.636.783,2.17,1.31,2.17,2.016,0,1.085-1.31,1.565-2.5,1.565a7.969,7.969,0,0,1-3.936-.83l-.557-.279-.581,3.628a12.152,12.152,0,0,0,4.666.86c4.387.024,7.239-2.17,7.286-5.525,0-1.838-1.132-3.225-3.527-4.387-1.464-.729-2.348-1.263-2.348-2.016,0-.682.759-1.387,2.4-1.387a6.978,6.978,0,0,1,3.124.6l.379.2.581-3.5A10.383,10.383,0,0,0,47.017,184.415Zm11.246.279a2.067,2.067,0,0,0-2.194,1.364l-6.2,14.827h4.387c.705-1.992.883-2.419.883-2.419h5.347s.124.557.5,2.419h3.883l-3.379-16.191Zm-1.939,10.44s.356-.931,1.666-4.512c-.024.024.356-.931.557-1.535l.3,1.387c.783,3.859.96,4.666.96,4.666C59.147,195.134,57.155,195.134,56.325,195.134Z" transform="translate(-10 -173.4)" fill="#fff"/>
  </g>
</svg>
