<svg xmlns="http://www.w3.org/2000/svg" width="15.172" height="15.676" viewBox="0 0 15.172 15.676">
  <g id="icon-phone" transform="translate(0)">
    <path id="Контур_28" data-name="Контур 28" d="M454.539,41.2c-.249,0-.5.013-.739.037.091.141.182.288.269.441s.163.3.243.449c.077,0,.152,0,.229,0a6.663,6.663,0,0,1,6.354,8.673c.123.139.24.278.349.416s.225.3.321.441A7.585,7.585,0,0,0,454.539,41.2Z" transform="translate(-446.955 -40.698)" fill="#fff"/>
    <path id="Контур_29" data-name="Контур 29" d="M34.528,269.08a6.671,6.671,0,0,1-7.807-6.566,6.628,6.628,0,0,1,.614-2.792l-.106-.411c-.022-.091-.046-.181-.067-.267-.056-.225-.107-.44-.147-.643a7.583,7.583,0,0,0,8.7,11.332c-.19-.086-.39-.187-.6-.305C34.93,269.324,34.735,269.208,34.528,269.08Z" transform="translate(-25.8 -254.424)" fill="#fff"/>
    <path id="Контур_30" data-name="Контур 30" d="M161.759,21.279c-.091-.141-.193-.281-.3-.421a5.78,5.78,0,0,0-2.023-1.74h-.014c-.475,0-1.371.854-1.889,2.257a10.521,10.521,0,0,1-4.943-6.586s2.962-.595,2.525-1.658a17.458,17.458,0,0,0-.835-1.8q-.12-.218-.249-.422a4.821,4.821,0,0,0-.286-.408,1.49,1.49,0,0,0-1.036-.7.709.709,0,0,0-.358.1c-1.953,1.2-2.49,1.866-2.453,2.872a3.862,3.862,0,0,0,.077.611c.035.182.08.376.133.587.075.3.163.63.257,1,.963,2.8,1.586,4.7,4.571,7.219a29.24,29.24,0,0,0,2.952,1.919,5.728,5.728,0,0,0,.569.262,2.7,2.7,0,0,0,.675.174c.066.006.13.011.193.011.857,0,1.5-.643,2.77-1.743a1.161,1.161,0,0,0-.067-1.068A3.854,3.854,0,0,0,161.759,21.279Z" transform="translate(-147.907 -9.8)" fill="#fff"/>
  </g>
</svg>
