<svg xmlns="http://www.w3.org/2000/svg" width="27.153" height="27.15" viewBox="0 0 27.153 27.15">
  <g id="ship" transform="translate(-0.001 -0.025)">
    <g id="Сгруппировать_20" data-name="Сгруппировать 20" transform="translate(17.074 13.491)">
      <g id="Сгруппировать_19" data-name="Сгруппировать 19">
        <path id="Контур_18" data-name="Контур 18" d="M326.185,256.143l-3.43-2.117a.53.53,0,1,0-.557.9l3.43,2.117a.53.53,0,0,0,.557-.9Z" transform="translate(-321.948 -253.949)" fill="#fff"/>
      </g>
    </g>
    <g id="Сгруппировать_22" data-name="Сгруппировать 22" transform="translate(15.267 12.376)">
      <g id="Сгруппировать_21" data-name="Сгруппировать 21">
        <path id="Контур_19" data-name="Контур 19" d="M288.408,232.915a.534.534,0,0,0-.517.652.544.544,0,0,0,.24.326.517.517,0,0,0,.276.083.526.526,0,0,0,.452-.252A.543.543,0,0,0,288.408,232.915Z" transform="translate(-287.877 -232.915)" fill="#fff"/>
      </g>
    </g>
    <g id="Сгруппировать_24" data-name="Сгруппировать 24" transform="translate(5.92 13.472)">
      <g id="Сгруппировать_23" data-name="Сгруппировать 23">
        <path id="Контур_20" data-name="Контур 20" d="M116,253.822a.546.546,0,0,0-.731-.166l-3.409,2.15a.534.534,0,0,0-.166.731.553.553,0,0,0,.449.239.5.5,0,0,0,.282-.072l3.41-2.151A.534.534,0,0,0,116,253.822Z" transform="translate(-111.611 -253.58)" fill="#fff"/>
      </g>
    </g>
    <g id="Сгруппировать_26" data-name="Сгруппировать 26" transform="translate(11.122 12.335)">
      <g id="Сгруппировать_25" data-name="Сгруппировать 25">
        <path id="Контур_21" data-name="Контур 21" d="M210.239,232.145a.53.53,0,1,0,.518.647A.532.532,0,0,0,210.239,232.145Z" transform="translate(-209.71 -232.145)" fill="#fff"/>
      </g>
    </g>
    <g id="Сгруппировать_28" data-name="Сгруппировать 28" transform="translate(0.001 0.025)">
      <g id="Сгруппировать_27" data-name="Сгруппировать 27" transform="translate(0 0)">
        <path id="Контур_22" data-name="Контур 22" d="M27.023,24.178a.53.53,0,0,0-.748-.052,4.826,4.826,0,0,1-1.831,1.207,3.222,3.222,0,0,1-2.355-.325l2.762-9.293a.53.53,0,0,0-.234-.6l-2.555-1.548V9.041a.53.53,0,0,0-.53-.53H20.471V6.919a.53.53,0,0,0-.53-.53H18.27V4.8a.53.53,0,0,0-.53-.53H15.168V.555a.53.53,0,0,0-.53-.53H12.516a.53.53,0,0,0-.53.53V4.268H9.414a.53.53,0,0,0-.53.53V6.389H7.213a.53.53,0,0,0-.53.53V8.51H5.622a.53.53,0,0,0-.53.53v4.521L2.536,15.11a.53.53,0,0,0-.234.6l2.756,9.274c-.047-.158-.9-.262-1.046-.282A4.8,4.8,0,0,0,.183,26.247.53.53,0,0,0,.131,27a.537.537,0,0,0,.748.052c1.146-1,2.438-1.756,3.954-1a4.408,4.408,0,0,0,4.22.228c1.152-.606,2.264-1.13,3.549-.518l1.322.629a4.013,4.013,0,0,0,3.543-.034,6.026,6.026,0,0,1,2.181-.859,4.339,4.339,0,0,1,2.2.575,4.057,4.057,0,0,0,2.911.264,5.859,5.859,0,0,0,2.213-1.409A.53.53,0,0,0,27.023,24.178ZM21,9.571v3.348L15.476,9.571ZM13.047,1.086h1.061V4.268H13.047Zm-3.1,4.243H17.21V6.389H9.944ZM6.152,9.571h5.526L6.152,12.919ZM13.047,24.8c0-.094-.756-.268-.855-.29a4.1,4.1,0,0,0-2.751.368,5.7,5.7,0,0,1-1.887.782h0a3.037,3.037,0,0,1-1.214-.1l-2.9-9.758,9.61-5.823ZM7.743,8.51V7.45H19.411V8.51ZM21.109,24.582c.006-.164-1.487-.163-1.587-.152a7.555,7.555,0,0,0-2.529.977,3.171,3.171,0,0,1-2.885-.105V9.982l9.61,5.823Z" transform="translate(-0.001 -0.025)" fill="#fff"/>
      </g>
    </g>
  </g>
</svg>
