<svg xmlns="http://www.w3.org/2000/svg" width="25.74" height="24.64" viewBox="0 0 25.74 24.64">
  <g id="parcel" transform="translate(-12.396 -14.602)">
    <path id="Контур_24" data-name="Контур 24" d="M38.016,17.581l0,0-2.74-2.842a.437.437,0,0,0-.314-.133H15.573a.437.437,0,0,0-.314.133l-2.74,2.843,0,0a.435.435,0,0,0-.12.3v4.16a.437.437,0,0,0,.436.436h.54V38.805a.436.436,0,0,0,.436.436H36.723a.436.436,0,0,0,.436-.436V22.478h.54a.437.437,0,0,0,.436-.436V17.88a.435.435,0,0,0-.12-.3Zm-1.343-.136H27.024l-.519-1.97h8.269ZM24.281,22.478h1.97v1.988l-.655-.754a.451.451,0,0,0-.659,0l-.655.754Zm0-.873V18.318h1.97v3.288Zm1.322-6.13.518,1.97H24.411l.518-1.97Zm-9.844,0h8.268l-.519,1.97H13.86ZM13.27,18.318H23.409v3.288H13.27ZM36.287,38.37H14.246V22.478h9.163v3.155a.436.436,0,0,0,.766.287l1.092-1.255,1.092,1.255a.437.437,0,0,0,.766-.287V22.478h9.163Zm.975-16.764H27.124V18.318H37.262Z" transform="translate(0)" fill="#fff"/>
    <path id="Контур_25" data-name="Контур 25" d="M46,65.709a.437.437,0,0,0-.436.436v2.639a.437.437,0,0,0,.436.436h8.323a.437.437,0,0,0,.436-.436V66.145a.437.437,0,0,0-.436-.436Zm7.887,2.639h-7.45V66.582h7.45Z" transform="translate(-24.896 -38.361)" fill="#fff"/>
  </g>
</svg>
