<svg xmlns="http://www.w3.org/2000/svg" width="16.326" height="14.208" viewBox="0 0 16.326 14.208">
  <g id="heart-outline-with-a-plus-sign-inside" transform="translate(0 -6.957)">
    <path id="Контур_58" data-name="Контур 58" d="M13.826,7.557a4.808,4.808,0,0,0-5.666.751A4.817,4.817,0,0,0,0,11.774a4.594,4.594,0,0,0,.227,1.444c.775,3.5,7.4,7.7,7.682,7.877a.488.488,0,0,0,.505,0c.283-.179,6.9-4.37,7.668-7.829a4.69,4.69,0,0,0,.243-1.488A4.834,4.834,0,0,0,13.826,7.557Zm1.338,5.457c-.613,2.767-5.794,6.316-7.006,7.113-1.212-.8-6.4-4.351-7.019-7.161a3.728,3.728,0,0,1-.192-1.19A3.868,3.868,0,0,1,7.795,9.31a.476.476,0,0,0,.366.171.469.469,0,0,0,.365-.172,3.871,3.871,0,0,1,6.85,2.469A3.974,3.974,0,0,1,15.165,13.014ZM8.633,15.783Z" fill="#99b7bf"/>
  </g>
</svg>
