<svg xmlns="http://www.w3.org/2000/svg" width="336.146" height="82.491" viewBox="0 0 336.146 82.491">
  <g id="Логотип" transform="translate(-11.2 -9.006)">
    <g id="Слой_2" transform="translate(11.2 9.006)">
      <rect id="Прямоугольник_16" data-name="Прямоугольник 16" width="215.568" height="58.725" transform="translate(48.353 19.601)" fill="none"/>
      <rect id="Прямоугольник_17" data-name="Прямоугольник 17" width="288.306" height="58.725" transform="translate(47.84 23.766)" fill="none"/>
      <rect id="Прямоугольник_19" data-name="Прямоугольник 19" width="12.96" height="12.96" transform="translate(22.022 9.164) rotate(-45)" fill="#707070"/>
      <path id="Контур_41" data-name="Контур 41" d="M31.045,49.5,11.2,69.345c3.213,3.159,6.4,6.345,9.612,9.5Q30.654,68.967,40.5,59.058,35.757,54.279,31.045,49.5Z" transform="translate(-11.2 -38.567)" fill="#707070"/>
      <path id="Контур_42" data-name="Контур 42" d="M112.5,48.6,132.67,68.769,123,78.435,111.988,67.419c-3.672,3.672-7.4,7.1-11.07,10.773-2.943-2.943-6.075-5.94-9.018-8.883C98.7,62.289,105.724,55.62,112.5,48.6Z" transform="translate(-70.111 -37.91)" fill="#707070"/>
      <path id="Контур_43" data-name="Контур 43" d="M71.958,161.262l20.169-20.169-9.666-9.666L71.445,142.443,60.4,131.4l-8.8,8.8Q61.766,150.732,71.958,161.262Z" transform="translate(-40.692 -98.354)" fill="#99b7bf"/>
    </g>
    <g id="Слой_5" transform="translate(68.235 20.29)">
      <rect id="Прямоугольник_34" data-name="Прямоугольник 34" width="257.175" height="47.817" fill="none"/>
      <g id="Сгруппировать_31" data-name="Сгруппировать 31" transform="translate(11.626)">
        <path id="Контур_48" data-name="Контур 48" d="M296.307,61.193H283.32V93.215h-4.833V61.193H265.5V56.9h30.78v4.293Z" transform="translate(-265.5 -55.253)" fill="#707070"/>
        <path id="Контур_49" data-name="Контур 49" d="M405.184,60.752H400V56h5.184Zm-.3,31.806H400.3V65.315h4.59Z" transform="translate(-363.685 -54.596)" fill="#707070"/>
        <path id="Контур_50" data-name="Контур 50" d="M461.09,88.762H456.5V50.8h4.59Z" transform="translate(-404.93 -50.8)" fill="#707070"/>
        <path id="Контур_51" data-name="Контур 51" d="M529.405,102.55H509.344a11.414,11.414,0,0,0,.756,4.374,8.056,8.056,0,0,0,2.079,3.051,7.835,7.835,0,0,0,3.024,1.755,12.279,12.279,0,0,0,3.834.594,15.261,15.261,0,0,0,5.589-1.107,13.325,13.325,0,0,0,4.023-2.187h.243v5a42.573,42.573,0,0,1-4.725,1.647,18.3,18.3,0,0,1-5.076.648c-4.509,0-8.046-1.215-10.584-3.672s-3.807-5.913-3.807-10.422q0-6.682,3.645-10.611A12.478,12.478,0,0,1,517.93,87.7c3.672,0,6.507,1.08,8.505,3.213s3,5.184,3,9.153v2.484Zm-4.482-3.51a8.218,8.218,0,0,0-1.809-5.589c-1.188-1.323-3.024-1.971-5.454-1.971a8,8,0,0,0-5.859,2.16,8.549,8.549,0,0,0-2.484,5.4Z" transform="translate(-440.116 -77.737)" fill="#707070"/>
        <path id="Контур_52" data-name="Контур 52" d="M638.828,128.728H623.6V124.3h15.228Z" transform="translate(-526.913 -104.455)" fill="#707070"/>
        <path id="Контур_53" data-name="Контур 53" d="M739.176,74.938a18.4,18.4,0,0,1-.972,6.156,14.244,14.244,0,0,1-2.592,4.59,11.88,11.88,0,0,1-3.807,2.889,10.554,10.554,0,0,1-4.563.972,14.009,14.009,0,0,1-4.05-.54,18.84,18.84,0,0,1-3.4-1.485l-.3,1.269H715.2V50.8h4.59V64.354a19.408,19.408,0,0,1,4.1-2.592,11.461,11.461,0,0,1,4.887-1,9.054,9.054,0,0,1,7.614,3.7C738.231,66.946,739.176,70.429,739.176,74.938Zm-4.752.108c0-3.24-.54-5.724-1.62-7.4a5.713,5.713,0,0,0-5.184-2.511,10.614,10.614,0,0,0-4.05.864,15.862,15.862,0,0,0-3.807,2.241V83.848a18.528,18.528,0,0,0,3.348,1.215,14.2,14.2,0,0,0,3.186.351,7.441,7.441,0,0,0,5.967-2.511C733.722,81.229,734.424,78.61,734.424,75.046Z" transform="translate(-593.781 -50.8)" fill="#99b7bf"/>
        <path id="Контур_54" data-name="Контур 54" d="M850.866,115.991H846.3V113.1c-.4.27-.945.675-1.647,1.161a12.3,12.3,0,0,1-2.025,1.188,14.338,14.338,0,0,1-2.646.945,14.785,14.785,0,0,1-3.483.378,8.7,8.7,0,0,1-6.237-2.43,8.225,8.225,0,0,1-2.565-6.21,8.682,8.682,0,0,1,1.323-5.022,9.272,9.272,0,0,1,3.78-3.024A20.737,20.737,0,0,1,838.77,98.6c2.322-.27,4.833-.459,7.479-.594v-.7a5.674,5.674,0,0,0-.54-2.592,4.293,4.293,0,0,0-1.566-1.62,6.5,6.5,0,0,0-2.349-.756,19.6,19.6,0,0,0-2.862-.189,18.914,18.914,0,0,0-4.023.486,33.639,33.639,0,0,0-4.59,1.377h-.243V89.342q1.337-.365,3.888-.81a28.822,28.822,0,0,1,5-.432,22.942,22.942,0,0,1,5.022.486,10.023,10.023,0,0,1,3.7,1.62,7.316,7.316,0,0,1,2.349,2.916,10.593,10.593,0,0,1,.81,4.4v18.468Zm-4.563-6.7v-7.587c-1.4.081-3.051.216-4.941.378a26.977,26.977,0,0,0-4.509.7,7.147,7.147,0,0,0-3.186,1.755,4.318,4.318,0,0,0-1.215,3.267,4.37,4.37,0,0,0,1.4,3.537,6.654,6.654,0,0,0,4.32,1.188,10.415,10.415,0,0,0,4.428-.945A24.325,24.325,0,0,0,846.3,109.3Z" transform="translate(-675.906 -78.029)" fill="#99b7bf"/>
        <path id="Контур_55" data-name="Контур 55" d="M964.695,90.5l-15.9,37.287h-4.914l5.076-11.367L938.1,90.5h4.968l8.37,20.2,8.451-20.2Z" transform="translate(-756.497 -79.781)" fill="#99b7bf"/>
      </g>
    </g>
  </g>
</svg>
