<?xml version="1.0" encoding="utf-8"?>
<!-- Generator: Adobe Illustrator 22.0.1, SVG Export Plug-In . SVG Version: 6.00 Build 0)  -->
<svg version="1.1" id="Слой_1" xmlns="http://www.w3.org/2000/svg" xmlns:xlink="http://www.w3.org/1999/xlink" x="0px" y="0px"
	 viewBox="0 0 163.7 37.4" style="enable-background:new 0 0 163.7 37.4;" xml:space="preserve">
<style type="text/css">
	.st0{fill:none;}
	.st1{fill:#707070;}
	.st2{fill:#99B7BF;}
</style>
<g id="logo" transform="translate(-11.2 -9.006)">
	<g id="Слой_2_1_" transform="translate(11.2 9.006)">
		<rect id="Прямоугольник_16" x="28.6" y="11.6" class="st0" width="127.4" height="34.7"/>
		<rect id="Прямоугольник_17" x="28.3" y="14" class="st0" width="170.4" height="34.7"/>
		
			<rect id="Прямоугольник_19" x="14.6" y="1.6" transform="matrix(0.7071 -0.7071 0.7071 0.7071 1.5691 14.6222)" class="st1" width="7.7" height="7.7"/>
		<path id="Контур_41" class="st1" d="M11.7,6.5L0,18.2c1.9,1.9,3.8,3.8,5.7,5.6c3.9-3.9,7.8-7.8,11.6-11.7
			C15.4,10.2,13.6,8.3,11.7,6.5z"/>
		<path id="Контур_42" class="st1" d="M25.1,6.3L37,18.2L31.3,24l-6.5-6.5c-2.2,2.2-4.4,4.2-6.5,6.4c-1.7-1.7-3.6-3.5-5.3-5.3
			C16.9,14.4,21.1,10.5,25.1,6.3z"/>
		<path id="Контур_43" class="st2" d="M18.5,37.2l11.9-11.9l-5.7-5.7l-6.5,6.5l-6.5-6.5l-5.2,5.2C10.5,28.9,14.5,33,18.5,37.2
			z"/>
	</g>
	<g id="Слой_5" transform="translate(44.915 15.677)">
		<rect id="Прямоугольник_34" x="0" y="0" class="st0" width="152" height="28.3"/>
		<g id="Сгруппировать_31" transform="translate(6.873)">
			<path id="Контур_48" class="st1" d="M18.2,3.5h-7.7v18.9H7.7V3.5H0V1h18.2L18.2,3.5L18.2,3.5z"/>
			<path id="Контур_49" class="st1" d="M24.5,3.6h-3.1V0.8h3.1V3.6z M24.4,22.4h-2.7V6.3h2.7V22.4z"/>
			<path id="Контур_50" class="st1" d="M33.2,22.4h-2.7V0h2.7V22.4z"/>
			<path id="Контур_51" class="st1" d="M52.8,14.7H40.9c0,0.9,0.1,1.8,0.4,2.6c0.3,0.7,0.7,1.3,1.2,1.8c0.5,0.5,1.1,0.8,1.8,1
				c0.7,0.2,1.5,0.4,2.3,0.4c1.1,0,2.3-0.2,3.3-0.7c0.9-0.3,1.7-0.7,2.4-1.3h0.1v3c-0.9,0.4-1.8,0.7-2.8,1c-1,0.3-2,0.4-3,0.4
				c-2.3,0.1-4.5-0.6-6.3-2.2c-1.6-1.6-2.4-3.9-2.3-6.2c-0.1-2.3,0.7-4.5,2.2-6.3c1.5-1.6,3.5-2.4,5.7-2.3c1.9-0.1,3.7,0.6,5,1.9
				c1.3,1.5,1.9,3.4,1.8,5.4L52.8,14.7L52.8,14.7z M50.1,12.6c0.1-1.2-0.3-2.4-1.1-3.3c-0.9-0.8-2-1.3-3.2-1.2
				c-1.3-0.1-2.5,0.4-3.5,1.3c-0.9,0.9-1.4,2-1.5,3.2L50.1,12.6z"/>
			<path id="Контур_52" class="st1" d="M66.2,14.3h-9v-2.6h9V14.3z"/>
			<path id="Контур_53" class="st2" d="M85.9,14.3c0,1.2-0.2,2.5-0.6,3.6c-0.3,1-0.9,1.9-1.5,2.7c-0.6,0.7-1.4,1.3-2.3,1.7
				c-0.8,0.4-1.8,0.6-2.7,0.6c-0.8,0-1.6-0.1-2.4-0.3c-0.7-0.2-1.4-0.5-2-0.9l-0.2,0.8h-2.5V0h2.7v8c0.7-0.6,1.6-1.1,2.4-1.5
				c0.9-0.4,1.9-0.6,2.9-0.6c1.8-0.1,3.5,0.8,4.5,2.2C85.5,9.9,86.1,12.1,85.9,14.3z M83.1,14.3c0.1-1.5-0.2-3-1-4.4
				c-0.7-1-1.8-1.6-3.1-1.5c-0.8,0-1.6,0.2-2.4,0.5c-0.8,0.3-1.6,0.8-2.3,1.3v9.2c0.6,0.3,1.3,0.5,2,0.7c0.6,0.1,1.2,0.2,1.9,0.2
				c1.3,0.1,2.6-0.5,3.5-1.5C82.8,17.6,83.3,16,83.1,14.3L83.1,14.3z"/>
			<path id="Контур_54" class="st2" d="M103.4,22.4h-2.7v-1.7c-0.2,0.2-0.6,0.4-1,0.7c-0.4,0.3-0.8,0.5-1.2,0.7
				c-0.5,0.2-1,0.4-1.6,0.6c-0.7,0.2-1.4,0.2-2.1,0.2c-1.4,0-2.7-0.5-3.7-1.4c-1-1-1.6-2.3-1.5-3.7c0-1,0.2-2.1,0.8-3
				c0.6-0.8,1.3-1.4,2.2-1.8c1.1-0.5,2.3-0.8,3.5-0.9c1.4-0.2,2.9-0.3,4.4-0.4v-0.4c0-0.5-0.1-1.1-0.3-1.5c-0.2-0.4-0.5-0.7-0.9-1
				c-0.4-0.2-0.9-0.4-1.4-0.4c-0.6-0.1-1.1-0.1-1.7-0.1c-0.8,0-1.6,0.1-2.4,0.3c-0.9,0.2-1.8,0.5-2.7,0.8h-0.1V6.7
				c0.5-0.1,1.3-0.3,2.3-0.5c1-0.2,2-0.3,3-0.3c1,0,2,0.1,3,0.3c0.8,0.2,1.5,0.5,2.2,1c0.6,0.4,1.1,1,1.4,1.7
				c0.3,0.8,0.5,1.7,0.5,2.6L103.4,22.4L103.4,22.4z M100.7,18.5V14c-0.8,0-1.8,0.1-2.9,0.2c-0.9,0.1-1.8,0.2-2.7,0.4
				c-0.7,0.2-1.4,0.5-1.9,1c-0.5,0.5-0.8,1.2-0.7,1.9c-0.1,0.8,0.2,1.6,0.8,2.1c0.7,0.5,1.6,0.8,2.6,0.7c0.9,0,1.8-0.2,2.6-0.6
				C99.3,19.5,100,19,100.7,18.5L100.7,18.5z"/>
			<path id="Контур_55" class="st2" d="M123.1,6.3l-9.4,22h-2.9l3-6.7l-6.4-15.3h2.9l4.9,11.9l5-11.9H123.1z"/>
		</g>
	</g>
</g>
</svg>
