<svg xmlns="http://www.w3.org/2000/svg" width="198.708" height="48.763" viewBox="0 0 198.708 48.763">
  <g id="logo-footer" transform="translate(-11.2 -9.006)">
    <g id="Слой_2" transform="translate(11.2 9.006)">
      <rect id="Прямоугольник_16" data-name="Прямоугольник 16" width="127.43" height="34.714" transform="translate(28.583 11.587)" fill="none"/>
      <rect id="Прямоугольник_17" data-name="Прямоугольник 17" width="170.428" height="34.714" transform="translate(28.28 14.049)" fill="none"/>
      <rect id="Прямоугольник_19" data-name="Прямоугольник 19" width="7.661" height="7.661" transform="translate(13.018 5.417) rotate(-45)" fill="#fff"/>
      <path id="Контур_41" data-name="Контур 41" d="M22.931,49.5,11.2,61.231c1.9,1.867,3.783,3.751,5.682,5.618q5.818-5.842,11.635-11.7Q25.716,52.325,22.931,49.5Z" transform="translate(-11.2 -43.037)" fill="#fff"/>
      <path id="Контур_42" data-name="Контур 42" d="M104.078,48.6,116,60.523l-5.714,5.714-6.512-6.512c-2.171,2.171-4.373,4.2-6.544,6.368-1.74-1.74-3.591-3.511-5.331-5.251C95.922,56.692,100.072,52.75,104.078,48.6Z" transform="translate(-79.02 -42.281)" fill="#fff"/>
      <path id="Контур_43" data-name="Контур 43" d="M63.634,149.052,75.557,137.13l-5.714-5.714-6.512,6.512L56.8,131.4l-5.2,5.2Q57.609,142.828,63.634,149.052Z" transform="translate(-45.152 -111.865)" fill="#fff"/>
    </g>
    <g id="Слой_5" transform="translate(44.915 15.677)">
      <rect id="Прямоугольник_34" data-name="Прямоугольник 34" width="152.025" height="28.266" fill="none"/>
      <g id="Сгруппировать_31" data-name="Сгруппировать 31" transform="translate(6.873)">
        <path id="Контур_48" data-name="Контур 48" d="M283.711,59.438h-7.677V78.367h-2.857V59.438H265.5V56.9h18.2v2.538Z" transform="translate(-265.5 -55.926)" fill="#fff"/>
        <path id="Контур_49" data-name="Контур 49" d="M403.064,58.809H400V56h3.064Zm-.176,18.8h-2.713v-16.1h2.713Z" transform="translate(-378.533 -55.17)" fill="#fff"/>
        <path id="Контур_50" data-name="Контур 50" d="M459.213,73.241H456.5V50.8h2.713Z" transform="translate(-426.015 -50.8)" fill="#fff"/>
        <path id="Контур_51" data-name="Контур 51" d="M519.3,96.478H507.445a6.748,6.748,0,0,0,.447,2.586,4.763,4.763,0,0,0,1.229,1.8,4.632,4.632,0,0,0,1.788,1.037,7.258,7.258,0,0,0,2.266.351,9.021,9.021,0,0,0,3.3-.654,7.876,7.876,0,0,0,2.378-1.293H519v2.953a25.163,25.163,0,0,1-2.793.974,10.816,10.816,0,0,1-3,.383,8.625,8.625,0,0,1-6.257-2.171,8.161,8.161,0,0,1-2.25-6.161,8.858,8.858,0,0,1,2.155-6.273,7.376,7.376,0,0,1,5.666-2.314,6.557,6.557,0,0,1,5.028,1.9,7.621,7.621,0,0,1,1.772,5.411v1.468ZM516.655,94.4a4.858,4.858,0,0,0-1.069-3.3,4.13,4.13,0,0,0-3.224-1.165,4.727,4.727,0,0,0-3.464,1.277,5.053,5.053,0,0,0-1.468,3.192Z" transform="translate(-466.522 -81.81)" fill="#fff"/>
        <path id="Контур_52" data-name="Контур 52" d="M632.6,126.918h-9V124.3h9Z" transform="translate(-566.445 -112.569)" fill="#fff"/>
        <path id="Контур_53" data-name="Контур 53" d="M729.373,65.069a10.88,10.88,0,0,1-.575,3.639,8.419,8.419,0,0,1-1.532,2.713,7.021,7.021,0,0,1-2.25,1.708,6.238,6.238,0,0,1-2.7.575,8.282,8.282,0,0,1-2.394-.319,11.137,11.137,0,0,1-2.011-.878l-.176.75H715.2V50.8h2.713v8.012a11.473,11.473,0,0,1,2.426-1.532,6.775,6.775,0,0,1,2.889-.591,5.352,5.352,0,0,1,4.5,2.187A10.244,10.244,0,0,1,729.373,65.069Zm-2.809.064a8.155,8.155,0,0,0-.958-4.373,3.377,3.377,0,0,0-3.064-1.484,6.275,6.275,0,0,0-2.394.511,9.376,9.376,0,0,0-2.25,1.325v9.225a10.951,10.951,0,0,0,1.979.718,8.394,8.394,0,0,0,1.883.207,4.4,4.4,0,0,0,3.527-1.484A6.96,6.96,0,0,0,726.564,65.133Z" transform="translate(-643.425 -50.8)" fill="#fff"/>
        <path id="Контур_54" data-name="Контур 54" d="M841.394,104.587h-2.7V102.88c-.239.16-.559.4-.974.686a7.274,7.274,0,0,1-1.2.7,8.478,8.478,0,0,1-1.564.559,8.74,8.74,0,0,1-2.059.223,5.146,5.146,0,0,1-3.687-1.436,4.862,4.862,0,0,1-1.516-3.671,5.132,5.132,0,0,1,.782-2.969,5.482,5.482,0,0,1,2.234-1.788,12.259,12.259,0,0,1,3.527-.878c1.373-.16,2.857-.271,4.421-.351v-.415a3.353,3.353,0,0,0-.319-1.532,2.537,2.537,0,0,0-.926-.958,3.844,3.844,0,0,0-1.389-.447,11.588,11.588,0,0,0-1.692-.112,11.181,11.181,0,0,0-2.378.287,19.888,19.888,0,0,0-2.713.814H829.1V88.834q.79-.215,2.3-.479a17.037,17.037,0,0,1,2.953-.255,13.561,13.561,0,0,1,2.969.287,5.925,5.925,0,0,1,2.187.958,4.324,4.324,0,0,1,1.389,1.724,6.261,6.261,0,0,1,.479,2.6v10.917Zm-2.7-3.958V96.144c-.83.048-1.8.128-2.921.223a15.946,15.946,0,0,0-2.666.415,4.225,4.225,0,0,0-1.883,1.037,2.553,2.553,0,0,0-.718,1.931,2.583,2.583,0,0,0,.83,2.091,3.933,3.933,0,0,0,2.554.7,6.157,6.157,0,0,0,2.618-.559A14.377,14.377,0,0,0,838.7,100.629Z" transform="translate(-737.969 -82.147)" fill="#fff"/>
        <path id="Контур_55" data-name="Контур 55" d="M953.821,90.5l-9.4,22.042h-2.9l3-6.719L938.1,90.5h2.937l4.948,11.939,5-11.939Z" transform="translate(-830.748 -84.164)" fill="#fff"/>
      </g>
    </g>
  </g>
</svg>
