<svg xmlns="http://www.w3.org/2000/svg" width="18.301" height="17.538" viewBox="0 0 18.301 17.538">
  <path id="shapes-and-symbols" d="M4.1,18.031a.974.974,0,0,1-.948-1.19l1.177-5.186L.333,8.153a.973.973,0,0,1,.551-1.7l5.283-.48L8.257,1.083a.973.973,0,0,1,1.789,0l2.089,4.889,5.282.48a.974.974,0,0,1,.553,1.7l-3.993,3.5,1.177,5.186a.972.972,0,0,1-1.447,1.051L9.151,15.169,4.6,17.893a.975.975,0,0,1-.5.138ZM11.809,7.079c-.285-.056-.681-.546-2.657-5.178C9.151,1.9,11.83,7.085,11.809,7.079ZM6.128,6.066v0Zm6.046,0v0Zm0,0" transform="translate(-0.001 -0.492)" fill="#fc863c"/>
</svg>
