<svg xmlns="http://www.w3.org/2000/svg" width="20.932" height="19.188" viewBox="0 0 20.932 19.188">
  <g id="supermarket" transform="translate(0 -21.334)">
    <g id="Сгруппировать_34" data-name="Сгруппировать 34" transform="translate(5.233 36.161)">
      <g id="Сгруппировать_33" data-name="Сгруппировать 33">
        <circle id="Эллипс_5" data-name="Эллипс 5" cx="2.18" cy="2.18" r="2.18" fill="#fff"/>
      </g>
    </g>
    <g id="Сгруппировать_36" data-name="Сгруппировать 36" transform="translate(0 21.334)">
      <g id="Сгруппировать_35" data-name="Сгруппировать 35" transform="translate(0 0)">
        <path id="Контур_61" data-name="Контур 61" d="M20.845,24.125a.453.453,0,0,0-.349-.174H3.925l-.436-2.268a.579.579,0,0,0-.436-.349H.436a.436.436,0,1,0,0,.872H2.7L4.8,32.847A3.17,3.17,0,0,0,7.85,35.289h10.03a.436.436,0,1,0,0-.872H7.849a2.011,2.011,0,0,1-1.744-.959l12.734-1.744a.375.375,0,0,0,.349-.349l1.744-6.977A.431.431,0,0,0,20.845,24.125Z" transform="translate(0 -21.334)" fill="#fff"/>
      </g>
    </g>
    <g id="Сгруппировать_38" data-name="Сгруппировать 38" transform="translate(13.955 36.161)">
      <g id="Сгруппировать_37" data-name="Сгруппировать 37">
        <circle id="Эллипс_6" data-name="Эллипс 6" cx="2.18" cy="2.18" r="2.18" fill="#fff"/>
      </g>
    </g>
  </g>
</svg>
