<svg xmlns="http://www.w3.org/2000/svg" width="156.432" height="154.896" viewBox="0 0 156.432 154.896">
  <path id="Монтажная_область_28" data-name="Монтажная область 28" d="M37.685,137.006h-4.7c-2.348-.022-3.355-.962-3.363-3.2-.019-4.111,0-8.223,0-12.331,0-2.787.887-3.63,3.8-3.63H182.089c3.119,0,3.96.8,3.96,3.756V133.65c0,2.424-.973,3.331-3.487,3.36h-4.537c.438,2.028.818,3.856,1.224,5.677.542,2.42,1.2,4.811,1.639,7.257a5.229,5.229,0,0,1-2.228,5.733,1.632,1.632,0,0,0-.508,1.4c.829,3.96,1.751,7.9,2.631,11.843.539,2.424.163,4.552-2.116,6.132a1.626,1.626,0,0,0-.515,1.4c.825,3.964,1.747,7.9,2.627,11.842.539,2.428.174,4.552-2.1,6.136a1.638,1.638,0,0,0-.527,1.4c.849,4,1.821,7.975,2.673,11.972.5,2.361.1,4.474-2.131,6.018a1.628,1.628,0,0,0-.543,1.391c.821,3.96,1.724,7.905,2.619,11.843.569,2.5.132,4.634-2.158,6.254a1.644,1.644,0,0,0-.438,1.41q1.205,5.814,2.549,11.595c.6,2.55.252,4.718-2.127,6.365a1.647,1.647,0,0,0-.426,1.432q1.2,5.81,2.546,11.594c1.042,4.515-1.05,7.032-5.92,7.032H40.483c-3.049,0-4.921-1.044-5.517-3.508a10.739,10.739,0,0,1,.174-4.474c.705-3.564,1.627-7.091,2.375-10.647a1.748,1.748,0,0,0-.55-1.48,5.453,5.453,0,0,1-2.127-5.921c.841-4,1.825-7.975,2.673-11.976a1.757,1.757,0,0,0-.5-1.521,5.26,5.26,0,0,1-2.177-5.884c.818-4.008,1.821-7.983,2.67-11.983a1.755,1.755,0,0,0-.484-1.525,5.252,5.252,0,0,1-2.185-5.881c.818-4.008,1.817-7.983,2.662-11.987a1.745,1.745,0,0,0-.473-1.525,5.239,5.239,0,0,1-2.189-5.88c.814-4.008,1.821-7.983,2.654-11.987a1.888,1.888,0,0,0-.581-1.61,5.257,5.257,0,0,1-2.077-5.8c.821-4.012,1.817-7.986,2.666-11.99a1.765,1.765,0,0,0-.488-1.48,5.51,5.51,0,0,1-2.108-6.166C35.791,145.47,36.705,141.4,37.685,137.006Zm9.128-13.763c0,2.535.019,4.929,0,7.32,0,.836.353,1.144,1.209,1.129,2.123-.044,4.262-.059,6.377-.056q20.066,0,40.14.044c10.818,0,21.639-.044,32.457-.044q20.213,0,40.431.044c.461,0,.918-.052,1.375-.081v-8.356Zm93.116,52.551H75.8V189.92h64.112Zm-32.158-24.573q15.3,0,30.609.026c1.282,0,1.666-.37,1.647-1.58-.074-3.786-.062-7.575,0-11.361,0-1.11-.387-1.425-1.511-1.425q-30.678.041-61.357,0c-1.162,0-1.511.37-1.5,1.44.054,3.742.078,7.483,0,11.225-.031,1.343.415,1.717,1.806,1.71q15.128-.072,30.3-.048Zm.066,5.078H77.229c-.911,0-1.585.033-1.569,1.21.054,3.971.039,7.946,0,11.917,0,.9.337,1.229,1.275,1.214,2.325-.037,4.649,0,6.974,0q27.2,0,54.394.026c1.337,0,1.751-.37,1.724-1.647-.078-3.649-.093-7.3,0-10.943.039-1.414-.415-1.8-1.879-1.791-10.1.026-20.209,0-30.314,0Zm-.031,53.117q15.291,0,30.582.018c1.124,0,1.658-.211,1.635-1.44-.074-3.875-.05-7.753,0-11.628,0-.959-.337-1.288-1.344-1.288q-30.8.029-61.6,0c-1.081,0-1.422.37-1.41,1.369.046,3.734.081,7.476-.019,11.21-.035,1.41.407,1.8,1.875,1.788,10.089-.067,20.186-.041,30.283-.041Zm-.035,19.4c10.194,0,20.388-.018,30.582.022,1.244,0,1.693-.307,1.67-1.554-.077-3.734-.066-7.476,0-11.21.019-1.181-.3-1.61-1.616-1.606q-30.582.048-61.159,0c-1.162,0-1.616.307-1.6,1.48.066,3.7.023,7.383.027,11.073,0,1.787,0,1.791,1.937,1.791Zm.066,19.4h0c10.155,0,20.31-.022,30.461.026,1.337,0,1.751-.37,1.724-1.647-.077-3.738-.066-7.483,0-11.221.019-1.151-.387-1.5-1.577-1.5q-30.609.041-61.217,0c-1.2,0-1.592.37-1.573,1.51.058,3.7.089,7.4,0,11.1-.035,1.406.387,1.8,1.875,1.791,10.089-.115,20.2-.074,30.3-.074Zm-.147,19.392h30.752c1.2,0,1.592-.348,1.577-1.48-.062-3.834-.05-7.668,0-11.5,0-1.025-.349-1.362-1.422-1.362q-30.752.033-61.5,0c-1.069,0-1.437.333-1.426,1.358.047,3.741.085,7.483,0,11.221-.035,1.41.387,1.8,1.875,1.795,10.031-.07,20.086-.044,30.144-.044ZM40.336,228.493a2.983,2.983,0,0,0,.655.233q8.4,0,16.8.048c.818,0,.938-.415.938-1.051V215.547c0-.773-.291-1.051-1.1-1.047q-6.666.039-13.328,0a1.041,1.041,0,0,0-1.22,1.007c-.488,2.52-1.12,5.011-1.658,7.516C41.033,224.851,40.692,226.7,40.336,228.493Zm-.062-38.521c6.118,0,11.813,0,17.513-.048.314,0,.887-.662.895-1.021.066-4.019.027-8.038.05-12.053,0-.829-.295-1.151-1.162-1.143q-6.587.037-13.2,0c-.837,0-1.124.3-1.279,1.11-.469,2.479-1.1,4.926-1.643,7.4C41.037,186.03,40.692,187.869,40.274,189.971Zm.074-39.106a2.672,2.672,0,0,0,.531.252c5.653.018,11.306.048,16.959,0,.294,0,.833-.607.841-.94q.081-6.162,0-12.324a1.278,1.278,0,0,0-.887-.888q-6.811-.089-13.627,0a1.4,1.4,0,0,0-.992.844c-.624,2.494-1.162,5-1.7,7.516C41.06,147.194,40.7,149.074,40.347,150.866Zm0,19.392c.349.17.434.252.519.252,5.653.022,11.31.055,16.963,0,.3,0,.849-.6.852-.929q.085-6.162,0-12.324a1.4,1.4,0,0,0-1.015-.91q-6.742-.089-13.487,0a1.385,1.385,0,0,0-1,.829c-.624,2.491-1.162,5-1.7,7.516-.418,1.891-.775,3.771-1.139,5.566Zm-.081,39.1c6.149,0,11.891,0,17.633-.044.279,0,.775-.64.775-.988.054-4.071.062-8.142,0-12.187a1.383,1.383,0,0,0-.953-.97q-6.742-.1-13.483,0a1.412,1.412,0,0,0-1.065.77c-.546,2.087-1,4.2-1.449,6.291-.48,2.269-.934,4.563-1.461,7.128Zm-.039,38.81c6.149,0,11.891,0,17.629-.037a1.189,1.189,0,0,0,.81-.833q.081-6.228,0-12.461a1.287,1.287,0,0,0-.918-.866q-6.811-.085-13.627,0a1.407,1.407,0,0,0-.961.873c-.5,1.958-.891,3.938-1.317,5.921C41.327,243.111,40.816,245.476,40.227,248.166Zm135.031,0c-.128-1.01-.163-1.743-.322-2.454-.775-3.449-1.685-6.872-2.325-10.362-.221-1.225-.647-1.48-1.813-1.48q-6.238.07-12.472,0c-1.058,0-1.438.3-1.426,1.34q.074,5.818,0,11.632c0,1.066.407,1.328,1.449,1.321,4.444-.041,8.892,0,13.34,0ZM40.281,267.558c6.114,0,11.81,0,17.505-.041a1.288,1.288,0,0,0,.887-.9q.093-6.162,0-12.324a1.4,1.4,0,0,0-.98-.944q-6.742-.089-13.483,0a1.391,1.391,0,0,0-1.034.8c-.624,2.527-1.2,5.092-1.744,7.649C41.041,263.628,40.7,265.467,40.281,267.558Zm134.945-.078c-.085-.766-.1-1.4-.236-2.021-.8-3.627-1.67-7.239-2.4-10.88-.2-1-.608-1.291-1.6-1.284-4.2.033-8.4.048-12.6,0-1.162,0-1.476.4-1.465,1.447.05,3.782.077,7.564,0,11.343-.027,1.284.488,1.528,1.693,1.514,4.971-.052,9.942-.019,14.917-.026C174.041,267.562,174.556,267.513,175.227,267.48Zm-12.046-52.973c-1.786,0-3.286.056-4.773-.022-1.12-.056-1.515.278-1.5,1.392.066,3.83.054,7.664,0,11.495,0,1.058.283,1.443,1.457,1.429,5.219-.056,10.438-.019,15.657-.03a14.588,14.588,0,0,0,1.453-.144c-.9-4.126-1.771-8.071-2.631-12.02-.461-2.128-.453-2.072-2.763-2.128-1.162-.03-1.616.285-1.573,1.48.085,2.3.054,4.615,0,6.92a2.67,2.67,0,1,1-5.339-.041c-.023-.551,0-1.11,0-1.662ZM157,136.9v14.3c1.864,0,3.634.041,5.4-.041.279,0,.755-.577.775-.892q.074-6.21,0-12.427a1.184,1.184,0,0,0-.775-.888C160.639,136.866,158.869,136.9,157,136.9Zm-.085,65.2c0,2.028.027,4.071,0,6.091,0,.9.329,1.247,1.271,1.214,1.306-.048,2.611-.033,3.913,0,.8,0,1.124-.307,1.12-1.073q-.023-6.092,0-12.183c0-.766-.314-1.092-1.12-1.073-1.3.026-2.608.044-3.913,0-.938-.033-1.29.318-1.271,1.214C156.947,198.228,156.916,200.167,156.916,202.106Zm0-38.8c0,2.032.027,4.071,0,6.1,0,.892.329,1.251,1.271,1.214,1.3-.044,2.608-.033,3.913,0,.8.018,1.124-.3,1.12-1.069q-.027-6.092,0-12.183c0-.766-.314-1.088-1.12-1.073-1.3.03-2.608.041-3.913,0-.938-.037-1.29.318-1.271,1.214C156.943,159.429,156.912,161.368,156.916,163.308Zm6.281,19.536c0-1.984-.031-3.967,0-5.954.023-.9-.329-1.247-1.267-1.214-1.306.048-2.611.037-3.913,0-.806,0-1.124.307-1.12,1.07q.031,6.1,0,12.187c0,.766.318,1.084,1.12,1.069,1.3-.029,2.611-.04,3.913,0,.941.037,1.286-.318,1.267-1.214C163.165,186.815,163.2,184.831,163.2,182.844Zm-93.043,45.83V214.656H64.276v14.019ZM64.3,137.029v14.044c1.775,0,3.456.041,5.13-.041.279,0,.756-.566.775-.873q.074-6.1,0-12.187a1.293,1.293,0,0,0-.891-.9C67.662,136.977,66.027,137.029,64.3,137.029Zm81.233.07v13.878h5.812V137.1Zm5.835,91.494V214.715h-5.812v13.878ZM70.127,170.45V156.424c-1.782,0-3.464-.041-5.138.041-.275,0-.744.574-.748.885q-.077,6.1,0,12.187a1.168,1.168,0,0,0,.775.877C66.682,170.5,68.364,170.45,70.127,170.45Zm75.394.022c1.774,0,3.367.048,4.955-.041a1.327,1.327,0,0,0,.949-.833c.058-4.108.047-8.216,0-12.324a1.087,1.087,0,0,0-.705-.792c-1.716-.07-3.437-.037-5.192-.037Zm-81.241,19.4c1.767,0,3.355-.026,4.94,0,.752,0,1.034-.252,1.015-.97-.039-1.288,0-2.591,0-3.871v-9.111H64.28Zm0,44.143v14.063c1.775,0,3.456.04,5.13-.041.279,0,.756-.566.775-.874q.074-6.095,0-12.186a1.3,1.3,0,0,0-.891-.9c-1.631-.111-3.266-.059-4.994-.059Zm81.268.067v13.908h5.765V234.1Zm5.812-58.268c-1.771,0-3.363-.059-4.948.044a1.387,1.387,0,0,0-.953.959c-.066,4.015-.058,8.03,0,12.046,0,.329.438.921.7.932,1.716.085,3.437.044,5.211.044ZM64.28,209.2h5.812V195.286H64.28Zm87.088,0V195.323h-5.812V209.2ZM64.334,253.436v13.952H70.1V253.436Zm87.045.052h-5.858v13.9h5.858Zm17.342-116.4v13.978h6.463a13.122,13.122,0,0,0-.143-1.984c-.694-3.142-1.43-6.291-2.166-9.407C172.174,136.684,172.162,136.684,168.721,137.084Zm6.4,52.769a7.772,7.772,0,0,0,0-1.48q-1.279-6-2.631-11.976a.937.937,0,0,0-.651-.581c-1.035-.063-2.077-.026-3.138-.026v14.063Zm.062,19.4a13.183,13.183,0,0,0-.143-1.987c-.775-3.449-1.732-6.869-2.325-10.362-.271-1.64-1.015-1.943-2.437-1.773a1.1,1.1,0,0,1-.291,0c-1.19-.182-1.453.37-1.437,1.417.05,3.782.019,7.568.027,11.35,0,.44.066.881.1,1.336Zm-.046-38.784a6.912,6.912,0,0,0,0-1.251c-.864-4.034-1.732-8.068-2.654-12.09a1.228,1.228,0,0,0-.86-.718q-1.453-.089-2.91-.033v14.093ZM35.268,131.611h5.924c0-2.591,0-5.115-.027-7.627a1.019,1.019,0,0,0-.608-.74c-1.755-.063-3.514-.033-5.281-.033Zm139.262,0h5.812V123.28h-5.812Z" transform="translate(-29.617 -117.84)" fill="#fff"/>
</svg>
