<svg xmlns="http://www.w3.org/2000/svg" width="22.561" height="22.561" viewBox="0 0 22.561 22.561">
  <g id="instagram" transform="translate(0.001)">
    <path id="Path_3748" data-name="Path 3748" d="M5.246,408.662H7.939L3.69,405.939.2,403.9A5.063,5.063,0,0,0,5.246,408.662Z" transform="translate(-0.19 -386.1)" fill="#fde494"/>
    <path id="Path_3749" data-name="Path 3749" d="M14.781,341.192l-3.041-.778H5.057a2.726,2.726,0,0,1-2.723-2.723V336.2l-1.167-1.252L0,335.152v2.539c0,.1,0,.2.009.293l7.741,4.764h9.2Z" transform="translate(-0.001 -320.187)" fill="#fea150"/>
    <path id="Path_3750" data-name="Path 3750" d="M274.163,440.14a2.714,2.714,0,0,1-1.957.833h-5.764l5.208,2.334h.556a5.058,5.058,0,0,0,4.3-2.4l-1.191-.709Z" transform="translate(-254.702 -420.745)" fill="#ff5d4a"/>
    <path id="Path_3751" data-name="Path 3751" d="M442.421,319.352v3.139a2.714,2.714,0,0,1-.766,1.89l2.345.764a5.027,5.027,0,0,0,.754-2.654v-2.767l-1.207-.678Z" transform="translate(-422.194 -304.986)" fill="#e45261"/>
    <path id="Path_3752" data-name="Path 3752" d="M461.368,142.77l-1.243-.3-1.091.653v7.434l2.334.371Z" transform="translate(-438.807 -136.196)" fill="#ff4d95"/>
    <path id="Path_3753" data-name="Path 3753" d="M318.181,6.213a5.065,5.065,0,0,0-4.324-5L310.8,2.482l-1.55,1.008h3.877a2.726,2.726,0,0,1,2.723,2.723V8.087l2.334-.357Z" transform="translate(-295.621 -1.156)" fill="#cb319c"/>
    <path id="Path_3754" data-name="Path 3754" d="M205.422,0l-2.894,1.086-2.283,1.248h4.8l4.61-2.281A5.077,5.077,0,0,0,208.926,0Z" transform="translate(-191.422 0)" fill="#8a3293"/>
    <path id="Path_3755" data-name="Path 3755" d="M136.535,341.941a6.581,6.581,0,0,0,2.3-.413l-3.79-1.721-4.018-.822A6.612,6.612,0,0,0,136.535,341.941Z" transform="translate(-125.255 -324.048)" fill="#ff5d4a"/>
    <path id="Path_3756" data-name="Path 3756" d="M116.411,267.188a3.888,3.888,0,0,1-6.963-1.107l-1.044-.652-1.8.2a6.572,6.572,0,0,0,1.076,3.041l7.808,2.543a6.649,6.649,0,0,0,3.766-3.572l-1.4-.709Z" transform="translate(-101.907 -253.733)" fill="#e45261"/>
    <g id="Group_878" data-name="Group 878" transform="translate(4.667 7.24)">
      <path id="Path_3757" data-name="Path 3757" d="M108.654,196.145a3.872,3.872,0,0,1,.936-2.527l-1.659-.232-1.685.744a6.586,6.586,0,0,0-.314,2.015c0,.208.011.413.03.615l2.844.452A3.876,3.876,0,0,1,108.654,196.145Z" transform="translate(-105.931 -192.104)" fill="#ff4d95"/>
      <path id="Path_3758" data-name="Path 3758" d="M307.375,168.343a6.576,6.576,0,0,0-1.209-3.807l-1.648-.234-1.693.745a3.885,3.885,0,0,1,1.16,5.47l2.844.452A6.573,6.573,0,0,0,307.375,168.343Z" transform="translate(-294.15 -164.302)" fill="#ff4d95"/>
    </g>
    <g id="Group_879" data-name="Group 879" transform="translate(4.982 3.501)">
      <path id="Path_3759" data-name="Path 3759" d="M119.362,108.654a3.866,3.866,0,0,1,2.063.595l3.341-.512a6.611,6.611,0,0,0-11.7,1.792l3.345-.512A3.882,3.882,0,0,1,119.362,108.654Z" transform="translate(-113.063 -104.764)" fill="#cb319c"/>
      <path id="Path_3760" data-name="Path 3760" d="M363.487,82.561A1.556,1.556,0,1,0,361.931,81,1.558,1.558,0,0,0,363.487,82.561Z" transform="translate(-350.965 -79.449)" fill="#cb319c"/>
    </g>
    <path id="Path_3761" data-name="Path 3761" d="M2.334,297.076l-1.123-.56-1.21-.2v1.909l2.334,1.046Z" transform="translate(-0.001 -283.259)" fill="#ff5d4a"/>
    <path id="Path_3762" data-name="Path 3762" d="M0,251.608v1.908l2.334.76v-2.3l-1.213-.436Z" transform="translate(-0.001 -240.459)" fill="#e45261"/>
    <path id="Path_3763" data-name="Path 3763" d="M2.334,219.244l-1.2-.011L0,219.6v1.12l2.334.371Z" transform="translate(-0.001 -209.572)" fill="#ff4d95"/>
    <path id="Path_3764" data-name="Path 3764" d="M2.334,179.757l-1.236.125L0,180.912v.953l2.334-.357Z" transform="translate(-0.001 -171.836)" fill="#cb319c"/>
    <path id="Path_3765" data-name="Path 3765" d="M0,123.178l2.334-1.155v-2.661l-1.369.131L0,120.414Z" transform="translate(-0.001 -114.102)" fill="#8a3293"/>
    <path id="Path_3766" data-name="Path 3766" d="M9.036,0,3.711,2.048.061,4.271A5.077,5.077,0,0,0,0,5.057V6.312L2.334,5.26v-.2A2.726,2.726,0,0,1,5.057,2.334H8.824L14,0Z" transform="translate(-0.001)" fill="#523494"/>
    <path id="Path_3767" data-name="Path 3767" d="M6.383,0a5.065,5.065,0,0,0-5,4.271L10.362,0Z" transform="translate(-1.326)" fill="#2d2d87"/>
  </g>
</svg>
