<svg xmlns="http://www.w3.org/2000/svg" width="23.01" height="25.563" viewBox="0 0 23.01 25.563">
  <g id="viber_3_" data-name="viber (3)" transform="translate(0)">
    <path id="Path_3730" data-name="Path 3730" d="M39.632,0H34.519a8.958,8.958,0,0,0-8.948,8.948v3.835a8.952,8.952,0,0,0,5.113,8.086V25.14a.43.43,0,0,0,.727.3l3.71-3.71h4.511a8.958,8.958,0,0,0,8.948-8.948V8.948A8.958,8.958,0,0,0,39.632,0Z" transform="translate(-25.571)" fill="#665cac"/>
    <path id="Path_3731" data-name="Path 3731" d="M31.963,20.87a8.952,8.952,0,0,1-5.113-8.086V8.948A8.958,8.958,0,0,1,35.8,0H34.519a8.958,8.958,0,0,0-8.948,8.948v3.835a8.952,8.952,0,0,0,5.113,8.086V25.14a.43.43,0,0,0,.727.3l.551-.551Z" transform="translate(-25.571)" fill="#523494"/>
    <path id="Path_3732" data-name="Path 3732" d="M124.607,104.148l-.383-2.075a.426.426,0,0,0-.335-.341l-3.013-.6a.426.426,0,0,0-.385.117l-1.224,1.224a7.652,7.652,0,0,1-4.214-4.222l1.22-1.22a.426.426,0,0,0,.117-.385l-.6-3.013a.426.426,0,0,0-.34-.335l-2.075-.383a.427.427,0,0,0-.172,0,2.973,2.973,0,0,0-1.446.8,3.232,3.232,0,0,0-.762,2.908,12.869,12.869,0,0,0,3.16,6.722l.025.025a12.868,12.868,0,0,0,6.72,3.159,4.762,4.762,0,0,0,.741.06,2.885,2.885,0,0,0,2.966-2.268A.43.43,0,0,0,124.607,104.148Z" transform="translate(-106.67 -88.266)" fill="#fff"/>
    <g id="Group_875" data-name="Group 875" transform="translate(4.261 5.076)">
      <path id="Path_3733" data-name="Path 3733" d="M209.57,175.9l.417-.417h0l-.417.417Z" transform="translate(-204.645 -171.799)" fill="#e5e5e5"/>
      <rect id="Rectangle_3108" data-name="Rectangle 3108" width="0.595" transform="translate(9.139 8.325) rotate(-45)" fill="#e5e5e5"/>
      <path id="Path_3734" data-name="Path 3734" d="M122.438,114.1a4.764,4.764,0,0,1-.741-.06,12.869,12.869,0,0,1-6.72-3.159l-.025-.025a12.869,12.869,0,0,1-3.16-6.722,3.468,3.468,0,0,1,.412-2.476,2.984,2.984,0,0,0-.454.372,3.232,3.232,0,0,0-.762,2.908,12.869,12.869,0,0,0,3.16,6.722l.025.025a12.868,12.868,0,0,0,6.72,3.159,4.762,4.762,0,0,0,.741.06,2.85,2.85,0,0,0,2.539-1.276A3.133,3.133,0,0,1,122.438,114.1Z" transform="translate(-110.927 -101.659)" fill="#e5e5e5"/>
    </g>
    <g id="Group_876" data-name="Group 876" transform="translate(11.504 3.835)">
      <path id="Path_3735" data-name="Path 3735" d="M264.961,145.085a.426.426,0,1,0,0,.852,1.706,1.706,0,0,1,1.7,1.7.426.426,0,1,0,.852,0A2.559,2.559,0,0,0,264.961,145.085Z" transform="translate(-264.109 -141.676)" fill="#fff"/>
      <path id="Path_3736" data-name="Path 3736" d="M256.851,110.947a4.33,4.33,0,0,0-.473.026.426.426,0,0,0,.094.847,3.466,3.466,0,0,1,.379-.021,3.413,3.413,0,0,1,3.409,3.409,3.471,3.471,0,0,1-.021.379.426.426,0,1,0,.847.093,4.326,4.326,0,0,0,.026-.473A4.266,4.266,0,0,0,256.851,110.947Z" transform="translate(-255.999 -109.243)" fill="#fff"/>
      <path id="Path_3737" data-name="Path 3737" d="M256.852,76.81c-.152,0-.306.006-.458.017a.426.426,0,0,0,.064.85c.13-.01.263-.015.394-.015a5.118,5.118,0,0,1,4.976,6.294.426.426,0,0,0,.829.2,5.97,5.97,0,0,0-5.806-7.342Z" transform="translate(-255.999 -76.81)" fill="#fff"/>
    </g>
  </g>
</svg>
