<svg xmlns="http://www.w3.org/2000/svg" width="17.399" height="17.399" viewBox="0 0 17.399 17.399">
  <g id="telegram" transform="translate(0)">
    <g id="Group_824" data-name="Group 824" transform="translate(0 0)">
      <g id="Group_823" data-name="Group 823">
        <path id="Path_3633" data-name="Path 3633" d="M16.672,5.214A8.669,8.669,0,0,0,14.7,2.4a.272.272,0,1,0-.376.394,8.137,8.137,0,1,1-1.045-.844.272.272,0,1,0,.306-.451A8.7,8.7,0,0,0,2.548,14.851,8.7,8.7,0,0,0,16.672,5.214Z" transform="translate(0 0)" fill="#fff"/>
      </g>
    </g>
    <g id="Group_826" data-name="Group 826" transform="translate(3.031 3.664)">
      <g id="Group_825" data-name="Group 825">
        <path id="Path_3634" data-name="Path 3634" d="M98.813,107.851l-5.239,2.439a.272.272,0,0,0,.23.494l3.232-1.5-1.571,1.272-3.606,2.919-1.972-.863,2.764-1.286a.272.272,0,0,0-.23-.494l-2.975,1.385a.44.44,0,0,0,.009.8l2.2.963.645,3.87a.275.275,0,0,0,.5.1l1.829-2.792,3.46,1.615a.444.444,0,0,0,.625-.373l.487-8.286c0-.008,0-.016,0-.023A.275.275,0,0,0,98.813,107.851Zm-6.2,8.576L92.2,113.9l4.294-3.476L93.2,114.107a.275.275,0,0,0-.062.118Zm.579-.078.4-1.673.534.249Zm1.234-1.884-.577-.269,2.836-3.18-.41.626Zm3.747,1.749L94.93,114.7l3.667-5.6Z" transform="translate(-89.192 -107.827)" fill="#fff"/>
      </g>
    </g>
  </g>
</svg>
