<svg xmlns="http://www.w3.org/2000/svg" width="26.613" height="15.074" viewBox="0 0 26.613 15.074">
  <g id="width_1_" data-name="width (1)" transform="translate(0 -111)">
    <g id="Group_844" data-name="Group 844" transform="translate(0 111)">
      <g id="Group_843" data-name="Group 843">
        <path id="Path_3692" data-name="Path 3692" d="M1.04,111A1.04,1.04,0,0,0,0,112.04v12.995a1.04,1.04,0,1,0,2.079,0V112.04A1.04,1.04,0,0,0,1.04,111Z" transform="translate(0 -111)" fill="#b2b2b2"/>
      </g>
    </g>
    <g id="Group_846" data-name="Group 846" transform="translate(24.534 111)">
      <g id="Group_845" data-name="Group 845">
        <path id="Path_3693" data-name="Path 3693" d="M473.04,111a1.04,1.04,0,0,0-1.04,1.04v12.995a1.04,1.04,0,1,0,2.079,0V112.04A1.04,1.04,0,0,0,473.04,111Z" transform="translate(-472 -111)" fill="#b2b2b2"/>
      </g>
    </g>
    <g id="Group_848" data-name="Group 848" transform="translate(2.079 112.767)">
      <g id="Group_847" data-name="Group 847">
        <path id="Path_3694" data-name="Path 3694" d="M56.166,149.73H42.641l2.977-2.952a1.04,1.04,0,1,0-1.464-1.476l-3.231,3.2a3.111,3.111,0,0,0,0,4.423l3.231,3.2a1.04,1.04,0,1,0,1.464-1.476l-2.872-2.848H56.166a1.04,1.04,0,1,0,0-2.079Z" transform="translate(-40 -145)" fill="#b2b2b2"/>
      </g>
    </g>
    <g id="Group_850" data-name="Group 850" transform="translate(18.609 112.767)">
      <g id="Group_849" data-name="Group 849">
        <path id="Path_3695" data-name="Path 3695" d="M363,148.506l-3.231-3.2a1.04,1.04,0,1,0-1.464,1.476l3.231,3.2a1.032,1.032,0,0,1,0,1.471l-3.231,3.2a1.04,1.04,0,0,0,1.464,1.476l3.231-3.2a3.111,3.111,0,0,0,0-4.423Z" transform="translate(-358 -145)" fill="#b2b2b2"/>
      </g>
    </g>
  </g>
</svg>
