<svg xmlns="http://www.w3.org/2000/svg" width="99" height="84" viewBox="0 0 99 84"><g><g><path fill="#2ecc71" d="M14.269 62.637l8.893-8.844v27.71c0 .977-.803 1.757-1.767 1.757H9.15c-.984 0-1.767-.8-1.767-1.758v-15.75a10.814 10.814 0 0 0 6.886-3.115zm23.406-.679a10.698 10.698 0 0 0 7.367 3.114v16.43c0 .978-.803 1.758-1.767 1.758H31.03c-.983 0-1.766-.8-1.766-1.758V53.594zm15.216-.02l14.031-13.955v33.52c0 .977-.803 1.757-1.766 1.757H52.91c-.984 0-1.767-.8-1.767-1.758V63.336c.623-.4 1.205-.858 1.747-1.398zm34.988-34.297c.221.2.522.499.924.839v53.022c0 .978-.803 1.758-1.767 1.758H74.791c-.984 0-1.766-.8-1.766-1.758V41.895l14.594-14.514zM98.458 4.364l-.26 5.53c-.181 3.693-.362 7.366-.523 11.04-.04.858-.2 1.956-1.064 2.815-.24.239-.521.439-.843.619-.482.26-.943.378-1.405.378-1.104 0-1.826-.718-2.348-1.238l-4.396-4.351-38.863 38.649a4.968 4.968 0 0 1-3.493 1.437c-1.325 0-2.57-.519-3.493-1.437L26.293 42.415l-16.2 16.109a4.882 4.882 0 0 1-3.472 1.438 4.929 4.929 0 0 1-3.493-1.438l-.923-.918a4.873 4.873 0 0 1 0-6.927L22.82 30.197a4.888 4.888 0 0 1 3.473-1.439c1.325 0 2.57.52 3.493 1.439l15.477 15.392L79.71 11.31a217.28 217.28 0 0 1-2.992-2.974l-1.425-1.439c-.562-.558-1.746-1.736-.903-3.553.16-.358.361-.657.622-.918.823-.818 1.867-.858 2.63-.897 5.7-.261 11.382-.54 17.082-.8h.322c1.124 0 2.007.32 2.59.939.621.639.882 1.537.822 2.695z"/></g></g></svg>