<svg xmlns="http://www.w3.org/2000/svg" width="107" height="66" viewBox="0 0 107 66"><g><g><path fill="#2ecc71" d="M41.414 56.167c0 5.138-4.168 9.307-9.292 9.307-5.139 0-9.307-4.169-9.307-9.307 0-5.123 4.168-9.293 9.307-9.293 5.124 0 9.292 4.17 9.292 9.293zm-4.646 0a4.66 4.66 0 0 0-4.646-4.646c-2.57 0-4.66 2.093-4.66 4.646a4.667 4.667 0 0 0 4.66 4.661c2.555 0 4.646-2.092 4.646-4.66zM19.977 54.4H3.28c-.825 0-1.494-.67-1.494-1.495v-4.531c0-.826.67-1.494 1.494-1.494h20.83a12.26 12.26 0 0 0-4.134 7.52zm70.063 1.767c0 5.138-4.153 9.307-9.292 9.307-5.124 0-9.292-4.169-9.292-9.307 0-5.123 4.168-9.293 9.292-9.293 5.139 0 9.292 4.17 9.292 9.293zm-4.646 0a4.65 4.65 0 0 0-4.646-4.646 4.652 4.652 0 0 0-4.646 4.646c0 2.57 2.076 4.661 4.646 4.661s4.646-2.092 4.646-4.66zm21.078-7.799v4.543c0 .821-.657 1.493-1.494 1.493H92.893c-.867-5.93-5.976-10.517-12.145-10.517-6.17 0-11.28 4.586-12.13 10.517H44.251a12.29 12.29 0 0 0-4.123-7.53h23.08V4.152a2.986 2.986 0 0 1 2.988-2.988H80.3c3.973 0 7.693 1.972 9.904 5.26l9.097 13.473a11.96 11.96 0 0 1 2.047 6.676v20.301h3.63a1.49 1.49 0 0 1 1.494 1.494zM91.324 20.241L84.05 9.903a1.497 1.497 0 0 0-1.225-.628H71.485c-.82 0-1.493.672-1.493 1.494v10.324a1.49 1.49 0 0 0 1.493 1.493H90.1c1.21 0 1.926-1.36 1.224-2.345zM56.1 43.887H3.813A2.987 2.987 0 0 1 .825 40.9V27.455a2.987 2.987 0 0 1 2.988-2.987h52.286a2.987 2.987 0 0 1 2.987 2.987V40.9a2.987 2.987 0 0 1-2.987 2.987zM24.727 19.986H3.813a2.987 2.987 0 0 1-2.988-2.987V3.554A2.987 2.987 0 0 1 3.813.567h20.914a2.987 2.987 0 0 1 2.988 2.987V17a2.987 2.987 0 0 1-2.988 2.987zm31.372 0H35.184a2.987 2.987 0 0 1-2.987-2.987V3.554A2.987 2.987 0 0 1 35.184.567H56.1a2.987 2.987 0 0 1 2.987 2.987V17a2.987 2.987 0 0 1-2.987 2.987z"/></g></g></svg>