<svg xmlns="http://www.w3.org/2000/svg" width="98" height="70" viewBox="0 0 98 70"><g><g><path fill="#2ecc71" d="M82.542 11.914c-2.413.51-3.926-.752-3.926-.752s-4.639-3.991-9.852-8.37C64.532-.768 62.311-.628 59.228 1.01 54.156 3.7 41.98 10.526 36.202 14.025c-2.132 1.191-3.623 2.81-3.623 5.198 0 3.077 3.97 7.117 8.76 4.57 2.533-1.229 8.6-4.385 12.691-6.54 4.458-2.351 7.234.37 7.234.37S77.367 33.614 81.9 37.953c2.938 2.82 6.994 1.514 8.284 1.351 1.294-.163 7.578-1.4 7.578-1.4V8.585s-9.294 2.08-15.219 3.33zM33.67 58.267c.78-2 .519-4.24-.976-5.775-1.344-1.373-3.305-1.735-5.175-1.307.523-1.852.234-3.824-1.117-5.216-1.347-1.37-3.305-1.738-5.175-1.307.52-1.85.231-3.821-1.12-5.208-2.116-2.168-5.776-2.076-8.181.215-2.392 2.291-3.924 6.444-1.79 8.89 2.132 2.43 4.58.951 6.448.526-.52 1.85-2.076 3.57-.16 5.992 1.915 2.423 4.58.953 6.449.532-.521 1.842-2.01 3.735-.167 5.98 1.86 2.253 4.905 1.053 6.917.429-.776 1.993-2.438 4.142-.303 6.55 2.131 2.424 7.057 1.302 9.462-.99 2.4-2.292 2.63-5.925.52-8.1-1.457-1.493-3.63-1.838-5.632-1.21zm43.9-15.255c-17.392-17.37-9.212-9.197-18.572-18.564 0 0-2.813-2.797-6.52-1.173-2.603 1.14-5.953 2.692-8.474 3.876-2.771 1.452-4.765 1.9-5.7 1.894-5.357-.034-9.702-4.334-9.702-9.678 0-3.466 1.843-6.484 4.591-8.198 3.865-2.67 12.76-7.396 12.76-7.396s-2.71-3.43-8.646-3.43c-5.935 0-18.335 8.113-18.335 8.113s-3.517 2.25-8.532.223L.775 5.32v33.55s2.76.799 5.24 1.81a11.04 11.04 0 0 1 2.717-4.285c4.114-3.913 10.933-3.954 14.676-.104a9.245 9.245 0 0 1 2.316 4.108 9.38 9.38 0 0 1 3.972 2.418 9.232 9.232 0 0 1 2.32 4.102 9.402 9.402 0 0 1 3.971 2.422 9.478 9.478 0 0 1 2.453 4.492 9.516 9.516 0 0 1 4.144 2.48c2.249 2.309 3.047 5.44 2.564 8.459.004 0 .011 0 .015.007.036.048 1.393 1.559 2.24 2.41a4.277 4.277 0 0 0 6.029 0 4.27 4.27 0 0 0 0-6.02c-.06-.06-5.983-6.247-5.506-6.727.473-.476 8.02 7.366 8.16 7.509 1.656 1.654 4.362 1.654 6.025 0 1.66-1.657 1.656-4.357 0-6.018a32.324 32.324 0 0 1-.547-.531s-7.482-6.657-6.912-7.226c.576-.572 9.87 8.09 9.885 8.09 1.67 1.502 4.243 1.49 5.85-.115 1.564-1.561 1.598-4.031.212-5.696-.03-.089-7.083-7.45-6.532-8.004.558-.562 7.537 6.616 7.552 6.63 1.652 1.655 4.362 1.655 6.025 0 1.656-1.653 1.656-4.356 0-6.025-.023-.014-.052-.029-.074-.043z"/></g></g></svg>