<svg xmlns="http://www.w3.org/2000/svg" width="89" height="94" viewBox="0 0 89 94"><g><g><path fill="#2ecc71" d="M12.363 16.784C20.12 6.623 31.883.797 44.641.797c12.757 0 24.522 5.826 32.278 15.987a2.329 2.329 0 1 1-3.702 2.824C66.35 10.612 55.935 5.453 44.641 5.453s-21.71 5.159-28.577 14.155a2.327 2.327 0 1 1-3.7-2.824zm64.297 8.409c4.009 0 7.27 3.262 7.27 7.27 0 4.01-3.261 7.271-7.27 7.271-4.01 0-7.272-3.262-7.272-7.271 0-4.008 3.262-7.27 7.272-7.27zm12.37 23.791v10.991c0 .423-.125.839-.358 1.193l-3.686 5.61v14.73c0 1.2-.973 2.174-2.173 2.174H70.506c-1.2 0-2.172-.974-2.172-2.173v-14.73l-3.687-5.611a2.166 2.166 0 0 1-.357-1.193v-10.99a7.197 7.197 0 0 1 4.928-6.838l1.849-.568a2.173 2.173 0 0 1 1.94.337l3.653 2.737 3.653-2.737a2.172 2.172 0 0 1 1.94-.337l1.848.568a7.197 7.197 0 0 1 4.929 6.837zM5.35 32.463c0-4.008 3.263-7.27 7.272-7.27s7.271 3.262 7.271 7.27c0 4.01-3.262 7.271-7.271 7.271a7.279 7.279 0 0 1-7.271-7.271zm19.642 16.521v10.991c0 .423-.125.839-.357 1.193l-3.687 5.61v14.73c0 1.2-.973 2.174-2.173 2.174H6.47c-1.2 0-2.173-.974-2.173-2.173v-14.73L.61 61.167a2.164 2.164 0 0 1-.358-1.193v-10.99a7.197 7.197 0 0 1 4.929-6.838l1.848-.568a2.173 2.173 0 0 1 1.94.337l3.653 2.737 3.653-2.737a2.172 2.172 0 0 1 1.94-.337l1.848.568a7.197 7.197 0 0 1 4.929 6.837zm19.649-17.39c-5.172 0-9.379-4.205-9.379-9.377 0-5.17 4.207-9.377 9.379-9.377 5.171 0 9.378 4.207 9.378 9.377 0 5.172-4.207 9.378-9.378 9.378zm15.986 12.39V60.36a.826.826 0 0 1-.137.456l-5.873 8.937v22.613a.83.83 0 0 1-.83.83H35.495a.83.83 0 0 1-.832-.83V69.754l-5.873-8.937a.829.829 0 0 1-.136-.456V44.026a8.308 8.308 0 0 1 5.704-7.892s2.837-.857 2.918-.857c.34 0 .658.21.78.547l5.63 15.442c.324.89 1.584.89 1.909 0l5.628-15.442a.831.831 0 0 1 1.026-.511l2.676.821.016.005a8.257 8.257 0 0 1 5.685 7.845zm-13.63-6.767l-1.372 2.066.642 5.414-1.264 3.364a.386.386 0 0 1-.725 0l-1.264-3.364.642-5.414-1.372-2.066a1.192 1.192 0 0 1 .157-1.403c.233-.252.573-.38.917-.38h2.565c.345 0 .684.128.917.38.36.393.412.96.157 1.403z"/></g></g></svg>