<svg xmlns="http://www.w3.org/2000/svg" width="158.379" height="158.378" viewBox="0 0 158.379 158.378">
  <g id="_030-email-3" data-name="030-email-3" transform="translate(-0.002 -0.004)">
    <g id="Group_47" data-name="Group 47" transform="translate(0.001 0.004)">
      <g id="Group_46" data-name="Group 46" transform="translate(0)">
        <path id="Path_95" data-name="Path 95" d="M158.35,60.551a2.494,2.494,0,0,0-.108-.536,2.638,2.638,0,0,0-.15-.454,2.369,2.369,0,0,0-.264-.4,2.49,2.49,0,0,0-.351-.409c-.042-.037-.061-.087-.105-.124L131.984,38.907V18.473a7.92,7.92,0,0,0-7.919-7.919H95.456L84,1.66a7.827,7.827,0,0,0-9.627,0L62.918,10.553H34.31a7.919,7.919,0,0,0-7.919,7.919V38.908L1.012,58.624c-.045.037-.063.087-.105.124a2.476,2.476,0,0,0-.351.409,2.356,2.356,0,0,0-.264.4,2.6,2.6,0,0,0-.15.454,2.5,2.5,0,0,0-.108.528c0,.055-.032.1-.032.158v89.761a7.831,7.831,0,0,0,1.55,4.659c.016.024.019.053.037.074s.058.045.084.074a7.881,7.881,0,0,0,6.241,3.112h142.55a7.883,7.883,0,0,0,6.262-3.125c.021-.026.053-.034.071-.061s.021-.05.037-.074a7.832,7.832,0,0,0,1.55-4.659V60.71C158.381,60.654,158.353,60.607,158.35,60.551ZM77.6,5.825a2.531,2.531,0,0,1,3.149,0l6.09,4.728H71.531ZM8.578,153.1,77.6,99.486a2.534,2.534,0,0,1,3.149,0L149.8,153.1ZM153.1,148.987,84,95.32a7.832,7.832,0,0,0-9.627,0l-69.1,53.667V64.73L48.531,98.322a2.641,2.641,0,0,0,3.236-4.174L7.82,60.023,26.391,45.591v20.4a2.64,2.64,0,1,0,5.279,0V18.472a2.64,2.64,0,0,1,2.64-2.64h89.753a2.64,2.64,0,0,1,2.64,2.64V65.989a2.64,2.64,0,1,0,5.279,0v-20.4l18.571,14.432L106.53,94.209a2.64,2.64,0,1,0,3.236,4.171L153.1,64.73v84.258Z" transform="translate(-0.001 -0.005)" fill="#f8f5f9"/>
      </g>
    </g>
  </g>
</svg>
