<svg id="_038-email-2" data-name="038-email-2" xmlns="http://www.w3.org/2000/svg" width="16.998" height="13.032" viewBox="0 0 16.998 13.032">
  <g id="Group_3" data-name="Group 3" transform="translate(0 0)">
    <g id="Group_2" data-name="Group 2">
      <path id="Path_2" data-name="Path 2" d="M16.149,59.733H.85a.85.85,0,0,0-.85.85V71.915a.85.85,0,0,0,.85.85h15.3a.85.85,0,0,0,.85-.85V60.583A.85.85,0,0,0,16.149,59.733Zm.283,12.182a.283.283,0,0,1-.283.283H.85a.283.283,0,0,1-.283-.283V60.583A.283.283,0,0,1,.85,60.3h15.3a.283.283,0,0,1,.283.283Z" transform="translate(0 -59.733)" fill="#f8f5f9"/>
      <path id="Path_3" data-name="Path 3" d="M48.606,93.866a.283.283,0,0,0-.207.065l-6.536,5.49a.567.567,0,0,1-.729,0L34.6,93.931a.283.283,0,0,0-.364.434l6.536,5.49a1.132,1.132,0,0,0,1.458,0l6.536-5.49a.283.283,0,0,0-.158-.5Z" transform="translate(-33 -92.732)" fill="#f8f5f9"/>
      <path id="Path_4" data-name="Path 4" d="M38.32,272.932a.283.283,0,0,0-.273.088l-3.966,4.25a.283.283,0,1,0,.414.386l3.966-4.25a.283.283,0,0,0-.141-.474Z" transform="translate(-32.871 -265.847)" fill="#f8f5f9"/>
      <path id="Path_5" data-name="Path 5" d="M341.7,273.02a.283.283,0,1,0-.414.386l3.966,4.25a.283.283,0,0,0,.414-.386Z" transform="translate(-329.873 -265.847)" fill="#f8f5f9"/>
    </g>
  </g>
</svg>
