<svg xmlns="http://www.w3.org/2000/svg" width="61.566" height="80.303" viewBox="0 0 61.566 80.303">
  <g id="Group_33" data-name="Group 33" transform="translate(0)">
    <path id="Path_70" data-name="Path 70" d="M114.681,64.117l-11.519-6.41a3.525,3.525,0,0,1-1.94-3.168l-.007-3.211a30.984,30.984,0,0,0,5.326-10.877,1.33,1.33,0,0,0,.034-.3V37.475h4.015a4.019,4.019,0,0,0,4.015-4.015v-8.03a4.009,4.009,0,0,0-2.677-3.769v-.247a21.414,21.414,0,0,0-42.828,0v.247a4.009,4.009,0,0,0-2.677,3.769v8.03A4.008,4.008,0,0,0,69.1,37.228v2.924A5.36,5.36,0,0,0,74.454,45.5H76.3a34.24,34.24,0,0,0,3.513,5.815V54.4a3.517,3.517,0,0,1-1.846,3.108L66.026,64.029a12.044,12.044,0,0,0-6.295,10.6v4.337A1.338,1.338,0,0,0,61.07,80.3h58.889a1.338,1.338,0,0,0,1.338-1.338V74.9A12,12,0,0,0,114.681,64.117Zm-2.752-38.688v8.03a1.34,1.34,0,0,1-1.338,1.338h-4.015V24.091h4.015A1.34,1.34,0,0,1,111.929,25.429ZM70.439,34.8A1.34,1.34,0,0,1,69.1,33.46v-8.03a1.34,1.34,0,0,1,1.338-1.338h4.015V34.8H70.439Zm4.015,8.03a2.68,2.68,0,0,1-2.677-2.677V37.475h2.677v2.677a1.321,1.321,0,0,0,.034.3,22.183,22.183,0,0,0,.707,2.377h-.741Zm-.007-21.414h-2.67a18.737,18.737,0,0,1,37.475,0h-2.67a11.974,11.974,0,0,0-2.8-8.658C101.029,9.62,96.567,8.03,90.515,8.03S80,9.62,77.253,12.756A11.973,11.973,0,0,0,74.448,21.414ZM62.409,77.626v-3a9.37,9.37,0,0,1,4.9-8.247l11.932-6.514A6.188,6.188,0,0,0,82.485,54.4V51.32a2.639,2.639,0,0,0-.542-1.615,31.818,31.818,0,0,1-2.657-4.2h6.123a4.009,4.009,0,0,0,3.768,2.677h4.015a4.015,4.015,0,1,0,0-8.03H89.177a4.009,4.009,0,0,0-3.769,2.677H78.049A20.811,20.811,0,0,1,77.131,40V21.414a1.308,1.308,0,0,0-.012-.175,9.285,9.285,0,0,1,2.146-6.719c2.217-2.53,6-3.813,11.249-3.813,5.227,0,9,1.274,11.226,3.786a9.411,9.411,0,0,1,2.17,6.746,1.312,1.312,0,0,0-.012.175V40a28.315,28.315,0,0,1-4.811,9.708,2.639,2.639,0,0,0-.542,1.615v3.219a6.163,6.163,0,0,0,3.364,5.532l11.52,6.411a9.366,9.366,0,0,1,5.191,8.414v2.73H62.409ZM87.838,44.167a1.34,1.34,0,0,1,1.338-1.338h4.015a1.338,1.338,0,1,1,0,2.677H89.176A1.34,1.34,0,0,1,87.838,44.167Z" transform="translate(-59.732)" fill="#4b1e5f"/>
  </g>
</svg>
