<svg id="_047-location" data-name="047-location" xmlns="http://www.w3.org/2000/svg" width="16.781" height="16.502" viewBox="0 0 16.781 16.502">
  <g id="Group_5" data-name="Group 5" transform="translate(0 0)">
    <g id="Group_4" data-name="Group 4">
      <path id="Path_6" data-name="Path 6" d="M88.048,16.593c.691.974,1.381,1.846,1.838,2.407l.189.23H88.7a.28.28,0,0,0,0,.559h4.475a.28.28,0,1,0,0-.559h-1.38l.19-.23c.457-.559,1.147-1.433,1.838-2.407a24.573,24.573,0,0,0,1.848-2.978,6.541,6.541,0,0,0,.861-2.767,5.59,5.59,0,0,0-1.638-3.961.28.28,0,1,0-.4.4,5.033,5.033,0,0,1,1.474,3.565,6.029,6.029,0,0,1-.8,2.513,24.019,24.019,0,0,1-1.806,2.909c-.682.962-1.363,1.824-1.815,2.377-.15.184-.285.347-.4.484a.283.283,0,0,1-.426,0c-.115-.138-.25-.3-.4-.484-.452-.553-1.133-1.415-1.815-2.377A24.017,24.017,0,0,1,86.7,13.362a6.021,6.021,0,0,1-.8-2.513A5.036,5.036,0,0,1,92.894,6.2a.28.28,0,0,0,.218-.515,5.6,5.6,0,0,0-7.773,5.161,6.551,6.551,0,0,0,.861,2.769A24.554,24.554,0,0,0,88.048,16.593Z" transform="translate(-82.543 -5.246)" fill="#f8f5f9"/>
      <path id="Path_7" data-name="Path 7" d="M173.457,82.644a.28.28,0,1,0,0-.559,2.8,2.8,0,1,0,1.978.819.28.28,0,1,0-.4.4,2.237,2.237,0,1,1-1.582-.655Z" transform="translate(-165.066 -79.567)" fill="#f8f5f9"/>
      <path id="Path_8" data-name="Path 8" d="M16.676,367.2l-1.72-3.077a.869.869,0,0,0-.761-.439H12.2a.28.28,0,1,0,0,.559h1.993a.31.31,0,0,1,.273.153l1.719,3.077a.252.252,0,0,1,0,.258.308.308,0,0,1-.271.148H.867a.308.308,0,0,1-.27-.148.252.252,0,0,1,0-.258L2.314,364.4a.31.31,0,0,1,.273-.153H4.58a.28.28,0,1,0,0-.559H2.587a.87.87,0,0,0-.762.439L.106,367.2a.811.811,0,0,0,.009.814.861.861,0,0,0,.753.425H15.914a.862.862,0,0,0,.753-.425A.811.811,0,0,0,16.676,367.2Z" transform="translate(0 -351.936)" fill="#f8f5f9"/>
      <path id="Path_9" data-name="Path 9" d="M352.106,406.351h-1.119a.282.282,0,0,0-.155.047l-.839.559a.28.28,0,1,0,.31.465l.768-.512h1.035a.28.28,0,0,0,0-.559Z" transform="translate(-338.402 -393.205)" fill="#f8f5f9"/>
      <path id="Path_10" data-name="Path 10" d="M366.937,457.831a.28.28,0,0,0,.28.28h2.237a.28.28,0,0,0,0-.559h-2.237A.28.28,0,0,0,366.937,457.831Z" transform="translate(-354.911 -442.727)" fill="#f8f5f9"/>
      <path id="Path_11" data-name="Path 11" d="M87.574,407.469a.28.28,0,0,0,.156-.512l-.839-.559a.281.281,0,0,0-.156-.047H85.617a.28.28,0,0,0,0,.559h1.035l.769.512A.279.279,0,0,0,87.574,407.469Z" transform="translate(-82.54 -393.204)" fill="#f8f5f9"/>
      <path id="Path_12" data-name="Path 12" d="M60.017,457.551a.28.28,0,1,0,0,.559h2.237a.28.28,0,1,0,0-.559Z" transform="translate(-57.779 -442.727)" fill="#f8f5f9"/>
    </g>
  </g>
</svg>
