<svg xmlns="http://www.w3.org/2000/svg" width="13.696" height="18.354" viewBox="0 0 13.696 18.354">
  <g id="shopping-bag" transform="translate(0 0)">
    <path id="Path_23" data-name="Path 23" d="M17.605,22.071H4.466a.279.279,0,0,1-.278-.291L4.813,8.64a.278.278,0,0,1,.278-.265H16.98a.278.278,0,0,1,.278.265l.626,13.139a.279.279,0,0,1-.278.291ZM4.757,21.514H17.313l-.6-12.583H5.356Z" transform="translate(-4.188 -3.717)" fill="#fff"/>
    <path id="Path_24" data-name="Path 24" d="M16.885,6.326a.278.278,0,0,1-.278-.278V3.284a2.728,2.728,0,1,0-5.456,0V6.048a.278.278,0,1,1-.556,0V3.284a3.284,3.284,0,1,1,6.568,0V6.048A.278.278,0,0,1,16.885,6.326Z" transform="translate(-7.031)" fill="#fff"/>
  </g>
</svg>
