<svg xmlns="http://www.w3.org/2000/svg" width="17.29" height="14.15" viewBox="0 0 17.29 14.15">
  <path id="_043-twitter" data-name="043-twitter" d="M6.45,14.151a14.835,14.835,0,0,1-2.291-.182,10.754,10.754,0,0,1-3.134-1.141L0,12.268,1.109,11.9c1.212-.4,1.95-.646,2.863-1.033A3.808,3.808,0,0,1,2.014,8.6l-.258-.783.212.032a3.847,3.847,0,0,1-.482-.594A3.647,3.647,0,0,1,.867,5.088L.916,4.4l.409.159A3.827,3.827,0,0,1,.954,3.524,3.955,3.955,0,0,1,1.376.861L1.732.206l.477.573a8.776,8.776,0,0,0,5.685,3.2A3.4,3.4,0,0,1,8.1,2.174,3.383,3.383,0,0,1,9.476.6a4.13,4.13,0,0,1,2.4-.589,3.829,3.829,0,0,1,2.354.971,7.9,7.9,0,0,0,.861-.288c.189-.071.4-.152.671-.244l.988-.34L16.1,1.946l.132-.009L17.29,1.89l-.623.852c-.036.049-.045.063-.058.082-.05.076-.113.17-.968,1.312a1.612,1.612,0,0,0-.3,1.049A9.927,9.927,0,0,1,14.8,9.178a7.065,7.065,0,0,1-1.9,2.81,8.377,8.377,0,0,1-3.971,1.92,12.224,12.224,0,0,1-2.48.243Zm0,0" transform="translate(0 -0.001)" fill="#f8f5f9"/>
</svg>
