<svg id="Group_26" data-name="Group 26" xmlns="http://www.w3.org/2000/svg" width="50.799" height="49.475" viewBox="0 0 50.799 49.475">
  <g id="Group_25" data-name="Group 25">
    <path id="Path_54" data-name="Path 54" d="M45.207,34.141H43.514a.825.825,0,1,0,0,1.649h1.693a.825.825,0,1,0,0-1.649Z" transform="translate(-38.434 -30.843)" fill="#4b1e5f"/>
    <path id="Path_55" data-name="Path 55" d="M352.407,34.141h-1.693a.825.825,0,1,0,0,1.649h1.693a.825.825,0,1,0,0-1.649Z" transform="translate(-315.155 -30.843)" fill="#4b1e5f"/>
    <path id="Path_56" data-name="Path 56" d="M144.086,34.141H128.847a.825.825,0,1,0,0,1.649h15.239a.825.825,0,1,0,0-1.649Z" transform="translate(-115.301 -30.843)" fill="#4b1e5f"/>
    <path id="Path_57" data-name="Path 57" d="M42.331,22.7V2.481A2.51,2.51,0,0,0,39.791.007H2.54A2.51,2.51,0,0,0,0,2.481V47.008a2.51,2.51,0,0,0,2.54,2.474H36.4a14.3,14.3,0,0,0,14.07-11.057A13.917,13.917,0,0,0,42.331,22.7ZM1.693,2.481a.837.837,0,0,1,.847-.825H39.791a.837.837,0,0,1,.847.825V6.6H1.693ZM2.54,47.832a.837.837,0,0,1-.847-.825V8.253H40.638V22.067a14.693,14.693,0,0,0-4.233-.621H22.859A1.674,1.674,0,0,0,21.166,23.1v4.947a1.674,1.674,0,0,0,1.693,1.649H23.3a13.59,13.59,0,0,0-.654,9.895H5.08a1.674,1.674,0,0,0-1.693,1.649v3.3A1.674,1.674,0,0,0,5.08,46.183H27.15a14.467,14.467,0,0,0,2.5,1.649H2.54ZM29.646,23.1a14.337,14.337,0,0,0-5.429,4.947H22.859V23.1Zm-4.2,21.439H5.08v-3.3H23.3A14,14,0,0,0,25.451,44.534Zm10.954,3.3A12.373,12.373,0,1,1,49.1,35.464,12.537,12.537,0,0,1,36.4,47.832Z" transform="translate(0 -0.007)" fill="#4b1e5f"/>
    <path id="Path_58" data-name="Path 58" d="M35.826,112.3H68a1.674,1.674,0,0,0,1.693-1.649v-6.6A1.674,1.674,0,0,0,68,102.406H35.826a1.674,1.674,0,0,0-1.693,1.649v6.6A1.674,1.674,0,0,0,35.826,112.3Zm0-8.246H68v6.6H35.826Z" transform="translate(-30.747 -92.511)" fill="#4b1e5f"/>
    <path id="Path_59" data-name="Path 59" d="M35.826,238.365h12.7a1.674,1.674,0,0,0,1.693-1.649V223.523a1.674,1.674,0,0,0-1.693-1.649h-12.7a1.674,1.674,0,0,0-1.693,1.649v13.193A1.674,1.674,0,0,0,35.826,238.365Zm0-14.842h12.7v13.193h-12.7Z" transform="translate(-30.747 -200.435)" fill="#4b1e5f"/>
    <path id="Path_60" data-name="Path 60" d="M320.813,315.741a4.949,4.949,0,1,0,5.08,4.947A5.015,5.015,0,0,0,320.813,315.741Zm0,8.246a3.3,3.3,0,1,1,3.386-3.3A3.343,3.343,0,0,1,320.813,323.987Z" transform="translate(-284.408 -285.232)" fill="#4b1e5f"/>
    <path id="Path_61" data-name="Path 61" d="M282.248,270.737l.682-1.327a.808.808,0,0,0-.077-.86,10.066,10.066,0,0,0-2.106-2.05.868.868,0,0,0-.882-.075l-1.362.664a8.563,8.563,0,0,0-1.16-.466l-.482-1.409a.843.843,0,0,0-.677-.555,10.609,10.609,0,0,0-2.979,0,.843.843,0,0,0-.678.555l-.482,1.409a8.558,8.558,0,0,0-1.16.466l-1.362-.664a.865.865,0,0,0-.882.075,10.088,10.088,0,0,0-2.106,2.05.808.808,0,0,0-.077.86l.682,1.327a8.047,8.047,0,0,0-.479,1.13l-1.446.47a.83.83,0,0,0-.569.659,9.655,9.655,0,0,0,0,2.9.83.83,0,0,0,.569.66l1.446.47a8.068,8.068,0,0,0,.479,1.13l-.682,1.327a.808.808,0,0,0,.077.86,10.065,10.065,0,0,0,2.106,2.05.867.867,0,0,0,.882.075l1.362-.664a8.562,8.562,0,0,0,1.16.466l.482,1.409a.843.843,0,0,0,.678.555,10.486,10.486,0,0,0,2.979,0,.843.843,0,0,0,.677-.555l.482-1.409a8.567,8.567,0,0,0,1.16-.466l1.362.664a.871.871,0,0,0,.882-.075,10.089,10.089,0,0,0,2.106-2.05.808.808,0,0,0,.077-.86l-.682-1.327a8.041,8.041,0,0,0,.479-1.13l1.447-.47a.832.832,0,0,0,.57-.66,9.716,9.716,0,0,0,0-2.9.831.831,0,0,0-.57-.66l-1.447-.47A8.032,8.032,0,0,0,282.248,270.737Zm.912,3.71c0,.242-.01.478-.031.711l-1.354.44a.833.833,0,0,0-.549.567,6.468,6.468,0,0,1-.664,1.566.805.805,0,0,0-.024.78l.637,1.241c-.156.181-.321.357-.494.524s-.355.332-.539.482l-1.274-.621a.865.865,0,0,0-.8.023,6.821,6.821,0,0,1-1.607.647.838.838,0,0,0-.583.535l-.451,1.319a8.839,8.839,0,0,1-1.461,0l-.451-1.319a.839.839,0,0,0-.583-.535,6.825,6.825,0,0,1-1.607-.647.863.863,0,0,0-.8-.023l-1.275.621c-.184-.151-.362-.31-.539-.482s-.338-.343-.494-.525l.637-1.241a.8.8,0,0,0-.024-.78,6.47,6.47,0,0,1-.664-1.566.832.832,0,0,0-.549-.567l-1.354-.44c-.021-.233-.031-.468-.031-.711s.01-.478.031-.711l1.354-.44a.832.832,0,0,0,.549-.567,6.468,6.468,0,0,1,.664-1.566.805.805,0,0,0,.024-.78l-.637-1.241c.156-.181.321-.357.494-.524s.355-.332.539-.482l1.275.621a.87.87,0,0,0,.8-.023,6.822,6.822,0,0,1,1.607-.647.838.838,0,0,0,.583-.536l.451-1.319a8.845,8.845,0,0,1,1.461,0l.451,1.319a.839.839,0,0,0,.583.536,6.821,6.821,0,0,1,1.607.647.872.872,0,0,0,.8.023l1.274-.621c.184.151.362.31.539.482s.338.343.494.525l-.637,1.241a.8.8,0,0,0,.024.78,6.47,6.47,0,0,1,.664,1.566.833.833,0,0,0,.549.567l1.354.44C283.15,273.969,283.16,274.2,283.16,274.447Z" transform="translate(-238.289 -238.99)" fill="#4b1e5f"/>
  </g>
</svg>
