<svg id="Group_20" data-name="Group 20" xmlns="http://www.w3.org/2000/svg" width="91.27" height="59.262" viewBox="0 0 91.27 59.262">
  <g id="Group_19" data-name="Group 19">
    <path id="Path_40" data-name="Path 40" d="M86.707,85.333H4.564A4.505,4.505,0,0,0,0,89.778V140.15a4.505,4.505,0,0,0,4.564,4.445H86.707a4.505,4.505,0,0,0,4.564-4.445V89.778A4.505,4.505,0,0,0,86.707,85.333Zm1.521,54.818a1.5,1.5,0,0,1-1.521,1.481H47.156V94.222a1.522,1.522,0,0,0-3.042,0v47.41H4.564a1.5,1.5,0,0,1-1.521-1.481V89.778A1.5,1.5,0,0,1,4.564,88.3H86.707a1.5,1.5,0,0,1,1.521,1.482v50.373Z" transform="translate(0 -85.333)" fill="#4b1e5f"/>
    <path id="Path_41" data-name="Path 41" d="M92.939,165.808h3.042a7.518,7.518,0,0,0,7.606-7.408v-5.926a7.518,7.518,0,0,0-7.606-7.408H92.939a7.518,7.518,0,0,0-7.606,7.408V158.4A7.518,7.518,0,0,0,92.939,165.808Zm-4.564-13.334a4.505,4.505,0,0,1,4.564-4.445h3.042a4.505,4.505,0,0,1,4.564,4.445V158.4a4.505,4.505,0,0,1-4.564,4.445H92.939a4.505,4.505,0,0,1-4.564-4.445Z" transform="translate(-70.121 -134.695)" fill="#4b1e5f"/>
    <path id="Path_42" data-name="Path 42" d="M79.858,281.6H66.974a7.335,7.335,0,0,0-7.248,7.408v7.408a1.522,1.522,0,0,0,3.042,0v-7.408a4.333,4.333,0,0,1,4.206-4.445H79.858a4.333,4.333,0,0,1,4.206,4.445v5.926H78.426a1.482,1.482,0,1,0,0,2.963h7.159a1.5,1.5,0,0,0,1.521-1.481v-7.408A7.335,7.335,0,0,0,79.858,281.6Z" transform="translate(-49.077 -247.524)" fill="#4b1e5f"/>
    <path id="Path_43" data-name="Path 43" d="M319.036,153.6H291.655a1.482,1.482,0,1,0,0,2.963h27.381a1.482,1.482,0,1,0,0-2.963Z" transform="translate(-238.414 -141.748)" fill="#4b1e5f"/>
    <path id="Path_44" data-name="Path 44" d="M319.036,204.8H291.655a1.482,1.482,0,1,0,0,2.963h27.381a1.482,1.482,0,1,0,0-2.963Z" transform="translate(-238.414 -184.058)" fill="#4b1e5f"/>
    <path id="Path_45" data-name="Path 45" d="M319.036,256H291.655a1.482,1.482,0,1,0,0,2.963h27.381a1.482,1.482,0,1,0,0-2.963Z" transform="translate(-238.414 -226.369)" fill="#4b1e5f"/>
    <path id="Path_46" data-name="Path 46" d="M382.146,307.2H368.455a1.482,1.482,0,1,0,0,2.963h13.691a1.482,1.482,0,1,0,0-2.963Z" transform="translate(-301.524 -268.68)" fill="#4b1e5f"/>
  </g>
</svg>
