<svg id="Group_43" data-name="Group 43" xmlns="http://www.w3.org/2000/svg" width="60.898" height="60.896" viewBox="0 0 60.898 60.896">
  <g id="Group_42" data-name="Group 42" transform="translate(0 0)">
    <path id="Path_86" data-name="Path 86" d="M60.779,24.855A27.392,27.392,0,0,0,6.586,22.342a2.586,2.586,0,0,0-.747.293l-3.2,1.924A4.9,4.9,0,0,0,.4,27.463C-.784,31.769.081,39.174,10.907,50,19.5,58.592,25.936,60.908,30.38,60.908a11.5,11.5,0,0,0,3.064-.4,4.9,4.9,0,0,0,2.9-2.233l1.928-3.206a2.587,2.587,0,0,0,.289-.747A27.389,27.389,0,0,0,60.779,24.855ZM36.53,54.023l-1.923,3.206a2.887,2.887,0,0,1-1.7,1.319c-5.354,1.467-12.656-2.078-20.565-9.987S.886,33.353,2.355,28a2.885,2.885,0,0,1,1.319-1.7l3.209-1.928a.584.584,0,0,1,.787.178l5.116,7.672a.585.585,0,0,1-.127.784L9.788,35.237A2.593,2.593,0,0,0,9.1,38.562l.226.415a27.2,27.2,0,0,0,5.537,7.066,27.155,27.155,0,0,0,7.069,5.538l.412.225a2.588,2.588,0,0,0,3.325-.684l2.233-2.87a.588.588,0,0,1,.786-.128l7.667,5.112A.583.583,0,0,1,36.53,54.023Zm1.7-1.7a2.611,2.611,0,0,0-.749-.77l-7.669-5.113a2.626,2.626,0,0,0-3.512.571l-2.233,2.87a.575.575,0,0,1-.736.157L22.9,49.8A25.374,25.374,0,0,1,16.3,44.609a25.37,25.37,0,0,1-5.19-6.6l-.235-.43a.573.573,0,0,1,.157-.735l2.87-2.233a2.62,2.62,0,0,0,.57-3.512l-5.111-7.67a2.616,2.616,0,0,0-.771-.749A25.36,25.36,0,1,1,38.229,52.319Z" transform="translate(0 -0.013)" fill="#fff"/>
    <path id="Path_87" data-name="Path 87" d="M129.621,43.7a1.015,1.015,0,0,0-1.015-1.015,22.386,22.386,0,0,0-20.57,13.644,1.015,1.015,0,0,0,.54,1.331,1,1,0,0,0,.395.081,1.015,1.015,0,0,0,.935-.619,20.3,20.3,0,0,1,18.7-12.406A1.015,1.015,0,0,0,129.621,43.7Z" transform="translate(-95.115 -37.608)" fill="#fff"/>
    <path id="Path_88" data-name="Path 88" d="M343.351,241.6a1.015,1.015,0,1,0,.792,1.869,22.328,22.328,0,0,0,13.644-20.57,1.015,1.015,0,0,0-2.03,0A20.351,20.351,0,0,1,343.351,241.6Z" transform="translate(-301.969 -195.494)" fill="#fff"/>
    <path id="Path_89" data-name="Path 89" d="M244.959,112.245a1.015,1.015,0,0,0,.718-1.732l-4.386-4.386a6.05,6.05,0,0,0,1.132-3.523,1.015,1.015,0,1,0-2.03,0,4.06,4.06,0,1,1-4.06-4.06,1.015,1.015,0,0,0,1.015-1.015V86.365a1.015,1.015,0,1,0-2.03,0V96.6a6.089,6.089,0,1,0,4.538,10.961l4.386,4.386A1.014,1.014,0,0,0,244.959,112.245Z" transform="translate(-202.842 -75.2)" fill="#fff"/>
    <path id="Path_90" data-name="Path 90" d="M274.451,221.978a1.015,1.015,0,0,0-1.106.213,1.173,1.173,0,0,0-.213.335,1.016,1.016,0,0,0-.081.386,1.254,1.254,0,0,0,.02.193.607.607,0,0,0,.061.193.567.567,0,0,0,.091.173c.041.061.081.112.122.162a1.066,1.066,0,0,0,.721.294,1.011,1.011,0,0,0,.386-.081,1.186,1.186,0,0,0,.335-.213c.041-.051.081-.1.122-.162a1.07,1.07,0,0,0,.151-.365,1.134,1.134,0,0,0,.021-.193,1.013,1.013,0,0,0-.081-.386,1.172,1.172,0,0,0-.213-.335A1.186,1.186,0,0,0,274.451,221.978Z" transform="translate(-240.575 -195.509)" fill="#fff"/>
  </g>
</svg>
