<svg id="Group_18" data-name="Group 18" xmlns="http://www.w3.org/2000/svg" width="43.837" height="55.689" viewBox="0 0 43.837 55.689">
  <g id="Group_17" data-name="Group 17">
    <path id="Path_30" data-name="Path 30" d="M100.712,0H66.4a2.822,2.822,0,0,0-2.859,2.784V6.5H60.687a.928.928,0,1,0,0,1.856h2.859v8.353H60.687a.928.928,0,1,0,0,1.856h2.859v8.353H60.687a.928.928,0,1,0,0,1.856h2.859v8.353H60.687a.928.928,0,1,0,0,1.856h2.859v8.353H60.687a.928.928,0,1,0,0,1.856h2.859v3.713A2.823,2.823,0,0,0,66.4,55.69h34.307a2.822,2.822,0,0,0,2.859-2.784V2.784A2.822,2.822,0,0,0,100.712,0Zm.953,52.905a.941.941,0,0,1-.953.928H66.4a.941.941,0,0,1-.953-.928V2.784a.941.941,0,0,1,.953-.928h34.307a.941.941,0,0,1,.953.928Z" transform="translate(-59.734)" fill="#4b1e5f"/>
    <path id="Path_31" data-name="Path 31" d="M129.63,60.044a1,1,0,0,0-1.353,0,1.064,1.064,0,0,0-.2.305.908.908,0,0,0-.076.35.964.964,0,0,0,.276.659l.143.111a.73.73,0,0,0,.172.084.687.687,0,0,0,.172.056,1.473,1.473,0,0,0,.191.019.991.991,0,0,0,.362-.074,1.148,1.148,0,0,0,.314-.195.965.965,0,0,0,.276-.659.763.763,0,0,0-.076-.354A1.066,1.066,0,0,0,129.63,60.044Z" transform="translate(-120.376 -53.274)" fill="#4b1e5f"/>
    <path id="Path_32" data-name="Path 32" d="M129.63,153.9a.99.99,0,0,0-.314-.2.972.972,0,0,0-1.039.2,1.064,1.064,0,0,0-.2.305.908.908,0,0,0-.076.351.964.964,0,0,0,.276.659l.143.11a.733.733,0,0,0,.172.085.688.688,0,0,0,.172.056,1.488,1.488,0,0,0,.191.019.991.991,0,0,0,.362-.074,1.148,1.148,0,0,0,.314-.195.965.965,0,0,0,.276-.659.763.763,0,0,0-.076-.354A1.069,1.069,0,0,0,129.63,153.9Z" transform="translate(-120.376 -136.924)" fill="#4b1e5f"/>
    <path id="Path_33" data-name="Path 33" d="M129.63,247.76a.99.99,0,0,0-.314-.2.972.972,0,0,0-1.039.2,1.064,1.064,0,0,0-.2.305.908.908,0,0,0-.076.352.964.964,0,0,0,.276.659l.143.111a.736.736,0,0,0,.172.084.686.686,0,0,0,.172.056,1.334,1.334,0,0,0,.191.019.99.99,0,0,0,.362-.074,1.126,1.126,0,0,0,.314-.195.963.963,0,0,0,.276-.659.766.766,0,0,0-.076-.354A1.069,1.069,0,0,0,129.63,247.76Z" transform="translate(-120.376 -220.573)" fill="#4b1e5f"/>
    <path id="Path_34" data-name="Path 34" d="M129.63,341.625a.986.986,0,0,0-.314-.195.972.972,0,0,0-1.039.195,1.068,1.068,0,0,0-.2.306.908.908,0,0,0-.076.352.963.963,0,0,0,.276.659l.143.111a.734.734,0,0,0,.172.084.619.619,0,0,0,.172.056,1.334,1.334,0,0,0,.191.019.971.971,0,0,0,.362-.074,1.1,1.1,0,0,0,.314-.195.963.963,0,0,0,.276-.659.761.761,0,0,0-.076-.353A1.071,1.071,0,0,0,129.63,341.625Z" transform="translate(-120.376 -304.229)" fill="#4b1e5f"/>
    <path id="Path_35" data-name="Path 35" d="M129.63,435.483a.989.989,0,0,0-.314-.195.972.972,0,0,0-1.039.195,1.068,1.068,0,0,0-.2.306.91.91,0,0,0-.076.353.964.964,0,0,0,.276.659l.143.111a.73.73,0,0,0,.172.084.617.617,0,0,0,.172.056,1.33,1.33,0,0,0,.191.019.973.973,0,0,0,.362-.074,1.106,1.106,0,0,0,.314-.195.964.964,0,0,0,.276-.659.761.761,0,0,0-.076-.353A1.071,1.071,0,0,0,129.63,435.483Z" transform="translate(-120.376 -387.878)" fill="#4b1e5f"/>
    <path id="Path_36" data-name="Path 36" d="M226.631,98.327h1.906a4.71,4.71,0,0,0,4.765-4.641V89.974a4.71,4.71,0,0,0-4.765-4.641h-1.906a4.71,4.71,0,0,0-4.765,4.641v3.713A4.71,4.71,0,0,0,226.631,98.327Zm-2.859-8.353a2.822,2.822,0,0,1,2.859-2.784h1.906a2.822,2.822,0,0,1,2.859,2.784v3.713a2.823,2.823,0,0,1-2.859,2.784h-1.906a2.822,2.822,0,0,1-2.859-2.784Z" transform="translate(-203.76 -76.051)" fill="#4b1e5f"/>
    <path id="Path_37" data-name="Path 37" d="M208.87,221.867H200.8a4.6,4.6,0,0,0-4.541,4.641v4.641a.953.953,0,0,0,1.906,0v-4.641a2.715,2.715,0,0,1,2.635-2.784h8.072a2.715,2.715,0,0,1,2.635,2.784v3.713h-3.532a.928.928,0,1,0,0,1.856h4.485a.941.941,0,0,0,.953-.928v-4.641A4.6,4.6,0,0,0,208.87,221.867Z" transform="translate(-181.01 -197.735)" fill="#4b1e5f"/>
    <path id="Path_38" data-name="Path 38" d="M212.468,358.4H197.22a.928.928,0,1,0,0,1.856h15.248a.928.928,0,1,0,0-1.856Z" transform="translate(-181.019 -319.417)" fill="#4b1e5f"/>
    <path id="Path_39" data-name="Path 39" d="M212.468,409.6H197.22a.928.928,0,1,0,0,1.856h15.248a.928.928,0,1,0,0-1.856Z" transform="translate(-181.019 -365.048)" fill="#4b1e5f"/>
  </g>
</svg>
