<svg xmlns="http://www.w3.org/2000/svg" width="19.512" height="19.512" viewBox="0 0 19.512 19.512">
  <g id="_038-search-1" data-name="038-search-1" transform="translate(0 0)">
    <g id="Group_13" data-name="Group 13" transform="translate(0 0)">
      <g id="Group_12" data-name="Group 12" transform="translate(0 0)">
        <path id="Path_27" data-name="Path 27" d="M19.075,5.508A8.129,8.129,0,1,0,4.6,12.616L3.253,13.965h0L2.1,15.116h0L.475,16.742a1.627,1.627,0,0,0,2.3,2.3L4.4,17.417h0l1.151-1.151h0L6.9,14.916A8.128,8.128,0,0,0,19.075,5.508ZM2.316,18.583a1,1,0,0,1-1.381,0,.978.978,0,0,1,0-1.381l1.4-1.4,1.381,1.381Zm1.856-1.856L2.791,15.346l.691-.691,1.381,1.381Zm1.151-1.151L3.942,14.195l1.046-1.046A8.2,8.2,0,0,0,6.368,14.53Zm6.058.04a7.479,7.479,0,1,1,7.479-7.479A7.479,7.479,0,0,1,11.381,15.616Z" transform="translate(0 -0.007)" fill="#fff"/>
        <path id="Path_28" data-name="Path 28" d="M126.295,34.14a6.829,6.829,0,1,0,6.829,6.829A6.829,6.829,0,0,0,126.295,34.14Zm0,13.008a6.179,6.179,0,1,1,6.179-6.179A6.179,6.179,0,0,1,126.295,47.148Z" transform="translate(-114.913 -32.839)" fill="#fff"/>
      </g>
    </g>
  </g>
</svg>
