<svg id="_038-search-1" data-name="038-search-1" xmlns="http://www.w3.org/2000/svg" width="21.705" height="21.705" viewBox="0 0 21.705 21.705">
  <g id="Group_13" data-name="Group 13" transform="translate(0 0)">
    <g id="Group_12" data-name="Group 12" transform="translate(0 0)">
      <path id="Path_27" data-name="Path 27" d="M21.219,6.127a9.042,9.042,0,1,0-16.1,7.907l-1.5,1.5h0l-1.28,1.28h0L.529,18.623a1.81,1.81,0,0,0,2.559,2.559L4.9,19.374h0l1.28-1.28h0l1.5-1.5A9.042,9.042,0,0,0,21.219,6.127ZM2.576,20.671a1.115,1.115,0,0,1-1.536,0,1.088,1.088,0,0,1,0-1.536l1.553-1.553,1.536,1.536Zm2.064-2.065L3.1,17.07l.769-.769L5.41,17.837Zm1.281-1.281L4.385,15.79l1.163-1.163a9.119,9.119,0,0,0,1.536,1.536Zm6.739.045a8.32,8.32,0,1,1,8.32-8.32A8.32,8.32,0,0,1,12.661,17.371Z" transform="translate(0 -0.007)" fill="#4b1e5f"/>
      <path id="Path_28" data-name="Path 28" d="M127.063,34.14a7.6,7.6,0,1,0,7.6,7.6A7.6,7.6,0,0,0,127.063,34.14Zm0,14.47a6.873,6.873,0,1,1,6.873-6.873A6.873,6.873,0,0,1,127.063,48.61Z" transform="translate(-114.402 -32.693)" fill="#4b1e5f"/>
    </g>
  </g>
</svg>
