<svg xmlns="http://www.w3.org/2000/svg" width="75" height="63.81" viewBox="0 0 75 63.81">
  <g id="best-price" transform="translate(0 -38.197)">
    <path id="Path_3769" data-name="Path 3769" d="M345.748,44.082,332.7,38.644a5.9,5.9,0,0,0-4.505,0l-6.267,2.61a1.1,1.1,0,1,0,.845,2.029l6.267-2.61a3.686,3.686,0,0,1,2.816,0L344.9,46.11a3.315,3.315,0,0,1,2.09,3.033V96.128a3.413,3.413,0,0,1-3.5,3.313h-1.781a1.1,1.1,0,1,0,0,2.2h1.781a5.612,5.612,0,0,0,5.7-5.511V49.143A5.505,5.505,0,0,0,345.748,44.082Z" transform="translate(-274.19)" fill="#fd5f01"/>
    <path id="Path_3770" data-name="Path 3770" d="M62.735,128.386H44.275a4.72,4.72,0,0,0,.064-6.161,4.745,4.745,0,0,0,1.2-.872,4.721,4.721,0,0,0,.187-6.48,4.723,4.723,0,0,0,1.212-7.247,4.77,4.77,0,0,0,1.035-.784,4.727,4.727,0,0,0-3.343-8.068H39.7V78.088a3.314,3.314,0,0,1,2.089-3.033l2-.832a1.1,1.1,0,0,0-.845-2.029l-2,.832a5.505,5.505,0,0,0-3.441,5.061V98.775h-4.59c1.529-4.83,1.4-9.872-.385-15.723a4.242,4.242,0,0,0-1.559-2.195,4.306,4.306,0,0,0-6.851,3.691c.344,6.606-2.7,8.88-6.921,12.027a50.735,50.735,0,0,0-4.4,3.559v-1.44a1.1,1.1,0,0,0-1.1-1.1H1.1a1.1,1.1,0,0,0-1.1,1.1v31.159a1.1,1.1,0,0,0,1.1,1.1H11.7a1.1,1.1,0,0,0,1.1-1.1v-2.764a9.116,9.116,0,0,1,5.091,1.749,5.582,5.582,0,0,0,3.374,1.155H40.644a5.85,5.85,0,0,0,2.559.59H62.734a1.1,1.1,0,0,0,0-2.2Zm-43.5-1.293A11.652,11.652,0,0,0,12.8,124.88V112.052a1.1,1.1,0,1,0-2.2,0v16.7H2.2V99.793h8.408v7.472a1.1,1.1,0,0,0,2.2,0v-4.01a37.667,37.667,0,0,1,5.712-4.919c4.22-3.149,8.206-6.123,7.8-13.9a2.11,2.11,0,0,1,3.356-1.805,2.06,2.06,0,0,1,.758,1.065c1.817,5.96,1.788,10.974-.09,15.78a1.1,1.1,0,0,0,1.023,1.5H44.631a2.529,2.529,0,1,1,0,5.058H40.117a1.1,1.1,0,1,0,0,2.2H43.4a2.529,2.529,0,1,1,0,5.058H40.117a1.1,1.1,0,1,0,0,2.2H42.2a2.529,2.529,0,0,1,0,5.058H38.912a1.1,1.1,0,1,0,0,2.2h1.813a2.53,2.53,0,0,1,1.789,4.317,2.674,2.674,0,0,1-1.679.739l-19.568,0a3.379,3.379,0,0,1-2.037-.7Z" transform="translate(0 -28.945)" fill="#fd5f01"/>
    <path id="Path_3771" data-name="Path 3771" d="M362.3,91.86a4.187,4.187,0,1,0-4.187,4.187A4.192,4.192,0,0,0,362.3,91.86Zm-6.176,0a1.99,1.99,0,1,1,1.99,1.99A1.992,1.992,0,0,1,356.125,91.86Z" transform="translate(-302.083 -42.228)" fill="#fd5f01"/>
    <path id="Path_3772" data-name="Path 3772" d="M351.945,264.181h-1.97a1.884,1.884,0,0,1-1.882-1.882,1.1,1.1,0,1,0-2.2,0,4.083,4.083,0,0,0,3.966,4.077v2.431a1.1,1.1,0,0,0,2.2,0v-2.431a4.083,4.083,0,0,0,3.966-4.077v-1.521a3.239,3.239,0,0,0-2.244-3.088l-4.963-1.612a1.047,1.047,0,0,1-.725-1V252.9a1.53,1.53,0,0,1,1.529-1.529H352.3a1.53,1.53,0,0,1,1.529,1.529,1.1,1.1,0,1,0,2.2,0,3.73,3.73,0,0,0-3.726-3.726h-.24v-2.428a1.1,1.1,0,0,0-2.2,0v2.428h-.24A3.73,3.73,0,0,0,345.9,252.9v2.178a3.239,3.239,0,0,0,2.244,3.088l4.963,1.612a1.047,1.047,0,0,1,.726,1V262.3A1.884,1.884,0,0,1,351.945,264.181Z" transform="translate(-295.227 -177.063)" fill="#fd5f01"/>
  </g>
</svg>
