<svg id="checkmark" xmlns="http://www.w3.org/2000/svg" width="38.788" height="35.555" viewBox="0 0 38.788 35.555">
  <path id="Path_3620" data-name="Path 3620" d="M17.777,35.562a17.777,17.777,0,1,1,9.59-32.744A1.213,1.213,0,0,1,26.056,4.86,15.351,15.351,0,1,0,33.13,17.785c0-.506-.024-1.007-.071-1.5a1.212,1.212,0,0,1,2.413-.234q.082.856.082,1.734A17.8,17.8,0,0,1,17.777,35.562Zm0,0" transform="translate(0 -0.008)" fill="#eb9712"/>
  <path id="Path_3621" data-name="Path 3621" d="M157.824,41.549a1.2,1.2,0,0,1-.856-.355l-7.272-7.272a1.212,1.212,0,1,1,1.715-1.715l6.416,6.416L174.744,21.7a1.212,1.212,0,0,1,1.715,1.715L158.682,41.195a1.214,1.214,0,0,1-.858.354Zm0,0" transform="translate(-138.027 -19.731)" fill="#eb9712"/>
</svg>
