<svg id="checkmark" xmlns="http://www.w3.org/2000/svg" width="46.547" height="42.667" viewBox="0 0 46.547 42.667">
  <path id="Path_3620" data-name="Path 3620" d="M21.333,42.674A21.333,21.333,0,1,1,32.841,3.38a1.456,1.456,0,0,1-1.573,2.45,18.421,18.421,0,1,0,8.489,15.511c0-.607-.029-1.208-.085-1.8a1.455,1.455,0,0,1,2.9-.281q.1,1.027.1,2.081A21.358,21.358,0,0,1,21.333,42.674Zm0,0" transform="translate(0 -0.008)" fill="#fd5f01"/>
  <path id="Path_3621" data-name="Path 3621" d="M159.521,45.589a1.444,1.444,0,0,1-1.028-.426l-8.727-8.727a1.455,1.455,0,1,1,2.058-2.058l7.7,7.7,20.3-20.3a1.455,1.455,0,0,1,2.058,2.058L160.551,45.165a1.457,1.457,0,0,1-1.03.425Zm0,0" transform="translate(-135.764 -19.408)" fill="#fd5f01"/>
</svg>
