<svg id="facebook" xmlns="http://www.w3.org/2000/svg" width="16.088" height="16.088" viewBox="0 0 16.088 16.088">
  <g id="Group_820" data-name="Group 820" transform="translate(0 0)">
    <path id="Path_3569" data-name="Path 3569" d="M13.747-1H.341A1.328,1.328,0,0,0-1,.341V13.747A1.328,1.328,0,0,0,.341,15.088H13.747a1.328,1.328,0,0,0,1.341-1.341V.341A1.328,1.328,0,0,0,13.747-1Zm-6.7,15.552V9.189H4.9V7.044H7.044V5.167A2.969,2.969,0,0,1,9.725,2.218h2.413V4.363H9.994a.79.79,0,0,0-.8.8V7.044H11.87V9.189H9.189v5.363H7.044Zm7.508-.8a.79.79,0,0,1-.8.8H9.725V9.725h2.681V6.508H9.725V5.167A.253.253,0,0,1,9.994,4.9h2.681V1.681H9.7A3.519,3.519,0,0,0,6.508,5.167V6.508H4.363V9.725H6.508v4.826H.341a.79.79,0,0,1-.8-.8V.341a.79.79,0,0,1,.8-.8H13.747a.79.79,0,0,1,.8.8V13.747Z" transform="translate(1 1)" fill="#fff"/>
  </g>
</svg>
