<svg xmlns="http://www.w3.org/2000/svg" width="68.397" height="69.154" viewBox="0 0 68.397 69.154">
  <g id="fabric" transform="translate(-2.802)">
    <g id="Group_881" data-name="Group 881" transform="translate(2.802)">
      <g id="Group_880" data-name="Group 880">
        <path id="Path_3773" data-name="Path 3773" d="M67.153,41.64a.2.2,0,0,1,0-.173l3.827-7.885a2.154,2.154,0,0,0,0-1.892L67.153,23.8a.2.2,0,0,1,0-.173l3.228-6.653a2.166,2.166,0,0,0-1.949-3.112h-9.64a.984.984,0,0,0,0,1.968h9.64a.2.2,0,0,1,.178.285l-3.228,6.653a2.154,2.154,0,0,0,0,1.891l3.827,7.887a.2.2,0,0,1,0,.173l-3.827,7.885a2.154,2.154,0,0,0,0,1.892l3.827,7.886a.2.2,0,0,1,0,.173l-3.827,7.885a2.154,2.154,0,0,0,0,1.892L68.569,66.9a.2.2,0,0,1-.178.285H34.555l.006-.006q.135-.123.265-.253c.03-.03.058-.061.087-.091.058-.06.115-.119.171-.181.034-.037.066-.076.1-.114.049-.057.1-.113.146-.171.034-.042.066-.084.1-.127s.088-.112.13-.17.065-.091.1-.136.08-.114.119-.172.062-.1.092-.143.073-.116.109-.176.058-.1.086-.15.067-.119.1-.18.053-.1.08-.155.06-.123.089-.185.049-.106.072-.16.054-.126.08-.19.044-.108.064-.163.048-.13.071-.2.038-.11.056-.166.041-.134.061-.2.033-.111.048-.167.035-.139.051-.209.027-.111.039-.168c.015-.072.028-.145.042-.218.01-.055.021-.11.03-.165.012-.077.022-.155.031-.233.007-.052.014-.1.02-.157.009-.087.015-.175.021-.263,0-.044.008-.088.01-.132q.011-.2.011-.4V15.834H52.671a.984.984,0,0,0,0-1.968H37.036v-6.3A7.574,7.574,0,0,0,29.47,0h-19.1A7.574,7.574,0,0,0,2.8,7.566V42.352a.984.984,0,0,0,1.968,0V7.566a5.6,5.6,0,0,1,5.6-5.6h19.1a5.6,5.6,0,0,1,5.6,5.6V59.294a7.251,7.251,0,0,0-6.749-4.622H10.043A7.22,7.22,0,0,0,4.77,56.958v-8.4a.984.984,0,0,0-1.968,0V61.588c0,.054,0,.108,0,.162s0,.108,0,.162a7.249,7.249,0,0,0,7.241,7.241H68.391a2.167,2.167,0,0,0,1.949-3.112l-3.187-6.566a.2.2,0,0,1,0-.173l3.827-7.885a2.154,2.154,0,0,0,0-1.892ZM28.319,67.185H10.368A5.6,5.6,0,0,1,4.775,61.75a5.278,5.278,0,0,1,5.268-5.11H28.319a5.273,5.273,0,1,1,0,10.545Z" transform="translate(-2.802)" fill="#fd5f01"/>
      </g>
    </g>
    <g id="Group_883" data-name="Group 883" transform="translate(6.312 58.182)">
      <g id="Group_882" data-name="Group 882">
        <path id="Path_3774" data-name="Path 3774" d="M53.605,432.043a3.732,3.732,0,0,0-2.808-1.276H32.522a3.734,3.734,0,0,0-3.728,3.874,3.753,3.753,0,0,0,3.8,3.588H50.8a.984.984,0,1,0,0-1.968H32.589a1.814,1.814,0,0,1-1.829-1.694,1.766,1.766,0,0,1,1.761-1.831H50.8a1.764,1.764,0,0,1,1.327.6.081.081,0,0,1,.012.1.108.108,0,0,1-.108.072h-8.46a.984.984,0,1,0,0,1.968h8.46a2.065,2.065,0,0,0,1.9-1.227A2.041,2.041,0,0,0,53.605,432.043Z" transform="translate(-28.791 -430.767)" fill="#fd5f01"/>
      </g>
    </g>
  </g>
</svg>
