<svg xmlns="http://www.w3.org/2000/svg" width="36" height="35.647" viewBox="0 0 36 35.647">
  <path id="Монтажная_область_28" data-name="Монтажная область 28" d="M31.474,122.251H30.394c-.54-.005-.772-.221-.774-.738,0-.946,0-1.892,0-2.838,0-.641.2-.835.875-.835H64.707c.718,0,.911.184.911.864v2.774c0,.558-.224.767-.8.773H63.771c.1.467.188.887.282,1.306.125.557.277,1.107.377,1.67a1.2,1.2,0,0,1-.513,1.319.376.376,0,0,0-.117.323c.191.911.4,1.819.605,2.725a1.225,1.225,0,0,1-.487,1.411.374.374,0,0,0-.119.322c.19.912.4,1.819.6,2.725a1.225,1.225,0,0,1-.484,1.412.377.377,0,0,0-.121.322c.2.92.419,1.835.615,2.755a1.218,1.218,0,0,1-.49,1.385.375.375,0,0,0-.125.32c.189.911.4,1.819.6,2.725a1.252,1.252,0,0,1-.5,1.439.378.378,0,0,0-.1.324q.277,1.338.587,2.668a1.244,1.244,0,0,1-.49,1.465.379.379,0,0,0-.1.33q.277,1.337.586,2.668c.24,1.039-.242,1.618-1.362,1.618H32.118c-.7,0-1.132-.24-1.27-.807a2.471,2.471,0,0,1,.04-1.03c.162-.82.374-1.632.547-2.45a.4.4,0,0,0-.127-.341,1.255,1.255,0,0,1-.49-1.363c.193-.921.42-1.835.615-2.756a.4.4,0,0,0-.114-.35,1.211,1.211,0,0,1-.5-1.354c.188-.922.419-1.837.614-2.758a.4.4,0,0,0-.111-.351,1.209,1.209,0,0,1-.5-1.353c.188-.922.418-1.837.613-2.759a.4.4,0,0,0-.109-.351,1.206,1.206,0,0,1-.5-1.353c.187-.922.419-1.837.611-2.759a.434.434,0,0,0-.134-.37,1.21,1.21,0,0,1-.478-1.334c.189-.923.418-1.838.613-2.759a.406.406,0,0,0-.112-.341,1.268,1.268,0,0,1-.485-1.419C31.038,124.2,31.249,123.261,31.474,122.251Zm2.1-3.167c0,.583,0,1.134,0,1.685,0,.192.081.263.278.26.489-.01.981-.014,1.468-.013q4.618,0,9.238.01c2.49,0,4.98-.01,7.469-.01q4.652,0,9.3.01c.106,0,.211-.012.317-.019v-1.923ZM55,131.177H40.247v3.251H55Zm-7.4-5.655q3.522,0,7.044.006c.3,0,.383-.085.379-.364-.017-.871-.014-1.743,0-2.615,0-.256-.089-.328-.348-.328q-7.06.009-14.12,0c-.268,0-.348.085-.344.331.012.861.018,1.722,0,2.583-.007.309.1.4.416.393q3.481-.017,6.973-.011Zm.015,1.169H40.575c-.21,0-.365.008-.361.278.012.914.009,1.829,0,2.742,0,.207.078.283.293.279.535-.008,1.07,0,1.6,0q6.259,0,12.518.006c.308,0,.4-.085.4-.379-.018-.84-.021-1.679,0-2.518.009-.325-.1-.414-.432-.412-2.325.006-4.651,0-6.976,0Zm-.007,12.224q3.519,0,7.038,0c.259,0,.382-.049.376-.331-.017-.892-.012-1.784,0-2.676,0-.221-.078-.3-.309-.3q-7.088.007-14.177,0c-.249,0-.327.085-.325.315.011.859.019,1.72,0,2.58-.008.324.094.414.432.411,2.322-.015,4.646-.009,6.969-.009Zm-.008,4.464c2.346,0,4.692,0,7.038.005.286,0,.39-.071.384-.358-.018-.859-.015-1.72,0-2.58,0-.272-.07-.37-.372-.37q-7.038.011-14.075,0c-.267,0-.372.071-.367.341.015.852.005,1.7.006,2.548,0,.411,0,.412.446.412Zm.015,4.465h0c2.337,0,4.674-.005,7.01.006.308,0,.4-.085.4-.379-.018-.86-.015-1.722,0-2.582,0-.265-.089-.346-.363-.345q-7.044.009-14.088,0c-.276,0-.366.085-.362.347.013.852.021,1.7,0,2.555-.008.324.089.414.432.412,2.322-.026,4.648-.017,6.974-.017Zm-.034,4.463h7.077c.276,0,.366-.08.363-.341-.014-.882-.012-1.765,0-2.646,0-.236-.08-.313-.327-.313q-7.077.008-14.154,0c-.246,0-.331.077-.328.313.011.861.02,1.722,0,2.582-.008.324.089.415.432.413,2.309-.016,4.622-.01,6.937-.01Zm-15.5-9a.687.687,0,0,0,.151.054q1.933,0,3.866.011c.188,0,.216-.1.216-.242v-2.8c0-.178-.067-.242-.252-.241q-1.534.009-3.067,0a.24.24,0,0,0-.281.232c-.112.58-.258,1.153-.382,1.73C32.245,142.467,32.166,142.893,32.084,143.3Zm-.014-8.865c1.408,0,2.719,0,4.03-.011.072,0,.2-.152.206-.235.015-.925.006-1.85.012-2.774,0-.191-.068-.265-.267-.263q-1.516.008-3.038,0c-.193,0-.259.068-.294.255-.108.571-.254,1.134-.378,1.7C32.246,133.533,32.166,133.956,32.07,134.44Zm.017-9a.615.615,0,0,0,.122.058c1.3,0,2.6.011,3.9,0,.068,0,.192-.14.193-.216q.019-1.418,0-2.836a.294.294,0,0,0-.2-.2q-1.568-.02-3.136,0a.323.323,0,0,0-.228.194c-.144.574-.267,1.151-.391,1.73C32.251,124.6,32.169,125.028,32.087,125.44Zm0,4.463c.08.039.1.058.119.058,1.3.005,2.6.013,3.9,0,.069,0,.2-.139.2-.214q.02-1.418,0-2.836a.322.322,0,0,0-.234-.21q-1.551-.02-3.1,0a.319.319,0,0,0-.23.191c-.144.573-.267,1.151-.391,1.73-.1.435-.178.868-.262,1.281Zm-.019,9c1.415,0,2.737,0,4.058-.01.064,0,.178-.147.178-.227.012-.937.014-1.874,0-2.8a.318.318,0,0,0-.219-.223q-1.551-.023-3.1,0a.325.325,0,0,0-.245.177c-.126.48-.229.966-.333,1.448-.111.522-.215,1.05-.336,1.64Zm-.009,8.932c1.415,0,2.736,0,4.057-.009a.274.274,0,0,0,.186-.192q.019-1.433,0-2.868a.3.3,0,0,0-.211-.2q-1.568-.02-3.136,0a.324.324,0,0,0-.221.2c-.115.451-.205.906-.3,1.363C32.313,146.669,32.195,147.213,32.059,147.833Zm31.075,0c-.029-.233-.037-.4-.074-.565-.178-.794-.388-1.582-.535-2.385-.051-.282-.149-.341-.417-.341q-1.436.016-2.87,0c-.243,0-.331.069-.328.308q.017,1.339,0,2.677c0,.245.094.306.333.3,1.023-.009,2.046,0,3.07,0ZM32.072,152.3c1.407,0,2.718,0,4.029-.009a.3.3,0,0,0,.2-.207q.021-1.418,0-2.836a.322.322,0,0,0-.226-.217q-1.551-.02-3.1,0a.32.32,0,0,0-.238.184c-.144.582-.276,1.172-.4,1.76C32.247,151.391,32.167,151.814,32.072,152.3Zm31.056-.018c-.02-.176-.024-.323-.054-.465-.184-.835-.384-1.666-.552-2.5-.045-.23-.14-.3-.369-.3-.967.008-1.933.011-2.9,0-.268,0-.34.091-.337.333.012.87.018,1.741,0,2.61-.006.3.112.352.39.348,1.144-.012,2.288,0,3.433-.006C62.855,152.3,62.973,152.285,63.127,152.277Zm-2.772-12.191c-.411,0-.756.013-1.1-.005-.258-.013-.349.064-.344.32.015.881.012,1.764,0,2.645,0,.244.065.332.335.329,1.2-.013,2.4,0,3.6-.007a3.357,3.357,0,0,0,.334-.033c-.208-.95-.407-1.857-.605-2.766-.106-.49-.1-.477-.636-.49-.268-.007-.372.066-.362.341.02.53.012,1.062,0,1.593A.615.615,0,1,1,60.353,142c-.005-.127,0-.256,0-.382Zm-1.422-17.86v3.292c.429,0,.836.009,1.243-.009.064,0,.174-.133.178-.205q.017-1.429,0-2.86a.272.272,0,0,0-.178-.2C59.77,122.218,59.363,122.227,58.933,122.227Zm-.02,15.006c0,.467.006.937,0,1.4,0,.206.076.287.292.279.3-.011.6-.008.9,0,.185,0,.259-.071.258-.247q-.005-1.4,0-2.8c0-.176-.072-.251-.258-.247-.3.006-.6.01-.9,0-.216-.008-.3.073-.292.279C58.921,136.34,58.913,136.786,58.913,137.233Zm0-8.929c0,.468.006.937,0,1.4,0,.205.076.288.292.279.3-.01.6-.008.9,0,.185,0,.259-.07.258-.246q-.006-1.4,0-2.8c0-.176-.072-.25-.258-.247-.3.007-.6.009-.9,0-.216-.009-.3.073-.292.279C58.92,127.411,58.913,127.857,58.913,128.3Zm1.445,4.5c0-.456-.007-.913,0-1.37.005-.206-.076-.287-.292-.279-.3.011-.6.009-.9,0-.185,0-.259.071-.258.246q.007,1.4,0,2.8c0,.176.073.25.258.246.3-.007.6-.009.9,0,.217.009.3-.073.292-.279C60.352,133.713,60.359,133.257,60.359,132.8ZM38.947,143.347v-3.226H37.594v3.226ZM37.6,122.256v3.232c.408,0,.8.009,1.181-.009.064,0,.174-.13.178-.2q.017-1.4,0-2.8a.3.3,0,0,0-.205-.207C38.373,122.244,38,122.256,37.6,122.256Zm18.695.016v3.194h1.338v-3.194Zm1.343,21.056v-3.194H56.3v3.194Zm-18.7-13.381V126.72c-.41,0-.8-.009-1.182.009-.063,0-.171.132-.172.2q-.018,1.4,0,2.8a.269.269,0,0,0,.178.2C38.148,129.958,38.535,129.947,38.94,129.947Zm17.351.005c.408,0,.775.011,1.14-.009a.305.305,0,0,0,.218-.192c.013-.945.011-1.891,0-2.836a.25.25,0,0,0-.162-.182c-.4-.016-.791-.009-1.195-.009Zm-18.7,4.465c.407,0,.772-.006,1.137,0,.173,0,.238-.058.234-.223-.009-.3,0-.6,0-.891v-2.1h-1.37Zm0,10.159v3.236c.408,0,.8.009,1.181-.009.064,0,.174-.13.178-.2q.017-1.4,0-2.8a.3.3,0,0,0-.205-.208c-.375-.026-.752-.014-1.149-.014Zm18.7.015v3.2h1.327v-3.2Zm1.337-13.41c-.407,0-.774-.014-1.139.01a.319.319,0,0,0-.219.221c-.015.924-.013,1.848,0,2.772,0,.076.1.212.161.215.395.02.791.01,1.2.01Zm-20.04,7.683h1.337v-3.2H37.595Zm20.042,0v-3.194H56.3v3.194Zm-20.029,10.18v3.211h1.326v-3.211Zm20.032.012H56.291v3.2h1.348Zm3.991-26.788v3.217h1.487a3.02,3.02,0,0,0-.033-.456c-.16-.723-.329-1.448-.5-2.165C62.425,122.177,62.422,122.177,61.63,122.269ZM63.1,134.413a1.789,1.789,0,0,0,0-.341q-.294-1.38-.605-2.756a.216.216,0,0,0-.15-.134c-.238-.015-.478-.006-.722-.006v3.236Zm.014,4.465a3.035,3.035,0,0,0-.033-.457c-.178-.794-.4-1.581-.535-2.385-.062-.377-.234-.447-.561-.408a.252.252,0,0,1-.067,0c-.274-.042-.334.085-.331.326.012.87,0,1.742.006,2.612,0,.1.015.2.024.307Zm-.011-8.926a1.591,1.591,0,0,0,0-.288c-.2-.928-.4-1.857-.611-2.782a.283.283,0,0,0-.2-.165q-.334-.021-.67-.008v3.243Zm-32.189-8.943h1.363c0-.6,0-1.177-.006-1.755a.235.235,0,0,0-.14-.17c-.4-.014-.809-.008-1.215-.008Zm32.049,0H64.3v-1.917H62.967Z" transform="translate(-29.618 -117.84)" fill="#303030"/>
</svg>
