<svg xmlns="http://www.w3.org/2000/svg" width="16.535" height="16.552" viewBox="0 0 16.535 16.552">
  <g id="telephone_1_" data-name="telephone (1)" transform="translate(-0.001 0)">
    <path id="Path_3566" data-name="Path 3566" d="M229.652,387.486a.323.323,0,1,0,.457,0A.323.323,0,0,0,229.652,387.486Zm0,0" transform="translate(-222.135 -374.868)" fill="#fff"/>
    <path id="Path_3567" data-name="Path 3567" d="M15.807,12.057,13.352,9.97a.331.331,0,0,0-.036-.026,1.607,1.607,0,0,0-2.011.221L9.968,11.5a.322.322,0,0,1-.352.07,8.77,8.77,0,0,1-3.69-2.8A6.508,6.508,0,0,1,4.92,6.986.321.321,0,0,0,4.9,6.92a.322.322,0,0,1,.07-.352L6.308,5.229a1.606,1.606,0,0,0,.221-2.011L6.519,3.2,4.746.74a1.616,1.616,0,0,0-2.5-.267L1.977.741h0L1.02,1.7C-.121,2.84-.308,4.554.48,6.657a16.451,16.451,0,0,0,3.8,5.551,16.528,16.528,0,0,0,5.7,3.875c1.837.671,3.791.754,5.175-.629l.9-.9a1.617,1.617,0,0,0-.255-2.494Zm-2.855-1.579L15.4,12.563a.318.318,0,0,0,.036.026.97.97,0,0,1,.165,1.5l-.067.067-4.183-3.132.408-.408a.964.964,0,0,1,1.189-.143ZM4.206,1.1l.01.015L5.988,3.573a.964.964,0,0,1-.137,1.2l-.4.4L2.626,1.006,2.7.931a.97.97,0,0,1,1.5.165Zm6,14.38a15.877,15.877,0,0,1-5.466-3.724A15.8,15.8,0,0,1,1.085,6.43C.6,5.142.279,3.354,1.477,2.156l.684-.684,2.83,4.161-.477.477A.966.966,0,0,0,4.292,7.14,7.18,7.18,0,0,0,5.337,9.068a9.483,9.483,0,0,0,4.031,3.1.967.967,0,0,0,1.056-.21l.468-.469,4.183,3.132L14.7,15c-1.284,1.285-3.154.97-4.5.479Zm0,0" transform="translate(0 0)" fill="#fff"/>
    <path id="Path_3568" data-name="Path 3568" d="M97.852,255.876c-.341-.3-.932-.814-1.243-1.134a21.257,21.257,0,0,1-2.039-2.421.323.323,0,0,0-.531.368,21.9,21.9,0,0,0,2.107,2.5c.328.338.924.857,1.28,1.17a.323.323,0,0,0,.426-.486Zm0,0" transform="translate(-90.942 -244.029)" fill="#fff"/>
  </g>
</svg>
