<svg xmlns="http://www.w3.org/2000/svg" width="22.667" height="22.667" viewBox="0 0 22.667 22.667">
  <g id="facebook_1_" data-name="facebook (1)" transform="translate(0)">
    <path id="Path_3744" data-name="Path 3744" d="M20.778,0H1.889A1.891,1.891,0,0,0,0,1.889V20.778a1.891,1.891,0,0,0,1.889,1.889H20.778a1.891,1.891,0,0,0,1.889-1.889V1.889A1.891,1.891,0,0,0,20.778,0Z" transform="translate(0)" fill="#1c74bb"/>
    <g id="Group_877" data-name="Group 877" transform="translate(0 0.032)">
      <path id="Path_3745" data-name="Path 3745" d="M22.289,21.852H2.644a1.133,1.133,0,0,1-1.133-1.133V1.074A1.9,1.9,0,0,1,1.543.728,1.892,1.892,0,0,0,0,2.585V21.474a1.891,1.891,0,0,0,1.889,1.889H20.778a1.892,1.892,0,0,0,1.857-1.543A1.9,1.9,0,0,1,22.289,21.852Z" transform="translate(0 -0.728)" fill="#035fa1"/>
      <path id="Path_3746" data-name="Path 3746" d="M172.556,71.6V64.045h-.378a1.513,1.513,0,0,1-1.511-1.511V59.511A1.513,1.513,0,0,1,172.178,58h.378v-.756A6.051,6.051,0,0,1,178.6,51.2h3.022a1.513,1.513,0,0,1,1.511,1.511v3.022a1.513,1.513,0,0,1-1.511,1.511H178.6V58h3.022a1.513,1.513,0,0,1,1.511,1.511v3.022a1.513,1.513,0,0,1-1.511,1.511H178.6V71.6Z" transform="translate(-163.111 -48.966)" fill="#035fa1"/>
    </g>
    <path id="Path_3747" data-name="Path 3747" d="M203.067,80.578h3.022a.378.378,0,0,0,.378-.378V77.178a.378.378,0,0,0-.378-.378h-3.022a4.911,4.911,0,0,0-4.911,4.911V83.6h-1.511a.378.378,0,0,0-.378.378V87a.378.378,0,0,0,.378.378h1.511v8.689h3.778V87.378h4.156a.378.378,0,0,0,.378-.378V83.978a.378.378,0,0,0-.378-.378h-4.156V81.711A1.133,1.133,0,0,1,203.067,80.578Z" transform="translate(-187.578 -73.4)" fill="#fff"/>
    <rect id="Rectangle_3109" data-name="Rectangle 3109" width="3.778" height="1.511" transform="translate(10.577 21.156)" fill="#e5e5e5"/>
  </g>
</svg>
