<svg id="clock" xmlns="http://www.w3.org/2000/svg" width="17.845" height="17.845" viewBox="0 0 17.845 17.845">
  <path id="Path_3562" data-name="Path 3562" d="M15.232,2.613A8.923,8.923,0,0,0,2.613,15.232,8.923,8.923,0,0,0,15.232,2.613Zm-.37,12.249A8.4,8.4,0,0,1,2.983,2.983,8.4,8.4,0,0,1,14.862,14.862Z" transform="translate(0 0)" fill="#eb9712"/>
  <path id="Path_3563" data-name="Path 3563" d="M152.053,150.114a.261.261,0,0,0-.261.261v.9a.814.814,0,0,0-.1.043l-2.943-2.943a.261.261,0,0,0-.37.37l2.943,2.943a.819.819,0,0,0,.473,1.142v4.162a.261.261,0,1,0,.523,0v-4.162a.814.814,0,0,0,.1-.043l.655.655a.261.261,0,0,0,.37-.37l-.655-.655a.819.819,0,0,0-.473-1.142v-.9A.261.261,0,0,0,152.053,150.114Zm0,2.235a.3.3,0,1,1,.3-.3A.3.3,0,0,1,152.053,152.349Z" transform="translate(-143.131 -143.13)" fill="#eb9712"/>
  <path id="Path_3564" data-name="Path 3564" d="M44.652,117.956a7.285,7.285,0,0,1-.888.656l-.425-.736a.261.261,0,1,0-.453.261l.425.737a7.255,7.255,0,0,1-3.151.844v-.85a.261.261,0,1,0-.523,0v.85a7.256,7.256,0,0,1-3.152-.842l.426-.738a.261.261,0,1,0-.453-.261l-.426.738a7.312,7.312,0,0,1-2.307-2.307l.738-.426a.261.261,0,0,0-.261-.453l-.738.426a7.256,7.256,0,0,1-.842-3.152h.85a.261.261,0,1,0,0-.523h-.85a7.255,7.255,0,0,1,.844-3.151l.737.425a.261.261,0,1,0,.261-.453l-.736-.425a7.292,7.292,0,0,1,.655-.888.261.261,0,1,0-.4-.342,7.8,7.8,0,0,0,5.64,12.893c.09,0,.18,0,.271,0a7.775,7.775,0,0,0,5.094-1.893.261.261,0,0,0-.342-.4Z" transform="translate(-30.978 -103.519)" fill="#eb9712"/>
  <path id="Path_3565" data-name="Path 3565" d="M120.24,39.629a7.8,7.8,0,0,0-12.893-5.64.261.261,0,0,0,.342.4,7.282,7.282,0,0,1,.888-.655l.425.736a.261.261,0,1,0,.453-.261l-.425-.737a7.259,7.259,0,0,1,3.151-.844v.85a.261.261,0,0,0,.523,0v-.85a7.256,7.256,0,0,1,3.152.842l-.426.738a.261.261,0,1,0,.453.261l.426-.738a7.312,7.312,0,0,1,2.307,2.307l-.738.426a.261.261,0,1,0,.261.453l.738-.426a7.255,7.255,0,0,1,.842,3.152h-.85a.261.261,0,1,0,0,.523h.85a7.255,7.255,0,0,1-.844,3.151l-.737-.425a.261.261,0,0,0-.261.453l.736.425a7.292,7.292,0,0,1-.655.888.261.261,0,1,0,.4.342,7.777,7.777,0,0,0,1.888-5.365Z" transform="translate(-103.518 -30.978)" fill="#eb9712"/>
</svg>
