<svg xmlns="http://www.w3.org/2000/svg" width="36" height="35.661" viewBox="0 0 36 35.661">
  <g id="Монтажная_область_30" data-name="Монтажная область 30" transform="translate(0 0)">
    <path id="Path_3498" data-name="Path 3498" d="M57.079,78.942c-1.286,0-2.572-.005-3.859,0-1.248.006-2.5.026-3.755.031-1.108.005-2.216,0-3.325,0-.569,0-.834-.138-.925-.534a1.982,1.982,0,0,1,0-.437c0-1.334,0-2.668,0-4-.005-1.191-.032-2.39-.031-3.585,0-1.227.03-2.454.029-3.681,0-1.428-.029-2.857-.029-4.286,0-1.226.03-2.453.029-3.68,0-1.428-.029-2.857-.029-4.286,0-1.386.023-2.772.031-4.158.005-.973-.008-1.946.006-2.918,0-.271-.1-.34-.366-.34-1.24.021-2.481.031-3.721.037-.6,0-1.2-.016-1.794-.009-.074,0-.212.094-.213.146,0,1.1.013,2.2.013,3.3,0,.666-.03,1.332-.029,2,0,1.471.027,2.942.03,4.414,0,.772-.032,1.544-.03,2.316,0,1.355.029,2.709.03,4.063,0,.936-.031,1.863-.03,2.795,0,1.191.031,2.39.03,3.585,0,1.375-.025,2.751-.031,4.126-.005,1.154,0,2.307,0,3.461,0,.433.029.463.493.46.965-.008,1.929-.026,2.894-.029.455,0,.91.014,1.365.037a.581.581,0,1,1,0,1.163c-.509.016-1.019.008-1.528.009H38.868c-.892,0-1-.109-1-.974,0-1.122,0-2.243,0-3.365-.006-1.185-.032-2.368-.031-3.553,0-1.428.029-2.857.03-4.285,0-1.227-.03-2.454-.03-3.681,0-1.429.029-2.857.03-4.286,0-1.226-.03-2.454-.03-3.68,0-1.386.025-2.772.031-4.158.006-1.143,0-2.286,0-3.429,0-.426-.029-.455-.466-.453-.981.007-1.952.028-2.928.029q-1.18,0-2.36-.035c-.283-.009-.357.085-.357.347q.034,1.9.037,3.808c0,1.216-.031,2.432-.03,3.648,0,1.439.029,2.878.03,4.318,0,1.216-.031,2.432-.03,3.648,0,1.44.028,2.879.03,4.318,0,.942-.031,1.884-.03,2.826,0,1.184.03,2.368.03,3.552,0,1.277-.012,2.56-.039,3.84-.007.312.1.395.415.388,1.229-.026,2.459-.031,3.688-.037.222,0,.446.02.664.037a.557.557,0,0,1,.574.577.548.548,0,0,1-.557.589c-.267.02-.53.009-.794.01l-4.556.027a.615.615,0,0,1-.654-.553c-.023-.24-.012-.483-.012-.725v-4c-.005-1.191-.031-2.39-.031-3.585,0-1.216.03-2.432.03-3.648,0-1.439-.029-2.878-.03-4.317,0-1.216.03-2.432.03-3.648,0-1.439-.029-2.878-.03-4.317,0-.942.031-1.884.029-2.826,0-1.185-.021-2.369-.032-3.553v-.032c.032-.7.032-.693-.69-.681q-.6.006-1.195,0c-.55-.005-.743-.187-.751-.7q-.019-1.174-.031-2.348a.715.715,0,0,1,.766-.706c1.075,0,2.15-.007,3.226,0,.753,0,1.506.031,2.259.028,1.485,0,2.972-.026,4.458-.028,1,0,2,.029,2.994.028,1.229,0,2.459-.026,3.688-.028.9,0,1.8.03,2.694.028,1.319,0,2.637-.027,3.955-.028.976,0,1.952.029,2.928.028,1.248,0,2.5-.027,3.755-.029.954,0,1.907.022,2.861.031.588.005,1.175-.006,1.763.006.412.008.624.2.634.584.012.835.016,1.67,0,2.5-.008.443-.2.623-.651.632-.785.015-1.571.005-2.356.005-.654,0-1.309.014-1.961-.006-.3-.009-.382.094-.372.367.027.729.037,1.46.037,2.189,0,.7-.031,1.4-.029,2.094,0,1.428.028,2.857.03,4.286,0,.942-.031,1.884-.03,2.826,0,1.184.03,2.368.03,3.552,0,1.237-.031,2.475-.03,3.712,0,1.418.03,2.836.03,4.255,0,1.386-.029,2.772-.03,4.158,0,1.248.016,2.5.029,3.745a.665.665,0,0,1-.222.527.735.735,0,0,1-.564.182c-.21-.012-.422-.02-.632-.03Zm.159-16.533q0-7.47.007-14.939c0-.327-.1-.41-.434-.409q-4.972.016-9.944,0c-.335,0-.432.085-.432.409q.013,14.94.007,29.88c0,.416,0,.417.446.417h9.872c.474,0,.475,0,.475-.45ZM45.8,45.9H58.949c.961,0,.961,0,.958-.915,0-.467,0-.468-.491-.468H32.74c-.993,0-.993,0-.991.946,0,.434,0,.436.456.436ZM29.114,44.554c0,.4-.009.754.006,1.1,0,.07.089.194.145.2.4.017.809.009,1.229.009,0-.4.01-.749-.009-1.1a.267.267,0,0,0-.178-.2C29.926,44.545,29.54,44.554,29.114,44.554ZM61.18,45.871c.407,0,.782.01,1.159-.008a.279.279,0,0,0,.2-.175c.02-.366.009-.734.009-1.117H61.18Z" transform="translate(-27.82 -43.314)" fill="#303030"/>
    <path id="Path_3499" data-name="Path 3499" d="M390.6,391.858h-2.219c-.312,0-.629-.205-.634-.494a8.3,8.3,0,0,1,.075-1.854,1.811,1.811,0,0,1,1.515-1.375,1.862,1.862,0,0,1,1.84.7,2.053,2.053,0,0,1,.459,1.568c-.012.222-.008.445-.01.667-.005.58-.186.753-.793.758H390.6Zm-.237-1.25c-.049-.432.184-.9-.288-1.214a.833.833,0,0,0-.879.049c-.356.34-.178.766-.212,1.165Z" transform="translate(-355.641 -358.752)" fill="#303030"/>
    <path id="Path_3500" data-name="Path 3500" d="M403.011,119.571a.608.608,0,0,1-.652-.578.659.659,0,0,1,.636-.614.6.6,0,0,1,.615.579A.566.566,0,0,1,403.011,119.571Z" transform="translate(-368.965 -111.992)" fill="#303030"/>
    <path id="Path_3501" data-name="Path 3501" d="M403.232,141.068a.62.62,0,0,1,.642.562.686.686,0,0,1-.656.635.609.609,0,0,1-.6-.6.54.54,0,0,1,.163-.435A.6.6,0,0,1,403.232,141.068Z" transform="translate(-369.199 -132.748)" fill="#303030"/>
    <path id="Path_3502" data-name="Path 3502" d="M403,231.829a.6.6,0,0,1-.608-.586.671.671,0,0,1,.674-.612.61.61,0,0,1,.575.626A.569.569,0,0,1,403,231.829Z" transform="translate(-368.993 -214.689)" fill="#303030"/>
    <path id="Path_3503" data-name="Path 3503" d="M402.638,253.974a.571.571,0,0,1,.643-.57.6.6,0,0,1,.6.589.659.659,0,0,1-.644.606A.6.6,0,0,1,402.638,253.974Z" transform="translate(-369.22 -235.524)" fill="#303030"/>
    <path id="Path_3504" data-name="Path 3504" d="M403.564,343.541a.541.541,0,0,1-.166.431.6.6,0,0,1-.449.164.621.621,0,0,1-.641-.563.686.686,0,0,1,.656-.634A.609.609,0,0,1,403.564,343.541Z" transform="translate(-368.92 -317.44)" fill="#303030"/>
    <path id="Path_3505" data-name="Path 3505" d="M402.639,366.4a.558.558,0,0,1,.644-.562.612.612,0,0,1,.43.169.557.557,0,0,1,.173.412.659.659,0,0,1-.644.605A.6.6,0,0,1,402.639,366.4Z" transform="translate(-369.22 -338.387)" fill="#303030"/>
    <path id="Path_3506" data-name="Path 3506" d="M403.83,96.906a.571.571,0,0,1-.624.6.591.591,0,0,1-.436-.16.537.537,0,0,1-.168-.417.615.615,0,0,1,1.228-.019Z" transform="translate(-369.186 -91.826)" fill="#303030"/>
    <path id="Path_3507" data-name="Path 3507" d="M403.23,164.716a.587.587,0,1,1,.639-.543A.564.564,0,0,1,403.23,164.716Z" transform="translate(-369.226 -153.312)" fill="#303030"/>
    <path id="Path_3508" data-name="Path 3508" d="M403.866,186.592a.614.614,0,1,1-.59-.6A.566.566,0,0,1,403.866,186.592Z" transform="translate(-369.221 -173.853)" fill="#303030"/>
    <path id="Path_3509" data-name="Path 3509" d="M403.867,209.046a.585.585,0,0,1-.371.55.634.634,0,0,1-.673-.121.567.567,0,0,1-.136-.641.614.614,0,0,1,.571-.361.6.6,0,0,1,.436.159A.541.541,0,0,1,403.867,209.046Z" transform="translate(-369.222 -194.416)" fill="#303030"/>
    <path id="Path_3510" data-name="Path 3510" d="M403.247,277.038a.563.563,0,0,1-.611-.6.538.538,0,0,1,.176-.414.593.593,0,0,1,.439-.154.566.566,0,0,1,.611.6.539.539,0,0,1-.176.414A.594.594,0,0,1,403.247,277.038Z" transform="translate(-369.217 -256.074)" fill="#303030"/>
    <path id="Path_3511" data-name="Path 3511" d="M403.864,298.978a.537.537,0,0,1-.172.416.591.591,0,0,1-.438.156.585.585,0,1,1,.028-1.167A.558.558,0,0,1,403.864,298.978Z" transform="translate(-369.219 -276.675)" fill="#303030"/>
    <path id="Path_3512" data-name="Path 3512" d="M403.852,321.392a.565.565,0,0,1-.632.584.59.59,0,0,1-.434-.168.536.536,0,0,1-.16-.42.565.565,0,0,1,.632-.583.592.592,0,0,1,.433.168A.538.538,0,0,1,403.852,321.392Z" transform="translate(-369.207 -297.188)" fill="#303030"/>
  </g>
</svg>
