<svg xmlns="http://www.w3.org/2000/svg" width="74.123" height="55.729" viewBox="0 0 74.123 55.729">
  <g id="fast-time_1_" data-name="fast-time (1)" transform="translate(0 -63.529)">
    <path id="Path_3673" data-name="Path 3673" d="M32.458,136.382H43.909a1.086,1.086,0,1,0,0-2.172H32.458a1.086,1.086,0,1,0,0,2.172Z" transform="translate(-26.83 -60.448)" fill="#fd5f01"/>
    <path id="Path_3674" data-name="Path 3674" d="M82.121,185.317H77.6a1.086,1.086,0,0,0,0,2.172h4.524a1.086,1.086,0,0,0,0-2.172Z" transform="translate(-65.435 -104.156)" fill="#fd5f01"/>
    <path id="Path_3675" data-name="Path 3675" d="M1.086,224.5H12.163a1.086,1.086,0,0,0,0-2.172H1.086a1.086,1.086,0,0,0,0,2.172Z" transform="translate(0 -135.808)" fill="#fd5f01"/>
    <path id="Path_3676" data-name="Path 3676" d="M44.995,363.875a1.086,1.086,0,0,0-1.086-1.086H32.458a1.086,1.086,0,1,0,0,2.172H43.909A1.086,1.086,0,0,0,44.995,363.875Z" transform="translate(-26.83 -255.935)" fill="#fd5f01"/>
    <path id="Path_3677" data-name="Path 3677" d="M82.121,311.683H77.6a1.086,1.086,0,1,0,0,2.172h4.524a1.086,1.086,0,1,0,0-2.172Z" transform="translate(-65.435 -212.228)" fill="#fd5f01"/>
    <path id="Path_3678" data-name="Path 3678" d="M13.248,275.759a1.086,1.086,0,0,0-1.086-1.086H1.086a1.086,1.086,0,0,0,0,2.172H12.163A1.086,1.086,0,0,0,13.248,275.759Z" transform="translate(0 -180.576)" fill="#fd5f01"/>
    <path id="Path_3679" data-name="Path 3679" d="M313.115,143.211a1.086,1.086,0,0,0,1.086-1.086v-1.657a1.086,1.086,0,1,0-2.172,0v1.657A1.086,1.086,0,0,0,313.115,143.211Z" transform="translate(-266.856 -64.872)" fill="#fd5f01"/>
    <path id="Path_3680" data-name="Path 3680" d="M384.117,171.66a1.086,1.086,0,0,0-1.536,0l-1.172,1.172a1.086,1.086,0,0,0,1.536,1.536l1.172-1.172A1.086,1.086,0,0,0,384.117,171.66Z" transform="translate(-325.92 -92.205)" fill="#fd5f01"/>
    <path id="Path_3681" data-name="Path 3681" d="M410.785,248.5a1.086,1.086,0,0,0,0,2.172h1.657a1.086,1.086,0,1,0,0-2.172Z" transform="translate(-350.386 -158.192)" fill="#fd5f01"/>
    <path id="Path_3682" data-name="Path 3682" d="M382.945,317.881a1.086,1.086,0,0,0-1.536,1.536l1.172,1.172a1.086,1.086,0,0,0,1.536-1.536Z" transform="translate(-325.92 -217.257)" fill="#fd5f01"/>
    <path id="Path_3683" data-name="Path 3683" d="M312.029,347.256v1.657a1.086,1.086,0,1,0,2.172,0v-1.657a1.086,1.086,0,1,0-2.172,0Z" transform="translate(-266.856 -241.722)" fill="#fd5f01"/>
    <path id="Path_3684" data-name="Path 3684" d="M236.36,317.881l-1.172,1.172a1.086,1.086,0,0,0,1.535,1.536l1.172-1.172a1.086,1.086,0,0,0-1.535-1.536Z" transform="translate(-200.867 -217.257)" fill="#fd5f01"/>
    <path id="Path_3685" data-name="Path 3685" d="M204,248.5a1.086,1.086,0,1,0,0,2.172h1.657a1.086,1.086,0,1,0,0-2.172Z" transform="translate(-173.535 -158.192)" fill="#fd5f01"/>
    <path id="Path_3686" data-name="Path 3686" d="M237.9,172.832l-1.172-1.172a1.086,1.086,0,1,0-1.535,1.536l1.172,1.172a1.086,1.086,0,1,0,1.535-1.536Z" transform="translate(-200.868 -92.205)" fill="#fd5f01"/>
    <path id="Path_3687" data-name="Path 3687" d="M318.954,195.549a1.086,1.086,0,0,0-1.086-1.086H314.2V186.4a1.086,1.086,0,0,0-2.172,0v9.147a1.086,1.086,0,0,0,1.086,1.086h4.753A1.086,1.086,0,0,0,318.954,195.549Z" transform="translate(-266.856 -104.156)" fill="#fd5f01"/>
    <path id="Path_3688" data-name="Path 3688" d="M212.233,127.937a1.086,1.086,0,0,0,1.018-1.15,21.633,21.633,0,1,0-.2,4.568,1.086,1.086,0,0,0-2.148-.322,19.491,19.491,0,1,1,.18-4.114,1.086,1.086,0,0,0,1.15,1.018Z" transform="translate(-145.385 -36.723)" fill="#fd5f01"/>
    <path id="Path_3689" data-name="Path 3689" d="M134.93,63.529A27.853,27.853,0,0,0,123.924,65.8H104.767a1.086,1.086,0,0,0,0,2.172H119.84a27.835,27.835,0,0,0-5.568,4.72,1.086,1.086,0,0,0,1.61,1.458,25.641,25.641,0,1,1-2.546,3.316,1.086,1.086,0,0,0-1.824-1.178,27.857,27.857,0,0,0,8.336,38.522H104.767a1.086,1.086,0,1,0,0,2.172h19.143a27.864,27.864,0,1,0,11.02-53.455Z" transform="translate(-88.671)" fill="#fd5f01"/>
  </g>
</svg>
