<svg xmlns="http://www.w3.org/2000/svg" width="36" height="35.651" viewBox="0 0 36 35.651">
  <g id="Монтажная_область_27_1" data-name="Монтажная область 27_1" transform="translate(0 0)">
    <path id="Path_3483" data-name="Path 3483" d="M82.382,88.772H81.21c-.611,0-.828-.206-.83-.781V85.855c0-.667.2-.851.891-.851q11.376,0,22.76,0h10.251a2.1,2.1,0,0,1,2.057,1.589,2,2,0,0,1-1.933,2.18c-.768.01-1.535,0-2.3,0-.119,0-.239.01-.4.017v31.1c0,.556-.226.766-.809.766H83.187c-.582-.005-.8-.215-.8-.775v-30.7Zm1.269,11.538h26.768V97.7H83.651Zm13.39-6.354q6.492,0,12.984.007c.339,0,.446-.085.431-.413-.025-.6-.006-1.211-.007-1.817,0-.435,0-.436-.458-.436H97.941q-6.942,0-13.885-.006c-.339,0-.446.085-.431.412.025.6.006,1.211.006,1.817,0,.435,0,.436.458.436Zm0,19.131h.2q6.393,0,12.784.008c.338,0,.446-.085.432-.413-.026-.6-.006-1.211-.008-1.817,0-.435,0-.436-.457-.436H96.174q-6.075,0-12.15,0c-.308,0-.406.085-.4.379.021.616.005,1.233.005,1.849,0,.435,0,.435.458.435Zm0-6.378h.2q6.393,0,12.784.008c.338,0,.446-.085.432-.413-.026-.605-.006-1.212-.008-1.817,0-.436,0-.437-.457-.437H96.174q-6.075,0-12.15-.005c-.308,0-.406.085-.4.379.021.616.005,1.233.005,1.849,0,.435,0,.436.458.436Zm0,12.755q6.492,0,12.984.007c.338,0,.446-.085.431-.412-.025-.605-.006-1.212-.007-1.818,0-.435,0-.436-.458-.436H97.941q-6.958,0-13.918-.006c-.308,0-.406.085-.4.379.021.616.005,1.233.005,1.849,0,.435,0,.436.458.436ZM86.895,87.554h24.76c.579,0,.831-.273.757-.794-.055-.39-.275-.536-.829-.536H87.261c-.118,0-.234.012-.366.019a4.137,4.137,0,0,1,.1.633A4.828,4.828,0,0,1,86.895,87.554ZM86.353,109.2h21.37v-1.27H86.353Zm0-19.118h21.374V88.792H86.352Zm0,25.5h21.359v-1.277H86.353Zm-.007-12.762H107.72v-1.262H86.345Zm.007-6.361h21.372V95.171H86.353Zm-2.079-8.924a8.9,8.9,0,0,0,.963-.008c.352-.037.489-.25.489-.645s-.143-.607-.493-.643a9.268,9.268,0,0,0-.958-.007Zm29.375.01c.288,0,.6.017.9-.005a.533.533,0,0,0,.541-.57c.031-.416-.108-.674-.464-.721a7.289,7.289,0,0,0-.981-.009ZM85.035,90.082V88.792H83.682v1.289ZM110.4,88.793H109.05v1.287H110.4ZM83.685,96.457h1.35V95.169H83.682Zm26.716,0V95.171H109.05v1.287Zm-26.736,6.376h1.36v-1.3c-.408,0-.794-.008-1.178.009a.249.249,0,0,0-.178.17C83.658,102.077,83.666,102.444,83.666,102.833Zm25.385,0H110.4v-1.285H109.05ZM85.031,107.9c-.417,0-.793-.009-1.169.007a.248.248,0,0,0-.187.157c-.017.376-.009.754-.009,1.132h1.365Zm24.019,1.308H110.4v-1.287H109.05Zm.011,5.092v1.277h1.326V114.3Zm-24.029-.02c-.411,0-.786-.009-1.159.009a.275.275,0,0,0-.2.179c-.02.365-.01.733-.01,1.112h1.367ZM81.693,87.531c.291,0,.565.018.837,0,.328-.027.494-.242.5-.6.01-.4-.151-.649-.483-.681q-.428-.023-.857-.005Z" transform="translate(-80.38 -85)" fill="#303030"/>
    <path id="Path_3484" data-name="Path 3484" d="M442.106,433.875c-.454,0-.911,0-1.363,0-.576-.008-.862-.254-.842-.791a8.792,8.792,0,0,1,.181-2.03,2.192,2.192,0,0,1,2.309-1.434,2.345,2.345,0,0,1,1.981,2.077c.021.483.015.967,0,1.445s-.284.722-.793.733C443.089,433.884,442.6,433.876,442.106,433.875Zm.841-1.389c-.017-.366-.008-.7-.055-1.028-.055-.387-.379-.474-.727-.483-.413-.017-.734.151-.781.476a7.51,7.51,0,0,0-.011,1.039Z" transform="translate(-408.386 -401.114)" fill="#303030"/>
    <path id="Path_3485" data-name="Path 3485" d="M456.294,340.407a.688.688,0,0,1-.434.645.747.747,0,0,1-.79-.138.667.667,0,0,1-.168-.75.722.722,0,0,1,.662-.434A.711.711,0,0,1,456.294,340.407Z" transform="translate(-421.824 -318.144)" fill="#303030"/>
    <path id="Path_3486" data-name="Path 3486" d="M456.294,250.527a.688.688,0,0,1-.434.645.747.747,0,0,1-.79-.137.668.668,0,0,1-.168-.75.722.722,0,0,1,.661-.435A.712.712,0,0,1,456.294,250.527Z" transform="translate(-421.824 -235.88)" fill="#303030"/>
    <path id="Path_3487" data-name="Path 3487" d="M456.294,228.057a.688.688,0,0,1-.434.645.747.747,0,0,1-.79-.137.668.668,0,0,1-.168-.75.722.722,0,0,1,.661-.435A.712.712,0,0,1,456.294,228.057Z" transform="translate(-421.824 -215.314)" fill="#303030"/>
    <path id="Path_3488" data-name="Path 3488" d="M455.59,204.88a.722.722,0,0,1,.661.435.668.668,0,0,1-.168.75.747.747,0,0,1-.79.137.689.689,0,0,1-.434-.645.711.711,0,0,1,.731-.677Z" transform="translate(-421.831 -194.721)" fill="#303030"/>
    <path id="Path_3489" data-name="Path 3489" d="M455.589,362.17a.721.721,0,0,1,.66.434.667.667,0,0,1-.168.749.746.746,0,0,1-.788.138.688.688,0,0,1-.434-.643A.709.709,0,0,1,455.589,362.17Z" transform="translate(-421.831 -338.682)" fill="#303030"/>
    <path id="Path_3490" data-name="Path 3490" d="M456.3,183.126a.687.687,0,0,1-.434.643.746.746,0,0,1-.788-.138.667.667,0,0,1-.168-.749.721.721,0,0,1,.66-.434A.707.707,0,0,1,456.3,183.126Z" transform="translate(-421.832 -174.191)" fill="#303030"/>
    <path id="Path_3491" data-name="Path 3491" d="M456.312,385.337a.721.721,0,1,1-.709-.7A.706.706,0,0,1,456.312,385.337Z" transform="translate(-421.841 -359.247)" fill="#303030"/>
    <path id="Path_3492" data-name="Path 3492" d="M456.3,295.468a.722.722,0,1,1-.709-.7A.706.706,0,0,1,456.3,295.468Z" transform="translate(-421.833 -276.993)" fill="#303030"/>
    <path id="Path_3493" data-name="Path 3493" d="M454.866,160.607a.722.722,0,1,1,.692.716A.709.709,0,0,1,454.866,160.607Z" transform="translate(-421.836 -153.595)" fill="#303030"/>
    <path id="Path_3494" data-name="Path 3494" d="M456.312,273a.721.721,0,1,1-.709-.7A.706.706,0,0,1,456.312,273Z" transform="translate(-421.841 -256.427)" fill="#303030"/>
    <path id="Path_3495" data-name="Path 3495" d="M456.294,317.937a.688.688,0,0,1-.434.645.747.747,0,0,1-.79-.138.667.667,0,0,1-.168-.75.722.722,0,0,1,.662-.434A.71.71,0,0,1,456.294,317.937Z" transform="translate(-421.824 -297.578)" fill="#303030"/>
    <path id="Path_3496" data-name="Path 3496" d="M456.3,407.8a.722.722,0,1,1-.727-.682A.7.7,0,0,1,456.3,407.8Z" transform="translate(-421.831 -379.818)" fill="#303030"/>
    <path id="Path_3497" data-name="Path 3497" d="M455.59,138.874a.688.688,0,1,1,.711-.7A.709.709,0,0,1,455.59,138.874Z" transform="translate(-421.831 -132.423)" fill="#303030"/>
  </g>
</svg>
