<svg id="viber" xmlns="http://www.w3.org/2000/svg" width="18.699" height="20.779" viewBox="0 0 18.699 20.779">
  <g id="Group_828" data-name="Group 828">
    <g id="Group_827" data-name="Group 827" transform="translate(0)">
      <path id="Path_3635" data-name="Path 3635" d="M42.246,2.18a.325.325,0,1,0-.465.456,6.579,6.579,0,0,1,1.891,4.631v3.124a6.624,6.624,0,0,1-6.616,6.616H33.238a.326.326,0,0,0-.23.1L30.44,19.671V16.754a.325.325,0,0,0-.2-.3,6.619,6.619,0,0,1-3.97-6.065V7.267A6.624,6.624,0,0,1,32.891.651h4.165A6.588,6.588,0,0,1,40.7,1.74a.325.325,0,0,0,.358-.543,7.237,7.237,0,0,0-4-1.2H32.891a7.275,7.275,0,0,0-7.267,7.267v3.124a7.27,7.27,0,0,0,4.165,6.573v3.492a.328.328,0,0,0,.556.23l3.028-3.028h3.683a7.275,7.275,0,0,0,7.267-7.267V7.267A7.226,7.226,0,0,0,42.246,2.18Z" transform="translate(-25.624 0)"/>
    </g>
  </g>
  <g id="Group_830" data-name="Group 830" transform="translate(3.471 3.778)">
    <g id="Group_829" data-name="Group 829" transform="translate(0)">
      <path id="Path_3636" data-name="Path 3636" d="M122.258,102.24l-.312-1.69a.325.325,0,0,0-.256-.26l-2.454-.491a.326.326,0,0,0-.294.089l-1.008,1.008a6.261,6.261,0,0,1-3.464-3.47l1-1a.326.326,0,0,0,.089-.294l-.491-2.454a.325.325,0,0,0-.26-.256l-1.69-.312a.324.324,0,0,0-.131,0,2.4,2.4,0,0,0-1.167.645,2.612,2.612,0,0,0-.614,2.35,11.13,11.13,0,0,0,.311,1.375.325.325,0,0,0,.625-.182A10.47,10.47,0,0,1,111.853,96a1.969,1.969,0,0,1,.432-1.789,1.751,1.751,0,0,1,.789-.455l1.4.259.413,2.067-1.041,1.041a.325.325,0,0,0-.067.363,7.042,7.042,0,0,0,4.1,4.094.325.325,0,0,0,.357-.07l1.041-1.041,2.067.413.259,1.4a1.752,1.752,0,0,1-.455.789,1.97,1.97,0,0,1-1.789.431,9.78,9.78,0,0,1-5.1-2.385l-.02-.02a8.175,8.175,0,0,1-1.649-2.562.325.325,0,1,0-.6.254,8.831,8.831,0,0,0,1.788,2.768l.02.02a10.459,10.459,0,0,0,5.462,2.567,3.866,3.866,0,0,0,.6.049,2.329,2.329,0,0,0,2.395-1.83A.323.323,0,0,0,122.258,102.24Z" transform="translate(-111.161 -93.1)"/>
    </g>
  </g>
  <g id="Group_832" data-name="Group 832" transform="translate(9.718 5.9)">
    <g id="Group_831" data-name="Group 831" transform="translate(0)">
      <path id="Path_3637" data-name="Path 3637" d="M265.411,145.388a.325.325,0,1,0,0,.651,1.412,1.412,0,0,1,1.41,1.41.325.325,0,1,0,.651,0A2.063,2.063,0,0,0,265.411,145.388Z" transform="translate(-265.086 -145.388)"/>
    </g>
  </g>
  <g id="Group_834" data-name="Group 834" transform="translate(9.371 4.512)">
    <g id="Group_833" data-name="Group 833" transform="translate(0)">
      <path id="Path_3638" data-name="Path 3638" d="M257.2,111.179a3.509,3.509,0,0,0-.383.021.325.325,0,1,0,.071.647,2.845,2.845,0,0,1,.311-.017,2.8,2.8,0,0,1,2.8,2.8,2.854,2.854,0,0,1-.017.311.325.325,0,0,0,.647.071,3.512,3.512,0,0,0,.021-.383A3.453,3.453,0,0,0,257.2,111.179Z" transform="translate(-256.532 -111.179)"/>
    </g>
  </g>
  <g id="Group_836" data-name="Group 836" transform="translate(9.371 3.124)">
    <g id="Group_835" data-name="Group 835" transform="translate(0)">
      <path id="Path_3639" data-name="Path 3639" d="M257.207,76.97c-.124,0-.249,0-.372.014a.325.325,0,1,0,.049.649c.107-.008.215-.012.322-.012a4.191,4.191,0,0,1,4.075,5.153.325.325,0,0,0,.633.15,4.841,4.841,0,0,0-4.708-5.954Z" transform="translate(-256.535 -76.97)"/>
    </g>
  </g>
</svg>
