<svg xmlns="http://www.w3.org/2000/svg" width="22.51" height="22.561" viewBox="0 0 22.51 22.561">
  <g id="telegram_1_" data-name="telegram (1)" transform="translate(0)">
    <ellipse id="Ellipse_58" data-name="Ellipse 58" cx="11.229" cy="11.229" rx="11.229" ry="11.229" transform="translate(0.052 0.051)" fill="#47b0d3"/>
    <path id="Path_3738" data-name="Path 3738" d="M1.5,11.281A11.281,11.281,0,0,1,12.033.026C11.784.009,11.533,0,11.281,0a11.281,11.281,0,0,0,0,22.561c.253,0,.5-.009.752-.026A11.281,11.281,0,0,1,1.5,11.281Z" transform="translate(0)" fill="#3298ba"/>
    <path id="Path_3739" data-name="Path 3739" d="M101.842,107.643a.376.376,0,0,0-.37-.03L89.35,113.256a.593.593,0,0,0,.013,1.08l11.175,4.867a.6.6,0,0,0,.836-.5l.631-10.723A.376.376,0,0,0,101.842,107.643Z" transform="translate(-85.085 -102.838)" fill="#e5e5e5"/>
    <path id="Path_3740" data-name="Path 3740" d="M171.631,116.584l.755,5.049,8.39-13.2Z" transform="translate(-164.068 -103.654)" fill="#ccc"/>
    <path id="Path_3741" data-name="Path 3741" d="M101.471,107.617,89.35,113.26a.593.593,0,0,0,.013,1.08l3.285,1.431,9.145-8.152A.376.376,0,0,0,101.471,107.617Z" transform="translate(-85.085 -102.841)" fill="#fff"/>
    <path id="Path_3742" data-name="Path 3742" d="M189.77,117.347l-1,4.285,8.39-13.2Z" transform="translate(-180.454 -103.654)" fill="#e5e5e5"/>
    <path id="Path_3743" data-name="Path 3743" d="M218.858,108.459a.37.37,0,0,0-.048-.027l-7.392,8.915,6.137,2.673a.6.6,0,0,0,.836-.5l.631-10.723A.376.376,0,0,0,218.858,108.459Z" transform="translate(-202.102 -103.654)" fill="#fff"/>
  </g>
</svg>
