<svg id="telegram" xmlns="http://www.w3.org/2000/svg" width="17.76" height="17.76" viewBox="0 0 17.76 17.76">
  <g id="Group_824" data-name="Group 824" transform="translate(0 0)">
    <g id="Group_823" data-name="Group 823">
      <path id="Path_3633" data-name="Path 3633" d="M17.019,5.323A8.849,8.849,0,0,0,15,2.45a.278.278,0,1,0-.384.4,8.306,8.306,0,1,1-1.067-.861.278.278,0,1,0,.313-.46A8.88,8.88,0,0,0,2.6,15.159,8.882,8.882,0,0,0,17.019,5.323Z" transform="translate(0 0)"/>
    </g>
  </g>
  <g id="Group_826" data-name="Group 826" transform="translate(3.094 3.74)">
    <g id="Group_825" data-name="Group 825">
      <path id="Path_3634" data-name="Path 3634" d="M99.013,107.852l-5.348,2.49a.278.278,0,0,0,.235.5l3.3-1.536-1.6,1.3-3.681,2.98-2.013-.881,2.821-1.313a.278.278,0,0,0-.235-.5L89.451,112.3a.449.449,0,0,0,.009.818l2.248.983.658,3.95a.28.28,0,0,0,.507.107l1.867-2.85,3.532,1.648a.453.453,0,0,0,.638-.38l.5-8.459c0-.008,0-.016,0-.024A.281.281,0,0,0,99.013,107.852Zm-6.324,8.754-.43-2.582,4.383-3.548-3.355,3.762a.281.281,0,0,0-.063.121Zm.591-.08.407-1.708.545.255Zm1.26-1.923-.589-.275,2.9-3.246-.419.639Zm3.825,1.785-3.316-1.547,3.743-5.712Z" transform="translate(-89.192 -107.827)"/>
    </g>
  </g>
</svg>
