<svg xmlns="http://www.w3.org/2000/svg" width="61.193" height="53.203" viewBox="0 0 61.193 53.203">
  <g id="measure-tape" transform="translate(0 0.002)">
    <path id="Path_3669" data-name="Path 3669" d="M58.423,40.821H50.931a.9.9,0,1,0,0,1.793h3.748v4.96H47.4a4.312,4.312,0,0,0,.845-2.567V25.222a24.029,24.029,0,0,0-1.173-7.437l1.2-.865a3.423,3.423,0,0,0,.7-4.889c-.454-.58-.924-1.163-1.4-1.732a.964.964,0,0,1-.091-1.1l.014-.023a2.762,2.762,0,0,0-.366-3.265c-1.068-1.134-2.182-2.251-3.314-3.322a2.761,2.761,0,0,0-3.258-.378l-.032.018a.964.964,0,0,1-1.095-.095c-.569-.474-1.151-.946-1.733-1.4a3.424,3.424,0,0,0-4.891.688l-.743,1.028A24.126,24.126,0,0,0,0,25.221V35.8A13.561,13.561,0,0,0,13.546,49.342l41.134.025v.578a3.257,3.257,0,1,0,6.514,0V43.592a2.774,2.774,0,0,0-2.77-2.77ZM34.268,2.47a1.624,1.624,0,0,1,1.1-.662,1.607,1.607,0,0,1,1.228.331c.568.448,1.139.909,1.694,1.373a2.763,2.763,0,0,0,3.139.27l.029-.017a.959.959,0,0,1,1.132.126c1.106,1.048,2.2,2.141,3.241,3.249a.958.958,0,0,1,.122,1.134L45.94,8.3a2.762,2.762,0,0,0,.26,3.144c.461.556.92,1.126,1.365,1.693a1.608,1.608,0,0,1,.328,1.229,1.624,1.624,0,0,1-.665,1.1l-.8.576A24.263,24.263,0,0,0,33.793,3.126ZM1.793,35.8V25.222a22.328,22.328,0,1,1,44.656,0V45.007a2.545,2.545,0,0,1-2.543,2.543H13.546A11.766,11.766,0,0,1,1.793,35.8ZM59.4,49.944a1.464,1.464,0,1,1-2.928,0v-7.33h1.951a.979.979,0,0,1,.978.978Zm0,0" transform="translate(0 0)" fill="#fd5f01"/>
    <path id="Path_3670" data-name="Path 3670" d="M102.353,95.954a15.623,15.623,0,0,0-24.778-12.66.9.9,0,1,0,1.052,1.452,13.832,13.832,0,1,1-2.493,2.321.9.9,0,1,0-1.373-1.153,15.622,15.622,0,1,0,27.591,10.039Zm0,0" transform="translate(-62.61 -70.733)" fill="#fd5f01"/>
    <path id="Path_3671" data-name="Path 3671" d="M155.32,157.244a7.3,7.3,0,1,0-7.3,7.3A7.311,7.311,0,0,0,155.32,157.244Zm-12.813,0a5.51,5.51,0,1,1,5.51,5.51A5.517,5.517,0,0,1,142.508,157.244Zm0,0" transform="translate(-123.897 -132.023)" fill="#fd5f01"/>
    <path id="Path_3672" data-name="Path 3672" d="M294.7,304.395a4.534,4.534,0,1,0,4.534,4.534A4.539,4.539,0,0,0,294.7,304.395Zm0,7.275a2.741,2.741,0,1,1,2.741-2.741A2.744,2.744,0,0,1,294.7,311.67Zm0,0" transform="translate(-255.488 -268.016)" fill="#fd5f01"/>
  </g>
</svg>
