<svg xmlns="http://www.w3.org/2000/svg" width="36" height="35.655" viewBox="0 0 36 35.655">
  <g id="Монтажная_область_33" data-name="Монтажная область 33" transform="translate(0 0)">
    <path id="Path_3518" data-name="Path 3518" d="M44.148,37.108V68.143c0,.637-.206.833-.877.833H15.736c-.713,0-.9-.186-.9-.872V37.092H13.691c-.651,0-.86-.2-.861-.816v-2.1c0-.663.2-.852.892-.852H46.76a2.073,2.073,0,0,1,2.059,1.874,2.079,2.079,0,0,1-2.068,1.9h-2.2C44.428,37.092,44.309,37.1,44.148,37.108Zm-28.066,14V64.723c0,.506,0,.507.518.507H42.427c.471,0,.471,0,.471-.456V37.523c0-.456,0-.457-.468-.457H16.537c-.454,0-.455,0-.455.439Zm3.3-15.217h24.7c.468,0,.677-.109.77-.408.147-.468.021-.982-.83-.981q-12.146.018-24.293.008c-.119,0-.237.01-.339.015ZM16.126,67.721H42.843V66.456H16.126ZM46.106,34.56v1.288c.306,0,.617.022.924-.006.339-.031.5-.263.506-.635s-.16-.611-.5-.642C46.724,34.537,46.4,34.56,46.106,34.56ZM16.744,35.837q.474.019.949-.007c.311-.029.461-.267.461-.634s-.153-.6-.468-.628q-.47-.022-.941,0Zm-2.63-1.292c0,.255,0,.468,0,.681.017.72-.143.641.7.638.46,0,.673-.222.676-.651s-.211-.647-.663-.664C14.611,34.539,14.39,34.545,14.114,34.545Z" transform="translate(-12.83 -33.32)" fill="#303030"/>
    <path id="Path_3519" data-name="Path 3519" d="M374.426,381.735c-.463,0-.927.009-1.39,0-.4-.01-.685-.206-.693-.551a9,9,0,0,1,.08-1.925,2.133,2.133,0,0,1,2.15-1.547,2.223,2.223,0,0,1,1.959,1.946c.025.464.016.93,0,1.395a.654.654,0,0,1-.721.68C375.359,381.744,374.889,381.739,374.426,381.735Zm.731-1.328c0-.3.011-.557,0-.819a.584.584,0,0,0-.627-.567c-.454-.03-.762.137-.8.492a7.273,7.273,0,0,0-.008.89Z" transform="translate(-340.549 -348.809)" fill="#303030"/>
    <path id="Path_3520" data-name="Path 3520" d="M387.9,109.51a.68.68,0,0,1-.623-.41.629.629,0,0,1,.159-.707.7.7,0,0,1,.745-.129.649.649,0,0,1,.408.608.672.672,0,0,1-.689.637Z" transform="translate(-354.03 -101.848)" fill="#303030"/>
    <path id="Path_3521" data-name="Path 3521" d="M387.909,130.67a.65.65,0,1,1-.69.641A.673.673,0,0,1,387.909,130.67Z" transform="translate(-354.019 -122.4)" fill="#303030"/>
    <path id="Path_3522" data-name="Path 3522" d="M387.9,154.44a.68.68,0,0,1-.623-.41.629.629,0,0,1,.16-.706.7.7,0,0,1,.744-.129.649.649,0,0,1,.408.608A.671.671,0,0,1,387.9,154.44Z" transform="translate(-354.03 -142.961)" fill="#303030"/>
    <path id="Path_3523" data-name="Path 3523" d="M388.591,176.257a.651.651,0,0,1-.43.595.7.7,0,0,1-.739-.152.628.628,0,0,1-.135-.711.683.683,0,0,1,.637-.39A.672.672,0,0,1,388.591,176.257Z" transform="translate(-354.029 -163.511)" fill="#303030"/>
    <path id="Path_3524" data-name="Path 3524" d="M387.918,198.07a.65.65,0,1,1-.689.641A.673.673,0,0,1,387.918,198.07Z" transform="translate(-354.028 -184.074)" fill="#303030"/>
    <path id="Path_3525" data-name="Path 3525" d="M388.591,221.217a.649.649,0,0,1-.408.608.7.7,0,0,1-.744-.128.629.629,0,0,1-.16-.706.686.686,0,0,1,1.312.227Z" transform="translate(-354.03 -204.671)" fill="#303030"/>
    <path id="Path_3526" data-name="Path 3526" d="M387.892,244.29a.68.68,0,0,1-.623-.41.629.629,0,0,1,.16-.706.7.7,0,0,1,.744-.129.649.649,0,0,1,.408.608A.673.673,0,0,1,387.892,244.29Z" transform="translate(-354.021 -225.178)" fill="#303030"/>
    <path id="Path_3527" data-name="Path 3527" d="M388.591,266.118a.681.681,0,1,1-.671-.659.666.666,0,0,1,.671.659Z" transform="translate(-354.029 -245.738)" fill="#303030"/>
    <path id="Path_3528" data-name="Path 3528" d="M387.918,287.93a.65.65,0,1,1-.689.641A.674.674,0,0,1,387.918,287.93Z" transform="translate(-354.028 -266.3)" fill="#303030"/>
    <path id="Path_3529" data-name="Path 3529" d="M388.591,311.031a.681.681,0,1,1-.69-.641A.674.674,0,0,1,388.591,311.031Z" transform="translate(-354.029 -286.852)" fill="#303030"/>
    <path id="Path_3530" data-name="Path 3530" d="M387.9,334.16a.68.68,0,0,1-.623-.41.629.629,0,0,1,.16-.706.7.7,0,0,1,.744-.129.649.649,0,0,1,.408.608A.673.673,0,0,1,387.9,334.16Z" transform="translate(-354.03 -307.413)" fill="#303030"/>
    <path id="Path_3531" data-name="Path 3531" d="M388.588,355.982a.68.68,0,1,1-.67-.657A.665.665,0,0,1,388.588,355.982Z" transform="translate(-354.028 -327.968)" fill="#303030"/>
    <path id="Path_3532" data-name="Path 3532" d="M388.589,86.558a.714.714,0,0,1-.679.657.669.669,0,0,1-.68-.644.623.623,0,0,1,.2-.453.683.683,0,0,1,.476-.184.673.673,0,0,1,.482.172.613.613,0,0,1,.2.452Z" transform="translate(-354.029 -81.146)" fill="#303030"/>
  </g>
</svg>
