<svg id="instagram-logo" xmlns="http://www.w3.org/2000/svg" width="16.088" height="16.088" viewBox="0 0 16.088 16.088">
  <path id="Path_3570" data-name="Path 3570" d="M13.334,0H2.754A2.758,2.758,0,0,0,0,2.754V13.334a2.758,2.758,0,0,0,2.754,2.754H13.334a2.758,2.758,0,0,0,2.754-2.754V2.754A2.758,2.758,0,0,0,13.334,0Zm2.283,13.334a2.286,2.286,0,0,1-2.283,2.283H2.754A2.286,2.286,0,0,1,.471,13.334V2.754A2.286,2.286,0,0,1,2.754.471H13.334a2.286,2.286,0,0,1,2.283,2.283Z" transform="translate(0 0)"/>
  <path id="Path_3571" data-name="Path 3571" d="M116.744,112.226a4.518,4.518,0,1,0,4.518,4.518A4.523,4.523,0,0,0,116.744,112.226Zm0,8.564a4.046,4.046,0,1,1,4.046-4.046A4.051,4.051,0,0,1,116.744,120.79Z" transform="translate(-108.7 -108.7)"/>
  <path id="Path_3572" data-name="Path 3572" d="M369.985,64.129a1.243,1.243,0,1,0,1.243,1.243A1.245,1.245,0,0,0,369.985,64.129Zm0,2.015a.772.772,0,1,1,.772-.772A.773.773,0,0,1,369.985,66.144Z" transform="translate(-357.155 -62.114)"/>
  <path id="Path_3573" data-name="Path 3573" d="M153.651,153.652a2.776,2.776,0,0,1,3.583-.3.236.236,0,1,0,.273-.384,3.255,3.255,0,0,0-4.539,4.539.236.236,0,0,0,.384-.273A2.776,2.776,0,0,1,153.651,153.652Z" transform="translate(-147.577 -147.578)"/>
  <path id="Path_3574" data-name="Path 3574" d="M197.145,192.88a.236.236,0,0,0-.055.329,2.783,2.783,0,0,1-3.882,3.882.236.236,0,1,0-.273.384,3.264,3.264,0,0,0,1.891.6q.126,0,.253-.01a3.255,3.255,0,0,0,2.4-5.132.236.236,0,0,0-.329-.055Z" transform="translate(-186.776 -186.777)"/>
</svg>
