<svg id="jalousie" xmlns="http://www.w3.org/2000/svg" width="63" height="63" viewBox="0 0 63 63">
  <path id="Path_3819" data-name="Path 3819" d="M61.77,0H1.23A1.23,1.23,0,0,0,0,1.23V8.121a1.23,1.23,0,0,0,1.23,1.23V61.77A1.23,1.23,0,0,0,2.461,63H60.539a1.23,1.23,0,0,0,1.23-1.23V9.352A1.23,1.23,0,0,0,63,8.121V1.23A1.23,1.23,0,0,0,61.77,0ZM2.461,2.461H60.539v4.43H2.461ZM53.895,9.352v5.414H17.309a1.23,1.23,0,0,0,0,2.461H53.895v5.414H3.691V17.227H7.465a1.23,1.23,0,0,0,0-2.461H3.691V9.352ZM3.691,30.516V25.1h50.2v5.414ZM55.125,40.544a1.769,1.769,0,1,1-1.769,1.769A1.771,1.771,0,0,1,55.125,40.544Zm1.23-2.278v-5.29h2.953V41.69A4.241,4.241,0,0,0,56.355,38.266Zm0-7.751V25.1h2.953v5.414Zm2.953-7.875H56.355V17.227h2.953ZM3.691,32.977H42.208L14.645,60.539H3.691ZM18.126,60.539,45.688,32.977h6.363L32.732,52.3a1.231,1.231,0,1,0,1.74,1.74L53.895,34.614v3.652a4.23,4.23,0,1,0,5.414,4.669v17.6ZM59.309,14.766H56.355V9.352h2.953Zm0,0" fill="#fd5f01"/>
  <path id="Path_3820" data-name="Path 3820" d="M91.9,122.461a1.231,1.231,0,1,0-.87-.36A1.239,1.239,0,0,0,91.9,122.461Zm0,0" transform="translate(-79.515 -105.234)" fill="#fd5f01"/>
  <path id="Path_3822" data-name="Path 3822" d="M235.519,450.879a1.229,1.229,0,1,0,.87.36A1.239,1.239,0,0,0,235.519,450.879Zm0,0" transform="translate(-205.46 -395.4)" fill="#fd5f01"/>
</svg>
