<svg xmlns="http://www.w3.org/2000/svg" width="37.726" height="10.578" viewBox="0 0 37.726 10.578">
  <g id="up-broken-line-arrow" transform="translate(37.726 -122.045) rotate(90)">
    <g id="Group_903" data-name="Group 903" transform="translate(122.045 0)">
      <path id="Path_3810" data-name="Path 3810" d="M161.342,301.5a.445.445,0,0,0-.749,0c-.34.408-.2.885-.2,1.43a10.388,10.388,0,0,1-.2,2.042c-.136.545.681.749.885.272a7.452,7.452,0,0,0,.409-1.77C161.546,302.793,161.75,302.045,161.342,301.5Z" transform="translate(-155.929 -267.785)" fill="#b2b2b2"/>
      <path id="Path_3811" data-name="Path 3811" d="M160.229,257.3a7.134,7.134,0,0,1-.272-1.157,1.851,1.851,0,0,0,0-.613,1.781,1.781,0,0,0-.2-.545.445.445,0,0,0-.749,0,1.709,1.709,0,0,0-.068,1.293,5.419,5.419,0,0,0,.476,1.361A.451.451,0,0,0,160.229,257.3Z" transform="translate(-154.748 -226.446)" fill="#b2b2b2"/>
      <path id="Path_3812" data-name="Path 3812" d="M159.906,200.928a.453.453,0,0,0-.681,0c-.272.34-.2.613-.2,1.021s.068.749.068,1.157a.408.408,0,1,0,.817,0c0-.34.068-.681.068-1.021C160.111,201.677,160.247,201.337,159.906,200.928Z" transform="translate(-154.902 -178.444)" fill="#b2b2b2"/>
      <path id="Path_3813" data-name="Path 3813" d="M156.995,154.215c-.272-.749-.136-1.5-.34-2.246a.473.473,0,0,0-.885,0,3.066,3.066,0,0,0,.476,2.519C156.45,154.9,157.131,154.623,156.995,154.215Z" transform="translate(-151.923 -134.794)" fill="#b2b2b2"/>
      <path id="Path_3814" data-name="Path 3814" d="M156.665,95.46a.414.414,0,0,0-.545,0c-.408.408-.272.953-.272,1.5a11.028,11.028,0,0,0,.068,1.5.425.425,0,0,0,.817,0,9.122,9.122,0,0,0,.068-1.361A1.736,1.736,0,0,0,156.665,95.46Z" transform="translate(-152.069 -84.752)" fill="#b2b2b2"/>
      <path id="Path_3815" data-name="Path 3815" d="M152.612,43.644a.566.566,0,0,0-.545.749,15.657,15.657,0,0,1,.2,1.77.4.4,0,0,0,.749,0,7.419,7.419,0,0,1,.2-1.77A.643.643,0,0,0,152.612,43.644Z" transform="translate(-148.696 -38.79)" fill="#b2b2b2"/>
      <path id="Path_3816" data-name="Path 3816" d="M132.426,4.582A20.129,20.129,0,0,0,127.049.089a.63.63,0,0,0-.817.136c-1.429,1.7-2.519,3.608-4.016,5.241-.545.545.34,1.361.817.817,1.361-1.5,2.382-3.267,3.744-4.765,1.77,1.089,3,2.655,4.561,4.084A.747.747,0,0,0,132.426,4.582Z" transform="translate(-122.045 0)" fill="#b2b2b2"/>
    </g>
  </g>
</svg>
