<svg id="viber" xmlns="http://www.w3.org/2000/svg" width="16.449" height="18.279" viewBox="0 0 16.449 18.279">
  <g id="Group_828" data-name="Group 828" transform="translate(0)">
    <g id="Group_827" data-name="Group 827">
      <path id="Path_3635" data-name="Path 3635" d="M40.246,1.918a.286.286,0,1,0-.409.4A5.788,5.788,0,0,1,41.5,6.393V9.141a5.827,5.827,0,0,1-5.82,5.82H32.322a.286.286,0,0,0-.2.084L29.86,17.3V14.739a.286.286,0,0,0-.172-.262A5.823,5.823,0,0,1,26.2,9.141V6.393a5.827,5.827,0,0,1,5.82-5.82h3.664a5.8,5.8,0,0,1,3.2.959.286.286,0,0,0,.315-.478A6.367,6.367,0,0,0,35.681,0H32.017a6.4,6.4,0,0,0-6.393,6.393V9.141a6.4,6.4,0,0,0,3.664,5.782V18a.289.289,0,0,0,.489.2l2.664-2.664h3.24a6.4,6.4,0,0,0,6.393-6.393V6.393A6.357,6.357,0,0,0,40.246,1.918Z" transform="translate(-25.624 0)" fill="#fff"/>
    </g>
  </g>
  <g id="Group_830" data-name="Group 830" transform="translate(3.054 3.324)">
    <g id="Group_829" data-name="Group 829">
      <path id="Path_3636" data-name="Path 3636" d="M120.923,101.141l-.275-1.487a.286.286,0,0,0-.225-.229l-2.159-.432a.286.286,0,0,0-.259.078l-.886.886a5.507,5.507,0,0,1-3.047-3.052l.884-.884a.287.287,0,0,0,.078-.259L114.6,93.6a.286.286,0,0,0-.229-.225l-1.487-.274a.285.285,0,0,0-.115,0,2.112,2.112,0,0,0-1.027.567,2.3,2.3,0,0,0-.54,2.067,9.792,9.792,0,0,0,.273,1.21.286.286,0,1,0,.55-.16,9.21,9.21,0,0,1-.257-1.139,1.733,1.733,0,0,1,.38-1.573,1.54,1.54,0,0,1,.694-.4l1.236.228.364,1.819-.916.916a.286.286,0,0,0-.059.319,6.2,6.2,0,0,0,3.6,3.6.286.286,0,0,0,.314-.061l.916-.916,1.819.364.228,1.236a1.541,1.541,0,0,1-.4.694,1.733,1.733,0,0,1-1.574.38,8.6,8.6,0,0,1-4.49-2.1l-.018-.018a7.191,7.191,0,0,1-1.45-2.253.286.286,0,1,0-.527.224,7.768,7.768,0,0,0,1.573,2.435l.018.018a9.2,9.2,0,0,0,4.8,2.258,3.4,3.4,0,0,0,.528.043,2.048,2.048,0,0,0,2.107-1.61A.284.284,0,0,0,120.923,101.141Z" transform="translate(-111.161 -93.1)" fill="#fff"/>
    </g>
  </g>
  <g id="Group_832" data-name="Group 832" transform="translate(8.549 5.191)">
    <g id="Group_831" data-name="Group 831" transform="translate(0)">
      <path id="Path_3637" data-name="Path 3637" d="M265.372,145.388a.286.286,0,0,0,0,.573,1.242,1.242,0,0,1,1.24,1.24.286.286,0,0,0,.573,0A1.815,1.815,0,0,0,265.372,145.388Z" transform="translate(-265.086 -145.388)" fill="#fff"/>
    </g>
  </g>
  <g id="Group_834" data-name="Group 834" transform="translate(8.244 3.969)">
    <g id="Group_833" data-name="Group 833" transform="translate(0)">
      <path id="Path_3638" data-name="Path 3638" d="M257.124,111.179a3.086,3.086,0,0,0-.337.018.286.286,0,0,0,.063.569,2.5,2.5,0,0,1,.274-.015,2.464,2.464,0,0,1,2.462,2.462,2.513,2.513,0,0,1-.015.274.286.286,0,1,0,.569.063,3.09,3.09,0,0,0,.018-.337A3.037,3.037,0,0,0,257.124,111.179Z" transform="translate(-256.532 -111.179)" fill="#fff"/>
    </g>
  </g>
  <g id="Group_836" data-name="Group 836" transform="translate(8.244 2.748)">
    <g id="Group_835" data-name="Group 835" transform="translate(0)">
      <path id="Path_3639" data-name="Path 3639" d="M257.126,76.97c-.109,0-.219,0-.327.012a.286.286,0,1,0,.043.571c.094-.007.189-.011.284-.011a3.687,3.687,0,0,1,3.584,4.533.286.286,0,0,0,.557.132,4.259,4.259,0,0,0-4.142-5.237Z" transform="translate(-256.534 -76.97)" fill="#fff"/>
    </g>
  </g>
</svg>
