<svg xmlns="http://www.w3.org/2000/svg" xmlns:xlink="http://www.w3.org/1999/xlink" width="331.671" height="186.958" viewBox="0 0 331.671 186.958">
  <defs>
    <clipPath id="clip-path">
      <rect width="331.671" height="186.958" fill="none"/>
    </clipPath>
  </defs>
  <g id="Repeat_Grid_5" data-name="Repeat Grid 5" clip-path="url(#clip-path)">
    <g transform="translate(-763.434 -841.49)">
      <path id="Path_113" data-name="Path 113" d="M-1826.84-2426.389l19.349,21.334-8.931-33.737Z" transform="translate(2590.938 3281.341)" fill="#a6cc29" stroke="#a6cc29" stroke-width="1"/>
      <path id="Path_114" data-name="Path 114" d="M-1817.823-2363.49l18.853-5.458,4.465-19.349,5.954,19.349,20.927,5.458-20.927,4.465-5.954,20.837-4.465-20.837Z" transform="translate(2594.122 3272.521)" fill="#a6cc29"/>
      <path id="Path_115" data-name="Path 115" d="M-1722.243-2371.747l49.117-48.87-30.264-16.372Z" transform="translate(2594.88 3281.026)" fill="#a6cc29"/>
      <path id="Path_116" data-name="Path 116" d="M-1619-2415.054l55.693,35.226-40.187-56.56Z" transform="translate(2638.685 3278.921)" fill="#a6cc29" stroke="#a6cc29" stroke-width="1"/>
      <path id="Path_117" data-name="Path 117" d="M-1750.218-2312.045l16.792,66.406,19.082-13.739Z" transform="translate(2593.144 3259.203)" fill="#a6cc29"/>
      <path id="Path_118" data-name="Path 118" d="M-1701.665-2312.045l28.623,32.439,11.068-18.7Z" transform="translate(2593.949 3259.203)" fill="#a6cc29"/>
      <path id="Path_119" data-name="Path 119" d="M-1803.4-2303.259v38.164h25.087Z" transform="translate(2591.643 3257.668)" fill="#a6cc29"/>
      <path id="Path_120" data-name="Path 120" d="M-1635-2241.191l22.452,5.343,30.15-66.024Z" transform="translate(2596.124 3257.426)" fill="#a6cc29"/>
      <path id="Path_121" data-name="Path 121" d="M-1520.988-2312.045l-9.124,32.058h17.556Z" transform="translate(2592.23 3259.203)" fill="#a6cc29"/>
      <path id="Path_122" data-name="Path 122" d="M-1619-2326.432l11.919,17.937,19.845-31.295Z" transform="translate(2593.582 3264.049)" fill="#a6cc29"/>
      <path id="Path_123" data-name="Path 123" d="M-1817.823-2370.424l13.584-3.932,3.217-13.941,4.29,13.941,15.078,3.932-15.078,3.217-4.29,15.014-3.217-15.014Z" transform="translate(2754.866 3261.792)" fill="#a6cc29"/>
      <path id="Path_124" data-name="Path 124" d="M-1817.823-2370.424l13.584-3.932,3.217-13.941,4.29,13.941,15.078,3.932-15.078,3.217-4.29,15.014-3.217-15.014Z" transform="translate(2876.759 3380.641)" fill="#a6cc29"/>
    </g>
  </g>
</svg>
