<svg id="down-arrow-symbol-in-black-square-button" xmlns="http://www.w3.org/2000/svg" width="38.229" height="38.229" viewBox="0 0 38.229 38.229">
  <g id="_x31_0_4_">
    <g id="Group_932" data-name="Group 932">
      <path id="Path_3856" data-name="Path 3856" d="M33.45,38.229H4.779A4.779,4.779,0,0,1,0,33.45V4.779A4.779,4.779,0,0,1,4.779,0H33.45a4.779,4.779,0,0,1,4.779,4.779V33.45A4.779,4.779,0,0,1,33.45,38.229ZM26.922,16.87l-6.758-6.758a1.175,1.175,0,0,0-1.05-.311,1.173,1.173,0,0,0-1.05.311L11.306,16.87A1.194,1.194,0,0,0,13,18.559l4.924-4.923V26.282a1.195,1.195,0,0,0,2.389,0V13.636l4.923,4.923a1.195,1.195,0,0,0,1.69-1.689Z" fill="#ffd971"/>
    </g>
  </g>
</svg>
