<svg xmlns="http://www.w3.org/2000/svg" xmlns:xlink="http://www.w3.org/1999/xlink" width="82.002" height="81.999" viewBox="0 0 82.002 81.999">
  <defs>
    <filter id="Exclusion_1" x="0" y="0" width="82.002" height="81.999" filterUnits="userSpaceOnUse">
      <feOffset dy="3" input="SourceAlpha"/>
      <feGaussianBlur stdDeviation="3" result="blur"/>
      <feFlood flood-opacity="0.161"/>
      <feComposite operator="in" in2="blur"/>
      <feComposite in="SourceGraphic"/>
    </filter>
  </defs>
  <g transform="matrix(1, 0, 0, 1, 0, 0)" filter="url(#Exclusion_1)">
    <path id="Exclusion_1-2" data-name="Exclusion 1" d="M-10336,29a31.792,31.792,0,0,1-12.455-2.515,31.906,31.906,0,0,1-10.173-6.858,31.892,31.892,0,0,1-6.857-10.171A31.788,31.788,0,0,1-10368-3a31.788,31.788,0,0,1,2.515-12.456,31.892,31.892,0,0,1,6.857-10.171,31.906,31.906,0,0,1,10.173-6.858A31.792,31.792,0,0,1-10336-35a31.8,31.8,0,0,1,12.456,2.515,31.906,31.906,0,0,1,10.173,6.858,31.915,31.915,0,0,1,6.858,10.171A31.788,31.788,0,0,1-10304-3a31.788,31.788,0,0,1-2.515,12.456,31.915,31.915,0,0,1-6.858,10.171,31.906,31.906,0,0,1-10.173,6.858A31.8,31.8,0,0,1-10336,29Zm-5.2-45.713a3.763,3.763,0,0,0-1.832.485,3.7,3.7,0,0,0-1.917,3.268V6.919a3.783,3.783,0,0,0,3.736,3.794h.019a3.759,3.759,0,0,0,1.941-.583,1.074,1.074,0,0,0,.356-1.47,1.064,1.064,0,0,0-.914-.513,1.072,1.072,0,0,0-.557.156,1.641,1.641,0,0,1-.832.271,1.66,1.66,0,0,1-1.611-1.655V-12.961a1.59,1.59,0,0,1,.823-1.4,1.621,1.621,0,0,1,.786-.207,1.6,1.6,0,0,1,.84.241l16.2,9.987a1.566,1.566,0,0,1,.765,1.371,1.573,1.573,0,0,1-.77,1.369l-11.712,7.171a1.056,1.056,0,0,0-.482.662,1.057,1.057,0,0,0,.128.808,1.06,1.06,0,0,0,.912.512,1.064,1.064,0,0,0,.559-.158l11.712-7.171a3.722,3.722,0,0,0,1.792-3.19,3.715,3.715,0,0,0-1.779-3.2l-16.2-9.987A3.741,3.741,0,0,0-10341.2-16.714Z" transform="translate(10377 41)" fill="#ffd971"/>
  </g>
</svg>
