<svg xmlns="http://www.w3.org/2000/svg" xmlns:xlink="http://www.w3.org/1999/xlink" width="36" height="37.049" viewBox="0 0 36 37.049">
  <defs>
    <filter id="Монтажная_область_36">
      <feOffset dy="3" input="SourceAlpha"/>
      <feGaussianBlur stdDeviation="3" result="blur"/>
      <feFlood flood-opacity="0.161" result="color"/>
      <feComposite operator="out" in="SourceGraphic" in2="blur"/>
      <feComposite operator="in" in="color"/>
      <feComposite operator="in" in2="SourceGraphic"/>
    </filter>
  </defs>
  <g data-type="innerShadowGroup">
    <path id="Монтажная_область_36-2" data-name="Монтажная область 36" d="M91.644,55.128c.66.649,1.317,1.3,1.983,1.946.461.447.468.693.053,1.2-.676.822-1.336,1.657-2.013,2.479a.325.325,0,0,0,.013.5c.7.842,1.375,1.7,2.065,2.543a.678.678,0,0,1,0,1.028c-.69.847-1.37,1.7-2.066,2.543a.324.324,0,0,0-.008.5c.688.829,1.356,1.678,2.039,2.511.365.446.362.669-.01,1.123-.684.834-1.353,1.679-2.039,2.511a.305.305,0,0,0,0,.462c.686.829,1.355,1.678,2.039,2.511.372.454.374.677.008,1.123-.683.834-1.351,1.681-2.039,2.511a.325.325,0,0,0,.009.5c.7.842,1.376,1.7,2.066,2.544a.672.672,0,0,1,.028.994c-.817,1.009-1.644,2.012-2.45,3.032a1.072,1.072,0,0,1-.918.448q-14.438-.012-28.875,0a.965.965,0,0,1-.825-.381c-.835-1.047-1.687-2.085-2.531-3.127a.673.673,0,0,1,.023-.935c.673-.824,1.331-1.662,2.019-2.474.218-.258.245-.423.013-.694-.691-.809-1.348-1.648-2.02-2.473a.67.67,0,0,1,.009-.994c.688-.858,1.367-1.713,2.065-2.553a.341.341,0,0,0,0-.528c-.689-.829-1.357-1.677-2.04-2.511a.686.686,0,0,1-.008-1.058c.681-.836,1.351-1.681,2.037-2.512.156-.19.194-.319.019-.529-.691-.829-1.358-1.676-2.041-2.51a.7.7,0,0,1,0-1.089c.683-.835,1.351-1.681,2.037-2.513a.327.327,0,0,0,.008-.5c-.687-.828-1.355-1.678-2.04-2.51-.373-.455-.362-.733.055-1.14.673-.655,1.336-1.318,2.1-2.071h-1.5c-.711,0-.918-.205-.918-.911V51.923c0-.613.235-.843.861-.843H93.1c.63,0,.857.225.86.842,0,.772.007,1.544,0,2.32-.005.541-.245.775-.794.783-.5.006-.99,0-1.485,0ZM59.968,58.3a1.5,1.5,0,0,0,.119.241c.39.479.815.934,1.169,1.44a.9.9,0,0,0,.86.42q13.5-.013,26.992.009c.856,0,1.581-.059,1.993-.911.017-.035.059-.058.083-.09.271-.345.539-.691.863-1.107Zm-.044,6.634c.456.569.892,1.041,1.242,1.57a1.185,1.185,0,0,0,1.154.515q13.625-.02,27.248.008a1.423,1.423,0,0,0,1.366-.686,4.084,4.084,0,0,1,.25-.324l.847-1.084Zm32.125,6.621H59.92c.458.57.9,1.042,1.246,1.574a1.183,1.183,0,0,0,1.154.513q13.642-.017,27.283,0a1.251,1.251,0,0,0,1.225-.544C91.169,72.581,91.6,72.118,92.048,71.558Zm.028,6.584H59.971a.9.9,0,0,0,.083.249c.334.429.721.829,1.018,1.284a1.369,1.369,0,0,0,1.358.611c1.651-.037,3.3-.013,4.955-.013q11.284,0,22.569,0a.748.748,0,0,0,.72-.36c.237-.365.547-.682.821-1.023.18-.225.351-.457.577-.753Zm-32.1,6.651a1.945,1.945,0,0,0,.139.249c.382.47.8.911,1.139,1.408a.906.906,0,0,0,.862.418q13.728-.014,27.456.011a1.422,1.422,0,0,0,1.363-.691c.066-.1.149-.2.225-.293l.872-1.1Zm.049-21.17H91.938c-.474-.588-.918-1.112-1.328-1.663a.764.764,0,0,0-.7-.331q-7.013.015-14.034.007-6.93,0-13.867,0c-.155,0-.373.009-.456.1-.513.6-.994,1.215-1.531,1.881Zm0,6.621H91.94c-.473-.588-.918-1.112-1.326-1.657a.763.763,0,0,0-.695-.331q-6.1.016-12.2.007-7.848,0-15.7,0a.714.714,0,0,0-.485.131c-.508.577-.98,1.186-1.514,1.847Zm31.921,6.62c-.475-.589-.918-1.112-1.328-1.657a.761.761,0,0,0-.693-.336q-13.868.014-27.734,0a1.013,1.013,0,0,0-.932.451c-.373.519-.792,1-1.225,1.547Zm0,6.623c-.49-.609-.935-1.138-1.35-1.689a.729.729,0,0,0-.668-.309c-2.942.01-5.885.007-8.828.007H62.028c-.158,0-.382,0-.463.091-.518.6-1.006,1.225-1.55,1.9Zm-.334-26.473.052-.089c-.564-.551-1.115-1.114-1.7-1.643a1,1,0,0,0-.609-.249q-13.394-.019-26.789-.008c-.121,0-.285-.01-.356.059-.64.617-1.264,1.251-1.944,1.932ZM61.943,53.745h28.1V52.368h-28.1Zm-2.6-1.345v1.3h1.3V52.4Zm31.989,0v1.312h1.3V52.391Z" transform="translate(-57.983 -51.08)" fill="#303030"/>
    <g transform="matrix(1, 0, 0, 1, 0, 0)" filter="url(#Монтажная_область_36)">
      <path id="Монтажная_область_36-3" data-name="Монтажная область 36" d="M91.644,55.128c.66.649,1.317,1.3,1.983,1.946.461.447.468.693.053,1.2-.676.822-1.336,1.657-2.013,2.479a.325.325,0,0,0,.013.5c.7.842,1.375,1.7,2.065,2.543a.678.678,0,0,1,0,1.028c-.69.847-1.37,1.7-2.066,2.543a.324.324,0,0,0-.008.5c.688.829,1.356,1.678,2.039,2.511.365.446.362.669-.01,1.123-.684.834-1.353,1.679-2.039,2.511a.305.305,0,0,0,0,.462c.686.829,1.355,1.678,2.039,2.511.372.454.374.677.008,1.123-.683.834-1.351,1.681-2.039,2.511a.325.325,0,0,0,.009.5c.7.842,1.376,1.7,2.066,2.544a.672.672,0,0,1,.028.994c-.817,1.009-1.644,2.012-2.45,3.032a1.072,1.072,0,0,1-.918.448q-14.438-.012-28.875,0a.965.965,0,0,1-.825-.381c-.835-1.047-1.687-2.085-2.531-3.127a.673.673,0,0,1,.023-.935c.673-.824,1.331-1.662,2.019-2.474.218-.258.245-.423.013-.694-.691-.809-1.348-1.648-2.02-2.473a.67.67,0,0,1,.009-.994c.688-.858,1.367-1.713,2.065-2.553a.341.341,0,0,0,0-.528c-.689-.829-1.357-1.677-2.04-2.511a.686.686,0,0,1-.008-1.058c.681-.836,1.351-1.681,2.037-2.512.156-.19.194-.319.019-.529-.691-.829-1.358-1.676-2.041-2.51a.7.7,0,0,1,0-1.089c.683-.835,1.351-1.681,2.037-2.513a.327.327,0,0,0,.008-.5c-.687-.828-1.355-1.678-2.04-2.51-.373-.455-.362-.733.055-1.14.673-.655,1.336-1.318,2.1-2.071h-1.5c-.711,0-.918-.205-.918-.911V51.923c0-.613.235-.843.861-.843H93.1c.63,0,.857.225.86.842,0,.772.007,1.544,0,2.32-.005.541-.245.775-.794.783-.5.006-.99,0-1.485,0ZM59.968,58.3a1.5,1.5,0,0,0,.119.241c.39.479.815.934,1.169,1.44a.9.9,0,0,0,.86.42q13.5-.013,26.992.009c.856,0,1.581-.059,1.993-.911.017-.035.059-.058.083-.09.271-.345.539-.691.863-1.107Zm-.044,6.634c.456.569.892,1.041,1.242,1.57a1.185,1.185,0,0,0,1.154.515q13.625-.02,27.248.008a1.423,1.423,0,0,0,1.366-.686,4.084,4.084,0,0,1,.25-.324l.847-1.084Zm32.125,6.621H59.92c.458.57.9,1.042,1.246,1.574a1.183,1.183,0,0,0,1.154.513q13.642-.017,27.283,0a1.251,1.251,0,0,0,1.225-.544C91.169,72.581,91.6,72.118,92.048,71.558Zm.028,6.584H59.971a.9.9,0,0,0,.083.249c.334.429.721.829,1.018,1.284a1.369,1.369,0,0,0,1.358.611c1.651-.037,3.3-.013,4.955-.013q11.284,0,22.569,0a.748.748,0,0,0,.72-.36c.237-.365.547-.682.821-1.023.18-.225.351-.457.577-.753Zm-32.1,6.651a1.945,1.945,0,0,0,.139.249c.382.47.8.911,1.139,1.408a.906.906,0,0,0,.862.418q13.728-.014,27.456.011a1.422,1.422,0,0,0,1.363-.691c.066-.1.149-.2.225-.293l.872-1.1Zm.049-21.17H91.938c-.474-.588-.918-1.112-1.328-1.663a.764.764,0,0,0-.7-.331q-7.013.015-14.034.007-6.93,0-13.867,0c-.155,0-.373.009-.456.1-.513.6-.994,1.215-1.531,1.881Zm0,6.621H91.94c-.473-.588-.918-1.112-1.326-1.657a.763.763,0,0,0-.695-.331q-6.1.016-12.2.007-7.848,0-15.7,0a.714.714,0,0,0-.485.131c-.508.577-.98,1.186-1.514,1.847Zm31.921,6.62c-.475-.589-.918-1.112-1.328-1.657a.761.761,0,0,0-.693-.336q-13.868.014-27.734,0a1.013,1.013,0,0,0-.932.451c-.373.519-.792,1-1.225,1.547Zm0,6.623c-.49-.609-.935-1.138-1.35-1.689a.729.729,0,0,0-.668-.309c-2.942.01-5.885.007-8.828.007H62.028c-.158,0-.382,0-.463.091-.518.6-1.006,1.225-1.55,1.9Zm-.334-26.473.052-.089c-.564-.551-1.115-1.114-1.7-1.643a1,1,0,0,0-.609-.249q-13.394-.019-26.789-.008c-.121,0-.285-.01-.356.059-.64.617-1.264,1.251-1.944,1.932ZM61.943,53.745h28.1V52.368h-28.1Zm-2.6-1.345v1.3h1.3V52.4Zm31.989,0v1.312h1.3V52.391Z" transform="translate(-57.98 -51.08)" fill="#fff"/>
    </g>
  </g>
</svg>
