<svg xmlns="http://www.w3.org/2000/svg" width="36" height="34.986" viewBox="0 0 36 34.986">
  <path id="Монтажная_область_32" data-name="Монтажная область 32" d="M40.351,61.092c-.262,0-.474.013-.687,0a.623.623,0,0,1-.629-.663v-6.1a.668.668,0,0,1,.766-.7l7.652.008H73.483c.657,0,.858.192.858.82v5.778c0,.673-.19.856-.885.858h-.425V62.65c0,1.073-.05,2.148.017,3.216a15.578,15.578,0,0,0,.394,2.107c.281,1.382.571,2.761.857,4.142q.166.807.334,1.617a1.831,1.831,0,0,1-.7,1.983.36.36,0,0,0-.11.3c.262,1.336.54,2.664.81,4a1.818,1.818,0,0,1-.7,1.952.365.365,0,0,0-.11.3q.393,2,.813,4a1.893,1.893,0,0,1-1.99,2.338q-4.317.006-8.633,0H44.362q-1.848,0-3.7.011a1.906,1.906,0,0,1-1.938-2.285c.275-1.353.558-2.7.825-4.059a.36.36,0,0,0-.11-.3,1.819,1.819,0,0,1-.7-1.952c.27-1.336.549-2.664.811-4a.363.363,0,0,0-.11-.3,1.832,1.832,0,0,1-.695-1.984c.476-2.275.969-4.547,1.425-6.826a10.05,10.05,0,0,0,.169-1.759c.025-1.207.008-2.416.008-3.623ZM54.789,74.92H68.732c.448,0,.449,0,.449-.425v-13c0-.426,0-.427-.448-.427H56.625q-7.314,0-14.628-.007c-.333,0-.432.083-.422.4.024.771-.012,1.542.012,2.313a17.178,17.178,0,0,1-.409,4.509c-.442,1.884-.809,3.783-1.217,5.678-.13.606.087.861.725.959a1.912,1.912,0,0,0,.294,0ZM73.06,54.866H40.319v5H73.063ZM56.692,87.422H72.634c.634,0,.923-.334.8-.918-.275-1.318-.549-2.635-.841-3.949a.372.372,0,0,0-.274-.218c-.556-.021-1.113-.013-1.669-.007a.326.326,0,0,0-.226.078.806.806,0,0,0,.206.852,1.756,1.756,0,0,1,.992,1.207,8.792,8.792,0,0,1,.052,1.769c-.014.3-.281.459-.6.462-.851.006-1.7.008-2.553,0a.594.594,0,0,1-.645-.631c-.008-.281.013-.564-.006-.843a1.953,1.953,0,0,1,1.088-1.971.832.832,0,0,0,.194-.849.308.308,0,0,0-.2-.074c-.141-.012-.283-.006-.426-.006H41.2c-.25,0-.378.038-.432.321-.245,1.27-.5,2.539-.805,3.8a.762.762,0,0,0,.826.991C46.088,87.414,51.392,87.422,56.692,87.422Zm-1.9-6.248H68.83c.175,0,.354.027.35-.237q-.008-2.314,0-4.625c0-.172-.069-.25-.251-.241-.1.005-.2,0-.295,0H42.2c-.372,0-.743-.014-1.112.01a.39.39,0,0,0-.3.2q-.446,2.015-.856,4.035c-.087.446.054.668.5.8a1.65,1.65,0,0,0,.481.056Q47.86,81.176,54.8,81.174Zm15.6-13.193v6.59c0,.157-.053.347.235.344.7-.008,1.4.013,2.093-.008a.667.667,0,0,0,.707-.884c-.047-.233-.119-.462-.167-.695-.365-1.774-.737-3.547-1.087-5.323a16.448,16.448,0,0,1-.368-2.326c-.061-1.216-.012-2.436-.016-3.654,0-.3.093-.725-.07-.865-.188-.16-.612-.056-.935-.09s-.4.084-.4.383c.012,2.174.006,4.35.007,6.526Zm.02,13.182h.938c.5,0,1.006.019,1.5-.028.477-.045.673-.358.574-.835q-.409-1.995-.838-3.986c-.018-.083-.117-.21-.181-.21-.66-.016-1.32-.01-2-.01Zm.039,4.335c-.066-.417.2-.9-.279-1.156a.978.978,0,0,0-.819.023c-.421.266-.192.73-.236,1.133Z" transform="translate(-38.689 -53.63)" fill="#303030"/>
</svg>
