<svg xmlns="http://www.w3.org/2000/svg" width="45.732" height="45.585" viewBox="0 0 45.732 45.585">
  <g id="sketch" transform="translate(0 -0.82)">
    <g id="Group_840" data-name="Group 840" transform="translate(32.201 32.969)">
      <g id="Group_839" data-name="Group 839">
        <path id="Path_3690" data-name="Path 3690" d="M368.781,360.8a.671.671,0,0,0-.732.145l-7.335,7.336a.671.671,0,0,0,.475,1.146h7.336a.671.671,0,0,0,.671-.671V361.42A.671.671,0,0,0,368.781,360.8Zm-5.972,7.284,5.044-5.044v5.044Z" transform="translate(-360.517 -360.749)" fill="#fd5f01"/>
      </g>
    </g>
    <g id="Group_842" data-name="Group 842" transform="translate(0 0.82)">
      <g id="Group_841" data-name="Group 841" transform="translate(0 0)">
        <path id="Path_3691" data-name="Path 3691" d="M45.317,22.261a.671.671,0,0,0-.732.145l-2.01,2.01V10.748a.671.671,0,0,0-.671-.671H36.747L38.619,8.2h0l1.8-1.8a2.047,2.047,0,0,0,0-2.895L38.338,1.419a2.047,2.047,0,0,0-2.895,0l-1.8,1.8L31.458,5.4l-4.672,4.672H5.95V3.436a.671.671,0,0,0-.671-.671A5.285,5.285,0,0,0,0,8.044v28.51a.673.673,0,0,0,.016.144,5.084,5.084,0,0,0,5.069,4.7H25.6l-3.863,3.863a.671.671,0,0,0,.475,1.146H45.061a.671.671,0,0,0,.671-.671V22.881A.671.671,0,0,0,45.317,22.261ZM36.393,2.369a.7.7,0,0,1,1,0l2.086,2.086a.705.705,0,0,1,0,1l-1.33,1.33L35.063,3.7Zm-2.28,2.279L37.2,7.73,35.964,8.962,32.882,5.88ZM44.39,30.423H43.151a.671.671,0,1,0,0,1.342H44.39v2.023H43.151a.671.671,0,1,0,0,1.342H44.39v2.023H43.151a.671.671,0,0,0,0,1.342H44.39v2.023H43.151a.671.671,0,1,0,0,1.342H44.39v3.2H23.828l6.78-6.78a.671.671,0,0,0-.949-.949l-2.72,2.72H5.085a3.721,3.721,0,0,1-3.739-3.621q.006-.191.03-.379v0q.011-.089.027-.177l0-.02q.014-.079.031-.157l.01-.043q.015-.066.033-.131l.02-.07c.01-.034.02-.068.031-.1s.022-.067.034-.1.016-.047.025-.07c.016-.044.034-.087.052-.131l.015-.037c.023-.054.047-.107.072-.159l0-.007A3.952,3.952,0,0,1,4.479,32.7l.01,0c.056-.011.112-.021.168-.03l.028,0c.051-.008.1-.014.154-.02l.043-.005c.05-.005.1-.008.15-.011l.048,0q.1,0,.2-.005a.671.671,0,0,0,.671-.671V27.079a.671.671,0,1,0-1.342,0v4.238a5.243,5.243,0,0,0-3.015,1.459c-.087.085-.17.174-.251.264v-25a3.944,3.944,0,0,1,3.266-3.88V24.394h0a.671.671,0,1,0,1.342,0h0V11.419H25.444L21.733,15.13a.671.671,0,1,0,.949.949l4.857-4.857h0l4.393-4.393,3.082,3.082-.362.362h0L21.117,23.808l-3.082-3.082L20.7,18.058a.671.671,0,1,0-.949-.949l-3.143,3.142a.675.675,0,0,0-.047.053l-.014.019c-.009.013-.019.025-.027.038l-.014.023c-.007.013-.015.025-.021.038l-.012.026c-.006.013-.012.027-.017.04l-.006.014-1.308,3.7-.892,2.526a.678.678,0,0,0-.027.1H11.995a.671.671,0,0,0,0,1.342H30.584a.671.671,0,0,0,0-1.342H17.247l4.094-1.445.01,0,.047-.02.018-.008.047-.026.015-.009c.016-.01.032-.022.047-.034l.012-.009a.673.673,0,0,0,.054-.048L35.4,11.419h5.829v14.34l-9.6,9.6a.671.671,0,0,0,0,.949.684.684,0,0,0,.051.046.671.671,0,0,0,.9-.046h0L44.39,24.5Zm-24.5-5.945-1.923.679-1.281-1.281.679-1.923Z" transform="translate(0 -0.82)" fill="#fd5f01"/>
      </g>
    </g>
  </g>
</svg>
