<svg xmlns="http://www.w3.org/2000/svg" width="17.88" height="12.048" viewBox="0 0 17.88 12.048">
  <g id="document" transform="translate(0 -83.5)">
    <path id="Path_3626" data-name="Path 3626" d="M448.5,406h1.048a.905.905,0,0,0,.642-.266Z" transform="translate(-432.838 -310.714)" fill="#4fdbff"/>
    <path id="Path_3630" data-name="Path 3630" d="M16.71,83.5H3.265A1.171,1.171,0,0,0,2.1,84.67v2.5H.262a.262.262,0,1,0,0,.524H3.4a.262.262,0,1,0,0-.524H2.619v-2.5a.641.641,0,0,1,.044-.232l5.086,5.086L2.663,94.61a.641.641,0,0,1-.044-.232V92.667a.262.262,0,0,0-.524,0v1.711a1.171,1.171,0,0,0,1.17,1.17H16.71a1.171,1.171,0,0,0,1.17-1.17V84.67A1.171,1.171,0,0,0,16.71,83.5Zm-4.484,6.024,5.086-5.086a.641.641,0,0,1,.044.232v9.708a.641.641,0,0,1-.044.232Zm4.484-5.5a.641.641,0,0,1,.232.044L11.1,89.911a1.573,1.573,0,0,1-2.222,0L3.033,84.068a.641.641,0,0,1,.232-.044Zm-13.445,11a.641.641,0,0,1-.232-.044l5.086-5.086.387.387a2.1,2.1,0,0,0,2.963,0l.387-.387,5.086,5.086a.641.641,0,0,1-.232.044Z" fill="#fff"/>
    <path id="Path_3631" data-name="Path 3631" d="M2.357,218.5a.262.262,0,0,0-.262.262v.786H.262a.262.262,0,1,0,0,.524H4.452a.262.262,0,1,0,0-.524H2.619v-.786A.262.262,0,0,0,2.357,218.5Z" transform="translate(0 -130.286)" fill="#fff"/>
    <path id="Path_3632" data-name="Path 3632" d="M3.4,280.071a.262.262,0,1,0,0-.524H2.619v-.786a.262.262,0,0,0-.524,0v.786H.262a.262.262,0,1,0,0,.524Z" transform="translate(0 -188.19)" fill="#fff"/>
  </g>
</svg>
