<svg width="15" height="15" viewBox="0 0 15 15" fill="none" xmlns="http://www.w3.org/2000/svg">
<path d="M13.416 9.591C12.5274 9.59279 11.6442 9.45234 10.8 9.175C10.6066 9.1073 10.3983 9.09398 10.1978 9.13647C9.99731 9.17896 9.81233 9.27565 9.663 9.416L8.013 10.665C6.23531 9.77348 4.79281 8.33204 3.9 6.555L5.117 4.94C5.26724 4.78926 5.37311 4.60008 5.42302 4.39319C5.47294 4.1863 5.46497 3.96967 5.4 3.767C5.12214 2.92253 4.98136 2.039 4.983 1.15C4.98274 0.845082 4.86149 0.552729 4.64588 0.33712C4.43027 0.12151 4.13792 0.000264801 3.833 0L1.15 0C0.845082 0.000264801 0.552729 0.12151 0.33712 0.33712C0.12151 0.552729 0.000264801 0.845082 0 1.15C0.00423434 4.70684 1.41906 8.1168 3.93413 10.6319C6.4492 13.1469 9.85916 14.5618 13.416 14.566C13.7209 14.5657 14.0133 14.4445 14.2289 14.2289C14.4445 14.0133 14.5657 13.7209 14.566 13.416V10.741C14.5657 10.4361 14.4445 10.1437 14.2289 9.92812C14.0133 9.71251 13.7209 9.59126 13.416 9.591Z" fill="white"/>
</svg>
