<svg width="17" height="14" viewBox="0 0 17 14" fill="none" xmlns="http://www.w3.org/2000/svg">
<path d="M15.0926 13.02C15.4503 13.0247 15.7964 12.894 16.0616 12.654L11.3696 7.95999L11.0446 8.194C10.6933 8.45267 10.4083 8.65431 10.1896 8.79898C9.91272 8.97381 9.62012 9.12245 9.31563 9.24298C8.99482 9.38456 8.6492 9.46138 8.29863 9.46899H8.27962C7.92905 9.46138 7.58343 9.38456 7.26263 9.24298C6.95809 9.12254 6.66549 8.9739 6.38863 8.79898C6.16996 8.65431 5.88496 8.45267 5.53363 8.194L5.20963 7.95898L0.515625 12.654C0.781064 12.8942 1.12765 13.025 1.48563 13.02H15.0926Z" fill="white"/>
<path d="M0.941813 5.00311C0.598118 4.77673 0.284314 4.50796 0.0078125 4.20312L0.0078125 11.3441L4.14481 7.20712C3.32015 6.62712 2.25248 5.89245 0.941813 5.00311Z" fill="white"/>
<path d="M15.6485 5.00327C14.3892 5.85527 13.3188 6.58861 12.4375 7.20328L16.5725 11.3383V4.19727C16.298 4.50211 15.9878 4.77274 15.6485 5.00327Z" fill="white"/>
<path d="M15.0931 0.00300217H1.48513C1.27681 -0.00948772 1.0685 0.0275935 0.877285 0.111206C0.686071 0.194819 0.517408 0.322578 0.385134 0.484001C0.121804 0.827344 -0.0139473 1.25157 0.00113386 1.684C0.0301174 2.1484 0.208291 2.59103 0.509134 2.946C0.810485 3.36082 1.17927 3.72216 1.60013 4.015C1.80947 4.163 2.4428 4.602 3.50013 5.332C4.06913 5.726 4.56413 6.07 4.98913 6.367L5.92213 7.02L6.06013 7.12L6.31513 7.304C6.51513 7.44867 6.6818 7.56567 6.81513 7.655C6.94847 7.74434 7.1088 7.84433 7.29613 7.955C7.4642 8.05677 7.64252 8.14056 7.82813 8.205C7.9767 8.25722 8.13268 8.28524 8.29013 8.288H8.30013C8.45758 8.28524 8.61357 8.25722 8.76213 8.205C8.94775 8.14056 9.12606 8.05677 9.29413 7.955C9.48213 7.84433 9.64247 7.74434 9.77513 7.655C9.9078 7.56567 10.0745 7.44867 10.2751 7.304L10.5301 7.12L10.6681 7.02L11.6041 6.37L14.9951 4.016C15.4375 3.7092 15.8199 3.32382 16.1231 2.879C16.4142 2.46989 16.5724 1.9811 16.5761 1.479C16.573 1.08771 16.4162 0.713346 16.1395 0.436657C15.8628 0.159968 15.4884 0.00313671 15.0971 0L15.0931 0.00300217Z" fill="white"/>
</svg>
