<?xml version="1.0" encoding="utf-8"?>
<!-- Generator: Adobe Illustrator 24.0.0, SVG Export Plug-In . SVG Version: 6.00 Build 0)  -->
<svg version="1.1" id="Layer_1" xmlns="http://www.w3.org/2000/svg" xmlns:xlink="http://www.w3.org/1999/xlink" x="0px" y="0px"
	 viewBox="0 0 60 60" style="enable-background:new 0 0 60 60;" xml:space="preserve">
<style type="text/css">
	.st0{fill:#FF0000;}
	.st1{fill:#FFFFFF;}
</style>
<g>
	<g>
		<path class="st0" d="M30,60c16.6,0,30-13.4,30-30S46.6,0,30,0S0,13.4,0,30S13.4,60,30,60z"/>
	</g>
	<path class="st1" d="M17.8,17.6h24.4c1.8,0,3.3,1.5,3.3,3.3v17.8c0,1.8-1.5,3.3-3.3,3.3h-3.9l0.6,5.4c0.1,0.6-0.4,1.2-1,1.2
		c-0.3,0-0.6-0.1-0.9-0.3L30,42.1H17.8c-1.8,0-3.3-1.5-3.3-3.3V21C14.5,19.1,16,17.6,17.8,17.6z"/>
</g>
</svg>
