<svg width="34" height="27" viewBox="0 0 34 27" fill="none" xmlns="http://www.w3.org/2000/svg">
<path d="M1.70159 7.91401H4.96422L5.88 1.39149C6.01113 0.515623 6.86311 -0.0986228 7.79235 0.0131191L32.5233 3.1071C32.9713 3.16397 33.3774 3.38679 33.651 3.7267C33.926 4.06393 34.0458 4.4915 33.9842 4.91371L31.8974 19.7694C31.7869 20.5696 31.0639 21.1678 30.2091 21.1671C30.136 21.1671 30.063 21.1625 29.99 21.1531L28.352 20.949V24.5087C28.352 25.3959 27.59 26.1146 26.6508 26.1146H1.70088C0.761002 26.1146 -0.000255585 25.3959 -0.000255585 24.5087V9.52055C0.000450134 8.63331 0.762421 7.91401 1.70159 7.91401ZM6.10823 7.91401H10.5361L6.18478 7.36935L6.10823 7.91401ZM32.8621 4.76851C32.882 4.62866 32.8416 4.48748 32.7501 4.37641C32.6587 4.26199 32.5226 4.18705 32.3723 4.16764L7.64634 1.075C7.33518 1.03753 7.05024 1.24228 7.00487 1.53535L6.78089 3.12918L32.6381 6.36568L32.8621 4.76851ZM28.3527 19.8691L30.1368 20.0912C30.4472 20.13 30.7321 19.9239 30.7733 19.6309L32.0385 10.6065L28.3527 10.1468V19.8691ZM28.2776 9.05819L32.1902 9.54531L32.4879 7.42757L6.63062 4.19039L6.46051 5.41755L6.33434 6.30881L19.1659 7.91468H26.6508C27.4015 7.91535 28.0621 8.38038 28.2776 9.05819ZM1.13454 24.508C1.13454 24.8038 1.38829 25.0433 1.70159 25.0433H26.6516C26.9648 25.0433 27.2186 24.8038 27.2186 24.508V9.53594C27.2186 9.53059 27.2158 9.52524 27.2158 9.51988C27.2158 9.22413 26.962 8.98459 26.6487 8.98459H1.70159C1.38829 8.98459 1.13454 9.22413 1.13454 9.51988V24.508Z" fill="#606060"/>
<path d="M9.10442 15.9556C8.87619 15.7971 8.67489 15.6064 8.5069 15.3916C7.57482 16.5759 5.80139 16.8228 4.5468 15.9429C3.29222 15.063 3.03067 13.3889 3.96275 12.2046C4.49789 11.5248 5.34208 11.1246 6.23872 11.126C7.13465 11.1287 7.976 11.5315 8.5069 12.2133C9.43685 11.0243 11.2117 10.7714 12.472 11.6492C13.7315 12.5271 13.9994 14.2026 13.0695 15.3922C12.1395 16.5806 10.3647 16.8335 9.10442 15.9556ZM6.23872 12.1959C5.29885 12.1959 4.53759 12.9145 4.53759 13.8018C4.53759 14.689 5.29885 15.4076 6.23872 15.4076C7.1786 15.4076 7.93986 14.689 7.93986 13.8018C7.93986 12.9145 7.1786 12.1959 6.23872 12.1959ZM10.7751 12.1959C9.8352 12.1959 9.07394 12.9145 9.07394 13.8018C9.07394 14.689 9.8352 15.4076 10.7751 15.4076C11.715 15.4076 12.4762 14.689 12.4762 13.8018C12.4762 12.9145 11.715 12.1959 10.7751 12.1959Z" fill="#606060"/>
<path d="M23.8171 11.6606H24.9512V12.7311H23.8171V11.6606Z" fill="#606060"/>
<path d="M15.8784 11.6606H22.683V12.7311H15.8784V11.6606Z" fill="#606060"/>
<path d="M15.8785 13.8018H24.9512V14.8724H15.8785V13.8018Z" fill="#606060"/>
<path d="M3.97052 18.6191H24.3841C24.6974 18.6191 24.9512 18.8587 24.9512 19.1544V22.3662C24.9512 22.662 24.6974 22.9016 24.3841 22.9016H3.97052C3.65723 22.9016 3.40348 22.662 3.40348 22.3662V19.1544C3.40348 18.8594 3.65723 18.6191 3.97052 18.6191ZM4.53757 21.8309H23.8171V19.6897H4.53757V21.8309Z" fill="#606060"/>
</svg>
