<svg width="30" height="20" viewBox="0 0 30 20" fill="none" xmlns="http://www.w3.org/2000/svg">
<path d="M28.9822 8.91302L26.9386 8.07271L25.2038 4.86218C24.7349 3.98229 23.7843 3.43426 22.7457 3.44187H19.7579V2.63961C19.7579 1.18734 18.5384 0.0014663 17.0117 0.0014663H2.73343C1.2051 -5.60012e-05 4.10228e-05 1.19191 4.10228e-05 2.63809V14.9337C-0.0127617 15.8197 0.729797 16.5458 1.6612 16.558C1.6676 16.558 1.674 16.558 1.6884 16.558H2.04368C2.04368 16.622 2.03728 16.6478 2.03728 16.6859C2.03088 18.5081 3.57841 19.9923 5.49402 19.9984C7.40963 20.0045 8.96996 18.5324 8.97636 16.7102C8.97636 16.6981 8.97636 16.6905 8.97636 16.6783C8.97636 16.6341 8.97636 16.6143 8.96996 16.5504H20.51C20.51 16.6143 20.51 16.6402 20.51 16.6783C20.5036 18.5005 22.0512 19.9847 23.9668 19.9908C25.8824 19.9969 27.4427 18.5248 27.4491 16.7026C27.4491 16.6905 27.4491 16.6828 27.4491 16.6707C27.4491 16.6265 27.4491 16.6067 27.4491 16.5428H28.3133C29.2447 16.5428 30.0017 15.8227 30.0017 14.9368C30.0017 14.9307 30.0017 14.9246 30.0017 14.9109V10.3912C30.0129 9.76703 29.6112 9.17486 28.9822 8.91302ZM5.51322 18.7319C4.33377 18.7319 3.38316 17.8276 3.38316 16.7057C3.38316 15.5837 4.33377 14.6795 5.51322 14.6795C6.69267 14.6795 7.64328 15.5837 7.64328 16.7057C7.64328 17.82 6.68467 18.7319 5.51322 18.7319ZM18.42 15.2976H8.65469C8.09137 14.1315 6.85911 13.3855 5.51322 13.3932C4.16093 13.3871 2.93507 14.1254 2.37175 15.2976H1.6884C1.48036 15.2976 1.33953 15.1453 1.33953 14.9474V11.6653H18.42V15.2976ZM18.42 2.64418V10.3912H1.33953V2.64418C1.33953 1.89825 1.94926 1.2802 2.73343 1.2802H17.0133C17.7974 1.28629 18.4264 1.89825 18.42 2.63657V2.64418ZM19.7595 4.7206H22.7473C23.277 4.71451 23.7715 4.98853 24.0196 5.44065L25.3591 7.90678H19.7595V4.7206ZM23.986 18.7319C22.8065 18.7319 21.8559 17.8276 21.8559 16.7057C21.8559 15.5837 22.8065 14.6795 23.986 14.6795C25.1654 14.6795 26.116 15.5837 26.116 16.7057C26.116 17.82 25.1638 18.7319 23.986 18.7319ZM28.667 14.9474C28.667 15.1453 28.5261 15.2976 28.3181 15.2976H27.1258C26.3161 13.6474 24.2532 12.9334 22.5185 13.7052C21.7823 14.0295 21.1854 14.5973 20.8445 15.2976H19.7595V9.18095H26.3241L28.4541 10.073C28.5886 10.137 28.675 10.277 28.6686 10.4171V14.9474H28.667Z" fill="#606060"/>
</svg>
