<svg width="26" height="26" viewBox="0 0 26 26" fill="none" xmlns="http://www.w3.org/2000/svg">
    <path d="M24.5648 2.941e-08H1.43394C0.641907 0.000476106 -0.000158662 0.642859 2.941e-08 1.4352V24.5661C0.000476106 25.3581 0.642859 26.0002 1.4352 26H13.8887V15.9453H10.5117V12.0098H13.8887V9.11349C13.8887 5.75479 15.9391 3.92666 18.9352 3.92666C20.3703 3.92666 21.6035 4.03362 21.9629 4.08138V7.5918H19.8969C18.2668 7.5918 17.9512 8.36637 17.9512 9.50323V12.0098H21.8486L21.3408 15.9453H17.9512V26H24.5648C25.3573 26.0002 25.9998 25.3579 26 24.5654C26 24.5653 26 24.5651 26 24.5648V1.43394C25.9997 0.641907 25.3571 -0.000158662 24.5648 2.941e-08Z" fill="#68BF5F"/>
</svg>
