<svg width="25" height="20" viewBox="0 0 25 20" fill="none" xmlns="http://www.w3.org/2000/svg">
<path d="M24.3249 19.9879C24.2291 19.9924 24.1498 19.9985 24.0705 19.9985C16.3736 19.9985 8.67671 19.997 0.981287 19.997C0.628163 19.997 0.673052 20.0273 0.671555 19.6766C0.670059 19.3973 0.676044 19.1164 0.668563 18.837C0.66557 18.7004 0.716444 18.6579 0.845125 18.6609C1.15486 18.667 1.46459 18.6533 1.77432 18.667C1.94639 18.6746 1.98829 18.6093 1.98829 18.4438C1.98231 16.7707 1.9838 15.0975 1.9838 13.4244C1.9838 12.7002 1.98231 11.976 1.98829 11.2533C1.98979 11.1136 1.9434 11.0408 1.81771 10.9694C0.640134 10.3181 0.059573 9.30692 0.00421027 7.94807C-0.0227229 7.29067 0.183765 6.70159 0.382772 6.10187C0.694 5.16511 1.00373 4.22986 1.30598 3.29006C1.33591 3.19593 1.32244 3.08813 1.32843 2.98489C1.35237 2.48842 1.32244 1.98284 1.41072 1.50004C1.56783 0.654369 2.37583 0.0151826 3.23171 0.00759128C4.4841 -0.00455477 5.7365 0.00151826 6.98889 0.00151826C11.8713 0.00151826 16.7522 0.00151826 21.6346 0.00151826C22.8047 0.00151826 23.662 0.865406 23.671 2.04965C23.6725 2.15896 23.683 2.26979 23.6695 2.37759C23.5842 3.07447 23.8221 3.70455 24.0361 4.34525C24.3429 5.26076 24.7109 6.16564 24.9114 7.10544C25.2302 8.59941 24.7154 10.101 23.279 10.9102C23.0665 11.0301 23.0097 11.1546 23.0097 11.3839C23.0171 13.719 23.0142 16.0556 23.0142 18.3906C23.0142 18.6609 23.0142 18.6609 23.2745 18.6609C23.5708 18.6609 23.867 18.6563 24.1633 18.6655C24.2187 18.667 24.3189 18.7277 24.3189 18.7626C24.3294 19.1665 24.3249 19.5673 24.3249 19.9879ZM8.5555 14.9609C8.5555 13.807 8.55251 12.6532 8.5585 11.4978C8.55999 11.3399 8.52857 11.2594 8.35949 11.2138C7.70711 11.0362 7.15348 10.687 6.71657 10.1587C6.61332 10.0342 6.54748 10.0418 6.44873 10.1617C6.14648 10.5261 5.77839 10.8054 5.35345 11.0134C4.7654 11.3004 4.14444 11.3672 3.50553 11.3353C3.34692 11.3277 3.29904 11.3809 3.29904 11.5433C3.30353 13.8374 3.30353 16.133 3.29754 18.4271C3.29754 18.6184 3.3544 18.667 3.53695 18.6655C5.13349 18.6594 6.72854 18.6594 8.32508 18.6685C8.5166 18.67 8.55999 18.6078 8.5585 18.4256C8.55251 17.2702 8.5555 16.1148 8.5555 14.9609ZM9.87224 15.0125C9.87224 16.1603 9.87523 17.3066 9.86925 18.4544C9.86775 18.6108 9.90815 18.667 10.0712 18.6655C11.6872 18.6594 13.3032 18.6609 14.9192 18.6655C15.0718 18.6655 15.1302 18.6305 15.1302 18.462C15.1257 16.1543 15.1257 13.845 15.1302 11.5372C15.1302 11.3748 15.0778 11.3353 14.9237 11.3232C14.0244 11.2579 13.2703 10.8813 12.6643 10.2042C12.4967 10.0159 12.5012 10.0144 12.3366 10.2012C11.7396 10.8783 10.9915 11.2564 10.0997 11.3216C9.91414 11.3353 9.86626 11.3884 9.86775 11.5722C9.87523 12.7184 9.87224 13.8662 9.87224 15.0125ZM16.4424 14.9457C16.4424 16.1057 16.4469 17.2671 16.438 18.4271C16.4365 18.6153 16.4903 18.6685 16.6759 18.6685C18.2634 18.6609 19.8525 18.6609 21.4416 18.6685C21.6421 18.67 21.7034 18.6214 21.7034 18.4089C21.6959 16.2044 21.6989 13.9998 21.6989 11.7938C21.6989 11.3338 21.6989 11.3277 21.2425 11.3353C20.1592 11.3535 19.242 10.9876 18.5313 10.1404C18.4385 10.0296 18.3772 10.0478 18.2934 10.1495C17.8505 10.6809 17.2953 11.0377 16.6355 11.2169C16.4769 11.2594 16.441 11.3308 16.4424 11.4856C16.4454 12.638 16.4424 13.7918 16.4424 14.9457ZM12.4848 2.6691C15.5896 2.6691 18.6929 2.6691 21.7977 2.6691C22.3573 2.6691 22.3573 2.6691 22.3543 2.10582C22.3513 1.59872 22.0939 1.34062 21.5942 1.34062C15.5611 1.34062 9.5266 1.3391 3.49356 1.3391C3.42024 1.3391 3.34543 1.33455 3.27211 1.34214C3.01325 1.36947 2.78881 1.4803 2.71549 1.74296C2.65713 1.954 2.65564 2.18325 2.64815 2.40644C2.63768 2.67061 2.64666 2.67061 2.9115 2.67061C6.10159 2.6691 9.29318 2.6691 12.4848 2.6691ZM23.3882 6.65148C23.3658 6.56039 23.3538 6.48751 23.3314 6.41767C23.0979 5.70713 22.8511 5.00114 22.6356 4.28452C22.5668 4.05375 22.465 3.99605 22.2406 3.99757C20.9283 4.0082 19.6146 4.00364 18.3023 4.00516C18.217 4.00516 18.1333 4.01579 18.036 4.02186C18.0465 4.06893 18.0495 4.09474 18.0584 4.11903C18.3023 4.86905 18.5612 5.61451 18.7841 6.37061C18.859 6.62264 18.9802 6.67122 19.2136 6.6697C20.5124 6.65908 21.8126 6.66363 23.1114 6.66211C23.1982 6.66515 23.2835 6.65756 23.3882 6.65148ZM6.97692 4.02642C6.89313 4.01731 6.82879 4.00516 6.76445 4.00516C5.39085 4.00364 4.01726 4.00668 2.64367 4.00213C2.49254 4.00213 2.43418 4.06286 2.39229 4.20254C2.27707 4.58665 2.1439 4.96622 2.01971 5.3473C1.88056 5.77241 1.7444 6.19904 1.59776 6.65148C1.71896 6.65756 1.81023 6.66818 1.90151 6.66818C3.20178 6.6697 4.50056 6.66363 5.80084 6.67426C6.03426 6.67578 6.17192 6.62567 6.20633 6.37516C6.2198 6.27647 6.27067 6.18234 6.30209 6.08517C6.52504 5.40651 6.74799 4.72785 6.97692 4.02642ZM7.50661 6.64541C7.5889 6.65452 7.64277 6.66363 7.69514 6.66363C9.01337 6.66515 10.3316 6.66363 11.6498 6.6697C11.801 6.6697 11.8458 6.62264 11.8444 6.47081C11.8384 5.70713 11.8414 4.94344 11.8399 4.17824C11.8399 4.12662 11.8279 4.075 11.8189 4.00364C11.7411 4.00364 11.6753 4.00364 11.6094 4.00364C10.7147 4.00364 9.81987 4.00213 8.92659 4.00213C8.38792 4.00213 8.38792 4.00213 8.20537 4.52592C8.20088 4.53807 8.1949 4.55022 8.19041 4.56388C7.96597 5.2471 7.74152 5.93031 7.50661 6.64541ZM17.4809 6.65452C17.4689 6.59834 17.4644 6.57253 17.4569 6.54824C17.2115 5.79974 16.9527 5.05428 16.7282 4.29819C16.6534 4.04767 16.5352 3.99453 16.3003 3.99757C15.3382 4.00972 14.3761 4.00213 13.414 4.00213C13.3362 4.00213 13.2568 4.00213 13.1686 4.00213C13.1641 4.0917 13.1581 4.15243 13.1581 4.21316C13.1581 4.95711 13.1641 5.70105 13.1536 6.44348C13.1506 6.62871 13.2105 6.6697 13.384 6.6697C14.6753 6.66363 15.9666 6.66667 17.2594 6.66515C17.3238 6.66667 17.3896 6.65908 17.4809 6.65452ZM9.51463 9.9962C9.68969 9.9962 9.84381 10.0023 9.99943 9.99469C10.9226 9.94914 11.7426 9.15205 11.8339 8.2244C11.8473 8.08016 11.8339 7.99818 11.6528 7.9997C10.2448 8.00729 8.8383 8.00729 7.4303 8.00273C7.2657 8.00273 7.23428 8.0665 7.25373 8.20922C7.31508 8.65406 7.47818 9.04729 7.7894 9.37524C8.26822 9.8793 8.86374 10.0463 9.51463 9.9962ZM3.64618 8.00273C2.93993 8.00273 2.23219 8.00577 1.52594 7.9997C1.3778 7.99818 1.32394 8.03917 1.33441 8.19707C1.38678 8.95923 2.03168 9.76847 2.77085 9.91118C3.16886 9.98861 3.58483 9.9962 3.99332 9.99317C4.96441 9.98709 5.79635 9.21127 5.91904 8.23199C5.94149 8.0498 5.88912 7.99514 5.70657 7.99818C5.01977 8.00881 4.33298 8.00273 3.64618 8.00273ZM21.3832 8.00273C20.6769 8.00273 19.9707 8.00577 19.2659 7.9997C19.1178 7.99818 19.0639 8.03917 19.0759 8.19707C19.1298 8.95923 19.7687 9.76239 20.5109 9.90814C20.9283 9.99013 21.3637 9.99924 21.7902 9.99165C22.7328 9.97495 23.5588 9.17634 23.6605 8.2244C23.6785 8.05587 23.6351 7.99666 23.46 7.99818C22.7688 8.00729 22.076 8.00273 21.3832 8.00273ZM17.7457 8.01943C16.212 8.01943 14.6948 8.01943 13.1716 8.01943C13.1671 8.0832 13.1581 8.13178 13.1626 8.17733C13.2479 8.98353 13.7865 9.7214 14.6005 9.90966C14.9881 9.99924 15.401 9.99469 15.802 9.99317C16.4634 9.99013 16.9976 9.69711 17.3851 9.15509C17.6245 8.82411 17.7532 8.4491 17.7457 8.01943Z" fill="#606060"/>
</svg>
