<svg width="250" height="65" viewBox="0 0 250 65" fill="none" xmlns="http://www.w3.org/2000/svg">
    <path d="M131.881 9.29905C133.218 9.29905 134.302 8.21597 134.302 6.87992C134.302 5.54387 133.218 4.46078 131.881 4.46078C130.545 4.46078 129.461 5.54387 129.461 6.87992C129.461 8.21597 130.545 9.29905 131.881 9.29905Z" fill="#FF0000"/>
    <path d="M59.6564 35.6171H59.6032V17.7474C59.6032 16.0487 58.9755 14.5706 57.7414 13.361C56.5073 12.1541 54.9965 11.54 53.2491 11.54C51.5229 11.54 50.0228 12.1515 48.7887 13.361C47.552 14.5733 46.9269 16.0487 46.9269 17.7474V35.6171H46.8737C46.5386 35.6171 46.2274 35.7473 45.9721 35.9972C45.7141 36.2498 45.5784 36.5608 45.5784 36.8957V41.8244C45.5784 42.1514 45.7008 42.4544 45.9322 42.699C46.1716 42.9542 46.496 43.0871 46.8737 43.0871C47.1955 43.0871 47.4988 42.9622 47.7514 42.7229C48.0147 42.4757 48.1531 42.1647 48.1531 41.8217V38.1585H58.3824V41.8217C58.3824 42.1593 58.5154 42.4677 58.768 42.7123C59.0154 42.9569 59.3239 43.0845 59.6617 43.0845C60.0261 43.0845 60.3453 42.9489 60.5873 42.6937C60.8187 42.4491 60.9384 42.1461 60.9384 41.8191V36.8904C60.9384 36.5581 60.8081 36.2497 60.5607 35.9999C60.3107 35.75 59.9968 35.6171 59.6564 35.6171ZM57.0339 17.7474V35.6171H49.4989V17.7474C49.4989 16.7505 49.8686 15.8838 50.6 15.1687C51.3341 14.451 52.2278 14.0841 53.2518 14.0841C54.297 14.0841 55.1987 14.4483 55.9328 15.1687C56.6615 15.8838 57.0339 16.7505 57.0339 17.7474Z" fill="#FF0000"/>
    <path d="M74.5429 13.361C73.3088 12.1541 71.7981 11.54 70.0506 11.54C68.9255 11.54 67.8643 11.8192 66.8908 12.3695C65.9174 12.9224 65.1407 13.6854 64.5769 14.6371C64.013 15.5914 63.7258 16.6388 63.7258 17.7447V31.9511C63.7258 33.6525 64.3535 35.1279 65.5876 36.3375C66.819 37.5444 68.3218 38.1585 70.048 38.1585C72.1066 38.1585 73.7822 37.3397 75.0349 35.7234C75.9073 34.6016 76.3675 33.3362 76.4021 31.9511V17.7474C76.4074 16.0487 75.7797 14.5733 74.5429 13.361ZM73.8354 17.7474V31.9538C73.8354 32.9507 73.4657 33.8173 72.7343 34.5324C72.0002 35.2502 71.1012 35.6171 70.0666 35.6171C69.0319 35.6171 68.1329 35.2529 67.3989 34.5324C66.6674 33.8173 66.2977 32.948 66.2977 31.9538V17.7474C66.2977 16.7505 66.6674 15.8838 67.3989 15.1687C68.1329 14.4483 69.0266 14.0841 70.0506 14.0841C71.3698 14.0841 72.4204 14.6158 73.1625 15.6472C73.5907 16.2932 73.8168 17.003 73.8354 17.7474Z" fill="#FF0000"/>
    <path d="M85.5223 21.6765C83.977 21.6765 82.6391 22.1709 81.5354 23.1466V17.7474C81.5354 16.6867 81.929 15.7616 82.7056 14.9986C83.4876 14.2357 84.4345 13.8475 85.5223 13.8475H90.5997C91.129 13.8475 91.4934 13.5498 91.5812 13.0474C91.6131 12.9836 91.6397 12.9011 91.6397 12.7842L91.629 12.7151C91.4854 12.21 91.1583 11.8963 90.6529 11.7793L85.5249 11.774C83.8626 11.774 82.4157 12.3641 81.2295 13.5259C80.0406 14.6902 79.4368 16.1098 79.4368 17.7447V31.9511C79.4368 33.586 80.0406 35.0056 81.2295 36.17C82.4157 37.3317 83.8679 37.9219 85.5409 37.9219C87.2139 37.9219 88.6634 37.3317 89.8523 36.17C91.0412 35.0056 91.645 33.586 91.645 31.9511V27.6366C91.6131 26.2968 91.1689 25.0686 90.3258 23.9866C89.1182 22.4527 87.5038 21.6765 85.5223 21.6765ZM89.5411 27.6472V31.9538C89.5411 33.0145 89.1475 33.9396 88.3709 34.7026C87.5916 35.4655 86.6367 35.8536 85.5382 35.8536C84.4398 35.8536 83.4876 35.4655 82.7056 34.7026C81.929 33.9396 81.5354 33.0172 81.5354 31.9538V27.6472C81.5354 26.5652 81.929 25.6375 82.7056 24.8851C83.4849 24.1302 84.4398 23.7474 85.5382 23.7474C86.6367 23.7474 87.5916 24.1302 88.3709 24.8851C89.1475 25.6375 89.5411 26.5652 89.5411 27.6472Z" fill="#606060"/>
    <path d="M101.01 11.7766C99.3369 11.7766 97.8874 12.3668 96.6985 13.5285C95.5096 14.6929 94.9058 16.1124 94.9058 17.7474V36.8957C94.9058 37.1589 95.0175 37.4061 95.2277 37.6108C95.4378 37.8182 95.6851 37.9245 95.9564 37.9245C96.2277 37.9245 96.4724 37.8182 96.6852 37.6108C96.8953 37.4035 97.007 37.1562 97.007 36.8957V22.256C98.1108 23.2449 99.4513 23.7473 100.994 23.7473C102.678 23.7473 104.132 23.1572 105.321 21.9955C106.51 20.8311 107.114 19.4062 107.114 17.7633C107.114 16.1204 106.51 14.6955 105.321 13.5311C104.132 12.3668 102.683 11.7766 101.01 11.7766ZM105.013 17.7474C105.013 18.8293 104.619 19.7651 103.843 20.5254C103.063 21.2883 102.111 21.6764 101.01 21.6764C99.9114 21.6764 98.9566 21.2883 98.1773 20.5254C97.4007 19.7624 97.007 18.8346 97.007 17.7606C97.007 16.6893 97.4007 15.7589 98.1773 14.9986C98.9593 14.2356 99.9061 13.8475 100.994 13.8475C101.81 13.8475 102.579 14.0867 103.276 14.5573C104.428 15.3282 105.013 16.4022 105.013 17.7474Z" fill="#606060"/>
    <path d="M120.766 12.1036C120.578 12.311 120.482 12.5502 120.482 12.8187V31.9963C120.482 33.0278 120.093 33.9317 119.325 34.684C118.535 35.4576 117.583 35.8484 116.492 35.8484C115.383 35.8484 114.426 35.4602 113.644 34.6973C112.867 33.9343 112.473 33.0119 112.473 31.9485V12.8214C112.473 12.5502 112.362 12.2977 112.152 12.0903C111.723 11.673 111.125 11.673 110.697 12.0903C110.487 12.2977 110.375 12.5502 110.375 12.8214V31.9538C110.375 33.5887 110.979 35.0083 112.167 36.1727C113.354 37.3344 114.809 37.9246 116.495 37.9246C118.024 37.9246 119.365 37.4301 120.482 36.4571V36.8958C120.482 37.1536 120.578 37.3902 120.764 37.5949C120.958 37.8102 121.227 37.9246 121.538 37.9246C121.804 37.9246 122.046 37.8182 122.258 37.6109C122.469 37.4035 122.58 37.1563 122.58 36.8958V12.8214C122.58 12.5502 122.469 12.2977 122.258 12.0903C121.801 11.6384 121.128 11.7075 120.766 12.1036Z" fill="#606060"/>
    <path d="M137.733 12.0877C137.27 11.6384 136.6 11.7049 136.238 12.1036C136.049 12.311 135.953 12.5503 135.953 12.8188V31.9964C135.953 33.0278 135.565 33.9317 134.796 34.684C134.007 35.4576 133.054 35.8484 131.964 35.8484C130.855 35.8484 129.897 35.4602 129.115 34.6973C128.339 33.9343 127.945 33.0119 127.945 31.9485V12.8214C127.945 12.5503 127.833 12.2977 127.623 12.0904C127.2 11.6783 126.589 11.6783 126.168 12.0904C125.958 12.2977 125.846 12.5503 125.846 12.8214V31.9538C125.846 33.5887 126.45 35.0083 127.639 36.1727C128.825 37.3344 130.28 37.9246 131.966 37.9246C133.496 37.9246 134.836 37.4301 135.953 36.4571V36.8958C135.953 37.1536 136.049 37.3902 136.235 37.5949C136.43 37.8102 136.698 37.9246 137.009 37.9246C137.275 37.9246 137.517 37.8182 137.73 37.6109C137.94 37.4035 138.052 37.1563 138.052 36.8958V12.8214C138.055 12.5476 137.943 12.2951 137.733 12.0877Z" fill="#606060"/>
    <path d="M171.602 34.7691H171.549V16.9021C171.549 15.2034 170.921 13.7253 169.687 12.5158C168.453 11.3089 166.942 10.6948 165.194 10.6948C163.468 10.6948 161.968 11.3062 160.734 12.5158C159.497 13.728 158.872 15.2034 158.872 16.9021V34.7718H158.819C158.484 34.7718 158.173 34.902 157.917 35.1519C157.659 35.4045 157.524 35.7155 157.524 36.0505V40.9791C157.524 41.3061 157.646 41.6092 157.878 41.8537C158.117 42.1089 158.441 42.2419 158.819 42.2419C159.141 42.2419 159.444 42.1169 159.697 41.8777C159.96 41.6304 160.098 41.3194 160.098 40.9765V37.3132H170.328V40.9765C170.328 41.3141 170.461 41.6225 170.713 41.867C170.961 42.1116 171.269 42.2392 171.607 42.2392C171.971 42.2392 172.291 42.1036 172.533 41.8484C172.764 41.6038 172.884 41.3008 172.884 40.9738V36.0478C172.884 35.7155 172.753 35.4071 172.509 35.1573C172.253 34.9047 171.942 34.7691 171.602 34.7691ZM168.977 16.9021V34.7718H161.442V16.9021C161.442 15.9052 161.811 15.0386 162.543 14.3235C163.277 13.6057 164.17 13.2388 165.194 13.2388C166.24 13.2388 167.141 13.603 167.875 14.3235C168.607 15.0359 168.977 15.9052 168.977 16.9021Z" fill="#FF0000"/>
    <path d="M181.996 10.6948C180.871 10.6948 179.81 10.9739 178.836 11.5242C177.863 12.0771 177.086 12.8401 176.522 13.7918C175.959 14.7461 175.671 15.7936 175.671 16.8994V31.1059C175.671 32.8072 176.299 34.2826 177.533 35.4922C178.765 36.6991 180.267 37.3132 181.993 37.3132C184.052 37.3132 185.728 36.4944 186.98 34.8781C187.853 33.7563 188.313 32.4909 188.348 31.1059V16.9021C188.348 15.2034 187.72 13.728 186.486 12.5158C185.254 11.3062 183.744 10.6948 181.996 10.6948ZM185.778 16.9021V31.1085C185.778 32.1054 185.409 32.9721 184.677 33.6872C183.943 34.4076 183.044 34.7718 182.009 34.7718C180.975 34.7718 180.076 34.4076 179.342 33.6872C178.61 32.9721 178.241 32.1028 178.241 31.1085V16.9021C178.241 15.9052 178.61 15.0386 179.342 14.3235C180.076 13.603 180.969 13.2388 181.993 13.2388C183.313 13.2388 184.363 13.7705 185.105 14.802C185.536 15.4453 185.762 16.1578 185.778 16.9021Z" fill="#FF0000"/>
    <path d="M202.481 10.9313C202.207 10.9393 201.952 11.0562 201.769 11.2583C201.58 11.4656 201.484 11.7049 201.484 11.9734V16.8994C201.484 17.9813 201.09 18.9171 200.314 19.6774C199.534 20.4403 198.582 20.8285 197.481 20.8285C196.383 20.8285 195.428 20.4403 194.648 19.6774C193.872 18.9144 193.478 17.9813 193.478 16.8994V11.9734C193.478 11.7022 193.366 11.4497 193.156 11.2423C192.736 10.8303 192.122 10.8303 191.701 11.2423C191.491 11.4497 191.38 11.7022 191.38 11.9734V36.0477C191.38 36.3109 191.491 36.5581 191.701 36.7655C192.122 37.1775 192.736 37.1775 193.156 36.7655C193.366 36.5581 193.478 36.3109 193.478 36.0477V21.4106C194.582 22.3996 195.922 22.902 197.465 22.902C197.603 22.902 197.782 22.886 198.008 22.8488L201.5 36.2923C201.651 36.7974 202.021 37.0765 202.542 37.0765C202.633 37.0765 202.726 37.0579 202.771 37.034C202.96 36.9888 203.125 36.8957 203.263 36.7628C203.402 36.6272 203.492 36.4704 203.537 36.295C203.577 36.1248 203.574 35.952 203.527 35.8031L200.032 22.3464C201.032 21.8759 201.862 21.182 202.508 20.2808C203.223 19.2839 203.585 18.1461 203.585 16.8994V11.9734C203.585 11.7022 203.473 11.4497 203.263 11.2423C203.053 11.035 202.75 10.926 202.481 10.9313Z" fill="#606060"/>
    <path d="M212.953 10.9313C211.28 10.9313 209.83 11.5214 208.641 12.6832C207.452 13.8475 206.849 15.2671 206.849 16.902C206.849 17.2024 206.966 17.4629 207.186 17.657C207.604 18.0212 208.192 18.0212 208.609 17.657C208.83 17.4629 208.947 17.2024 208.947 16.902C208.947 15.9503 209.272 15.097 209.915 14.3686C210.455 13.7518 211.115 13.3451 211.878 13.1563V36.0504C211.878 36.3135 211.99 36.5608 212.2 36.7655C212.407 36.9702 212.668 37.0792 212.95 37.0792C213.243 37.0792 213.501 36.9649 213.695 36.7495C213.884 36.5422 213.979 36.3056 213.979 36.0504V13.1537C214.769 13.3398 215.445 13.7492 215.99 14.3686C216.631 15.097 216.956 15.9503 216.956 16.902C216.956 17.1944 217.059 17.4496 217.253 17.641C217.639 18.0185 218.293 18.0265 218.716 17.657C218.937 17.4629 219.054 17.2024 219.054 16.9047C219.054 15.2698 218.45 13.8528 217.261 12.6858C216.078 11.5188 214.626 10.9313 212.953 10.9313Z" fill="#606060"/>
    <path d="M228.408 10.9313C227.326 10.9313 226.302 11.1998 225.366 11.7314C224.429 12.2631 223.679 12.9968 223.139 13.914C222.597 14.8311 222.32 15.8387 222.32 16.902V31.1084C222.32 32.7433 222.924 34.1629 224.113 35.3273C225.299 36.489 226.746 37.0792 228.408 37.0792C230.39 37.0792 232.004 36.2896 233.209 34.7345C234.05 33.6525 234.494 32.435 234.526 31.1084V16.902C234.526 15.2671 233.922 13.8502 232.733 12.6832C231.547 11.5188 230.092 10.9313 228.408 10.9313ZM232.427 16.902V31.1084C232.427 32.1691 232.034 33.0942 231.257 33.8572C230.478 34.6202 229.523 35.0083 228.424 35.0083C227.326 35.0083 226.374 34.6202 225.592 33.8572C224.815 33.0969 224.421 32.1718 224.421 31.1084V16.902C224.421 15.8413 224.815 14.9162 225.592 14.1532C226.374 13.3903 227.321 13.0022 228.408 13.0022C229.81 13.0022 230.924 13.5657 231.717 14.669C232.169 15.3522 232.409 16.1072 232.427 16.902Z" fill="#606060"/>
    <path d="M243.896 10.9313C242.223 10.9313 240.773 11.5214 239.585 12.6832C238.396 13.8475 237.792 15.2671 237.792 16.902V36.0504C237.792 36.3135 237.904 36.5608 238.114 36.7681C238.324 36.9755 238.571 37.0792 238.842 37.0792C239.114 37.0792 239.358 36.9728 239.571 36.7681C239.781 36.5608 239.893 36.3135 239.893 36.0504V21.4106C240.997 22.3996 242.337 22.902 243.88 22.902C245.564 22.902 247.018 22.3118 248.207 21.1501C249.396 19.9857 250 18.5608 250 16.918C250 15.2751 249.396 13.8502 248.207 12.6858C247.018 11.5188 245.569 10.9313 243.896 10.9313ZM247.899 16.902C247.899 17.984 247.505 18.9197 246.729 19.68C245.949 20.443 244.997 20.8311 243.896 20.8311C242.797 20.8311 241.843 20.443 241.063 19.68C240.287 18.9171 239.893 17.9893 239.893 16.9153C239.893 15.844 240.287 14.9135 241.063 14.1532C241.845 13.3903 242.792 13.0022 243.88 13.0022C244.696 13.0022 245.465 13.2414 246.162 13.7119C247.314 14.4829 247.899 15.5569 247.899 16.902Z" fill="#606060"/>
    <path d="M13.6802 10.3916H23.3563C23.117 6.04513 19.388 2.45365 15.0021 2.45365C14.9915 2.45365 14.4064 2.45099 13.6749 2.54935C13.6776 2.56264 13.6802 2.5786 13.6802 2.59189V10.3916Z" fill="#FF0000"/>
    <path d="M13.6803 11.2849V18.7337C13.6803 18.7337 13.6803 18.7337 13.683 18.7337C14.2867 18.7869 14.8985 18.7284 15.4783 18.5529C18.6327 17.6065 20.9573 14.7195 21.0611 11.2849H13.6803Z" fill="#FF0000"/>
    <path d="M7.96985 25.8847C7.96985 27.2431 8.39541 28.5377 9.20396 29.625C9.23588 29.6675 9.2545 29.7127 9.27046 29.7579C9.37419 29.9148 9.48324 30.0663 9.59229 30.2205C11.0472 30.6405 12.5605 30.8532 14.0899 30.8532C23.2154 30.8532 30.6387 23.2582 30.6387 13.9219C30.6387 13.0367 30.5669 12.1514 30.4339 11.2821H27.3912C27.0481 16.1284 22.2686 20.2888 16.9145 20.2888C16.1512 20.2888 15.34 20.201 14.5899 20.0468C12.8239 19.6853 10.9886 20.2223 9.73591 21.5196C8.64276 22.6521 7.96985 24.1913 7.96985 25.8847Z" fill="#FF0000"/>
    <path d="M34.4528 11.2849H31.3329C31.4606 12.1542 31.5271 13.0394 31.5271 13.9247C31.5271 23.7527 23.7048 31.7465 14.0872 31.7465C12.8797 31.7465 11.6801 31.6189 10.5072 31.369C13.2813 34.5112 17.2656 36.3402 21.5291 36.3402C25.1277 36.3402 28.5907 35.0269 31.2797 32.645C31.3329 32.5972 31.3941 32.5679 31.4552 32.5493C34.7985 29.1572 36.6364 24.6911 36.6364 19.9034C36.6417 16.8888 35.8837 13.914 34.4528 11.2849Z" fill="#FF0000"/>
    <path d="M9.86088 6.6619C9.18264 6.6619 8.63208 7.21218 8.63208 7.89007C8.63208 8.56796 9.18264 9.11825 9.86088 9.11825C10.5391 9.11825 11.0897 8.56796 11.0897 7.89007C11.0897 7.21218 10.5391 6.6619 9.86088 6.6619Z" fill="#FF0000"/>
    <path d="M7.99644 4.2481C8.54435 3.87593 9.11619 3.533 9.70931 3.21665C8.40604 3.14487 7.36609 2.06557 7.36609 0.74169C7.36609 0.332298 7.03362 0 6.62402 0C6.21442 0 5.88196 0.332298 5.88196 0.74169C5.88196 2.26229 6.74105 3.58085 7.99644 4.2481Z" fill="#FF0000"/>
    <path d="M5.81017 5.97874C6.33148 5.50023 6.87938 5.0483 7.45389 4.62828C7.30494 4.65752 7.15334 4.67613 6.99907 4.67613C5.63197 4.67613 4.5202 3.56226 4.5202 2.19585C4.5202 1.78646 4.18774 1.45416 3.77814 1.45416C3.36854 1.45416 3.03607 1.78646 3.03607 2.19585C3.03607 3.969 4.20369 5.47364 5.81017 5.97874Z" fill="#FF0000"/>
    <path d="M4.09799 7.77847C4.57674 7.20426 5.09007 6.65929 5.63531 6.14356C5.33476 6.26851 5.01293 6.34028 4.68047 6.34028C3.31337 6.34028 2.2016 5.22642 2.2016 3.86001C2.2016 3.45062 1.86913 3.11832 1.45953 3.11832C1.04993 3.11832 0.717468 3.45062 0.717468 3.86001C0.717468 5.84848 2.1883 7.49402 4.09799 7.77847Z" fill="#FF0000"/>
    <path d="M29.277 7.96187H31.3569V5.8325H33.4847V3.75098H31.3569V1.62161H29.277V3.75098H27.1492V5.8325H29.277V7.96187Z" fill="#FF0000"/>
    <path d="M23.7022 37.8182V41.5745H20.9759C20.5584 41.5745 20.2206 41.9121 20.2206 42.3295C20.2206 42.7469 20.5584 43.0845 20.9759 43.0845H24.4549C24.8725 43.0845 25.2102 42.7469 25.2102 42.3295V37.7757C25.2102 37.3583 24.8725 37.0207 24.4549 37.0207C24.1703 37.0207 23.9229 37.1775 23.7953 37.4088C23.7474 37.4965 23.7208 37.5922 23.7102 37.6933C23.7075 37.7092 23.7075 37.7225 23.7048 37.7358C23.7048 37.7624 23.7022 37.789 23.7022 37.8182Z" fill="#FF0000"/>
    <path d="M10.8158 37.8182V41.5745H8.08953C7.67195 41.5745 7.33417 41.9121 7.33417 42.3295C7.33417 42.7469 7.67195 43.0845 8.08953 43.0845H11.5685C11.986 43.0845 12.3238 42.7469 12.3238 42.3295V37.7757C12.3238 37.3583 11.986 37.0207 11.5685 37.0207C11.2839 37.0207 11.0365 37.1775 10.9088 37.4088C10.861 37.4965 10.8344 37.5922 10.8237 37.6933C10.8211 37.7092 10.8211 37.7225 10.8184 37.7358C10.8158 37.7624 10.8158 37.789 10.8158 37.8182Z" fill="#FF0000"/>
    <path d="M22.859 37.1962C22.8324 37.1749 22.7978 37.1669 22.7633 37.1696C22.3749 37.2095 21.9813 37.2307 21.5318 37.2307C16.2416 37.2307 11.353 34.583 8.45657 30.1461C8.43264 30.1089 8.41668 30.069 8.40338 30.0265C7.54163 28.809 7.08149 27.3814 7.08149 25.8821C7.08149 22.4262 9.53642 19.5339 12.7919 18.856V2.7116H12.7893L12.7946 2.6983C12.7946 2.6983 6.90861 4.82501 4.02546 9.32566C1.69288 12.545 0.437482 16.5246 0.623663 20.7222C0.934852 27.7828 5.43512 33.8652 11.6642 36.5156C12.018 36.6645 12.7574 36.9436 12.7574 36.9436C14.3372 37.4966 16.0129 37.8315 17.747 37.9139C19.4785 37.9964 21.1754 37.8289 22.8085 37.4408C22.9229 37.4142 22.9521 37.2653 22.859 37.1962ZM9.86091 6.06648C10.8663 6.06648 11.6828 6.88526 11.6828 7.89013C11.6828 8.895 10.8663 9.71378 9.86091 9.71378C8.85553 9.71378 8.039 8.895 8.039 7.89013C8.039 6.88526 8.85553 6.06648 9.86091 6.06648Z" fill="#FF0000"/>
    <path d="M75.7238 61.7427V57.3177L73.4738 61.0427H72.7988L70.5863 57.3052V61.7427H69.1613V55.0677H70.7988L73.1738 59.2427L75.6613 55.0677H77.1238L77.1363 61.7427H75.7238Z" fill="#9B9B9B"/>
    <path d="M87.2321 58.4427C87.2321 58.551 87.2238 58.7052 87.2071 58.9052H81.9696C82.0613 59.3968 82.2988 59.7885 82.6821 60.0802C83.0738 60.3635 83.5571 60.5052 84.1321 60.5052C84.8655 60.5052 85.4696 60.2635 85.9446 59.7802L86.7821 60.7427C86.4821 61.101 86.103 61.3718 85.6446 61.5552C85.1863 61.7385 84.6696 61.8302 84.0946 61.8302C83.3613 61.8302 82.7155 61.6843 82.1571 61.3927C81.5988 61.101 81.1655 60.6968 80.8571 60.1802C80.5571 59.6552 80.4071 59.0635 80.4071 58.4052C80.4071 57.7552 80.5529 57.1718 80.8446 56.6552C81.1446 56.1302 81.5571 55.7218 82.0821 55.4302C82.6071 55.1385 83.1988 54.9927 83.8571 54.9927C84.5071 54.9927 85.0863 55.1385 85.5946 55.4302C86.1113 55.7135 86.5113 56.1177 86.7946 56.6427C87.0863 57.1593 87.2321 57.7593 87.2321 58.4427ZM83.8571 56.2427C83.3571 56.2427 82.9321 56.3927 82.5821 56.6927C82.2405 56.9843 82.0321 57.376 81.9571 57.8677H85.7446C85.678 57.3843 85.4738 56.9927 85.1321 56.6927C84.7905 56.3927 84.3655 56.2427 83.8571 56.2427Z" fill="#9B9B9B"/>
    <path d="M94.3911 54.9927C95.0411 54.9927 95.6203 55.1343 96.1286 55.4177C96.6453 55.701 97.0494 56.101 97.3411 56.6177C97.6328 57.1343 97.7786 57.7302 97.7786 58.4052C97.7786 59.0802 97.6328 59.6802 97.3411 60.2052C97.0494 60.7218 96.6453 61.1218 96.1286 61.4052C95.6203 61.6885 95.0411 61.8302 94.3911 61.8302C93.4911 61.8302 92.7786 61.5302 92.2536 60.9302V64.1677H90.6911V55.0677H92.1786V55.9427C92.4369 55.626 92.7536 55.3885 93.1286 55.2302C93.5119 55.0718 93.9328 54.9927 94.3911 54.9927ZM94.2161 60.4927C94.7911 60.4927 95.2619 60.301 95.6286 59.9177C96.0036 59.5343 96.1911 59.0302 96.1911 58.4052C96.1911 57.7802 96.0036 57.276 95.6286 56.8927C95.2619 56.5093 94.7911 56.3177 94.2161 56.3177C93.8411 56.3177 93.5036 56.4052 93.2036 56.5802C92.9036 56.7468 92.6661 56.9885 92.4911 57.3052C92.3161 57.6218 92.2286 57.9885 92.2286 58.4052C92.2286 58.8218 92.3161 59.1885 92.4911 59.5052C92.6661 59.8218 92.9036 60.0677 93.2036 60.2427C93.5036 60.4093 93.8411 60.4927 94.2161 60.4927Z" fill="#9B9B9B"/>
    <path d="M107.334 58.4427C107.334 58.551 107.325 58.7052 107.309 58.9052H102.071C102.163 59.3968 102.4 59.7885 102.784 60.0802C103.175 60.3635 103.659 60.5052 104.234 60.5052C104.967 60.5052 105.571 60.2635 106.046 59.7802L106.884 60.7427C106.584 61.101 106.205 61.3718 105.746 61.5552C105.288 61.7385 104.771 61.8302 104.196 61.8302C103.463 61.8302 102.817 61.6843 102.259 61.3927C101.7 61.101 101.267 60.6968 100.959 60.1802C100.659 59.6552 100.509 59.0635 100.509 58.4052C100.509 57.7552 100.655 57.1718 100.946 56.6552C101.246 56.1302 101.659 55.7218 102.184 55.4302C102.709 55.1385 103.3 54.9927 103.959 54.9927C104.609 54.9927 105.188 55.1385 105.696 55.4302C106.213 55.7135 106.613 56.1177 106.896 56.6427C107.188 57.1593 107.334 57.7593 107.334 58.4427ZM103.959 56.2427C103.459 56.2427 103.034 56.3927 102.684 56.6927C102.342 56.9843 102.134 57.376 102.059 57.8677H105.846C105.78 57.3843 105.575 56.9927 105.234 56.6927C104.892 56.3927 104.467 56.2427 103.959 56.2427Z" fill="#9B9B9B"/>
    <path d="M116.947 59.0677H115.822V61.7427H114.272V59.0677H113.147L111.522 61.7427H109.672L111.86 58.2927L109.835 55.0677H111.497L113.122 57.7677H114.272V55.0677H115.822V57.7677H116.96L118.597 55.0677H120.26L118.235 58.2927L120.435 61.7427H118.572L116.947 59.0677Z" fill="#9B9B9B"/>
    <path d="M125.711 54.9927C126.695 54.9927 127.445 55.2302 127.961 55.7052C128.486 56.1718 128.749 56.8802 128.749 57.8302V61.7427H127.274V60.9302C127.082 61.2218 126.807 61.4468 126.449 61.6052C126.099 61.7552 125.674 61.8302 125.174 61.8302C124.674 61.8302 124.236 61.7468 123.861 61.5802C123.486 61.4052 123.195 61.1677 122.986 60.8677C122.786 60.5593 122.686 60.2135 122.686 59.8302C122.686 59.2302 122.907 58.751 123.349 58.3927C123.799 58.026 124.503 57.8427 125.461 57.8427H127.186V57.7427C127.186 57.276 127.045 56.9177 126.761 56.6677C126.486 56.4177 126.074 56.2927 125.524 56.2927C125.149 56.2927 124.778 56.351 124.411 56.4677C124.053 56.5843 123.749 56.7468 123.499 56.9552L122.886 55.8177C123.236 55.551 123.657 55.3468 124.149 55.2052C124.64 55.0635 125.161 54.9927 125.711 54.9927ZM125.499 60.6927C125.89 60.6927 126.236 60.6052 126.536 60.4302C126.845 60.2468 127.061 59.9885 127.186 59.6552V58.8802H125.574C124.674 58.8802 124.224 59.176 124.224 59.7677C124.224 60.051 124.336 60.276 124.561 60.4427C124.786 60.6093 125.099 60.6927 125.499 60.6927Z" fill="#9B9B9B"/>
    <path d="M140.124 54.9927C141.108 54.9927 141.858 55.2302 142.374 55.7052C142.899 56.1718 143.162 56.8802 143.162 57.8302V61.7427H141.687V60.9302C141.495 61.2218 141.22 61.4468 140.862 61.6052C140.512 61.7552 140.087 61.8302 139.587 61.8302C139.087 61.8302 138.649 61.7468 138.274 61.5802C137.899 61.4052 137.608 61.1677 137.399 60.8677C137.199 60.5593 137.099 60.2135 137.099 59.8302C137.099 59.2302 137.32 58.751 137.762 58.3927C138.212 58.026 138.916 57.8427 139.874 57.8427H141.599V57.7427C141.599 57.276 141.458 56.9177 141.174 56.6677C140.899 56.4177 140.487 56.2927 139.937 56.2927C139.562 56.2927 139.191 56.351 138.824 56.4677C138.466 56.5843 138.162 56.7468 137.912 56.9552L137.299 55.8177C137.649 55.551 138.07 55.3468 138.562 55.2052C139.054 55.0635 139.574 54.9927 140.124 54.9927ZM139.912 60.6927C140.304 60.6927 140.649 60.6052 140.949 60.4302C141.258 60.2468 141.474 59.9885 141.599 59.6552V58.8802H139.987C139.087 58.8802 138.637 59.176 138.637 59.7677C138.637 60.051 138.749 60.276 138.974 60.4427C139.199 60.6093 139.512 60.6927 139.912 60.6927Z" fill="#9B9B9B"/>
    <path d="M153.245 55.0677V61.7427H151.695V56.3927H148.408V61.7427H146.845V55.0677H153.245Z" fill="#9B9B9B"/>
    <path d="M162.391 56.3927H160.054V61.7427H158.491V56.3927H156.141V55.0677H162.391V56.3927Z" fill="#9B9B9B"/>
    <path d="M171.232 58.4427C171.232 58.551 171.223 58.7052 171.207 58.9052H165.969C166.061 59.3968 166.298 59.7885 166.682 60.0802C167.073 60.3635 167.557 60.5052 168.132 60.5052C168.865 60.5052 169.469 60.2635 169.944 59.7802L170.782 60.7427C170.482 61.101 170.102 61.3718 169.644 61.5552C169.186 61.7385 168.669 61.8302 168.094 61.8302C167.361 61.8302 166.715 61.6843 166.157 61.3927C165.598 61.101 165.165 60.6968 164.857 60.1802C164.557 59.6552 164.407 59.0635 164.407 58.4052C164.407 57.7552 164.552 57.1718 164.844 56.6552C165.144 56.1302 165.557 55.7218 166.082 55.4302C166.607 55.1385 167.198 54.9927 167.857 54.9927C168.507 54.9927 169.086 55.1385 169.594 55.4302C170.111 55.7135 170.511 56.1177 170.794 56.6427C171.086 57.1593 171.232 57.7593 171.232 58.4427ZM167.857 56.2427C167.357 56.2427 166.932 56.3927 166.582 56.6927C166.24 56.9843 166.032 57.376 165.957 57.8677H169.744C169.677 57.3843 169.473 56.9927 169.132 56.6927C168.79 56.3927 168.365 56.2427 167.857 56.2427Z" fill="#9B9B9B"/>
    <path d="M177.466 59.0677H176.253V61.7427H174.691V55.0677H176.253V57.7677H177.503L179.478 55.0677H181.153L178.728 58.2802L181.316 61.7427H179.478L177.466 59.0677Z" fill="#9B9B9B"/>
    <path fill-rule="evenodd" clip-rule="evenodd" d="M45.4149 58.7598H0V57.7181H45.4149V58.7598Z" fill="#9B9B9B"/>
    <path fill-rule="evenodd" clip-rule="evenodd" d="M249.479 58.7598H204.064V57.7181H249.479V58.7598Z" fill="#9B9B9B"/>
</svg>
