<?xml version="1.0" encoding="utf-8"?>
<!-- Generator: Adobe Illustrator 24.0.0, SVG Export Plug-In . SVG Version: 6.00 Build 0)  -->
<svg version="1.1" id="Layer_1" xmlns="http://www.w3.org/2000/svg" xmlns:xlink="http://www.w3.org/1999/xlink" x="0px" y="0px"
	 viewBox="0 0 28 40" style="enable-background:new 0 0 28 40;" xml:space="preserve">
<style type="text/css">
	.st0{clip-path:url(#SVGID_2_);}
	.st1{fill:#606060;}
</style>
<g>
	<defs>
		<rect id="SVGID_1_" width="28" height="40"/>
	</defs>
	<clipPath id="SVGID_2_">
		<use xlink:href="#SVGID_1_"  style="overflow:visible;"/>
	</clipPath>
	<g class="st0">
		<path class="st1" d="M14,0C6.3,0,0,6.3,0,14.1c0,2.6,0.7,5.2,2.1,7.4l11.1,18c0.2,0.3,0.6,0.6,1,0.6c0,0,0,0,0,0
			c0.4,0,0.8-0.2,1-0.6L26,21.3c1.3-2.2,2-4.7,2-7.2C28,6.3,21.7,0,14,0z M24,20.1l-9.8,16.5L4.1,20.2c-1.1-1.8-1.8-4-1.8-6.2
			C2.3,7.6,7.6,2.3,14,2.3s11.7,5.3,11.7,11.7C25.7,16.2,25.1,18.3,24,20.1z"/>
		<path class="st1" d="M14,7c-3.9,0-7,3.2-7,7c0,3.9,3.1,7,7,7c4,0,7-3.2,7-7C21,10.2,17.9,7,14,7z M14,18.8c-2.6,0-4.7-2.1-4.7-4.7
			c0-2.6,2.1-4.7,4.7-4.7c2.6,0,4.7,2.1,4.7,4.7C18.7,16.6,16.6,18.8,14,18.8z"/>
	</g>
</g>
</svg>
