<svg width="25" height="25" viewBox="0 0 25 25" fill="none" xmlns="http://www.w3.org/2000/svg">
<path d="M10.2029 16.8159C10.2029 16.2731 10.2006 15.7311 10.2037 15.1884C10.2069 14.6797 10.4688 14.4159 10.9888 14.4129C12.0311 14.4076 13.0734 14.4083 14.1157 14.4129C14.6294 14.4152 14.9085 14.6827 14.9117 15.1861C14.9187 16.2708 14.9132 17.3556 14.914 18.4404C14.9148 18.93 15.0837 19.1036 15.5872 19.1105C16.1213 19.118 16.6561 19.1014 17.1894 19.1203C17.3254 19.1249 17.499 19.1961 17.5757 19.2947C17.6171 19.3477 17.5217 19.5547 17.4334 19.6403C15.9649 21.073 14.4918 22.5004 13.0108 23.921C12.6519 24.2651 12.3454 24.2644 11.9896 23.924C10.5087 22.5035 9.03475 21.0761 7.56631 19.6441C7.47717 19.5577 7.37552 19.353 7.41462 19.3007C7.49124 19.2007 7.66405 19.1256 7.79932 19.1211C8.37169 19.1021 8.94562 19.118 9.51876 19.1112C10.0098 19.1052 10.199 18.9156 10.2014 18.4434C10.2053 17.9006 10.2029 17.3586 10.2029 16.8159Z" fill="#EB212E"/>
<path d="M10.2029 7.39644C10.2029 6.87945 10.2045 6.36246 10.2029 5.84472C10.2006 5.36488 9.99569 5.16021 9.49057 5.15263C8.93071 5.14429 8.36929 5.16324 7.81022 5.14353C7.63116 5.13746 7.45601 5.04422 7.2793 4.99116C7.36218 4.84486 7.41535 4.66975 7.53186 4.55529C8.99092 3.13168 10.4578 1.71565 11.927 0.301898C12.3438 -0.0983495 12.6534 -0.101382 13.0679 0.29735C14.5379 1.71034 16.004 3.12789 17.463 4.5515C17.5803 4.66596 17.6343 4.84259 17.7171 4.9904C17.5412 5.04422 17.3668 5.13671 17.1894 5.14429C16.6819 5.16551 16.1736 5.14884 15.6654 5.15187C15.0993 5.15566 14.9147 5.3338 14.914 5.87125C14.9132 6.85519 14.9163 7.83914 14.9132 8.82308C14.9116 9.40071 14.6544 9.64631 14.0609 9.64631C13.0319 9.64707 12.0021 9.64859 10.9731 9.64556C10.4562 9.64404 10.2076 9.40601 10.2037 8.91025C10.1998 8.40539 10.2029 7.90054 10.2029 7.39644Z" fill="#EB212E"/>
<path d="M5.2768 12.0913C5.2768 13.5801 5.28228 15.0681 5.26898 16.5569C5.26742 16.7237 5.16264 16.8904 5.10634 17.0572C4.95387 16.9821 4.76855 16.9374 4.65283 16.8267C3.21566 15.4532 1.78709 14.0705 0.359307 12.6878C-0.123137 12.2209 -0.119228 11.9442 0.367909 11.4727C1.78709 10.0991 3.20784 8.72783 4.62859 7.35502C4.66534 7.31939 4.69662 7.27012 4.74119 7.25117C4.86395 7.19962 5.02111 7.09729 5.11182 7.13519C5.20096 7.17233 5.26898 7.35578 5.27055 7.47555C5.28228 8.68614 5.27758 9.89749 5.27758 11.1088C5.2768 11.4348 5.2768 11.763 5.2768 12.0913Z" fill="#EB212E"/>
<path d="M19.8393 12.0584C19.8393 10.5953 19.8346 9.13154 19.8463 7.66851C19.8479 7.51387 19.9519 7.35923 20.0082 7.20459C20.1505 7.27509 20.3233 7.31602 20.432 7.41987C21.859 8.78587 23.279 10.1587 24.6958 11.5345C25.1048 11.9318 25.1024 12.2388 24.688 12.6413C23.2712 14.0171 21.8512 15.39 20.4234 16.7552C20.3171 16.8575 20.1396 16.8901 19.9949 16.9553C19.9433 16.8113 19.8479 16.668 19.8471 16.524C19.8346 15.0352 19.8393 13.5464 19.8393 12.0584Z" fill="#EB212E"/>
</svg>
