<svg width="20" height="20" viewBox="0 0 20 20" fill="none" xmlns="http://www.w3.org/2000/svg">
<path d="M17.7028 0.804541C16.6277 -0.268831 14.8863 -0.268831 13.8112 0.804541L12.8371 1.78402L2.46664 12.1497L2.44461 12.1717C2.43932 12.177 2.43932 12.1827 2.43359 12.1827C2.42257 12.1995 2.40626 12.2158 2.39524 12.2321C2.39524 12.2374 2.38951 12.2374 2.38951 12.2431C2.37849 12.2599 2.3732 12.2705 2.36218 12.2872C2.35689 12.2925 2.35689 12.2982 2.35116 12.304C2.34587 12.3207 2.34014 12.3313 2.33441 12.348C2.33441 12.3533 2.32912 12.3533 2.32912 12.3591L0.0282973 19.2785C-0.0391407 19.4755 0.0119887 19.6937 0.160529 19.8396C0.264551 19.9423 0.405157 20.0001 0.551493 19.9992C0.611438 19.9983 0.670501 19.989 0.727801 19.9719L7.6413 17.6655C7.64659 17.6655 7.64659 17.6655 7.65232 17.6602C7.66951 17.655 7.68626 17.6475 7.70169 17.6382C7.70609 17.6378 7.70962 17.636 7.71271 17.6329C7.72901 17.6219 7.75105 17.6109 7.7678 17.5999C7.78411 17.5888 7.80086 17.5725 7.81717 17.5615C7.82246 17.5558 7.82819 17.5558 7.82819 17.5505C7.83392 17.5452 7.84494 17.5395 7.85023 17.5284L19.1944 6.18331C20.2676 5.10817 20.2676 3.36653 19.1944 2.29139L17.7028 0.804541ZM7.46499 16.3718L3.63381 12.5407L13.2223 2.95173L17.0531 6.78281L7.46499 16.3718ZM3.0943 13.5589L6.44108 16.906L1.4154 18.5793L3.0943 13.5589ZM18.4182 5.41189L17.8346 6.00081L14.0034 2.16929L14.5927 1.58037C15.2371 0.936344 16.2817 0.936344 16.9266 1.58037L18.4234 3.0778C19.0634 3.72535 19.0608 4.76787 18.4182 5.41189Z" fill="#9B9B9B"/>
</svg>
