<svg width="29" height="29" viewBox="0 0 29 29" fill="none" xmlns="http://www.w3.org/2000/svg">
    <path d="M28.8236 27.1148L20.399 18.6902C21.9967 16.7168 22.9589 14.2092 22.9589 11.4794C22.9589 5.14917 17.8097 0 11.4794 0C5.14917 0 0 5.14917 0 11.4794C0 17.8097 5.14917 22.9589 11.4794 22.9589C14.2092 22.9589 16.7185 21.9967 18.6902 20.399L27.1148 28.8236C27.35 29.0588 27.7339 29.0588 27.9692 28.8236L28.8236 27.9692C29.0588 27.7323 29.0588 27.35 28.8236 27.1148ZM11.4794 20.5411C6.4822 20.5411 2.41612 16.4767 2.41612 11.4778C2.41612 6.47893 6.48057 2.41449 11.4794 2.41449C16.4783 2.41449 20.5428 6.47893 20.5428 11.4778C20.5428 16.4767 16.4767 20.5411 11.4794 20.5411Z" fill="white"/>
</svg>
