<svg id="add-to-cart" xmlns="http://www.w3.org/2000/svg" width="18.679" height="21.787" viewBox="0 0 18.679 21.787">
  <path id="Path_91" data-name="Path 91" d="M110.217,119.77a.671.671,0,0,0,.667.6.682.682,0,0,0,.07,0,.671.671,0,0,0,.6-.737l-.309-2.994a.671.671,0,0,0-1.335.138Z" transform="translate(-101.624 -105.653)" fill="#565252"/>
  <path id="Path_92" data-name="Path 92" d="M154.21,120.369a.68.68,0,0,0,.07,0,.671.671,0,0,0,.667-.6l.309-2.994a.671.671,0,0,0-1.335-.138l-.309,2.994A.671.671,0,0,0,154.21,120.369Z" transform="translate(-141.418 -105.654)" fill="#565252"/>
  <path id="Path_93" data-name="Path 93" d="M81.128,197.064a2.077,2.077,0,1,0,2.077,2.077A2.079,2.079,0,0,0,81.128,197.064Zm0,2.813a.735.735,0,1,1,.735-.736A.736.736,0,0,1,81.128,199.877Z" transform="translate(-73.532 -179.432)" fill="#565252"/>
  <path id="Path_94" data-name="Path 94" d="M158.568,197.064a2.077,2.077,0,1,0,2.077,2.077A2.079,2.079,0,0,0,158.568,197.064Zm0,2.813a.735.735,0,1,1,.735-.736A.736.736,0,0,1,158.568,199.877Z" transform="translate(-144.043 -179.432)" fill="#565252"/>
  <path id="Path_95" data-name="Path 95" d="M35.9,61.314a.671.671,0,0,0-.531-.261H22l-.562-2.16a.671.671,0,0,0-.649-.5h-2.75a.671.671,0,1,0,0,1.342h2.231l.557,2.14c0,.013.007.027.01.04l2.071,7.965a.671.671,0,0,0,.649.5H33.3a.671.671,0,0,0,.649-.5l2.077-7.985A.672.672,0,0,0,35.9,61.314Zm-3.126,7.725h-8.7L22.346,62.4H34.5Z" transform="translate(-17.365 -53.167)" fill="#565252"/>
  <path id="Path_96" data-name="Path 96" d="M111.583,6.695a.671.671,0,0,0,.949,0L114.7,4.522a.671.671,0,0,0-.949-.949L112.729,4.6V.671A.671.671,0,0,0,112.058,0h0a.671.671,0,0,0-.671.671V4.6l-1.026-1.026a.671.671,0,1,0-.949.949Z" transform="translate(-100.997 0)" fill="#565252"/>
</svg>
