<svg xmlns="http://www.w3.org/2000/svg" width="13.721" height="13.719" viewBox="0 0 13.721 13.719">
  <g id="_044-call-1" data-name="044-call-1" transform="translate(0 -0.018)">
    <g id="Group_50" data-name="Group 50" transform="translate(0 0.018)">
      <path id="Path_97" data-name="Path 97" d="M13.361,10.6l-.533-.355A6.827,6.827,0,0,0,6.888.046a.229.229,0,0,0,0,.457,6.37,6.37,0,0,1,5.558,9.489L10.583,8.75A.811.811,0,0,0,9.5,8.926l-.808,1.04a.346.346,0,0,1-.443.093l-.154-.085a9.3,9.3,0,0,1-2.424-1.9,9.337,9.337,0,0,1-1.9-2.424l-.084-.154a.346.346,0,0,1,.091-.445L4.811,4.24a.811.811,0,0,0,.177-1.085L3.136.378A.806.806,0,0,0,2.049.133L.888.831A1.638,1.638,0,0,0,.141,1.8c-.418,1.524-.1,4.153,3.77,8.027A15.867,15.867,0,0,0,8.276,13.1,6.359,6.359,0,0,1,.516,6.878a.229.229,0,1,0-.457,0,6.838,6.838,0,0,0,6.83,6.832,6.751,6.751,0,0,0,2.081-.328,5.629,5.629,0,0,0,1.895.355,4.051,4.051,0,0,0,1.075-.14,1.637,1.637,0,0,0,.969-.747l.7-1.161A.806.806,0,0,0,13.361,10.6Zm-.149.852-.7,1.161a1.182,1.182,0,0,1-.7.541,4.453,4.453,0,0,1-2.724-.211.228.228,0,0,0-.059-.023A14.058,14.058,0,0,1,4.234,9.5C.516,5.786.2,3.328.582,1.921a1.183,1.183,0,0,1,.541-.7l1.161-.7a.35.35,0,0,1,.472.106l1.006,1.51.844,1.266a.352.352,0,0,1-.076.471l-1.04.809a.8.8,0,0,0-.212,1.027l.083.15A9.7,9.7,0,0,0,5.343,8.395a9.71,9.71,0,0,0,2.529,1.982l.15.083a.8.8,0,0,0,1.027-.212l.809-1.04a.352.352,0,0,1,.471-.076l2.777,1.852A.35.35,0,0,1,13.212,11.454Z" transform="translate(0 -0.018)" fill="#f8f5f9"/>
    </g>
  </g>
</svg>
