<svg id="Group_35" data-name="Group 35" xmlns="http://www.w3.org/2000/svg" width="73.598" height="78.843" viewBox="0 0 73.598 78.843">
  <g id="Group_34" data-name="Group 34">
    <path id="Path_71" data-name="Path 71" d="M62,6.168a1.315,1.315,0,0,0-.583,2.564,34.187,34.187,0,1,1-11.05-.673L46.082,12.2a1.314,1.314,0,0,0,1.825,1.892l6.777-6.539a1.289,1.289,0,0,0,.364-.521,1.289,1.289,0,0,0,.048-.236,1.246,1.246,0,0,0,.045-.221c0-.016-.009-.029-.009-.045,0-.037.018-.07.014-.107a1.271,1.271,0,0,0-.093-.283c-.012-.035-.019-.07-.034-.1a1.261,1.261,0,0,0-.249-.37l-.03-.031a1.281,1.281,0,0,0-.18-.188L46.616.217a1.314,1.314,0,0,0-1.445,2.195l4.66,3.066A36.764,36.764,0,1,0,62,6.168Z" transform="translate(-17.029 0)" fill="#4b1e5f"/>
    <path id="Path_72" data-name="Path 72" d="M98.564,105.877h0a1.2,1.2,0,0,0-.128.043,1.255,1.255,0,0,0-.126.111,26.441,26.441,0,0,0-9.382,9.382.384.384,0,0,0-.154.254,26.084,26.084,0,0,0,0,26.029,1.234,1.234,0,0,0,.043.127,1.288,1.288,0,0,0,.162.21,26.439,26.439,0,0,0,9.332,9.3,1.236,1.236,0,0,0,.126.111,1.286,1.286,0,0,0,.176.073,26.1,26.1,0,0,0,25.93,0,1.277,1.277,0,0,0,.176-.073,1.253,1.253,0,0,0,.126-.111,26.439,26.439,0,0,0,9.332-9.3,1.307,1.307,0,0,0,.162-.21,1.263,1.263,0,0,0,.043-.127,26.084,26.084,0,0,0,0-26.029.381.381,0,0,0-.154-.253,26.438,26.438,0,0,0-9.383-9.383.383.383,0,0,0-.254-.154A26.083,26.083,0,0,0,98.564,105.877Zm14.328.464v-1.248a23.458,23.458,0,0,1,9.344,2.5l-.626,1.084a1.314,1.314,0,0,0,2.277,1.314l.628-1.088a23.823,23.823,0,0,1,6.842,6.842l-1.088.628a1.314,1.314,0,0,0,1.314,2.277l1.084-.626a23.457,23.457,0,0,1,2.5,9.344h-1.248a1.314,1.314,0,1,0,0,2.628h1.248a23.457,23.457,0,0,1-2.5,9.344l-1.084-.626a1.314,1.314,0,1,0-1.314,2.277l1.088.629a23.824,23.824,0,0,1-6.842,6.842l-.628-1.088a1.314,1.314,0,1,0-2.277,1.314l.626,1.084a23.457,23.457,0,0,1-9.344,2.5v-1.248a1.314,1.314,0,0,0-2.628,0v1.248a23.457,23.457,0,0,1-9.344-2.5l.626-1.084a1.314,1.314,0,0,0-2.277-1.314l-.628,1.088a23.824,23.824,0,0,1-6.842-6.842l1.088-.628a1.314,1.314,0,1,0-1.314-2.277l-1.084.626A23.457,23.457,0,0,1,87.99,130h1.248a1.314,1.314,0,1,0,0-2.628H87.99a23.457,23.457,0,0,1,2.5-9.344l1.084.626a1.314,1.314,0,1,0,1.314-2.277l-1.088-.628a23.824,23.824,0,0,1,6.842-6.842l.628,1.088a1.314,1.314,0,1,0,2.277-1.314l-.626-1.084a23.457,23.457,0,0,1,9.344-2.5v1.248a1.314,1.314,0,0,0,2.628,0Z" transform="translate(-74.781 -86.629)" fill="#4b1e5f"/>
    <path id="Path_73" data-name="Path 73" d="M225.77,171.981v9.386a5.246,5.246,0,1,0,6.384,6.384H237.6a1.314,1.314,0,0,0,0-2.628h-5.443a5.248,5.248,0,0,0-3.756-3.756v-9.386a1.314,1.314,0,0,0-2.628,0Zm3.943,14.456a2.628,2.628,0,1,1-2.628-2.628A2.632,2.632,0,0,1,229.713,186.437Z" transform="translate(-190.288 -144.384)" fill="#4b1e5f"/>
  </g>
</svg>
