<svg id="_046-chat-1" data-name="046-chat-1" xmlns="http://www.w3.org/2000/svg" width="18.829" height="14.218" viewBox="0 0 18.829 14.218">
  <g id="Group_49" data-name="Group 49" transform="translate(0 0)">
    <g id="Group_48" data-name="Group 48" transform="translate(0 0)">
      <path id="Path_96" data-name="Path 96" d="M18.676,59.241a1.153,1.153,0,0,0,1.153-1.153V48.1a1.153,1.153,0,0,0-1.153-1.153H3.69A1.153,1.153,0,0,0,2.537,48.1v8.764l-1.51,3.773a.384.384,0,0,0,.5.5l4.54-1.892ZM5.847,58.5l-3.766,1.57,1.2-2.993a.389.389,0,0,0,.027-.143V48.1a.384.384,0,0,1,.384-.384H18.676a.384.384,0,0,1,.384.384v9.991a.384.384,0,0,1-.384.384H6A.384.384,0,0,0,5.847,58.5Z" transform="translate(-1 -46.945)"/>
    </g>
  </g>
</svg>
