<svg id="Group_41" data-name="Group 41" xmlns="http://www.w3.org/2000/svg" width="53.276" height="53.345" viewBox="0 0 53.276 53.345">
  <path id="Path_85" data-name="Path 85" d="M28,.093a9.009,9.009,0,0,0-2.8.034A26.637,26.637,0,0,0,4.033,13.137a.856.856,0,0,0-.116.337A8.53,8.53,0,0,0,2.869,15.3l-.067.144A26.663,26.663,0,0,0,24.145,53.194a25.976,25.976,0,0,0,2.785.147c.009,0,.016,0,.024,0s.016,0,.025,0A26.53,26.53,0,0,0,49.04,41.574a.888.888,0,0,0,.178-.266A26.679,26.679,0,0,0,53.6,26.7v-.082A26.669,26.669,0,0,0,28,.093ZM2.1,26.7A25.018,25.018,0,0,1,4.411,16.2l.068-.146a5.366,5.366,0,0,1,1.06-1.728,1.8,1.8,0,0,1,.571-.385,3.059,3.059,0,0,1,1.225-.274,1.765,1.765,0,0,1,.754.151,1.217,1.217,0,0,1,.648.858A4.232,4.232,0,0,1,8.307,17a5.061,5.061,0,0,0-.37,3.629c.6,1.541,2.26,2.2,3.469,2.575l.164.047a4.722,4.722,0,0,1,2.571,1.278,4.441,4.441,0,0,1,.587,1.75,6.946,6.946,0,0,0,.666,2.114c1.049,1.89,3.387,2.456,4.784,2.794,1.943.47,3.885.957,5.819,1.446l.068.015V35a3.172,3.172,0,0,0-.888.653,7.793,7.793,0,0,0-1.3,2.195c-.165.368-.322.71-.49,1.007A5.239,5.239,0,0,1,22.109,40.4a4.172,4.172,0,0,1-.731.408,4.3,4.3,0,0,0-1.441.96,4.084,4.084,0,0,0-.864,1.927,4.188,4.188,0,0,1-.3.943,5.075,5.075,0,0,0-.691,2.32,4.425,4.425,0,0,0,2.076,3.45c.186.134.378.257.569.376A24.783,24.783,0,0,1,2.1,26.7Zm23.974,24.84q-.682-.025-1.332-.083a9.469,9.469,0,0,0-2.36-1.756c-.424-.247-.825-.481-1.187-.74a2.93,2.93,0,0,1-1.336-2.016,3.53,3.53,0,0,1,.493-1.5,5.675,5.675,0,0,0,.451-1.34,2.663,2.663,0,0,1,.453-1.154,2.822,2.822,0,0,1,.888-.555,5.6,5.6,0,0,0,1.053-.606,6.984,6.984,0,0,0,1.726-2.063c.213-.369.4-.773.572-1.164a11.578,11.578,0,0,1,.58-1.144V51.544Zm0-20.731c-1.819-.458-3.64-.917-5.47-1.359-1.509-.364-3.03-.813-3.651-1.931a5.532,5.532,0,0,1-.475-1.6,5.913,5.913,0,0,0-.9-2.465,6.135,6.135,0,0,0-3.512-1.927l-.146-.042c-.842-.257-2-.694-2.315-1.509A3.641,3.641,0,0,1,9.98,17.6a5.635,5.635,0,0,0,.481-3.361,2.973,2.973,0,0,0-1.6-2.016,3.659,3.659,0,0,0-1.886-.313,24.624,24.624,0,0,1,12.6-8.926,6.571,6.571,0,0,0,4.757,2.4c.109.005.217.008.324.008.417,0,.82-.037,1.215-.075.069-.006.131-.006.2-.012V21.582a2.861,2.861,0,0,0-2.212-.1,2.939,2.939,0,0,0-1.895,2.753c0,2,1.569,3.163,2.829,4.092.158.117.316.234.464.345a5.444,5.444,0,0,1,.819.9v1.238Zm0-3.743-.224-.167c-1.272-.939-2.107-1.633-2.107-2.674a1.164,1.164,0,0,1,.759-1.09c.368-.144.7-.012,1.295.252.1.043.184.077.277.116v3.561Zm0-23.553c-.123.011-.246.02-.366.031a9.04,9.04,0,0,1-1.287.06,4.841,4.841,0,0,1-2.882-1.154,24.81,24.81,0,0,1,4.535-.582ZM51.8,25.742l-9.755,0a43.65,43.65,0,0,0-1.371-10.211,44.576,44.576,0,0,0,7.288-2.113A24.7,24.7,0,0,1,51.8,25.742Zm-4.86-13.811a44.1,44.1,0,0,1-6.76,1.892c-1.5-4.779-3.818-8.67-6.659-11.094A24.943,24.943,0,0,1,46.937,11.931ZM27.847,1.864h.028c.035.007.076.01.116.017.024.006.05.012.074.017,4.4.812,8.19,5.594,10.334,12.259a68.566,68.566,0,0,1-10.553.923Zm0,14.984a70.007,70.007,0,0,0,11.061-.966,41.709,41.709,0,0,1,1.359,9.863H27.847Zm0,19.568V31.681a.78.78,0,0,0,0-.129V27.521H40.265a42.207,42.207,0,0,1-1.323,9.865,70,70,0,0,0-11.1-.969h0Zm0,14.984V38.185a68.592,68.592,0,0,1,10.6.928c-2.177,6.831-6.073,11.6-10.6,12.288Zm15.82-6.29a24.772,24.772,0,0,1-10.461,5.653c2.951-2.4,5.391-6.389,6.956-11.327a43.643,43.643,0,0,1,6.864,1.93A24.833,24.833,0,0,1,43.667,45.109Zm4.363-5.239a44.261,44.261,0,0,0-7.37-2.148,43.193,43.193,0,0,0,1.384-10.2H51.8A24.9,24.9,0,0,1,48.03,39.871Z" transform="translate(-0.321 0)" fill="#fff"/>
</svg>
