<svg xmlns="http://www.w3.org/2000/svg" width="13.823" height="13.821" viewBox="0 0 13.823 13.821">
  <g id="quit" transform="translate(-160.795 -315.361)">
    <g id="Group_55" data-name="Group 55" transform="translate(160.795 315.361)">
      <path id="Path_91" data-name="Path 91" d="M161.978,174.6a1.162,1.162,0,0,1-.821-1.983l11.5-11.5a1.162,1.162,0,0,1,1.643,1.643l-11.5,11.5a1.163,1.163,0,0,1-.822.341Zm0,0" transform="translate(-160.815 -160.774)" fill="#b3b7bc"/>
      <path id="Path_92" data-name="Path 92" d="M173.454,174.614a1.152,1.152,0,0,1-.821-.341l-11.5-11.5a1.162,1.162,0,0,1,1.643-1.643l11.5,11.5a1.161,1.161,0,0,1-.822,1.982Zm0,0" transform="translate(-160.795 -160.793)" fill="#b3b7bc"/>
    </g>
  </g>
</svg>
