<svg width="21" height="25" viewBox="0 0 21 25" fill="none" xmlns="http://www.w3.org/2000/svg">
<path d="M0 6.88086V19.5826C0 22.3986 2.13185 24.6906 4.75405 24.6906H15.4859C18.1068 24.6906 20.24 22.4001 20.24 19.5826V6.88086H0ZM18.5943 8.64908V19.5811C18.5943 21.4229 17.2001 22.9209 15.4859 22.9209H4.75405C3.03991 22.9209 1.64569 21.4229 1.64569 19.5811V8.64908H18.5943Z" fill="#616160"/>
<path d="M6.48218 5.67696C6.48218 3.52146 8.11389 1.76823 10.12 1.76823C12.1261 1.76823 13.7578 3.52146 13.7578 5.67696V5.75201H15.4035V5.67696C15.4035 2.54728 13.0328 0 10.12 0C7.20723 0 4.83649 2.54728 4.83649 5.67696V5.75201H6.48218V5.67696Z" fill="#616160"/>
</svg>
