<?xml version="1.0" standalone="no"?>
<!DOCTYPE svg PUBLIC "-//W3C//DTD SVG 20010904//EN"
 "http://www.w3.org/TR/2001/REC-SVG-20010904/DTD/svg10.dtd">
<svg version="1.0" xmlns="http://www.w3.org/2000/svg"
 width="1080.000000pt" height="535.000000pt" viewBox="0 0 1080.000000 535.000000"
 preserveAspectRatio="xMidYMid meet">
<metadata>
Created by potrace 1.16, written by Peter Selinger 2001-2019
</metadata>
<g transform="translate(0.000000,535.000000) scale(0.100000,-0.100000)"
fill="#000000" stroke="none">
<path d="M60 2655 l0 -2585 5335 0 5335 0 0 2585 0 2585 -5335 0 -5335 0 0
-2585z m1934 1716 c24 -17 50 -41 59 -54 8 -13 22 -30 29 -38 19 -19 79 -154
111 -249 22 -64 78 -221 87 -245 5 -11 16 -42 25 -70 10 -27 21 -59 25 -70 4
-11 15 -40 23 -65 22 -64 78 -221 87 -245 5 -11 16 -42 25 -70 10 -27 21 -59
25 -70 5 -11 23 -60 40 -110 17 -49 38 -104 46 -122 8 -17 14 -37 14 -45 0 -8
4 -18 8 -23 4 -6 16 -35 26 -65 10 -30 22 -64 26 -75 5 -11 23 -60 40 -110 17
-49 38 -104 46 -122 8 -17 14 -38 14 -46 0 -9 4 -18 9 -22 13 -7 25 -88 17
-113 -4 -12 -31 -29 -79 -47 -39 -15 -85 -34 -102 -41 -79 -34 -160 -64 -175
-64 -26 0 -47 29 -75 105 -36 94 -95 274 -95 287 0 6 -7 20 -17 30 -15 17 -41
18 -413 18 -301 0 -400 -3 -413 -13 -10 -6 -39 -77 -66 -155 -27 -79 -52 -146
-55 -150 -3 -3 -6 -13 -6 -23 0 -30 -32 -88 -52 -95 -16 -5 -99 19 -173 51
-16 7 -68 27 -115 45 -46 17 -88 36 -92 43 -19 29 3 119 61 252 5 11 16 43 26
70 9 28 20 59 25 70 22 57 42 109 70 190 18 50 36 99 40 110 9 22 107 288 147
400 14 39 35 97 48 130 13 33 37 101 55 150 17 50 36 99 41 110 14 33 78 203
115 308 39 110 68 162 120 213 59 57 76 62 222 63 132 1 134 1 176 -28z m2417
-1017 l57 -16 22 -72 c13 -39 26 -80 30 -91 5 -11 16 -47 25 -80 10 -33 31
-103 47 -155 16 -52 34 -108 39 -125 5 -16 20 -64 33 -105 13 -41 31 -102 41
-135 9 -33 33 -109 52 -168 44 -136 43 -137 -77 -137 -106 0 -112 5 -144 121
l-22 84 -177 3 -176 2 -31 -97 c-17 -53 -36 -101 -43 -105 -6 -4 -53 -8 -104
-8 -99 0 -132 14 -114 48 5 9 46 132 91 272 45 140 88 271 96 290 7 19 27 80
45 135 17 55 48 149 68 209 l37 109 44 18 c56 23 89 23 161 3z m630 6 c18 -10
19 -27 19 -540 0 -609 12 -550 -108 -550 -112 0 -103 -48 -100 559 3 451 5
523 18 531 20 13 146 13 171 0z m637 -17 c4 -24 -23 -110 -40 -130 -6 -8 -34
-13 -69 -13 -84 0 -109 -33 -109 -141 l0 -39 76 0 c108 0 114 -5 114 -94 0
-48 -4 -77 -13 -84 -7 -6 -49 -12 -92 -14 l-80 -3 -2 -269 c-1 -211 -4 -271
-15 -277 -7 -5 -48 -9 -90 -9 -66 0 -79 3 -88 19 -6 12 -10 120 -10 280 l0
261 -38 0 c-54 0 -62 13 -62 97 0 80 10 93 68 93 l29 0 5 115 c5 106 7 117 33
151 48 62 117 83 275 81 100 -2 105 -3 108 -24z m1852 0 c79 -37 125 -90 155
-182 35 -106 5 -212 -77 -267 -44 -30 -45 -31 -24 -45 11 -8 28 -17 37 -21 28
-11 86 -91 103 -141 30 -89 12 -231 -39 -309 -31 -46 -108 -85 -200 -98 -102
-14 -408 -13 -423 2 -18 18 -17 1059 1 1077 9 9 61 11 217 9 183 -3 210 -6
250 -25z m2010 8 c6 -12 10 -126 10 -300 l0 -281 28 0 c35 0 55 20 78 80 24
63 75 141 112 172 23 19 48 28 92 33 82 10 92 1 88 -84 -3 -64 -4 -66 -31 -69
-30 -4 -54 -35 -96 -129 -14 -29 -35 -60 -48 -68 -25 -17 -31 -35 -10 -35 33
0 79 -71 132 -204 20 -49 45 -107 56 -128 29 -58 16 -68 -85 -68 -95 0 -118
12 -137 68 -12 37 -43 109 -83 192 -19 40 -25 45 -58 48 l-38 3 0 -136 c0 -75
-5 -145 -10 -156 -9 -16 -22 -19 -88 -19 -42 0 -83 4 -90 9 -10 6 -13 114 -12
541 0 293 3 537 6 541 3 5 43 9 89 9 73 0 86 -3 95 -19z m-3365 -321 c46 -20
87 -62 103 -105 7 -17 16 -127 20 -246 7 -193 10 -219 30 -257 12 -24 22 -49
22 -57 0 -14 -108 -85 -130 -85 -7 0 -27 9 -45 20 l-32 20 -49 -22 c-71 -31
-200 -32 -268 0 -89 41 -136 114 -136 212 0 107 49 181 150 229 46 21 70 26
143 26 l87 0 0 40 c0 22 -4 45 -8 52 -17 26 -67 35 -168 28 l-102 -7 -17 53
c-9 30 -18 59 -21 64 -2 6 2 20 10 30 12 16 31 21 103 26 128 9 261 0 308 -21z
m2145 -4 c30 -16 55 -39 75 -71 l30 -48 6 -221 c5 -210 13 -265 38 -281 25
-15 11 -53 -26 -76 -21 -13 -40 -26 -43 -30 -3 -4 -18 -11 -33 -14 -22 -6 -36
-2 -60 15 -30 22 -32 23 -60 6 -17 -9 -63 -22 -103 -28 -200 -31 -341 87 -319
267 8 72 42 124 105 167 61 41 163 65 230 54 44 -7 49 0 42 61 -3 36 -8 43
-34 52 -36 13 -102 13 -172 2 -68 -11 -86 7 -86 88 0 37 5 63 13 68 19 12 161
21 262 16 67 -3 101 -10 135 -27z m719 17 c46 -8 125 -86 134 -132 13 -63 8
-616 -5 -629 -16 -16 -149 -16 -171 1 -14 11 -17 44 -19 284 -4 321 4 302
-120 303 -56 0 -78 -4 -79 -12 0 -7 0 -135 1 -284 2 -320 7 -304 -104 -304
-115 0 -107 -31 -104 379 l3 355 32 19 c55 32 302 44 432 20z m-2292 -265 c54
-50 70 -132 36 -189 -24 -40 -94 -73 -136 -65 -43 8 -93 61 -101 106 -11 70
24 147 79 171 32 14 95 3 122 -23z m-3910 -1216 c25 -16 33 -69 33 -226 0
-177 -8 -217 -46 -235 -34 -15 -1986 -16 -2015 -1 -18 10 -19 23 -19 234 0
122 3 226 7 229 9 10 2025 8 2040 -1z"/>
<path d="M1770 3708 c-54 -172 -110 -345 -156 -483 -20 -60 -40 -123 -44 -140
-4 -16 -11 -38 -15 -47 -7 -17 10 -18 265 -18 255 0 272 1 265 18 -4 9 -23 67
-42 127 -19 61 -52 162 -73 225 -21 63 -50 156 -65 205 -15 50 -33 106 -40
125 -7 19 -19 54 -26 78 -6 23 -16 42 -20 42 -4 0 -26 -60 -49 -132z"/>
<path d="M4303 2982 c-11 -48 -35 -125 -53 -172 -17 -47 -32 -92 -33 -100 -2
-12 18 -15 112 -18 l113 -3 -5 23 c-3 13 -17 74 -31 136 -14 62 -30 122 -36
132 -5 10 -10 29 -10 42 0 22 -16 48 -29 48 -4 0 -16 -39 -28 -88z"/>
<path d="M7258 3174 c-5 -4 -8 -58 -8 -121 l0 -113 81 0 c66 0 86 4 110 21 43
30 62 82 49 131 -19 67 -42 81 -140 86 -47 2 -88 1 -92 -4z"/>
<path d="M7258 2744 c-5 -4 -8 -65 -8 -135 0 -150 0 -149 102 -149 110 0 162
52 161 164 -1 52 -4 62 -32 90 -30 30 -36 31 -124 34 -50 2 -95 0 -99 -4z"/>
<path d="M5971 2618 c-52 -12 -80 -41 -81 -85 0 -53 36 -85 102 -91 59 -5 104
10 91 31 -4 6 -10 43 -13 82 -5 66 -6 70 -30 72 -14 1 -45 -3 -69 -9z"/>
<path d="M8110 2618 c-64 -14 -80 -32 -80 -90 0 -44 3 -50 33 -68 38 -23 124
-27 151 -7 15 11 17 17 7 35 -6 12 -13 45 -16 73 -2 28 -5 53 -7 54 -12 10
-50 11 -88 3z"/>
</g>
</svg>
