<svg width="30" height="33" viewBox="0 0 30 33" fill="none" xmlns="http://www.w3.org/2000/svg">
    <g clip-path="url(#clip0)">
        <path d="M0.43689 9.39114V26.2301C0.43689 29.9633 3.47068 33.002 7.20227 33.002H22.4746C26.2042 33.002 29.24 29.9653 29.24 26.2301V9.39114H0.43689ZM26.898 11.7353V26.2281C26.898 28.6698 24.9139 30.6558 22.4746 30.6558H7.20227C4.76292 30.6558 2.77883 28.6698 2.77883 26.2281V11.7353H26.898Z" fill="#616160"/>
        <path d="M9.66152 7.79514C9.66152 4.93757 11.9836 2.6133 14.8384 2.6133C17.6933 2.6133 20.0154 4.93757 20.0154 7.79514V7.89464H22.3573V7.79514C22.3573 3.64609 18.9836 0.269135 14.8384 0.269135C10.6933 0.269135 7.31958 3.64609 7.31958 7.79514V7.89464H9.66152V7.79514Z" fill="#616160"/>
    </g>
    <defs>
        <clipPath id="clip0">
            <rect width="28.8031" height="32.7308" fill="white" transform="translate(0.43689 0.269135)"/>
        </clipPath>
    </defs>
</svg>
