<svg width="19" height="16" viewBox="0 0 19 16" fill="none" xmlns="http://www.w3.org/2000/svg">
<path d="M13.6926 11.3503H13.0882H2.78341C2.53444 11.3503 2.31539 11.1888 2.24357 10.9543L0.0231915 3.6137C-0.0270805 3.44634 0.00523567 3.26483 0.111767 3.12457C0.218298 2.98431 0.385874 2.9018 0.563026 2.9018H14.8884L15.6461 0.396022C15.7167 0.161473 15.9369 0 16.1859 0H18.4374C18.7474 0 19 0.248692 19 0.553959C19 0.860405 18.7474 1.10792 18.4374 1.10792H16.6061L15.852 3.60074C15.8496 3.60899 15.8472 3.61724 15.8448 3.62549L13.841 10.2471C14.9842 10.3225 15.8915 11.2619 15.8915 12.4063C15.8915 13.6003 14.9052 14.5715 13.6926 14.5715H13.1336C12.8895 15.3965 12.115 16 11.2005 16C10.286 16 9.5116 15.3954 9.26741 14.5715H6.28096C6.03678 15.3965 5.26234 16 4.34785 16C3.43217 16 2.65893 15.3954 2.41474 14.5715H1.68938C1.37816 14.5715 1.1268 14.3228 1.1268 14.0175C1.1268 13.7123 1.37936 13.4636 1.68938 13.4636H2.41474C2.65893 12.6385 3.43337 12.0351 4.34785 12.0351C5.26234 12.0351 6.03678 12.6397 6.28096 13.4636H9.26741C9.5116 12.6385 10.286 12.0351 11.2005 12.0351C12.115 12.0351 12.8895 12.6397 13.1336 13.4636H13.6926C14.2839 13.4636 14.7651 12.9898 14.7651 12.4075C14.7651 11.8253 14.2839 11.3503 13.6926 11.3503ZM14.5532 4.00972H1.31712L3.20235 10.2424H12.668L14.5532 4.00972ZM4.34666 13.143C3.8571 13.143 3.4585 13.5355 3.4585 14.0175C3.4585 14.4996 3.8571 14.8921 4.34666 14.8921C4.83622 14.8921 5.23481 14.4996 5.23481 14.0175C5.23481 13.5355 4.83622 13.143 4.34666 13.143ZM11.2005 13.143C10.711 13.143 10.3124 13.5355 10.3124 14.0175C10.3124 14.4996 10.711 14.8921 11.2005 14.8921C11.6901 14.8921 12.0887 14.4996 12.0887 14.0175C12.0887 13.5355 11.6901 13.143 11.2005 13.143Z" fill="white"/>
</svg>
