<svg width="21" height="22" viewBox="0 0 21 22" fill="none" xmlns="http://www.w3.org/2000/svg">
<path d="M21 10.5326C20.9476 15.6475 17.2922 20.0392 12.2859 20.9218C10.3052 21.2711 8.37124 21.0669 6.50738 20.2927C6.31649 20.2136 6.15239 20.2113 5.96207 20.2635C4.45321 20.6787 2.93978 21.0778 1.43377 21.505C0.738596 21.7023 0.141433 21.2659 0.0662174 20.6769C0.0439947 20.5037 0.0747646 20.3145 0.11921 20.143C0.473634 18.7764 0.826348 17.4092 1.20527 16.0495C1.28676 15.7565 1.24858 15.5305 1.11866 15.2673C-2.0022 8.94468 1.70158 1.47167 8.57352 0.18134C14.1708 -0.869274 19.5162 2.74881 20.7105 8.35113C20.8632 9.06626 20.906 9.8049 21 10.5326ZM2.20643 19.3797C2.35003 19.3476 2.44917 19.3293 2.54604 19.3029C3.69991 18.9892 4.85435 18.6801 6.00538 18.3566C6.28686 18.2775 6.53188 18.2981 6.79913 18.4237C8.48406 19.2169 10.2442 19.4376 12.0745 19.097C17.0432 18.1725 20.1755 13.0995 18.8079 8.18826C17.5743 3.75928 13.1354 1.06679 8.64817 2.02622C4.70848 2.86867 1.82979 6.43514 1.82238 10.4891C1.81953 12.1114 2.21726 13.6266 3.05261 15.0173C3.2019 15.2656 3.22925 15.503 3.15289 15.7806C2.89705 16.7096 2.65545 17.6427 2.41043 18.5746C2.34319 18.8286 2.28108 19.0844 2.20643 19.3797Z" fill="#606060"/>
<path d="M11.3413 13.141C10.7019 13.141 10.1167 13.141 9.50419 13.141C9.44379 12.2533 9.47513 11.3993 10.1082 10.7117C10.4615 10.3287 10.8672 9.99432 11.2518 9.64105C11.4342 9.4736 11.6302 9.32105 11.8085 9.15015C12.4798 8.50728 12.3664 7.51918 11.5709 7.03688C10.5897 6.44161 9.26145 6.84878 8.79079 7.89423C8.70133 8.09323 8.64093 8.30485 8.55204 8.55259C7.95544 8.47861 7.34916 8.40406 6.6973 8.3232C6.73092 8.11216 6.74288 7.92405 6.79132 7.7457C7.10699 6.58441 7.86028 5.82225 8.97598 5.44433C10.0449 5.08189 11.1282 5.12146 12.188 5.50684C12.8877 5.76146 13.4405 6.22197 13.8388 6.85566C14.4371 7.80592 14.3926 8.93797 13.6593 9.78328C13.2068 10.3051 12.6655 10.7502 12.1641 11.2284C12.0746 11.3139 11.9852 11.3993 11.8911 11.4785C11.5071 11.8019 11.3435 12.2229 11.3413 12.7172C11.3407 12.8479 11.3413 12.9799 11.3413 13.141Z" fill="#606060"/>
<path d="M11.5037 13.8442C11.5037 14.5244 11.5037 15.1787 11.5037 15.856C10.8324 15.856 10.1766 15.856 9.50476 15.856C9.50476 15.1799 9.50476 14.5261 9.50476 13.8442C10.1652 13.8442 10.8193 13.8442 11.5037 13.8442Z" fill="#606060"/>
</svg>
