<svg width="26" height="26" viewBox="0 0 26 26" fill="none" xmlns="http://www.w3.org/2000/svg">
    <path d="M18.9622 0H7.03777C3.15707 0 0 3.15707 0 7.03777V18.9622C0 22.8429 3.15707 26 7.03777 26H18.9622C22.8429 26 26 22.8429 26 18.9622V7.03777C26 3.15707 22.8429 0 18.9622 0ZM13 20.1094C9.07969 20.1094 5.89062 16.9203 5.89062 13C5.89062 9.07969 9.07969 5.89062 13 5.89062C16.9203 5.89062 20.1094 9.07969 20.1094 13C20.1094 16.9203 16.9203 20.1094 13 20.1094ZM20.279 7.56742C19.1207 7.56742 18.1782 6.62543 18.1782 5.4666C18.1782 4.30777 19.1202 3.36578 20.279 3.36578C21.4378 3.36578 22.3798 4.30828 22.3798 5.4666C22.3798 6.62492 21.4378 7.56742 20.279 7.56742Z" fill="#68BF5F"/>
    <path d="M13 7.41504C9.92063 7.41504 7.41508 9.92058 7.41508 13C7.41508 16.0793 9.92063 18.5849 13 18.5849C16.0794 18.5849 18.5849 16.0793 18.5849 13C18.5849 9.92058 16.0794 7.41504 13 7.41504Z" fill="#68BF5F"/>
    <path d="M20.279 4.89014C19.9611 4.89014 19.7026 5.14861 19.7026 5.4665C19.7026 5.78439 19.9616 6.04287 20.279 6.04287C20.5969 6.04287 20.8559 5.78439 20.8559 5.4665C20.8559 5.14861 20.5974 4.89014 20.279 4.89014Z" fill="#68BF5F"/>
</svg>
