<?xml version="1.0" encoding="utf-8"?>
<!-- Generator: Adobe Illustrator 24.0.0, SVG Export Plug-In . SVG Version: 6.00 Build 0)  -->
<svg version="1.1" id="Layer_1" xmlns="http://www.w3.org/2000/svg" xmlns:xlink="http://www.w3.org/1999/xlink" x="0px" y="0px"
	 viewBox="0 0 29 33" style="enable-background:new 0 0 29 33;" xml:space="preserve">
<style type="text/css">
	.st0{fill:#616160;}
</style>
<g>
	<path class="st0" d="M0,9.2v17C0,29.9,3.1,33,6.8,33h15.4c3.8,0,6.8-3.1,6.8-6.8v-17H0z M26.6,11.6v14.6c0,2.5-2,4.5-4.5,4.5H6.8
		c-2.5,0-4.5-2-4.5-4.5V11.6H26.6z"/>
	<path class="st0" d="M9.3,7.6c0-2.9,2.3-5.2,5.2-5.2c2.9,0,5.2,2.3,5.2,5.2v0.1h2.4V7.6c0-4.2-3.4-7.6-7.6-7.6
		c-4.2,0-7.6,3.4-7.6,7.6v0.1h2.4V7.6z"/>
</g>
</svg>
