<svg width="28" height="40" viewBox="0 0 28 40" fill="none" xmlns="http://www.w3.org/2000/svg">
    <g clip-path="url(#clip0)">
        <path d="M13.9546 0C6.25971 0 0 6.30851 0 14.0633C0 16.6836 0.720789 19.239 2.08299 21.4571L13.1587 39.4465C13.3711 39.7903 13.7443 40 14.1476 40C14.1498 40 14.1541 40 14.1562 40C14.5617 39.9978 14.9371 39.7816 15.1452 39.4293L25.9398 21.2669C27.2269 19.0963 27.907 16.6036 27.907 14.0612C27.907 6.30851 21.6473 0 13.9546 0ZM23.9448 20.0649L14.1305 36.5777L4.05873 20.2227C2.92392 18.3764 2.30824 16.2469 2.30824 14.0633C2.30824 7.60134 7.5404 2.3284 13.9524 2.3284C20.3644 2.3284 25.588 7.60134 25.588 14.0633C25.5902 16.182 25.0152 18.2575 23.9448 20.0649Z" fill="#606060"/>
        <path d="M13.9546 7.03055C10.1082 7.03055 6.97836 10.1848 6.97836 14.0611C6.97836 17.9137 10.0567 21.0917 13.9546 21.0917C17.8996 21.0917 20.9308 17.8705 20.9308 14.0611C20.9308 10.1848 17.8009 7.03055 13.9546 7.03055ZM13.9546 18.7655C11.376 18.7655 9.28874 16.6533 9.28874 14.0633C9.28874 11.4776 11.391 9.36111 13.9546 9.36111C16.5181 9.36111 18.614 11.4798 18.614 14.0633C18.614 16.6165 16.5739 18.7655 13.9546 18.7655Z" fill="#606060"/>
    </g>
    <defs>
        <clipPath id="clip0">
            <rect width="27.907" height="40" fill="white"/>
        </clipPath>
    </defs>
</svg>
