<svg width="22" height="22" viewBox="0 0 22 22" fill="none" xmlns="http://www.w3.org/2000/svg">
<path d="M21.8662 20.5699L15.4751 14.1788C16.6871 12.6817 17.4171 10.7794 17.4171 8.70854C17.4171 3.90626 13.5108 0 8.70854 0C3.90626 0 0 3.90626 0 8.70854C0 13.5108 3.90626 17.4171 8.70854 17.4171C10.7794 17.4171 12.683 16.6871 14.1788 15.4751L20.5699 21.8662C20.7483 22.0446 21.0395 22.0446 21.218 21.8662L21.8662 21.218C22.0446 21.0383 22.0446 20.7483 21.8662 20.5699ZM8.70854 15.5829C4.91753 15.5829 1.83292 12.4995 1.83292 8.7073C1.83292 4.91505 4.91629 1.83168 8.70854 1.83168C12.5008 1.83168 15.5842 4.91505 15.5842 8.7073C15.5842 12.4995 12.4995 15.5829 8.70854 15.5829Z" fill="#606060"/>
</svg>
