<svg width="18" height="33" viewBox="0 0 18 33" fill="none" xmlns="http://www.w3.org/2000/svg">
<path d="M11.6195 1.83252H6.37989C6.04033 1.83252 5.76401 2.12086 5.76401 2.4752C5.76401 2.82955 6.04033 3.11789 6.37989 3.11789H11.6195C11.9591 3.11789 12.2354 2.82955 12.2354 2.4752C12.2354 2.12086 11.9597 1.83252 11.6195 1.83252Z" fill="#616160"/>
<path d="M8.51001 31.2291H9.48879C10.1391 31.2291 10.6684 30.5633 10.6684 29.745V29.5021C10.6684 28.6838 10.1391 28.0181 9.48879 28.0181H8.51063C7.86036 28.0181 7.33105 28.6838 7.33105 29.5021V29.745C7.33105 30.5633 7.85974 31.2291 8.51001 31.2291ZM8.30369 29.745V29.5021C8.30369 29.3445 8.39642 29.2163 8.51063 29.2163H9.48941C9.60362 29.2163 9.69634 29.3445 9.69634 29.5021V29.745C9.69634 29.8994 9.60178 30.0301 9.48941 30.0301H8.51063C8.39826 30.0301 8.30369 29.8994 8.30369 29.745Z" fill="#616160"/>
<path d="M17.9994 4.75136C17.9994 4.75072 17.9994 4.75072 17.9994 4.75008V2.07291C17.9994 1.51992 17.7925 0.999612 17.4173 0.608097C17.0421 0.216582 16.5435 0 16.0136 0H1.98642C0.890973 0 0 0.929767 0 2.07291V30.9271C0 32.0702 0.890973 33 1.98642 33H16.0136C17.109 33 18 32.0702 18 30.9277V26.8902C18 26.8896 18 26.8896 18 26.8889V4.75136H17.9994ZM16.7676 30.9271C16.7676 31.3609 16.4293 31.714 16.0142 31.714H1.98642C1.57072 31.714 1.23238 31.3609 1.23238 30.9277V27.5323H16.7676V30.9271ZM16.7676 26.2462H1.23238V5.3947H16.7676V26.2462ZM1.23238 4.10866V2.07291C1.23238 1.63911 1.57072 1.28604 1.98642 1.28604H16.0136C16.4293 1.28604 16.7676 1.63911 16.7676 2.07291V4.10866H1.23238Z" fill="#616160"/>
</svg>
